<svg width="580" height="501" viewBox="0 0 580 501" fill="none" xmlns="http://www.w3.org/2000/svg">
<path d="M576.41 388.182C579.749 330.273 503.246 318.76 538.475 213.706C565.185 134.095 536.403 102.262 479.472 93.7425C412.353 83.6112 426.456 25.817 359.336 11.4261C285.078 -4.46161 273.509 51.3179 214.103 79.5242C155.848 107.213 65.5297 95.2391 64.2058 169.669C63.515 208.698 104.501 235.522 100.299 270.406C94.0814 322.041 8.36882 334.014 27.4224 394.456C38.1293 428.304 77.6757 442.292 106.688 431.527C135.355 420.878 148.019 415.64 173.29 418.633L192.171 423.123C254.685 446.552 253.649 458.007 321.056 434.003C392.551 421.914 431.809 467.908 503.361 458.41C537.382 453.92 573.762 433.715 576.41 388.182Z" fill="#F0F7EE"/>
<g style="mix-blend-mode:multiply" opacity="0.6">
<path d="M153.776 76.2431V74.3435H167.418V67.2631H146.12V69.1052H125.224V62.0824H127.124V67.148H144.22V60.1252H136.679V52.9873H117.683V42.1077H132.304V44.0073H119.583V51.0877H144.22V52.9873H138.579V58.2256H159.877V51.1452H147.271V44.6981H149.171V49.2456H170.469V42.2228H163.677V40.2656H172.369V51.1452H161.777V60.1252H146.12V65.3635H169.318V76.2431H153.776Z" fill="#AFDEDC"/>
</g>
<g style="mix-blend-mode:multiply" opacity="0.6">
<path d="M39.6262 311.622V309.665H53.2689V302.642H31.9702V304.427H11.0745V297.404H12.9741V302.527H30.0706V295.447H22.5297V288.366H3.53369V277.487H18.1549V279.386H5.4333V286.409H30.0706V288.366H24.4294V293.547H45.728V286.524H33.1215V280.019H35.0211V284.567H56.3198V277.544H49.5272V275.645H58.2194V286.524H47.6276V295.447H31.9702V300.743H55.1685V311.622H39.6262Z" fill="#AFDEDC"/>
</g>
<path d="M578.828 483.508C578.828 492.948 449.481 500.604 289.914 500.604C130.347 500.604 1.00098 492.948 1.00098 483.508C1.00098 474.067 130.347 466.469 289.914 466.469C449.481 466.469 578.828 474.067 578.828 483.508Z" fill="#EAE8ED"/>
<path d="M361.927 460.482H129.196V123.388H361.927V460.482Z" fill="#A1A1A1"/>
<g style="mix-blend-mode:multiply">
<path d="M353.81 123.388V430.779C353.81 443.271 343.679 453.344 331.245 453.344H129.196V460.482H361.927V123.388H353.81Z" fill="#A1A1A1"/>
</g>
<path d="M346.097 342.591H145.026V151.537H346.097V342.591Z" fill="#8DCCFF"/>
<g style="mix-blend-mode:overlay">
<path d="M268.731 151.537L169.03 342.591H146.695L246.454 151.537H268.731Z" fill="#999999"/>
</g>
<g style="mix-blend-mode:overlay">
<path d="M290.49 151.537L190.732 342.591H181.406L281.107 151.537H290.49Z" fill="#999999"/>
</g>
<g style="mix-blend-mode:overlay">
<path d="M346.097 185.845V228.557L286.576 342.591H264.298L346.097 185.845Z" fill="#999999"/>
</g>
<g style="mix-blend-mode:overlay">
<path d="M189.35 151.537L145.026 236.443V193.674L167.015 151.537H189.35Z" fill="#999999"/>
</g>
<g style="mix-blend-mode:overlay">
<path d="M346.097 252.274V270.234L308.335 342.591H298.952L346.097 252.274Z" fill="#999999"/>
</g>
<path d="M250.08 348.636H241.043V145.493H250.08V348.636Z" fill="#A1A1A1"/>
<path d="M374.188 460.482H116.935V480.4H374.188V460.482Z" fill="#7C7C7C"/>
<path d="M128.045 140.312C119.928 140.312 113.308 133.692 113.308 125.576V111.875H142.723V125.576C142.723 133.692 136.104 140.312 127.987 140.312H128.045Z" fill="#114D8F"/>
<path d="M142.723 110.609V124.309C142.723 132.426 149.286 138.988 157.402 138.988C165.519 138.988 172.081 132.426 172.081 124.309V110.609H142.723Z" fill="#E2E3EB"/>
<path d="M186.76 140.312C178.701 140.312 172.081 133.692 172.081 125.576V111.875H201.496V125.576C201.496 133.692 194.876 140.312 186.76 140.312Z" fill="#114D8F"/>
<path d="M216.175 140.312C224.292 140.312 230.854 133.692 230.854 125.576V111.875H201.496V125.576C201.496 133.692 208.059 140.312 216.175 140.312Z" fill="#E2E3EB"/>
<path d="M245.533 140.312C253.649 140.312 260.269 133.692 260.269 125.576V111.875H230.854V125.576C230.854 133.692 237.416 140.312 245.533 140.312Z" fill="#114D8F"/>
<path d="M363.078 140.312C371.195 140.312 377.814 133.692 377.814 125.576V111.875H348.399V125.576C348.399 133.692 354.962 140.312 363.078 140.312Z" fill="#114D8F"/>
<path d="M333.72 140.312C341.837 140.312 348.399 133.692 348.399 125.576V111.875H319.042V125.576C319.042 133.692 325.604 140.312 333.72 140.312Z" fill="#E2E3EB"/>
<path d="M289.627 111.875V125.576C289.627 133.692 296.189 140.312 304.305 140.312C312.422 140.312 319.042 133.692 319.042 125.576V111.875H289.627Z" fill="#114D8F"/>
<path d="M274.948 140.312C266.831 140.312 260.269 133.692 260.269 125.576V111.875H289.627V125.576C289.627 133.692 283.064 140.312 274.948 140.312Z" fill="#E2E3EB"/>
<path d="M187.163 73.8257L172.081 111.933H142.723L164.886 73.8257H187.163Z" fill="white"/>
<path d="M209.152 73.8257L201.496 111.933H172.081L187.163 73.8257H209.152Z" fill="#14539A"/>
<path d="M164.886 73.8257L142.723 111.933H113.308L144.911 76.3585C146.292 74.8043 148.825 73.8257 151.3 73.8257H164.886Z" fill="#14539A"/>
<path d="M209.152 73.8257L201.496 111.933H230.854L232.523 73.8257H209.152Z" fill="white"/>
<path d="M303.96 73.8257L319.042 111.933H348.399L326.237 73.8257H303.96Z" fill="white"/>
<path d="M281.971 73.8257L289.627 111.933H319.042L303.96 73.8257H281.971Z" fill="#14539A"/>
<path d="M326.237 73.8257L348.399 111.933H377.814L345.924 76.0707C344.715 74.6891 342.47 73.8257 340.34 73.8257H326.237Z" fill="#14539A"/>
<path d="M281.971 73.8257L289.627 111.933H260.269L258.6 73.8257H281.971Z" fill="white"/>
<path d="M260.269 111.875H230.854L232.523 73.8257H258.6L260.269 111.875Z" fill="#14539A"/>
<g style="mix-blend-mode:overlay">
<path fill-rule="evenodd" clip-rule="evenodd" d="M346.212 445.113H144.911V357.673H346.212V445.113ZM148.365 441.659H342.758V361.184H148.365V441.659Z" fill="#B3B3B3"/>
</g>
<g style="mix-blend-mode:overlay">
<path d="M324.338 423.296H166.785V379.432H324.338V423.296Z" fill="#999999"/>
</g>
<path d="M70.941 423.296C65.2422 411.093 67.0267 382.541 69.5019 356.234C71.9196 330.561 58.3921 309.722 58.2769 309.492L58.7375 309.147C58.9101 309.377 72.5528 330.388 70.0775 356.292C67.6023 382.541 65.8754 410.977 71.5166 423.008L70.941 423.296Z" fill="#567812"/>
<path d="M74.7978 421.915C70.8835 410.056 71.2289 380.814 77.5609 359.4C82.1085 343.973 96.0965 333.784 96.2692 333.669L96.6146 334.187C96.4419 334.302 82.6265 344.376 78.1366 359.573C71.8045 380.929 71.4591 409.941 75.3735 421.684L74.7978 421.915Z" fill="#567812"/>
<path d="M73.9918 421.397C70.0775 409.596 69.6745 362.681 76.0641 341.268C80.6117 325.841 94.5997 315.652 94.7148 315.537L95.0602 316.055C94.9451 316.112 81.1297 326.186 76.6397 341.44C70.3077 362.739 70.6531 409.481 74.5674 421.224L73.9918 421.397Z" fill="#567812"/>
<path d="M72.2072 426.519L72.0345 425.656C72.0345 425.541 71.574 423.238 71.0559 419.266C69.3866 410.171 65.8752 391.463 66.2206 371.776C66.5084 351.514 61.2125 339.195 61.155 339.08L61.673 338.85C61.7306 338.965 67.1416 351.399 66.7962 371.776C66.566 386.455 68.4656 400.558 70.1349 410.574C68.9261 397.162 68.2353 376.784 72.2648 357.558C76.6972 336.144 77.5031 317.206 74.6825 301.318L75.2581 301.203C78.0787 317.206 77.2728 336.202 72.8404 357.673C67.8324 381.735 70.1349 407.523 71.6891 419.151C72.5526 423.814 72.7829 425.311 72.6102 425.714L72.2072 426.519Z" fill="#567812"/>
<path d="M72.4375 424.965H71.8619C72.8405 402.4 70.7682 384.728 65.8177 372.294C60.8096 359.976 54.5351 357.27 52.7507 356.752L52.9233 356.177C55.2835 356.867 61.4428 359.861 66.3357 372.064C71.4014 384.556 73.4161 402.343 72.4375 424.965Z" fill="#567812"/>
<path d="M71.1712 424.217C71.1136 424.102 70.2502 420.936 68.7535 406.545C66.8539 388.758 63.1123 379.49 57.2983 378.224L57.4134 377.648C63.6303 379.029 67.4296 388.182 69.3292 406.487C70.8258 420.763 71.7469 424.044 71.7469 424.044L71.1712 424.217Z" fill="#567812"/>
<path d="M69.9624 423.699C69.9624 423.526 69.5594 404.127 62.364 395.78C56.8378 389.391 48.5486 389.563 45.4402 389.621C44.4616 389.679 44.1738 389.679 44.0586 389.506L44.4616 389.103C44.4616 389.045 44.404 389.045 44.404 389.045C44.5191 389.045 44.9797 389.045 45.3826 389.045C48.6062 388.988 57.0681 388.758 62.8245 395.377C70.1926 403.897 70.538 422.893 70.538 423.699H69.9624Z" fill="#567812"/>
<path d="M76.7549 424.62C76.6973 424.39 74.5099 402.458 77.273 392.096C82.684 372.064 94.7148 367.056 94.83 366.999L95.0602 367.517C94.9451 367.574 83.1445 372.525 77.8486 392.269C75.0855 402.458 77.3305 424.332 77.3305 424.562L76.7549 424.62Z" fill="#567812"/>
<path d="M73.3012 423.757C72.2075 412.474 73.7617 404.588 77.9638 399.58C81.4752 395.378 86.7135 393.248 94.9452 392.672L95.0027 393.248C86.9438 393.823 81.8206 395.896 78.4243 399.983C74.3373 404.818 72.8406 412.589 73.9344 423.699L73.3012 423.757Z" fill="#567812"/>
<path d="M75.2007 423.181C75.2007 423.066 73.5889 410.229 74.107 395.09C74.5675 381.102 76.9276 362.221 85.7925 351.687L86.253 352.089C69.5019 371.949 75.7764 422.605 75.8339 423.123L75.2007 423.181Z" fill="#567812"/>
<path d="M114.172 331.482C107.725 333.036 106.285 339.943 100.414 340.174C97.8809 340.289 94.7725 337.583 96.4418 333.957C96.4418 333.957 96.4227 333.957 96.3843 333.957C94.83 334.59 92.1821 334.993 90.8582 332.69C90.2825 331.079 90.9157 329.121 92.1821 327.913C93.391 326.704 95.1179 326.071 96.8448 325.725C103.062 324.401 109.97 326.704 114.172 331.482Z" fill="#9CBA2F"/>
<path d="M67.6024 335.511C67.257 338.619 65.4725 340.922 63.0549 342.361C59.1981 344.721 53.7295 344.779 49.9303 342.246C42.2167 336.95 42.044 326.473 42.9075 317.954C42.9075 317.877 42.9075 317.801 42.9075 317.724C49.7576 326.128 68.581 319.739 67.6024 335.511Z" fill="#9CBA2F"/>
<path d="M59.716 309.147C59.716 309.147 59.6968 309.147 59.6584 309.147C56.6075 308.917 55.9167 313.809 51.4843 311.91C44.3464 307.535 52.06 295.677 42.5044 292.165C68.4081 288.078 74.2221 310.931 59.716 309.147Z" fill="#567812"/>
<path d="M50.5059 390.139L50.2181 390.024C50.2564 390.062 50.2948 390.101 50.3332 390.139C56.2623 396.471 39.6839 407.639 27.7681 380.699C34.8485 384.786 39.2233 381.677 46.0734 381.102C50.2756 380.987 56.1471 387.894 50.5059 390.139Z" fill="#9CBA2F"/>
<path d="M27.7681 380.699C27.7681 380.699 32.8913 388.585 44.4617 388.988C46.8794 389.103 48.8365 389.391 50.3332 390.139C56.2623 396.471 39.6839 407.639 27.7681 380.699Z" fill="#85A11F"/>
<path d="M91.6063 318.817L91.8941 318.587C91.8557 318.626 91.7982 318.645 91.7214 318.645C80.8418 320.372 80.8418 294.986 117.683 301.606C108.358 306.211 108.588 312.946 104.271 320.602C101.393 325.092 89.9369 326.301 91.6063 318.817Z" fill="#47630F"/>
<path d="M117.683 301.606C117.683 301.606 105.71 301.376 97.0748 313.291C95.2328 315.767 93.621 317.609 91.7214 318.645C80.8418 320.372 80.8418 294.986 117.683 301.606Z" fill="#567812"/>
<path d="M59.8886 378.684C58.1041 384.613 41.9862 384.095 41.4106 366.077C41.4106 366.077 41.4106 366.097 41.4106 366.135C45.7854 371.258 52.8658 368.035 56.9528 372.007C59.6583 374.597 60.4067 376.899 59.8886 378.684Z" fill="#567812"/>
<path d="M59.8886 378.684C58.1041 384.613 41.9862 384.095 41.4106 366.077C41.4106 366.077 41.4106 366.097 41.4106 366.135C41.5257 366.365 45.1522 374.079 49.93 375C55.341 376.036 57.5285 376.842 59.8886 378.684Z" fill="#47630F"/>
<path d="M56.3774 355.543C55.7442 356.407 54.9383 356.234 54.3626 356.983C54.0748 357.386 53.8445 358.134 53.787 359.515C53.5567 371.258 32.5459 367.402 29.3223 346.794C29.3223 346.794 29.3223 346.775 29.3223 346.736C34.9636 347.657 41.1229 344.894 46.9369 345.758C52.3479 346.564 60.0614 350.823 56.3774 355.543Z" fill="#9CBA2F"/>
<path d="M54.3626 356.983C54.0748 357.385 53.8445 358.134 53.787 359.515C53.5567 371.258 32.5459 367.402 29.3223 346.794C30.4736 348.636 32.8913 351.917 37.6691 352.665C43.8284 353.644 51.5996 351.514 54.3626 356.983Z" fill="#85A11F"/>
<path d="M63.0549 342.361C59.1981 344.721 53.7295 344.779 49.9303 342.246C42.2167 336.95 42.044 326.474 42.9075 317.954C43.2529 318.645 44.7495 321.581 46.1311 326.301C47.7429 331.654 52.5782 336.662 58.0468 336.893C60.5221 337.008 62.1338 339.541 63.0549 342.361Z" fill="#85A11F"/>
<path d="M59.716 309.147C59.716 309.147 59.6968 309.147 59.6584 309.147C56.6075 308.917 55.9167 313.809 51.4843 311.91C44.3464 307.535 52.06 295.677 42.5044 292.165C42.5044 292.165 50.7936 291.244 51.4268 298.67C51.8873 304.542 57.8164 306.787 59.716 309.147Z" fill="#47630F"/>
<path d="M74.9704 301.261C74.7785 301.261 74.5674 301.261 74.3372 301.261C67.4295 296.483 64.6664 286.87 67.89 279.156C71.1712 271.04 80.8995 264.592 79.2877 254.979C86.4256 262.981 89.6492 272.018 90.7429 281.056C91.7215 289.057 86.5407 301.203 74.9704 301.261Z" fill="#9CBA2F"/>
<path d="M74.9705 301.261C77.0428 299.419 79.0575 296.425 78.7121 290.957C78.1941 283.646 80.6118 276.566 82.7416 269.658C84.8139 262.865 79.5756 255.382 79.2878 254.979C86.4257 262.981 89.6493 272.018 90.743 281.056C91.7216 289.057 86.5408 301.203 74.9705 301.261Z" fill="#85A11F"/>
<path d="M114.172 331.481C107.725 333.036 106.286 339.943 100.414 340.174C97.881 340.289 94.7726 337.583 96.4419 333.957C96.4419 333.957 99.3201 333.726 103.235 331.481C107.091 329.294 114.172 331.481 114.172 331.481Z" fill="#85A11F"/>
<path d="M106.573 349.154C103.753 348.06 100.472 348.29 97.881 349.787C94.1969 352.723 87.9224 357.097 85.3896 350.65C84.1232 339.943 104.328 340.864 106.573 349.154Z" fill="#9CBA2F"/>
<path d="M106.573 349.154C103.753 348.06 100.472 348.29 97.881 349.787C94.1969 352.723 87.9224 357.097 85.3896 350.65C85.9077 350.19 86.7711 349.384 88.0951 349.557C93.391 350.132 91.8943 348.348 97.3629 346.391C102.889 344.433 106.573 349.154 106.573 349.154Z" fill="#85A11F"/>
<path d="M119.295 359.515C119.218 359.554 119.141 359.573 119.065 359.573C109.106 361.933 107.725 368.495 101.853 374.885C98.0535 378.569 86.7709 377.187 89.8218 370.452C89.8602 370.376 89.8986 370.318 89.937 370.28L90.2823 370.107C78.9998 369.589 84.7562 344.491 119.295 359.515Z" fill="#567812"/>
<path d="M119.065 359.573C109.106 361.933 107.725 368.495 101.853 374.885C98.0537 378.569 86.7712 377.187 89.8221 370.452C90.5704 369.877 91.4914 369.359 92.7002 369.071C95.7511 368.323 97.1902 365.502 103.522 360.897C109.797 356.234 119.065 359.573 119.065 359.573Z" fill="#47630F"/>
<path d="M111.294 381.274C109.624 387.203 106.228 391.521 102.198 394.859C98.5717 397.795 90.8581 399.061 87.3467 393.075C87.3467 393.036 87.3467 392.979 87.3467 392.902C87.6346 388.182 91.3762 383.98 96.0965 383.174C101.047 382.253 107.149 385.016 111.294 381.274Z" fill="#9CBA2F"/>
<path d="M111.294 381.274C109.624 387.203 106.228 391.521 102.198 394.859C98.5717 397.795 90.8581 399.061 87.3467 393.075C87.3467 393.036 87.3467 392.979 87.3467 392.902C88.3829 392.614 89.9947 392.269 92.3548 392.326C97.3053 392.384 96.6721 387.146 102.486 387.261C107.84 387.376 108.646 383.577 111.294 381.274Z" fill="#85A11F"/>
<path d="M82.4537 480.399H63.1122C61.7883 480.399 60.637 479.421 60.3492 478.154C56.3773 460.885 54.0747 439.817 55.9167 413.74H89.7068C91.3185 439.472 89.3614 460.597 85.2743 478.154C84.9865 479.478 83.8352 480.399 82.4537 480.399Z" fill="#513731"/>
<g style="mix-blend-mode:multiply">
<path d="M89.7068 413.74H55.9168C55.6482 417.386 55.4755 420.917 55.3987 424.332H62.5366C74.5099 424.332 84.2382 434.118 84.008 446.149C83.7777 458.755 82.6264 470.153 80.7844 480.399H82.4537C83.8353 480.399 84.9866 479.478 85.2744 478.154C89.3614 460.597 91.3186 439.472 89.7068 413.74Z" fill="#EAD3DD"/>
</g>
<path d="M89.5342 410.805H56.435C54.6505 410.805 53.2114 412.186 53.2114 413.913C53.2114 415.64 54.6505 417.022 56.435 417.022H89.5342C91.3187 417.022 92.7002 415.64 92.7002 413.913C92.7002 412.186 91.3187 410.805 89.5342 410.805Z" fill="#222222"/>
<path d="M505.664 355.658H402.337V129.029H505.664V355.658Z" fill="#A2A2A2"/>
<path d="M500.31 350.42H407.69V134.268H500.31V350.42Z" fill="white"/>
<path d="M500.31 208.87H407.69V204.208H500.31V208.87Z" fill="#14539A"/>
<path d="M500.31 280.48H407.69V275.817H500.31V280.48Z" fill="#AA89E0"/>
<g style="mix-blend-mode:multiply" opacity="0.6">
<path d="M431.406 78.9487V77.0491H445.049V70.0263H423.808V71.8108H402.912V64.788H404.812V69.9112H421.908V62.8308H414.31V55.6929H395.314V44.8133H409.993V46.7705H397.271V53.7933H421.851V55.6929H416.267V60.9312H437.508V53.9084H424.902V47.4037H426.859V51.9512H448.1V44.9284H441.307V43.0288H450V53.9084H439.408V62.8308H423.808V68.0691H446.949V78.9487H431.406Z" fill="#AFDEDC"/>
</g>
<g style="mix-blend-mode:multiply" opacity="0.6">
<path d="M549.7 302.412V300.455H563.343V293.432H542.044V295.216H521.148V288.193H523.048V293.317H540.145V286.294H532.604V279.156H513.608V268.276H528.229V270.176H515.507V277.199H540.145V279.156H534.503V284.337H555.744V277.314H543.195V270.867H545.095V275.414H566.336V268.334H559.544V266.434H568.293V277.314H557.702V286.294H542.044V291.532H565.242V302.412H549.7Z" fill="#AFDEDC"/>
</g>
<path d="M71.1138 265.456C71.0754 265.456 71.0179 265.456 70.9411 265.456C69.7131 265.11 68.4851 264.765 67.257 264.42C66.8541 264.247 66.5662 263.786 66.7389 263.326C66.8541 262.865 67.3146 262.635 67.7751 262.75C68.9648 263.096 70.1544 263.441 71.3441 263.786C71.8046 263.901 72.0924 264.362 71.9773 264.822C71.8621 265.225 71.5167 265.456 71.1138 265.456Z" fill="#6542BD"/>
<path d="M60.4641 261.944C60.3874 261.944 60.2914 261.925 60.1763 261.887C57.8162 260.966 55.5136 259.93 53.2686 258.778C52.8657 258.548 52.693 258.03 52.9232 257.627C53.0959 257.224 53.614 257.051 54.0745 257.224C56.2619 258.375 58.5069 259.354 60.8095 260.275C61.27 260.448 61.4427 260.966 61.27 261.426C61.1549 261.772 60.8095 261.944 60.4641 261.944ZM47.1668 255.209C47.0133 255.209 46.8598 255.171 46.7063 255.094C44.5765 253.77 42.4466 252.331 40.4319 250.835C40.0865 250.547 39.9714 250.029 40.2592 249.626C40.547 249.28 41.1226 249.165 41.468 249.453C43.4828 250.95 45.4976 252.331 47.6274 253.655C48.0303 253.885 48.1454 254.404 47.9152 254.806C47.7425 255.094 47.4547 255.209 47.1668 255.209ZM35.1936 246.287C34.9633 246.287 34.7906 246.229 34.6179 246.057C32.7183 244.445 30.9338 242.66 29.1494 240.818C28.8615 240.473 28.8615 239.955 29.2069 239.61C29.5523 239.264 30.1279 239.322 30.4158 239.667C32.1427 241.452 33.9272 243.179 35.7692 244.79C36.1146 245.136 36.1146 245.654 35.8268 245.999C35.6541 246.229 35.4238 246.287 35.1936 246.287ZM24.8896 235.465C24.6594 235.465 24.3715 235.35 24.1989 235.12C22.6446 233.162 21.148 231.148 19.7664 229.018C19.4786 228.672 19.5937 228.097 19.9967 227.867C20.3996 227.579 20.9177 227.694 21.2055 228.097C22.5871 230.112 24.0262 232.126 25.5804 234.083C25.8682 234.429 25.8106 234.947 25.4077 235.292C25.2542 235.407 25.0815 235.465 24.8896 235.465ZM16.5429 223.031C16.255 223.031 15.9672 222.916 15.7945 222.628C14.5857 220.441 13.4344 218.138 12.3983 215.893C12.2256 215.433 12.3983 214.915 12.8588 214.742C13.2617 214.512 13.7798 214.742 13.9525 215.145C14.9886 217.39 16.1399 219.635 17.2912 221.765C17.5214 222.168 17.4063 222.686 17.0034 222.916C16.8499 222.993 16.6964 223.031 16.5429 223.031ZM10.3835 209.446C10.0382 209.446 9.6928 209.216 9.57768 208.87C8.71422 206.51 7.96589 204.093 7.33269 201.675C7.21756 201.214 7.44782 200.754 7.90833 200.581C8.36884 200.466 8.88691 200.754 9.00204 201.214C9.63524 203.575 10.3835 205.992 11.1894 208.295C11.3621 208.755 11.1318 209.216 10.6713 209.389C10.5562 209.427 10.4603 209.446 10.3835 209.446ZM6.52679 194.998C6.12384 194.998 5.77846 194.71 5.66333 194.307C5.26038 191.832 4.915 189.299 4.68474 186.824C4.62718 186.305 4.97256 185.902 5.49064 185.845C5.95115 185.845 6.3541 186.19 6.41166 186.651C6.64192 189.068 6.92974 191.544 7.39025 193.961C7.44781 194.479 7.15999 194.882 6.69948 194.998C6.62273 194.998 6.56516 194.998 6.52679 194.998ZM5.20282 180.146C4.74231 180.146 4.33936 179.743 4.33936 179.225C4.33936 176.75 4.45449 174.159 4.74231 171.684C4.74231 171.224 5.20282 170.878 5.66333 170.936C6.12384 170.993 6.46923 171.396 6.41166 171.857C6.18141 174.275 6.06627 176.807 6.06627 179.283C6.06627 179.743 5.66333 180.146 5.20282 180.146ZM6.64191 165.237C6.60354 165.237 6.56516 165.237 6.52679 165.237C6.00871 165.122 5.7209 164.661 5.83602 164.201C6.29653 161.726 6.92974 159.25 7.67807 156.89C7.79319 156.43 8.31127 156.2 8.77179 156.315C9.2323 156.487 9.46255 156.948 9.34742 157.408C8.59909 159.711 8.02345 162.129 7.50537 164.546C7.44781 164.949 7.04486 165.237 6.64191 165.237ZM11.0743 151.019C10.9592 151.019 10.844 150.98 10.7289 150.904C10.326 150.731 10.0957 150.213 10.326 149.81C11.3045 147.45 12.4558 145.205 13.7222 143.017C13.9525 142.614 14.4706 142.499 14.9311 142.73C15.334 142.96 15.4491 143.478 15.2189 143.881C14.01 146.011 12.8588 148.198 11.8802 150.501C11.7651 150.788 11.4197 151.019 11.0743 151.019ZM18.6152 138.067C18.4233 138.067 18.2506 138.009 18.0971 137.894C17.6941 137.664 17.6366 137.088 17.9244 136.685C18.0395 136.493 18.193 136.302 18.3849 136.11C19.6513 134.44 21.148 132.713 22.8749 130.987C23.2203 130.641 23.7383 130.641 24.0837 130.929C24.4291 131.274 24.4291 131.85 24.0837 132.195C22.4719 133.865 20.9753 135.534 19.7089 137.146C19.5554 137.338 19.421 137.53 19.3059 137.721C19.1332 137.952 18.8454 138.067 18.6152 138.067ZM55.6863 137.203C54.4967 137.203 53.3262 137.107 52.1749 136.916C51.7144 136.8 51.4266 136.34 51.4841 135.879C51.5993 135.419 52.0598 135.131 52.5203 135.189C54.8804 135.592 57.3557 135.534 59.6006 135.016C60.0612 134.901 60.5217 135.189 60.6368 135.649C60.7519 136.11 60.4641 136.57 60.0036 136.685C58.6221 137.031 57.1254 137.203 55.6863 137.203ZM45.4399 134.153C45.2864 134.153 45.1329 134.095 44.9794 133.98C44.327 133.558 43.713 133.097 43.1374 132.598C41.7558 131.389 40.4319 130.181 39.223 128.914C38.9352 128.569 38.9352 128.051 39.2806 127.705C39.626 127.36 40.1441 127.36 40.4894 127.705C41.6407 128.972 42.9071 130.123 44.2311 131.274C44.7684 131.735 45.344 132.157 45.958 132.541C46.361 132.829 46.4185 133.347 46.1883 133.75C46.0156 134.037 45.7277 134.153 45.4399 134.153ZM66.1629 133.059C65.9711 133.059 65.7792 133.001 65.5873 132.886C65.2419 132.541 65.1844 132.023 65.4722 131.677C66.3932 130.526 66.8537 129.26 66.8537 127.878C66.8537 127.111 66.7002 126.305 66.3932 125.46C66.2206 125 66.4508 124.539 66.9113 124.367C67.3718 124.194 67.8899 124.424 68.0051 124.885C68.3887 125.883 68.5807 126.88 68.5807 127.878C68.5807 129.663 68.0051 131.332 66.7962 132.771C66.6235 132.944 66.3932 133.059 66.1629 133.059ZM29.0342 127.418C28.7464 127.418 28.5162 127.302 28.3435 127.072C28.0556 126.727 28.1132 126.151 28.4586 125.863C30.1279 124.482 31.8549 123.215 33.5818 122.064C32.3729 120.337 31.2792 118.495 30.3582 116.653C30.1279 116.25 30.3006 115.732 30.7611 115.502C31.1641 115.272 31.6822 115.444 31.9124 115.847C32.8334 117.689 33.9272 119.531 35.136 121.258C35.4238 121.316 35.6541 121.431 35.7692 121.661C35.9419 121.891 35.9419 122.179 35.8843 122.409C35.9995 122.755 35.8268 123.1 35.5389 123.331C35.3087 123.503 34.9633 123.561 34.6755 123.388C32.9486 124.539 31.2216 125.863 29.5523 127.187C29.3988 127.341 29.2261 127.418 29.0342 127.418ZM62.8242 120.049C62.6516 120.049 62.4213 119.992 62.2486 119.877C60.4641 118.322 58.3342 117.344 55.9741 116.883C55.5136 116.826 55.2258 116.365 55.2834 115.905C55.3985 115.444 55.8014 115.099 56.3195 115.214C58.9675 115.675 61.3276 116.826 63.3999 118.553C63.7453 118.841 63.8028 119.416 63.515 119.762C63.3423 119.934 63.0546 120.049 62.8242 120.049ZM41.6407 119.416C41.2953 119.416 40.95 119.243 40.8348 118.898C40.6621 118.495 40.8349 117.977 41.2953 117.747C43.7706 116.653 46.2458 115.847 48.5484 115.387C49.0089 115.272 49.4694 115.617 49.5845 116.077C49.6421 116.538 49.3543 116.998 48.8938 117.056C46.7063 117.517 44.4038 118.265 41.9861 119.359C41.871 119.397 41.7558 119.416 41.6407 119.416ZM28.2859 110.206C27.8829 110.206 27.5951 109.976 27.48 109.63C26.6741 107.213 26.0985 104.737 25.7531 102.205C25.6955 101.744 26.0409 101.284 26.5014 101.226C26.9619 101.168 27.4224 101.514 27.48 101.974C27.8254 104.392 28.3435 106.81 29.0918 109.112C29.2645 109.573 28.9767 110.033 28.5161 110.206C28.4394 110.206 28.3626 110.206 28.2859 110.206ZM26.156 95.4696C25.6955 95.4696 25.2926 95.0666 25.2926 94.6061C25.3501 92.1309 25.638 89.5981 26.0409 87.0653C26.156 86.5472 26.559 86.2594 27.077 86.3169C27.5376 86.4321 27.8254 86.8926 27.7678 87.3531C27.3649 89.7708 27.0771 92.246 27.0195 94.6637C27.0195 95.1242 26.6741 95.4696 26.156 95.4696ZM28.6888 80.7908C28.6121 80.7908 28.5353 80.7716 28.4586 80.7332C27.9981 80.6181 27.7103 80.1576 27.8829 79.6971C28.6313 77.337 29.5523 74.9193 30.646 72.6167C30.8187 72.1562 31.3368 71.9835 31.7397 72.2138C32.2002 72.3865 32.3729 72.9045 32.2002 73.3651C31.1641 75.61 30.2431 77.9126 29.4947 80.2152C29.3796 80.5605 29.0342 80.7908 28.6888 80.7908ZM34.9057 67.2633C34.7522 67.2633 34.5987 67.2057 34.4452 67.0906C34.0423 66.8603 33.9272 66.3423 34.1574 65.9393C35.4238 63.8094 36.8629 61.6796 38.4171 59.6648C38.705 59.2619 39.223 59.2043 39.626 59.4922C39.9714 59.78 40.0865 60.298 39.7987 60.701C38.302 62.7157 36.9205 64.7305 35.6541 66.8028C35.4814 67.0906 35.1936 67.2633 34.9057 67.2633ZM43.8281 55.29C43.6555 55.29 43.4252 55.1749 43.2525 55.0597C42.9071 54.7143 42.9071 54.1963 43.1949 53.8509C44.8643 52.0088 46.6488 50.1668 48.4908 48.4399C48.8362 48.1521 49.4118 48.1521 49.7572 48.4974C50.045 48.8428 50.0451 49.4185 49.6997 49.7063C47.8576 51.4332 46.1307 53.2177 44.4613 55.0022C44.3462 55.1749 44.0584 55.29 43.8281 55.29ZM54.7653 45.1012C54.535 45.1012 54.2472 44.986 54.0745 44.7558C53.7867 44.4104 53.8443 43.8348 54.2472 43.547C56.2044 41.9927 58.2191 40.4961 60.349 39.1145C60.7519 38.8267 61.27 38.9418 61.5578 39.3448C61.7881 39.7477 61.6729 40.2658 61.3276 40.5536C59.2553 41.9352 57.2405 43.3743 55.3409 44.9285C55.149 45.0436 54.9572 45.1012 54.7653 45.1012ZM265.219 37.2725C262.802 37.2725 260.269 37.2149 257.736 37.1574C257.276 37.0998 256.873 36.6968 256.93 36.2363C256.93 35.7758 257.333 35.3729 257.794 35.4304C260.326 35.488 262.802 35.5456 265.219 35.5456C265.737 35.5456 266.083 35.9485 266.083 36.409C266.083 36.8695 265.737 37.2725 265.219 37.2725ZM272.703 37.1574C272.242 37.1574 271.897 36.7544 271.839 36.2939C271.839 35.8334 272.185 35.4304 272.703 35.4304C275.178 35.3153 277.653 35.2002 280.128 35.0275C280.589 34.9699 280.992 35.3153 281.049 35.8334C281.049 36.2939 280.704 36.6968 280.244 36.7544C277.768 36.9271 275.236 37.0422 272.76 37.1574C272.76 37.1574 272.741 37.1574 272.703 37.1574ZM250.31 36.7544C250.272 36.7544 250.253 36.7544 250.253 36.7544C247.835 36.5817 245.302 36.409 242.769 36.1788C242.309 36.1212 241.964 35.7183 242.021 35.2002C242.021 34.7397 242.482 34.3943 242.942 34.4519C245.417 34.6821 247.95 34.8548 250.368 35.0275C250.828 35.0851 251.174 35.488 251.174 35.9485C251.116 36.409 250.771 36.7544 250.31 36.7544ZM67.1992 36.7544C66.8537 36.7544 66.5659 36.5817 66.4507 36.2939C66.1629 35.891 66.3356 35.3729 66.7386 35.1426C68.926 33.8762 71.171 32.7249 73.416 31.6312C73.8189 31.401 74.337 31.5737 74.5673 32.0342C74.7975 32.4371 74.5673 32.9552 74.1643 33.1855C71.9193 34.2792 69.7319 35.4304 67.6021 36.6393C67.4486 36.716 67.3143 36.7544 67.1992 36.7544ZM287.612 36.0636C287.209 36.0636 286.806 35.7183 286.748 35.2578C286.691 34.7972 287.036 34.3943 287.497 34.3367C289.972 34.0489 292.447 33.7035 294.922 33.3006C295.383 33.243 295.786 33.5884 295.901 34.0489C295.959 34.5094 295.613 34.9699 295.153 35.0275C292.735 35.4304 290.202 35.7758 287.727 36.0061C287.688 36.0445 287.65 36.0636 287.612 36.0636ZM235.401 35.3729C235.401 35.3729 235.382 35.3729 235.344 35.3729C232.926 35.0851 230.451 34.7397 227.918 34.3943C227.4 34.3367 227.112 33.9338 227.17 33.4157C227.227 32.9552 227.688 32.6098 228.148 32.7249C230.681 33.0703 233.156 33.3581 235.516 33.646C235.977 33.7035 236.322 34.164 236.265 34.6245C236.207 35.0275 235.862 35.3729 235.401 35.3729ZM302.406 33.7035C302.003 33.7035 301.657 33.4157 301.542 33.0128C301.427 32.5522 301.772 32.0917 302.233 32.0342C304.651 31.5161 307.068 30.998 309.486 30.4224C309.947 30.3073 310.407 30.5951 310.522 31.0556C310.637 31.5161 310.35 31.9766 309.889 32.0917C307.471 32.6674 304.996 33.243 302.578 33.7035C302.502 33.7035 302.444 33.7035 302.406 33.7035ZM220.607 33.3006C220.569 33.3006 220.531 33.3006 220.492 33.3006C218.132 32.9552 215.714 32.5522 213.066 32.0917C212.606 32.0342 212.318 31.5737 212.376 31.1131C212.491 30.6526 212.894 30.3073 213.412 30.4224C216.002 30.8253 218.42 31.2283 220.722 31.5737C221.241 31.6888 221.528 32.0917 221.471 32.6098C221.413 33.0128 221.01 33.3006 220.607 33.3006ZM205.871 30.8253C205.833 30.8253 205.775 30.8253 205.698 30.8253C203.242 30.3648 200.805 29.9235 198.388 29.5014C197.87 29.3862 197.582 28.9257 197.697 28.4652C197.754 28.0047 198.215 27.7169 198.676 27.7744C201.132 28.235 203.588 28.6763 206.044 29.0984C206.504 29.2135 206.792 29.6165 206.734 30.1346C206.677 30.5375 206.274 30.8253 205.871 30.8253ZM80.6115 30.2497C80.2662 30.2497 79.9783 30.077 79.8056 29.7316C79.6329 29.2711 79.8631 28.753 80.3236 28.5803C82.6262 27.6593 84.9863 26.7959 87.404 26.0475C87.8645 25.8748 88.3251 26.1051 88.4977 26.5656C88.6129 27.0261 88.3827 27.5442 87.9221 27.6593C85.562 28.4076 83.2594 29.2711 80.9569 30.1921C80.8418 30.2305 80.7266 30.2497 80.6115 30.2497ZM316.912 30.1921C316.566 30.1921 316.221 29.9619 316.106 29.5589C315.933 29.0984 316.221 28.6379 316.681 28.5228C319.042 27.832 321.459 27.0837 323.819 26.2778C324.222 26.1627 324.74 26.3929 324.856 26.8534C325.028 27.3139 324.798 27.7744 324.338 27.9471C321.977 28.753 319.56 29.5014 317.142 30.1346C317.065 30.1729 316.989 30.1921 316.912 30.1921ZM191.192 28.1198C191.115 28.1198 191.058 28.1198 191.02 28.1198C188.563 27.6593 186.107 27.218 183.651 26.7959C183.191 26.7383 182.903 26.2778 182.961 25.8173C183.018 25.2992 183.479 25.0114 183.939 25.1265C186.395 25.5486 188.851 25.99 191.307 26.4505C191.768 26.508 192.113 26.9686 191.998 27.4291C191.941 27.832 191.595 28.1198 191.192 28.1198ZM94.8298 25.587C94.4845 25.587 94.0815 25.3568 94.0239 24.9538C93.9088 24.4933 94.139 24.0328 94.5995 23.9177C97.0173 23.2845 99.4924 22.7088 101.968 22.1907C102.429 22.1332 102.889 22.421 102.947 22.8815C103.062 23.342 102.774 23.8025 102.314 23.9177C99.8954 24.3782 97.4202 24.9538 95.0601 25.587C94.9834 25.587 94.9065 25.587 94.8298 25.587ZM176.456 25.5295C176.417 25.5295 176.36 25.5295 176.283 25.5295C173.693 25.0689 171.275 24.7236 168.915 24.3206C168.454 24.263 168.109 23.8025 168.224 23.342C168.282 22.8815 168.742 22.5361 169.203 22.6513C171.563 22.9966 173.981 23.3996 176.571 23.8025C177.032 23.9177 177.377 24.3206 177.319 24.8387C177.204 25.2416 176.859 25.5295 176.456 25.5295ZM331.13 25.4719C330.785 25.4719 330.439 25.2992 330.324 24.9538C330.151 24.4933 330.382 23.9752 330.785 23.8025C333.087 22.9391 335.447 22.0181 337.75 21.0395C338.153 20.8668 338.671 21.097 338.844 21.5C339.016 21.9605 338.844 22.4786 338.383 22.6513C336.081 23.6298 333.72 24.5509 331.418 25.4143C331.303 25.4527 331.207 25.4719 331.13 25.4719ZM161.662 23.2845C161.624 23.2845 161.585 23.2845 161.547 23.2845C159.014 22.9391 156.539 22.6513 154.121 22.3634C153.661 22.3634 153.315 21.9029 153.373 21.4424C153.43 20.9819 153.833 20.6365 154.351 20.6941C156.711 20.9243 159.244 21.2122 161.777 21.5575C162.238 21.6151 162.583 22.0756 162.525 22.5361C162.468 22.9966 162.065 23.2845 161.662 23.2845ZM109.509 22.6513C109.049 22.6513 108.703 22.3059 108.646 21.9029C108.588 21.4424 108.876 20.9819 109.394 20.9243C111.812 20.579 114.344 20.2911 116.82 20.0033C117.28 20.0033 117.741 20.3487 117.798 20.8092C117.798 21.2697 117.453 21.7302 116.992 21.7302C114.517 21.9605 112.042 22.3059 109.624 22.6513C109.586 22.6513 109.547 22.6513 109.509 22.6513ZM146.81 21.7302C146.772 21.7302 146.753 21.7302 146.753 21.7302C144.22 21.5 141.687 21.3849 139.27 21.2697C138.809 21.2122 138.464 20.8092 138.464 20.3487C138.464 19.8882 138.924 19.4852 139.385 19.5428C141.802 19.6579 144.335 19.7731 146.868 20.0033C147.329 20.0033 147.674 20.4063 147.674 20.9243C147.616 21.3849 147.213 21.7302 146.81 21.7302ZM124.361 21.2697C123.9 21.2697 123.555 20.8668 123.497 20.4063C123.497 19.9458 123.842 19.5428 124.361 19.5428C126.721 19.4277 129.138 19.3701 131.614 19.3701H131.844C132.362 19.3701 132.707 19.7731 132.707 20.2336C132.707 20.6941 132.362 21.097 131.844 21.097H131.614C129.196 21.097 126.778 21.1546 124.418 21.2697C124.418 21.2697 124.399 21.2697 124.361 21.2697Z" fill="#14539A"/>
<path d="M345.003 19.6005C344.715 19.6005 344.37 19.4278 344.255 19.14C344.024 18.6795 344.255 18.1614 344.658 17.9887C345.77 17.4514 346.883 16.9142 347.996 16.3769C348.457 16.1467 348.975 16.3194 349.205 16.7799C349.378 17.1828 349.205 17.7009 348.802 17.9311C347.651 18.4684 346.519 19.0057 345.406 19.5429C345.291 19.5813 345.156 19.6005 345.003 19.6005Z" fill="#6542BD"/>
<path d="M351.565 15.2254L364.287 11.5413L358.3 6.59082L351.565 15.2254Z" fill="#14539A"/>
<path d="M364.057 13.9018L378.563 3.36768L358.128 9.58458L364.057 13.9018Z" fill="#14539A"/>
<path d="M378.563 3.36756L349.493 0.604492L355.077 5.15204L378.563 3.36756Z" fill="#14539A"/>
<path d="M378.563 3.36768L358.128 9.64215L351.565 15.2258L355.077 5.03704L378.563 3.36768Z" fill="#14539A"/>
<path d="M255.952 18.9674L258.83 16.0892C259.521 15.3984 259.521 14.3623 258.83 13.6715C258.197 13.0383 257.103 13.0383 256.47 13.7291L253.592 16.6073L250.656 13.7291C250.023 13.0959 248.929 13.0959 248.296 13.7291C247.605 14.4199 247.605 15.456 248.296 16.1468L251.174 19.025L248.296 21.9032C247.662 22.5939 247.662 23.6301 248.353 24.3209C248.641 24.6087 249.102 24.7814 249.504 24.7814C249.965 24.7814 250.368 24.6087 250.713 24.2633L253.592 21.3851L256.47 24.2633C256.815 24.6087 257.276 24.7814 257.679 24.7814C258.139 24.7238 258.542 24.6087 258.887 24.2633C259.521 23.5725 259.521 22.5364 258.887 21.8456L255.952 18.9674Z" fill="#FFB300"/>
<path d="M26.329 450.524L29.2072 447.588C29.8404 446.955 29.8404 445.861 29.2072 445.228C28.5165 444.595 27.4803 444.595 26.7895 445.228L23.9114 448.164L20.9756 445.285C20.3424 444.595 19.2487 444.595 18.6155 445.285C17.9823 445.919 17.9823 447.012 18.6155 447.646L21.5512 450.524L18.673 453.459C17.9823 454.093 17.9823 455.186 18.673 455.82C19.0184 456.165 19.4214 456.338 19.8819 456.338C20.2848 456.338 20.7453 456.165 21.0332 455.82L23.9114 452.884L26.8471 455.82C27.1349 456.107 27.5954 456.28 27.9984 456.28C28.4589 456.28 28.8619 456.107 29.2072 455.762C29.898 455.129 29.8404 454.035 29.2072 453.402L26.329 450.524Z" fill="#FFB300"/>
<path fill-rule="evenodd" clip-rule="evenodd" d="M542.044 207.259C538.36 207.259 535.424 204.323 535.367 200.639C535.367 197.012 538.36 194.019 541.987 194.019C545.613 194.019 548.606 196.955 548.606 200.639C548.664 204.266 545.671 207.259 542.044 207.259ZM541.987 196.091C539.511 196.091 537.439 198.164 537.439 200.639C537.497 203.172 539.511 205.187 542.044 205.187C544.519 205.187 546.592 203.114 546.534 200.639C546.534 198.106 544.519 196.091 541.987 196.091Z" fill="#723DBD"/>
<path fill-rule="evenodd" clip-rule="evenodd" d="M69.7897 188.32C70.1351 188.838 70.1926 189.471 70.0775 190.105C69.8472 190.91 69.2716 191.544 68.4657 191.774L60.5795 194.134C59.7736 194.364 58.9101 194.134 58.2769 193.558C57.6437 192.983 57.4134 192.119 57.6437 191.313L59.5433 183.312C59.716 182.506 60.3492 181.873 61.1551 181.643C61.961 181.412 62.8244 181.585 63.4577 182.161L69.3867 187.86C69.5402 187.975 69.6746 188.128 69.7897 188.32ZM59.4857 192.119C59.5241 192.158 59.5433 192.196 59.5433 192.234C59.6009 192.292 59.7736 192.407 60.0614 192.349L67.8901 190.047C68.1779 189.932 68.2354 189.759 68.2354 189.644C68.293 189.586 68.293 189.356 68.1203 189.183L62.1912 183.542C61.961 183.37 61.7883 183.37 61.6732 183.427C61.6156 183.427 61.3853 183.542 61.3278 183.772L59.4282 191.774C59.3706 191.889 59.4282 192.062 59.4857 192.119Z" fill="#FF5E8B"/>
<path fill-rule="evenodd" clip-rule="evenodd" d="M540.317 413.165C540.605 413.683 540.72 414.316 540.605 414.949C540.375 415.755 539.799 416.389 538.936 416.676L531.107 418.979C530.301 419.209 529.438 419.036 528.805 418.403C528.171 417.828 527.941 417.022 528.114 416.158L530.071 408.214C530.244 407.351 530.877 406.718 531.683 406.488C532.489 406.257 533.352 406.43 533.985 407.063L539.914 412.704C540.068 412.82 540.202 412.973 540.317 413.165ZM530.013 416.964C530.052 417.041 530.071 417.079 530.071 417.079C530.128 417.137 530.301 417.252 530.589 417.194L538.418 414.892C538.705 414.777 538.763 414.604 538.763 414.489C538.821 414.431 538.821 414.201 538.648 414.028L532.661 408.387C532.489 408.214 532.316 408.214 532.201 408.272C532.143 408.272 531.913 408.387 531.855 408.617L529.956 416.619C529.898 416.791 529.956 416.907 530.013 416.964Z" fill="#FF5E8B"/>
<path d="M33.582 39.6326C45.8431 18.2764 90.3976 20.4639 94.5997 48.6702C96.6145 58.859 87.9223 67.4936 79.9209 72.2138C67.6023 79.5244 78.8272 86.7199 90.4551 85.0506C64.7241 98.2327 17.1187 68.2995 33.582 39.6326Z" fill="#FFB300"/>
<path d="M23.9688 50.3394C24.0072 48.9195 24.1607 47.4996 24.4294 46.0797C25.005 43.259 25.9836 40.5535 27.3651 38.0207C29.8979 33.2429 33.9274 29.3286 38.7628 26.7382C41.4107 25.3567 44.2313 24.4356 47.2247 24.0903C47.57 24.0903 47.6276 24.6083 47.3398 24.6659C42.3893 25.9899 37.7842 28.2349 34.0425 31.8038C30.2433 35.4303 27.5954 40.1506 26.4441 45.3313C26.0987 46.7896 25.8876 48.2863 25.8109 49.8213C25.7533 51.3755 25.9836 52.8722 25.8684 54.3689C25.8109 55.3475 24.4869 55.5777 24.1991 54.5991C23.8537 53.2752 23.9113 51.7209 23.9688 50.3394Z" fill="#FFB300"/>
<path d="M25.0624 60.0103C25.0624 59.8952 25.0624 59.7801 25.0624 59.665C25.12 59.5498 25.1776 59.4923 25.2351 59.3771C25.2927 59.2045 25.4654 59.1469 25.5805 59.262C25.6381 59.3196 25.7532 59.3771 25.8108 59.4923C25.8683 59.5498 25.9259 59.665 25.9259 59.7225C26.041 59.9144 26.1562 60.1063 26.2713 60.2982C26.5015 60.7011 26.6167 61.1616 26.8469 61.6221C26.7894 61.507 26.9045 61.7948 26.9045 61.7948C26.9429 61.91 27.0004 62.0059 27.0772 62.0827C27.1539 62.3129 27.2499 62.524 27.365 62.7159C27.4801 62.9077 27.5952 63.0996 27.7104 63.2915C27.7871 63.3682 27.8447 63.445 27.8831 63.5217C27.9982 63.752 28.0558 63.9247 28.0558 64.0974C28.1709 64.7882 27.3074 65.1335 26.8469 64.8457C26.3864 64.5579 26.1561 63.9823 25.9259 63.5217C25.6956 63.0612 25.5038 62.5815 25.3503 62.0827C25.1776 61.6797 25.0624 61.1616 25.0049 60.7011C25.0049 60.4709 25.0241 60.2406 25.0624 60.0103Z" fill="#FFB300"/>
<path d="M82.1659 74.9771C82.7991 74.6317 83.5475 74.459 84.1807 74.1712C84.8714 73.8642 85.5238 73.5188 86.1378 73.135C87.3659 72.4059 88.498 71.5616 89.5341 70.6022C90.5703 69.5661 91.4913 68.5299 92.2972 67.3211C93.1031 66.1698 93.909 64.9034 94.4846 63.5794C94.5997 63.3492 94.9451 63.5218 94.8876 63.7521C94.4846 65.2488 93.9665 66.6303 93.1606 67.8967C92.3547 69.2207 91.3761 70.4295 90.34 71.5232C89.2463 72.5594 88.095 73.538 86.8286 74.3439C86.1378 74.766 85.4471 75.1306 84.7563 75.4376C84.0655 75.783 83.3172 76.1859 82.5689 76.2435C81.8205 76.3586 81.6479 75.2649 82.1659 74.9771Z" fill="#FFB300"/>
<path fill-rule="evenodd" clip-rule="evenodd" d="M62.4216 63.6946V67.3211H59.8313V63.9248C57.5287 63.8673 55.0535 63.2341 53.7871 62.3706L54.5354 59.7227C55.9169 60.5286 57.8165 61.2193 59.8313 61.3344V52.0091C56.3774 50.6276 54.2476 48.6128 54.2476 45.4468C54.2476 42.3384 56.435 39.8631 59.8313 39.1148V35.4883H62.4216V38.827C64.7818 38.8845 66.4511 39.4602 67.4873 40.0358L66.6238 42.6262C65.8755 42.2232 64.4364 41.5325 62.4216 41.4749V49.8217C66.4511 51.4335 68.4659 53.3906 68.4659 56.902C68.4659 60.1256 66.5087 62.8887 62.4216 63.6946ZM59.8313 48.6704V41.8203C58.1619 42.4535 57.4712 43.8926 57.4712 45.1014C57.4712 46.7132 58.2195 47.7494 59.8313 48.6704ZM65.2998 57.1898C65.2998 55.3478 64.4364 54.139 62.4216 53.1028V60.9891C64.2637 60.4134 65.2998 58.9743 65.2998 57.1898Z" fill="white"/>
<path d="M536.461 60.8161C525.984 42.6259 487.992 44.6406 484.48 68.6448C482.753 77.3369 490.237 84.7051 497.029 88.7346C507.563 94.8939 498.008 101.053 488.049 99.6717C510.039 110.897 550.564 85.2232 536.461 60.8161Z" fill="#F45050"/>
<path d="M544.404 68.9902C544.366 67.7621 544.232 66.5533 544.001 65.3637C543.483 63.0035 542.677 60.6434 541.526 58.5136C539.281 54.4265 535.827 51.0878 531.74 48.9579C529.495 47.7491 527.078 46.9432 524.487 46.713C524.199 46.6554 524.199 47.1159 524.43 47.1735C528.632 48.3247 532.604 50.2244 535.77 53.2177C539.051 56.3261 541.296 60.298 542.274 64.7305C542.581 65.9969 542.773 67.2825 542.85 68.5872C542.908 69.8536 542.677 71.1776 542.793 72.444C542.85 73.2499 543.944 73.4802 544.174 72.6743C544.519 71.523 544.462 70.199 544.404 68.9902Z" fill="#F45050"/>
<path d="M543.483 77.2794C543.483 77.1643 543.483 77.0684 543.483 76.9916C543.426 76.8765 543.368 76.8189 543.368 76.7038C543.311 76.5887 543.138 76.5311 543.08 76.6462C543.023 76.7038 542.908 76.7038 542.85 76.8189C542.812 76.8957 542.773 76.9724 542.735 77.0492C542.658 77.2027 542.562 77.3562 542.447 77.5097C542.274 77.8551 542.159 78.258 541.987 78.6034C542.044 78.5458 541.929 78.7761 541.929 78.7761C541.891 78.8912 541.852 78.9872 541.814 79.0639C541.737 79.2174 541.641 79.3901 541.526 79.582C541.449 79.7355 541.353 79.889 541.238 80.0425C541.2 80.1192 541.142 80.196 541.066 80.2728C541.008 80.4454 540.95 80.5606 540.95 80.7908C540.893 81.3089 541.584 81.6543 541.987 81.3665C542.39 81.1362 542.562 80.6181 542.793 80.2152C542.946 79.8314 543.1 79.4477 543.253 79.0639C543.368 78.661 543.483 78.258 543.541 77.8551C543.541 77.6632 543.522 77.4713 543.483 77.2794Z" fill="#F45050"/>
<path d="M495.072 90.6914C494.554 90.346 493.921 90.2309 493.345 90.0007C492.77 89.732 492.232 89.4442 491.733 89.1372C490.659 88.5232 489.68 87.794 488.798 86.9498C487.934 86.0863 487.128 85.2229 486.437 84.1867C485.747 83.2081 485.056 82.1144 484.595 81.0207C484.48 80.7904 484.135 80.9631 484.192 81.1358C484.595 82.4022 485.056 83.5535 485.747 84.7048C486.38 85.7985 487.186 86.8347 488.107 87.7557C489.028 88.6191 490.064 89.425 491.158 90.1158C491.695 90.4995 492.271 90.8257 492.885 91.0944C493.46 91.3822 494.093 91.7276 494.784 91.7851C495.36 91.8427 495.533 90.9217 495.072 90.6914Z" fill="#F45050"/>
<path d="M499.965 67.033C501.116 64.385 503.994 63.2913 506.47 63.6367C509.233 64.0972 511.708 66.3997 511.766 68.9326C516.486 57.132 531.107 67.6086 520.515 76.3007C516.774 79.4092 512.802 80.9058 511.247 80.9058C510.039 80.9058 506.412 79.1214 503.304 76.3007C502.728 75.7251 498.18 71.0624 499.965 67.033Z" fill="white"/>
<path d="M397.041 469.231V482.759C394.163 485.119 389.673 487.191 383.974 488.803C375.685 491.163 364.863 492.545 352.832 492.545C337.808 492.545 324.625 490.357 315.933 486.846C312.882 485.637 310.407 484.256 308.623 482.759V469.231H397.041Z" fill="#FFB300"/>
<g style="mix-blend-mode:overlay">
<path d="M315.933 469.231V486.846C312.882 485.637 310.407 484.256 308.623 482.759V469.231H315.933Z" fill="#999999"/>
</g>
<g style="mix-blend-mode:multiply">
<path d="M397.041 469.231V482.759C394.163 485.119 389.673 487.191 383.974 488.803V469.231H397.041Z" fill="#EFE4D3"/>
</g>
<path d="M352.832 483.162C328.482 483.162 308.68 476.83 308.68 469.001C308.68 461.23 328.482 454.898 352.832 454.898C377.181 454.898 396.983 461.23 396.983 469.001C396.983 476.83 377.181 483.162 352.832 483.162Z" fill="#FFC943"/>
<path fill-rule="evenodd" clip-rule="evenodd" d="M390.881 469.001C390.881 475.793 373.843 481.262 352.832 481.262C331.821 481.262 314.782 475.793 314.782 469.001C314.782 462.266 331.821 456.74 352.832 456.74C373.843 456.74 390.881 462.266 390.881 469.001ZM388.233 469.001C388.233 462.726 372.346 457.603 352.832 457.603C333.26 457.603 317.43 462.726 317.43 469.001C317.43 475.333 333.26 480.456 352.832 480.456C372.346 480.456 388.233 475.333 388.233 469.001Z" fill="#FFB300"/>
<g style="mix-blend-mode:multiply">
<path fill-rule="evenodd" clip-rule="evenodd" d="M390.881 469.001C390.881 475.793 373.843 481.262 352.832 481.262C331.821 481.262 314.782 475.793 314.782 469.001C314.782 462.266 331.821 456.74 352.832 456.74C373.843 456.74 390.881 462.266 390.881 469.001ZM388.233 469.001C388.233 462.726 372.346 457.603 352.832 457.603C333.26 457.603 317.43 462.726 317.43 469.001C317.43 475.333 333.26 480.456 352.832 480.456C372.346 480.456 388.233 475.333 388.233 469.001Z" fill="#EFE4D3"/>
</g>
<g style="mix-blend-mode:multiply">
<path fill-rule="evenodd" clip-rule="evenodd" d="M355.883 477.463V479.65H351.162V477.635C346.845 477.578 342.24 477.175 339.88 476.714L341.319 475.103C343.794 475.621 347.363 476.024 351.162 476.081V470.497C344.715 469.692 340.801 468.483 340.801 466.583C340.801 464.683 344.773 463.244 351.162 462.784V460.596H355.883V462.611C360.257 462.669 363.423 463.014 365.381 463.359L363.769 464.856C362.387 464.626 359.624 464.223 355.883 464.165V469.173C363.366 470.152 367.165 471.303 367.165 473.433C367.165 475.333 363.481 477.002 355.883 477.463ZM351.162 468.483V464.396C347.996 464.799 346.672 465.604 346.672 466.353C346.672 467.331 348.112 467.965 351.162 468.483ZM361.236 473.606C361.236 472.512 359.682 471.764 355.883 471.131V475.851C359.279 475.505 361.236 474.7 361.236 473.606Z" fill="#EFE4D3"/>
</g>
<path fill-rule="evenodd" clip-rule="evenodd" d="M355.192 476.599V478.729H350.414V476.714C346.154 476.714 341.549 476.311 339.189 475.793L340.628 474.239C343.103 474.7 346.672 475.102 350.414 475.16V469.634C344.024 468.77 340.11 467.562 340.11 465.662C340.11 463.82 344.082 462.323 350.414 461.863V459.733H355.192V461.748C359.567 461.748 362.733 462.093 364.69 462.438L363.078 463.993C361.697 463.762 358.933 463.359 355.192 463.302V468.31C362.675 469.231 366.474 470.44 366.474 472.57C366.474 474.412 362.79 476.139 355.192 476.599ZM350.414 467.619V463.532C347.306 463.878 345.982 464.741 345.982 465.489C345.982 466.41 347.421 467.044 350.414 467.619ZM360.545 472.685C360.545 471.591 358.991 470.9 355.192 470.267V474.987C358.588 474.642 360.545 473.779 360.545 472.685Z" fill="#FFF19C"/>
<g style="mix-blend-mode:screen">
<path d="M369.18 455.819L363.942 457.316L315.358 471.188L310.119 472.685C309.141 471.534 308.68 470.267 308.68 469.001C308.68 468.118 308.91 467.274 309.371 466.468L318.178 463.935L341.261 457.316L350.069 454.84C350.99 454.802 351.911 454.783 352.832 454.783C358.588 454.783 364.114 455.128 369.18 455.819Z" fill="#232323"/>
</g>
<g style="mix-blend-mode:screen">
<path d="M396.983 469.001C396.983 469.615 396.868 470.21 396.638 470.785L388.809 473.03L360.776 481.032L352.947 483.277H352.832C339.131 483.277 326.87 481.262 318.754 478.096L323.301 476.772L380.232 460.539L384.78 459.215C392.378 461.748 396.983 465.201 396.983 469.001Z" fill="#232323"/>
</g>
<path d="M402.106 458.64V472.167C399.228 474.528 394.738 476.6 389.039 478.212C380.75 480.572 369.871 482.011 357.897 482.011C342.873 482.011 329.691 479.823 320.999 476.312C317.948 475.046 315.473 473.664 313.631 472.167V458.64H402.106Z" fill="#FFB300"/>
<g style="mix-blend-mode:overlay">
<path d="M320.999 458.64V476.312C317.948 475.046 315.473 473.664 313.631 472.167V458.64H320.999Z" fill="#999999"/>
</g>
<g style="mix-blend-mode:multiply">
<path d="M402.106 458.64V472.167C399.228 474.528 394.738 476.6 389.039 478.212V458.64H402.106Z" fill="#EFE4D3"/>
</g>
<path d="M357.897 472.571C333.49 472.571 313.688 466.239 313.688 458.467C313.688 450.696 333.49 444.364 357.897 444.364C382.247 444.364 402.049 450.696 402.049 458.467C402.049 466.239 382.247 472.571 357.897 472.571Z" fill="#FFC943"/>
<path fill-rule="evenodd" clip-rule="evenodd" d="M395.947 458.467C395.947 465.202 378.908 470.728 357.84 470.728C336.829 470.728 319.79 465.202 319.79 458.467C319.79 451.675 336.829 446.206 357.84 446.206C378.908 446.206 395.947 451.675 395.947 458.467ZM393.242 458.467C393.242 452.135 377.411 447.07 357.84 447.07C338.326 447.07 322.438 452.135 322.438 458.467C322.438 464.742 338.326 469.865 357.84 469.865C377.411 469.865 393.242 464.742 393.242 458.467Z" fill="#FFB300"/>
<g style="mix-blend-mode:multiply">
<path fill-rule="evenodd" clip-rule="evenodd" d="M395.947 458.467C395.947 465.202 378.908 470.728 357.84 470.728C336.829 470.728 319.79 465.202 319.79 458.467C319.79 451.675 336.829 446.206 357.84 446.206C378.908 446.206 395.947 451.675 395.947 458.467ZM393.242 458.467C393.242 452.135 377.411 447.07 357.84 447.07C338.326 447.07 322.438 452.135 322.438 458.467C322.438 464.742 338.326 469.865 357.84 469.865C377.411 469.865 393.242 464.742 393.242 458.467Z" fill="#EFE4D3"/>
</g>
<g style="mix-blend-mode:multiply">
<path fill-rule="evenodd" clip-rule="evenodd" d="M360.948 466.929V469.059H356.17V467.044C351.911 467.044 347.248 466.641 344.888 466.123L346.385 464.569C348.86 465.03 352.371 465.433 356.17 465.49V459.964C349.723 459.101 345.866 457.892 345.866 455.992C345.866 454.15 349.838 452.653 356.17 452.193V450.063H360.948V452.078C365.323 452.078 368.489 452.423 370.389 452.768L368.777 454.323C367.395 454.092 364.69 453.69 360.948 453.632V458.64C368.432 459.561 372.231 460.77 372.231 462.842C372.231 464.742 368.547 466.469 360.948 466.929ZM356.17 457.949V453.862C353.004 454.208 351.738 455.071 351.738 455.819C351.738 456.74 353.119 457.374 356.17 457.949ZM366.244 463.015C366.244 461.921 364.69 461.23 360.948 460.597V465.317C364.344 464.972 366.244 464.109 366.244 463.015Z" fill="#EFE4D3"/>
</g>
<path fill-rule="evenodd" clip-rule="evenodd" d="M360.257 466.008V468.195H355.48V466.181C351.22 466.123 346.557 465.72 344.197 465.26L345.694 463.648C348.169 464.166 351.68 464.569 355.48 464.627V459.043C349.033 458.237 345.176 457.028 345.176 455.128C345.176 453.229 349.148 451.79 355.48 451.329V449.142H360.257V451.157C364.575 451.214 367.798 451.502 369.698 451.905L368.086 453.402C366.705 453.171 363.999 452.768 360.257 452.711V457.719C367.741 458.697 371.54 459.849 371.54 461.979C371.54 463.878 367.856 465.548 360.257 466.008ZM355.48 457.028V452.941C352.314 453.344 351.047 454.15 351.047 454.898C351.047 455.877 352.429 456.51 355.48 457.028ZM365.553 462.151C365.553 461.058 363.999 460.309 360.257 459.676V464.396C363.654 464.051 365.553 463.187 365.553 462.151Z" fill="#FFF19C"/>
<g style="mix-blend-mode:screen">
<path d="M374.245 445.228L369.007 446.724L320.423 460.597L315.185 462.094C314.206 460.943 313.688 459.734 313.688 458.467C313.688 457.585 313.938 456.721 314.437 455.877L323.244 453.344L346.327 446.782L355.134 444.249C356.055 444.249 356.957 444.249 357.84 444.249C363.654 444.249 369.18 444.594 374.245 445.228Z" fill="#232323"/>
</g>
<g style="mix-blend-mode:screen">
<path d="M402.049 458.467C402.049 459.043 401.934 459.618 401.703 460.194L393.875 462.439L365.841 470.441L358.012 472.685H357.84C344.14 472.685 331.878 470.671 323.82 467.505L328.367 466.181L385.24 449.948L389.845 448.624C397.386 451.214 402.049 454.668 402.049 458.467Z" fill="#232323"/>
</g>
<path d="M397.041 447.645V461.173C394.163 463.533 389.673 465.605 383.974 467.217C375.685 469.577 364.863 471.016 352.832 471.016C337.808 471.016 324.625 468.829 315.933 465.317C312.882 464.051 310.407 462.669 308.623 461.173V447.645H397.041Z" fill="#FFB300"/>
<g style="mix-blend-mode:overlay">
<path d="M315.933 447.645V465.317C312.882 464.051 310.407 462.669 308.623 461.173V447.645H315.933Z" fill="#999999"/>
</g>
<g style="mix-blend-mode:multiply">
<path d="M397.041 447.645V461.173C394.163 463.533 389.673 465.605 383.974 467.217V447.645H397.041Z" fill="#EFE4D3"/>
</g>
<path d="M352.832 461.576C328.482 461.576 308.68 455.244 308.68 447.473C308.68 439.701 328.482 433.369 352.832 433.369C377.181 433.369 396.983 439.701 396.983 447.473C396.983 455.244 377.181 461.576 352.832 461.576Z" fill="#FFC943"/>
<path fill-rule="evenodd" clip-rule="evenodd" d="M390.881 447.472C390.881 454.207 373.842 459.733 352.832 459.733C331.821 459.733 314.782 454.207 314.782 447.472C314.782 440.679 331.821 435.211 352.832 435.211C373.842 435.211 390.881 440.679 390.881 447.472ZM388.233 447.472C388.233 441.14 372.346 436.074 352.832 436.074C333.26 436.074 317.43 441.14 317.43 447.472C317.43 453.746 333.26 458.869 352.832 458.869C372.346 458.869 388.233 453.746 388.233 447.472Z" fill="#FFB300"/>
<g style="mix-blend-mode:multiply">
<path fill-rule="evenodd" clip-rule="evenodd" d="M390.881 447.472C390.881 454.207 373.842 459.733 352.832 459.733C331.821 459.733 314.782 454.207 314.782 447.472C314.782 440.679 331.821 435.211 352.832 435.211C373.842 435.211 390.881 440.679 390.881 447.472ZM388.233 447.472C388.233 441.14 372.346 436.074 352.832 436.074C333.26 436.074 317.43 441.14 317.43 447.472C317.43 453.746 333.26 458.869 352.832 458.869C372.346 458.869 388.233 453.746 388.233 447.472Z" fill="#EFE4D3"/>
</g>
<g style="mix-blend-mode:multiply">
<path fill-rule="evenodd" clip-rule="evenodd" d="M355.883 455.934V458.064H351.162V456.049C346.845 456.049 342.24 455.646 339.88 455.128L341.319 453.574C343.794 454.034 347.363 454.437 351.162 454.495V448.969C344.715 448.105 340.801 446.896 340.801 444.997C340.801 443.155 344.773 441.658 351.162 441.197V439.068H355.883V441.082C360.257 441.082 363.423 441.428 365.381 441.773L363.769 443.327C362.387 443.04 359.624 442.694 355.883 442.637V447.645C363.366 448.566 367.165 449.774 367.165 451.847C367.165 453.746 363.481 455.473 355.883 455.934ZM351.162 446.954V442.867C347.996 443.212 346.672 444.076 346.672 444.824C346.672 445.745 348.111 446.378 351.162 446.954ZM361.236 452.02C361.236 450.926 359.682 450.235 355.883 449.602V454.322C359.279 453.919 361.236 453.113 361.236 452.02Z" fill="#EFE4D3"/>
</g>
<path fill-rule="evenodd" clip-rule="evenodd" d="M355.192 455.013V457.2H350.414V455.185C346.154 455.128 341.549 454.725 339.189 454.207L340.628 452.653C343.103 453.171 346.672 453.574 350.414 453.631V448.047C344.024 447.184 340.11 446.033 340.11 444.133C340.11 442.234 344.082 440.794 350.414 440.334V438.146H355.192V440.161C359.567 440.219 362.733 440.507 364.69 440.91L363.078 442.406C361.697 442.176 358.933 441.773 355.192 441.715V446.724C362.675 447.702 366.474 448.853 366.474 450.983C366.474 452.883 362.79 454.552 355.192 455.013ZM350.414 446.033V441.946C347.306 442.349 345.982 443.155 345.982 443.903C345.982 444.881 347.421 445.515 350.414 446.033ZM360.545 451.156C360.545 450.062 358.991 449.314 355.192 448.681V453.401C358.588 453.056 360.545 452.192 360.545 451.156Z" fill="#FFF19C"/>
<g style="mix-blend-mode:screen">
<path d="M369.18 434.232L363.941 435.729L315.358 449.602L310.119 451.098C309.141 449.947 308.68 448.738 308.68 447.472C308.68 446.589 308.91 445.726 309.371 444.882L318.178 442.349L341.261 435.786L350.069 433.254C350.99 433.254 351.911 433.254 352.832 433.254C358.588 433.254 364.114 433.599 369.18 434.232Z" fill="#232323"/>
</g>
<g style="mix-blend-mode:screen">
<path d="M396.983 447.472C396.983 448.048 396.868 448.623 396.638 449.199L388.809 451.444L360.775 459.445L352.947 461.69H352.832C339.131 461.69 326.87 459.676 318.754 456.51L323.301 455.186L380.232 438.953L384.78 437.629C392.378 440.219 396.983 443.673 396.983 447.472Z" fill="#232323"/>
</g>
<path d="M402.106 436.363V449.89C399.228 452.25 394.738 454.322 389.039 455.934C380.75 458.294 369.871 459.733 357.897 459.733C342.873 459.733 329.691 457.489 320.999 454.035C317.948 452.768 315.473 451.387 313.631 449.89V436.363H402.106Z" fill="#FFB300"/>
<g style="mix-blend-mode:overlay">
<path d="M320.999 436.363V454.035C317.948 452.768 315.473 451.387 313.631 449.89V436.363H320.999Z" fill="#999999"/>
</g>
<g style="mix-blend-mode:multiply">
<path d="M402.106 436.363V449.89C399.228 452.25 394.738 454.322 389.039 455.934V436.363H402.106Z" fill="#EFE4D3"/>
</g>
<path d="M357.897 450.293C333.49 450.293 313.688 443.961 313.688 436.19C313.688 428.419 333.49 422.087 357.897 422.087C382.247 422.087 402.049 428.419 402.049 436.19C402.049 443.961 382.247 450.293 357.897 450.293Z" fill="#FFC943"/>
<path fill-rule="evenodd" clip-rule="evenodd" d="M395.947 436.19C395.947 442.925 378.908 448.451 357.84 448.451C336.829 448.451 319.79 442.925 319.79 436.19C319.79 429.397 336.829 423.929 357.84 423.929C378.908 423.929 395.947 429.397 395.947 436.19ZM393.242 436.19C393.242 429.858 377.411 424.735 357.84 424.735C338.326 424.735 322.438 429.858 322.438 436.19C322.438 442.464 338.326 447.587 357.84 447.587C377.411 447.587 393.242 442.464 393.242 436.19Z" fill="#FFB300"/>
<g style="mix-blend-mode:multiply">
<path fill-rule="evenodd" clip-rule="evenodd" d="M395.947 436.19C395.947 442.925 378.908 448.451 357.84 448.451C336.829 448.451 319.79 442.925 319.79 436.19C319.79 429.397 336.829 423.929 357.84 423.929C378.908 423.929 395.947 429.397 395.947 436.19ZM393.242 436.19C393.242 429.858 377.411 424.735 357.84 424.735C338.326 424.735 322.438 429.858 322.438 436.19C322.438 442.464 338.326 447.587 357.84 447.587C377.411 447.587 393.242 442.464 393.242 436.19Z" fill="#EFE4D3"/>
</g>
<g style="mix-blend-mode:multiply">
<path fill-rule="evenodd" clip-rule="evenodd" d="M360.948 444.652V446.782H356.17V444.767C351.911 444.767 347.248 444.364 344.888 443.846L346.385 442.292C348.86 442.752 352.371 443.155 356.17 443.213V437.629C349.723 436.823 345.866 435.614 345.866 433.715C345.866 431.873 349.838 430.376 356.17 429.915V427.728H360.948V429.8C365.323 429.8 368.489 430.146 370.389 430.491L368.777 432.045C367.395 431.758 364.69 431.412 360.948 431.355V436.363C368.432 437.284 372.231 438.492 372.231 440.565C372.231 442.464 368.547 444.191 360.948 444.652ZM356.17 435.672V431.527C353.004 431.93 351.738 432.794 351.738 433.484C351.738 434.463 353.119 435.096 356.17 435.672ZM366.244 440.737C366.244 439.644 364.69 438.953 360.948 438.32V443.04C364.344 442.637 366.244 441.831 366.244 440.737Z" fill="#EFE4D3"/>
</g>
<path fill-rule="evenodd" clip-rule="evenodd" d="M360.257 443.731V445.918H355.48V443.846C351.22 443.846 346.557 443.443 344.197 442.925L345.694 441.371C348.169 441.889 351.68 442.292 355.48 442.292V436.765C349.033 435.902 345.176 434.751 345.176 432.851C345.176 430.952 349.148 429.455 355.48 429.052V426.865H360.257V428.879C364.575 428.937 367.798 429.225 369.698 429.57L368.086 431.124C366.705 430.894 363.999 430.491 360.257 430.433V435.442C367.741 436.42 371.54 437.571 371.54 439.701C371.54 441.601 367.856 443.27 360.257 443.731ZM355.48 434.751V430.664C352.314 431.067 351.047 431.873 351.047 432.621C351.047 433.599 352.429 434.175 355.48 434.751ZM365.553 439.816C365.553 438.723 363.999 438.032 360.257 437.399V442.119C363.654 441.774 365.553 440.91 365.553 439.816Z" fill="#FFF19C"/>
<g style="mix-blend-mode:screen">
<path d="M374.245 422.95L369.007 424.447L320.423 438.32L315.185 439.816C314.206 438.665 313.688 437.456 313.688 436.19C313.688 435.307 313.938 434.444 314.437 433.6L323.244 431.067L346.327 424.504L355.134 421.972C356.055 421.933 356.957 421.914 357.84 421.914C363.654 421.914 369.18 422.317 374.245 422.95Z" fill="#232323"/>
</g>
<g style="mix-blend-mode:screen">
<path d="M402.049 436.19C402.049 436.766 401.934 437.341 401.703 437.917L393.875 440.162L365.841 448.163L358.012 450.408H357.84C344.14 450.408 331.878 448.393 323.82 445.227L328.367 443.903L385.24 427.67L389.845 426.346C397.386 428.879 402.049 432.391 402.049 436.19Z" fill="#232323"/>
</g>
<path d="M397.041 425.368V438.838C394.163 441.256 389.673 443.328 383.974 444.94C375.685 447.3 364.863 448.682 352.832 448.682C337.808 448.682 324.625 446.494 315.933 442.983C312.882 441.774 310.407 440.392 308.623 438.838V425.368H397.041Z" fill="#FFB300"/>
<g style="mix-blend-mode:overlay">
<path d="M315.933 425.368V442.983C312.882 441.774 310.407 440.392 308.623 438.838V425.368H315.933Z" fill="#999999"/>
</g>
<g style="mix-blend-mode:multiply">
<path d="M397.041 425.368V438.838C394.163 441.256 389.673 443.328 383.974 444.94V425.368H397.041Z" fill="#EFE4D3"/>
</g>
<path d="M352.832 439.241C328.482 439.241 308.68 432.909 308.68 425.138C308.68 417.367 328.482 411.035 352.832 411.035C377.181 411.035 396.983 417.367 396.983 425.138C396.983 432.909 377.181 439.241 352.832 439.241Z" fill="#FFC943"/>
<path fill-rule="evenodd" clip-rule="evenodd" d="M390.881 425.138C390.881 431.93 373.842 437.399 352.832 437.399C331.821 437.399 314.782 431.93 314.782 425.138C314.782 418.345 331.821 412.876 352.832 412.876C373.842 412.876 390.881 418.345 390.881 425.138ZM388.233 425.138C388.233 418.863 372.346 413.74 352.832 413.74C333.26 413.74 317.43 418.863 317.43 425.138C317.43 431.47 333.26 436.535 352.832 436.535C372.346 436.535 388.233 431.47 388.233 425.138Z" fill="#FFB300"/>
<g style="mix-blend-mode:multiply">
<path fill-rule="evenodd" clip-rule="evenodd" d="M390.881 425.138C390.881 431.93 373.842 437.399 352.832 437.399C331.821 437.399 314.782 431.93 314.782 425.138C314.782 418.345 331.821 412.876 352.832 412.876C373.842 412.876 390.881 418.345 390.881 425.138ZM388.233 425.138C388.233 418.863 372.346 413.74 352.832 413.74C333.26 413.74 317.43 418.863 317.43 425.138C317.43 431.47 333.26 436.535 352.832 436.535C372.346 436.535 388.233 431.47 388.233 425.138Z" fill="#EFE4D3"/>
</g>
<g style="mix-blend-mode:multiply">
<path fill-rule="evenodd" clip-rule="evenodd" d="M355.883 433.6V435.787H351.162V433.715C346.845 433.715 342.24 433.312 339.88 432.794L341.319 431.24C343.794 431.758 347.363 432.161 351.162 432.161V426.634C344.715 425.771 340.801 424.62 340.801 422.72C340.801 420.82 344.773 419.324 351.162 418.921V416.733H355.883V418.748C360.257 418.806 363.423 419.094 365.381 419.439L363.769 420.993C362.387 420.763 359.624 420.36 355.883 420.302V425.31C363.366 426.289 367.165 427.44 367.165 429.57C367.165 431.47 363.481 433.139 355.883 433.6ZM351.162 424.62V420.533C347.996 420.936 346.672 421.741 346.672 422.49C346.672 423.468 348.111 424.044 351.162 424.62ZM361.236 429.685C361.236 428.592 359.682 427.901 355.883 427.268V431.988C359.279 431.642 361.236 430.779 361.236 429.685Z" fill="#EFE4D3"/>
</g>
<path fill-rule="evenodd" clip-rule="evenodd" d="M355.192 432.736V434.866H350.414V432.851C346.154 432.851 341.549 432.448 339.189 431.93L340.628 430.319C343.103 430.837 346.672 431.24 350.414 431.297V425.713C344.024 424.908 340.11 423.699 340.11 421.799C340.11 419.957 344.082 418.46 350.414 418V415.812H355.192V417.885C359.567 417.885 362.733 418.23 364.69 418.576L363.078 420.13C361.697 419.842 358.933 419.439 355.192 419.439V424.447C362.675 425.368 366.474 426.577 366.474 428.649C366.474 430.549 362.79 432.218 355.192 432.736ZM350.414 423.756V419.612C347.306 420.015 345.982 420.878 345.982 421.569C345.982 422.547 347.421 423.181 350.414 423.756ZM360.545 428.822C360.545 427.728 358.991 426.98 355.192 426.404V431.124C358.588 430.722 360.545 429.916 360.545 428.822Z" fill="#FFF19C"/>
<g style="mix-blend-mode:screen">
<path d="M369.18 411.898L363.941 413.395L315.358 427.325L310.119 428.822C309.141 427.613 308.68 426.404 308.68 425.138C308.68 424.255 308.91 423.392 309.371 422.547L318.178 420.072L341.261 413.452L350.069 410.919C350.99 410.919 351.911 410.919 352.832 410.919C358.588 410.919 364.114 411.265 369.18 411.898Z" fill="#232323"/>
</g>
<g style="mix-blend-mode:screen">
<path d="M396.983 425.138C396.983 425.714 396.868 426.289 396.638 426.865L388.809 429.11L360.775 437.111L352.947 439.356H352.832C339.131 439.356 326.87 437.341 318.754 434.175L323.301 432.909L380.232 416.618L384.78 415.352C392.378 417.885 396.983 421.339 396.983 425.138Z" fill="#232323"/>
</g>
<path d="M397.041 414.315V427.843C394.163 430.26 389.673 432.333 383.974 433.944C375.685 436.305 364.863 437.686 352.832 437.686C337.808 437.686 324.625 435.499 315.933 431.987C312.882 430.778 310.407 429.397 308.623 427.843V414.315H397.041Z" fill="#FFB300"/>
<g style="mix-blend-mode:overlay">
<path d="M315.933 414.315V431.987C312.882 430.778 310.407 429.397 308.623 427.843V414.315H315.933Z" fill="#999999"/>
</g>
<g style="mix-blend-mode:multiply">
<path d="M397.041 414.315V427.843C394.163 430.26 389.673 432.333 383.974 433.944V414.315H397.041Z" fill="#EFE4D3"/>
</g>
<path d="M352.832 428.246C328.482 428.246 308.68 421.914 308.68 414.143C308.68 406.372 328.482 400.04 352.832 400.04C377.181 400.04 396.983 406.372 396.983 414.143C396.983 421.914 377.181 428.246 352.832 428.246Z" fill="#FFC943"/>
<path fill-rule="evenodd" clip-rule="evenodd" d="M390.881 414.142C390.881 420.935 373.843 426.404 352.832 426.404C331.821 426.404 314.782 420.935 314.782 414.142C314.782 407.35 331.821 401.881 352.832 401.881C373.843 401.881 390.881 407.35 390.881 414.142ZM388.233 414.142C388.233 407.868 372.346 402.745 352.832 402.745C333.26 402.745 317.43 407.868 317.43 414.142C317.43 420.417 333.26 425.54 352.832 425.54C372.346 425.54 388.233 420.417 388.233 414.142Z" fill="#FFB300"/>
<g style="mix-blend-mode:multiply">
<path fill-rule="evenodd" clip-rule="evenodd" d="M390.881 414.142C390.881 420.935 373.843 426.404 352.832 426.404C331.821 426.404 314.782 420.935 314.782 414.142C314.782 407.35 331.821 401.881 352.832 401.881C373.843 401.881 390.881 407.35 390.881 414.142ZM388.233 414.142C388.233 407.868 372.346 402.745 352.832 402.745C333.26 402.745 317.43 407.868 317.43 414.142C317.43 420.417 333.26 425.54 352.832 425.54C372.346 425.54 388.233 420.417 388.233 414.142Z" fill="#EFE4D3"/>
</g>
<g style="mix-blend-mode:multiply">
<path fill-rule="evenodd" clip-rule="evenodd" d="M355.883 422.605V424.792H351.162V422.72C346.845 422.72 342.24 422.317 339.88 421.799L341.319 420.245C343.794 420.763 347.363 421.166 351.162 421.166V415.64C344.715 414.776 340.801 413.625 340.801 411.725C340.801 409.826 344.773 408.329 351.162 407.926V405.739H355.883V407.753C360.257 407.753 363.423 408.099 365.381 408.444L363.769 409.998C362.387 409.768 359.624 409.365 355.883 409.307V414.316C363.366 415.294 367.165 416.445 367.165 418.575C367.165 420.475 363.481 422.144 355.883 422.605ZM351.162 413.625V409.538C347.996 409.941 346.672 410.747 346.672 411.495C346.672 412.474 348.112 413.049 351.162 413.625ZM361.236 418.69C361.236 417.597 359.682 416.906 355.883 416.273V420.993C359.279 420.648 361.236 419.784 361.236 418.69Z" fill="#EFE4D3"/>
</g>
<path fill-rule="evenodd" clip-rule="evenodd" d="M355.192 421.741V423.871H350.414V421.856C346.154 421.856 341.549 421.453 339.189 420.935L340.628 419.323C343.103 419.842 346.672 420.244 350.414 420.302V414.718C344.024 413.912 340.11 412.704 340.11 410.804C340.11 408.904 344.082 407.465 350.414 407.005V404.817H355.192V406.89C359.567 406.89 362.733 407.235 364.69 407.58L363.078 409.077C361.697 408.847 358.933 408.444 355.192 408.444V413.452C362.675 414.373 366.474 415.524 366.474 417.654C366.474 419.554 362.79 421.223 355.192 421.741ZM350.414 412.704V408.617C347.306 409.02 345.982 409.883 345.982 410.574C345.982 411.552 347.421 412.186 350.414 412.704ZM360.545 417.827C360.545 416.733 358.991 415.985 355.192 415.409V420.072C358.588 419.726 360.545 418.921 360.545 417.827Z" fill="#FFF19C"/>
<g style="mix-blend-mode:screen">
<path d="M369.18 400.903L363.942 402.4L315.358 416.33L310.119 417.827C309.141 416.618 308.68 415.409 308.68 414.143C308.68 413.26 308.91 412.397 309.371 411.552L318.178 409.077L341.261 402.457L350.069 399.925C350.99 399.925 351.911 399.925 352.832 399.925C358.588 399.925 364.114 400.27 369.18 400.903Z" fill="#232323"/>
</g>
<g style="mix-blend-mode:screen">
<path d="M396.983 414.143C396.983 414.718 396.868 415.294 396.638 415.869L388.809 418.114L360.776 426.116L352.947 428.361H352.832C339.131 428.361 326.87 426.346 318.754 423.18L323.301 421.914L380.232 405.623L384.78 404.357C392.378 406.89 396.983 410.343 396.983 414.143Z" fill="#232323"/>
</g>
<path d="M439.408 134.728C439.58 119.416 450.863 107.097 464.678 107.212C478.494 107.328 489.604 119.819 489.431 135.131C489.316 150.501 477.976 162.819 464.218 162.704C450.402 162.531 439.293 150.04 439.408 134.728Z" fill="#222222"/>
<path d="M420.642 238.343L430.773 249.511C445.567 240.185 451.093 191.486 445.855 186.133C435.148 175.138 426.916 189.299 426.916 189.299C423.29 206.971 420.699 223.78 420.642 238.343Z" fill="#FFD8B5"/>
<path d="M421.218 237.71L395.659 266.319L402.394 273.169C402.394 273.169 422.542 261.081 433.306 247.093L421.218 237.71Z" fill="#FFD8B5"/>
<g style="mix-blend-mode:multiply">
<path d="M439.868 224.873C439.868 224.873 439.696 231.435 439.523 237.71C437.508 242.257 435.033 246.057 432.27 248.417C427.837 253.828 422.139 258.893 416.9 263.038V260.045C416.9 260.045 428.356 249.338 430.773 246.517C433.191 243.639 432.788 231.954 428.816 229.018C424.844 226.024 423.463 223.952 423.463 223.952L439.868 224.873Z" fill="#F0DED3"/>
</g>
<path d="M446.488 213.072C444.301 222.168 441.941 229.824 441.941 229.824C441.941 229.824 430.543 228.327 420.642 223.319C421.448 203.92 426.341 180.952 437.451 175.483C437.451 175.483 443.322 178.074 448.676 184.233C451.669 187.687 449.194 201.56 446.488 213.072Z" fill="#14539A"/>
<g style="mix-blend-mode:multiply">
<path d="M444.243 221.765C442.977 226.543 441.941 229.824 441.941 229.824C441.941 229.824 438.257 229.248 433.364 228.039C433.882 225.679 434.688 219.462 431.867 211C428.413 200.754 431.003 192.119 431.003 192.119L444.243 221.765Z" fill="#DBCDB9"/>
</g>
<path d="M440.444 478.097L450.057 479.881C450.345 462.094 464.736 407.696 456.044 389.16C455.871 388.873 438.372 376.496 433.479 390.139C436.702 420.821 441.71 455.013 440.444 478.097Z" fill="#F9C8A0"/>
<path d="M435.321 395.896C439.926 395.262 456.332 395.262 456.504 390.254C457.195 366.826 474.176 327.913 460.476 286.409C460.476 286.409 441.653 284.797 431.406 295.101C431.406 295.101 424.902 369.819 435.321 395.896Z" fill="#F9C8A0"/>
<path d="M496.569 446.206L510.729 444.019C503.649 431.93 490.985 381.159 474.81 373.043C474.522 372.87 457.713 358.824 457.943 378.569C458.174 393.823 481.142 426.174 496.569 446.206Z" fill="#FFD8B5"/>
<path d="M463.412 395.723C468.017 394.974 474.694 381.792 479.069 381.102C480.566 366.768 496.281 315.536 478.609 279.789C471.644 265.686 459.785 278.58 449.654 289.114C449.654 289.114 446.028 375 463.412 395.723Z" fill="#FFD8B5"/>
<path d="M486.38 368.207C469.974 374.424 437.681 368.495 427.492 363.372C427.492 363.372 421.563 276.278 437.105 261.081L486.553 261.426C489.488 265.283 487.761 270.579 489.258 275.529C498.468 305.808 486.38 368.207 486.38 368.207Z" fill="#14539A"/>
<g style="mix-blend-mode:multiply">
<path d="M486.38 368.207C486.38 368.207 491.1 296.943 484.883 285.833C482.408 281.343 471.874 280.883 471.874 280.883C478.954 276.22 482.12 274.839 489.258 275.529C498.468 305.808 486.38 368.207 486.38 368.207Z" fill="#DBCDB9"/>
</g>
<path d="M491.388 275.299C489.891 275.529 488.452 275.875 486.956 276.278C479.76 278.35 475.27 281.516 464.506 281.459C459.095 279.847 458.692 265.744 458.692 265.744C458.692 265.744 454.144 280.768 452.072 280.653C444.531 280.595 430.255 273.227 430.255 273.112C453.971 227.924 420.987 202.308 434.285 178.534C436.472 175.483 441.71 172.49 445.394 171.972C455.238 170.475 466.866 171.166 476.709 173.066C484.998 174.677 493.172 178.246 496.857 183.024C503.476 191.486 495.245 203.459 488.452 214.972C486.15 218.887 484.02 222.743 482.696 226.427C477.63 241.221 483.617 263.786 491.388 275.299Z" fill="#14539A"/>
<g style="mix-blend-mode:multiply">
<path d="M491.388 275.299C489.891 275.529 482.235 278.35 480.796 278.753C476.479 269.485 479.012 261.426 467.154 262.347L449.884 257.8C449.884 257.8 475.213 247.381 478.609 225.967C480.451 214.396 474.176 206.165 476.709 200.639L488.452 214.972C486.15 218.886 484.02 222.743 482.696 226.427C477.63 241.221 483.617 263.786 491.388 275.299Z" fill="#DBCDB9"/>
</g>
<path d="M439.868 200.639C439.868 200.639 456.562 202.999 472.277 200.639C472.277 200.639 472.622 220.844 481.487 232.241C482.293 245.999 485.344 253.425 489.546 262.693C495.302 275.357 493.921 291.532 493.921 291.532L491.388 341.095C465.83 338.907 448.733 343.858 425.535 336.95C425.362 320.544 426.801 303.275 428.298 288.539C428.298 288.539 429.564 271.212 433.191 260.275C434.745 255.555 437.048 231.666 437.048 231.666C437.048 231.666 438.199 209.964 439.868 200.639Z" fill="#EAE6FF"/>
<g style="mix-blend-mode:multiply">
<path d="M452.763 246.344C452.763 246.344 456.101 258.433 467.499 261.599C467.499 261.599 455.871 261.714 452.763 246.344Z" fill="#CDBDDB"/>
</g>
<g style="mix-blend-mode:multiply">
<path d="M444.992 250.662C444.992 250.662 450.69 271.212 470.032 276.623C470.032 276.623 450.287 276.796 444.992 250.662Z" fill="#CDBDDB"/>
</g>
<g style="mix-blend-mode:multiply">
<path d="M493.921 291.532L492.309 323.365C489.201 298.267 492.309 276.796 486.553 270.406C485.114 268.795 479.242 269.082 475.846 269.831C480.624 266.031 481.142 246.92 478.551 238.171C476.709 232.011 475.846 221.132 475.846 221.132C477.285 225.391 479.069 229.191 481.487 232.241L481.775 236.041L482.753 242.776C484.193 250.432 486.553 256.073 489.546 262.693C495.302 275.357 493.921 291.532 493.921 291.532Z" fill="#CDBDDB"/>
</g>
<path d="M476.709 173.066C475.097 177.325 467.269 184.866 463.815 187.86C461.858 186.133 458.749 184.291 456.965 181.93C455.411 183.888 452.014 185.154 449.079 187.111C446.546 184.003 444.473 177.268 445.394 171.972C455.295 170.533 466.866 171.166 476.709 173.066Z" fill="white"/>
<path d="M496.166 482.184C500.195 483.681 509.751 480.688 510.902 477.464C512.053 474.298 513.608 467.851 515.737 466.239C517.81 464.685 522.3 461.346 521.609 458.468C520.918 455.878 517.234 452.942 514.644 450.524C512.514 448.509 507.794 437.918 507.794 437.918L496.166 445.631C496.166 445.631 504.11 455.59 504.915 459.562C505.376 462.037 504.455 465.779 502.901 468.484C502.325 469.52 499.85 474.471 497.95 476.14C494.957 478.731 493.748 481.263 496.166 482.184Z" fill="#FFD8B5"/>
<path d="M494.554 482.357C498.584 483.854 509.751 480.688 510.902 477.464C512.053 474.298 513.608 467.851 515.738 466.239C517.81 464.685 522.3 461.346 521.609 458.468C520.918 455.878 517.234 452.942 514.644 450.524C514.644 450.524 515.565 453.748 515.507 456.684C515.45 459.677 507.391 475.507 501.289 471.477C498.296 474.068 492.136 481.436 494.554 482.357Z" fill="#222222"/>
<path d="M415.404 488.113C416.152 489.61 434.572 488.458 437.048 488.055C439.58 487.653 446.891 489.552 450.402 488.113C453.971 486.674 451.151 482.011 450.575 477.924C450.575 477.924 450.575 477.905 450.575 477.867C450.518 477.521 450.518 477.176 450.518 476.831C450.575 475.046 451.842 463.418 451.842 463.418L440.732 462.267C440.674 463.648 441.135 471.65 438.602 475.334C436.299 478.73 430.313 479.075 427.55 479.766C427.55 479.766 427.204 479.824 426.686 479.939C426.533 479.977 426.36 480.016 426.168 480.054C425.899 480.131 425.631 480.208 425.362 480.284C425.17 480.323 424.998 480.361 424.844 480.399C423.635 480.687 422.542 480.975 421.505 481.205C420.7 481.436 419.97 481.666 419.318 481.896C413.504 483.796 414.598 486.674 415.404 488.113Z" fill="#F9C8A0"/>
<path d="M415.404 488.113C418.109 490.243 434.572 488.458 437.048 488.055C439.58 487.652 446.891 489.552 450.402 488.113C453.971 486.674 451.151 482.011 450.575 477.924C450.575 477.924 450.575 477.905 450.575 477.866C450.575 479.766 448.848 482.875 445.567 483.393C441.135 484.141 428.643 485.177 426.629 483.105C424.729 481.148 427.55 479.766 427.55 479.766C427.55 479.766 427.204 479.824 426.686 479.939C426.533 479.977 426.36 480.016 426.168 480.054C425.899 480.131 425.631 480.207 425.362 480.284C425.209 480.323 425.036 480.361 424.844 480.399C423.866 480.63 422.714 480.917 421.505 481.205C420.7 481.435 419.97 481.666 419.318 481.896C413.504 483.796 414.08 487.077 415.404 488.113Z" fill="#222222"/>
<path d="M448.848 171.569C452.878 186.881 469.859 176.75 472.277 172.317C469.053 171.166 467.154 163.395 467.096 157.984C467.038 155.106 454.662 159.538 451.842 159.596C451.842 160.805 453.799 166.216 451.842 168.979C450.23 171.224 448.848 171.569 448.848 171.569Z" fill="#FFD8B5"/>
<g style="mix-blend-mode:multiply">
<path d="M452.59 163.74C453.108 165.237 453.914 166.734 456.619 167.252C459.555 167.77 463.757 165.525 466.348 161.956C466.002 160.402 465.196 161.38 465.139 159.768L459.21 159.884C459.21 159.884 452.647 163.107 452.59 163.74Z" fill="#EBCDC1"/>
</g>
<path d="M500.31 240.876L508.427 250.374C516.543 250.662 519.306 243.984 519.306 239.264C519.306 222.801 500.828 183.888 494.496 183.082C479.242 181.01 474.464 195.285 474.464 195.285L500.31 240.876Z" fill="#FFD8B5"/>
<g style="mix-blend-mode:multiply">
<path d="M509.578 219.923C509.578 219.923 508.312 223.146 503.649 225.334C501.634 226.312 498.814 227.636 498.123 228.903C496.338 232.184 500.08 236.213 499.965 240.3C499.965 240.3 497.547 235.983 495.36 232.184L493 228.039L492.424 227.003L509.578 219.923Z" fill="#F0DED3"/>
</g>
<path d="M490.755 227.636C495.878 227.348 514.068 218.714 515.335 215.375C515.335 215.375 502.21 182.909 490.755 178.361C483.156 175.368 471.298 194.422 471.298 194.422L490.755 227.636Z" fill="#14539A"/>
<path d="M499.965 240.3C494.669 244.56 476.134 259.239 467.844 264.247L469.514 272.248C474.061 269.255 515.738 257.224 518.328 242.2L499.965 240.3Z" fill="#FFD8B5"/>
<path d="M472.622 261.081C469.514 262.002 465.254 260.217 461.224 263.441C457.598 266.319 462.433 266.377 463.297 266.089C464.218 265.859 467.499 264.189 468.247 264.765C468.996 265.341 473.831 268.967 473.831 268.967L479.242 268.219L472.622 261.081Z" fill="#FFD8B5"/>
<path d="M490.006 113.084C485.401 112.278 480.105 117.632 480.105 117.632C478.379 124.597 479.99 130.065 485.632 134.267C485.632 134.267 492.77 134.728 496.166 131.447C501.634 126.151 497.95 114.581 490.006 113.084Z" fill="#222222"/>
<path d="M496.914 118.15C495.705 115.674 494.036 113.257 490.755 112.336C489.431 111.933 487.819 111.817 486.265 112.163C484.653 112.508 483.156 113.257 482.005 114.35C480.681 115.502 479.76 116.998 479.472 118.38C479.415 118.668 479.99 118.725 480.048 118.437C480.681 116.02 482.753 113.544 485.862 112.681C489.085 111.817 492.079 112.911 493.921 114.523C495.13 115.559 495.993 116.883 496.741 118.207C496.799 118.322 496.972 118.207 496.914 118.15Z" fill="#222222"/>
<path d="M496.051 132.195C496.799 131.389 497.144 130.526 497.259 129.605C497.259 129.547 497.144 129.605 497.144 129.605C496.857 131.907 493.978 133.865 491.33 134.44C488.222 135.189 485.401 134.555 482.753 133.922C482.35 133.865 482.005 134.383 482.408 134.498C484.711 135.016 487.128 135.419 489.719 135.131C492.021 134.843 494.496 133.922 496.051 132.195Z" fill="#222222"/>
<path d="M482.408 137.433C481.372 135.937 479.472 136.282 477.918 136.973C476.479 137.606 475.615 138.815 475.846 140.024C476.364 142.96 474.119 146.01 473.486 149.061C484.135 148.889 484.423 140.197 482.408 137.433Z" fill="#FFD8B5"/>
<g style="mix-blend-mode:multiply">
<path d="M480.681 139.678C479.933 139.39 478.839 139.506 478.379 140.081C478.206 140.311 478.666 140.599 478.897 140.311C479.127 140.139 479.415 140.081 479.76 140.139C479.99 140.196 480.221 140.427 480.336 140.657C480.681 141.233 480.278 141.866 479.99 142.384C479.645 142.959 479.242 143.42 478.724 143.88C478.206 144.341 477.515 144.686 476.997 145.204C476.479 145.607 477.342 146.298 477.976 146.01C478.494 145.838 478.897 145.435 479.3 145.147C479.645 144.84 479.971 144.514 480.278 144.168C480.854 143.42 481.372 142.672 481.602 141.866C481.832 141.117 481.717 140.081 480.681 139.678Z" fill="#EDD6C7"/>
</g>
<path d="M478.551 135.188C478.379 151.709 469.974 164.431 457.08 164.316C444.819 164.201 435.781 150.5 436.99 133.289C438.141 116.826 445.625 108.479 458.577 108.594C471.471 108.709 478.666 118.668 478.551 135.188Z" fill="#FFD8B5"/>
<g style="mix-blend-mode:multiply">
<path d="M450.575 145.147C451.093 143.651 452.36 143.075 452.705 139.161C453.281 141.521 452.072 144.514 451.611 145.78C450.69 148.313 455.123 147.91 453.799 148.198C452.245 148.486 449.539 148.025 450.575 145.147Z" fill="#EDD6C7"/>
</g>
<path d="M447.064 134.498C443.783 132.656 439.868 135.476 439.638 136.8C439.58 137.203 439.868 136.858 441.365 135.879C442.459 135.189 444.531 135.016 445.74 135.419C447.006 135.822 448.618 135.476 447.064 134.498Z" fill="#222222"/>
<path d="M459.901 152.055C459.958 153.091 459.555 154.127 458.864 154.875C458.058 155.681 456.965 156.257 455.698 156.315C454.374 156.372 453.108 155.912 452.245 155.048C451.554 154.357 451.151 153.494 451.093 152.515C450.978 150.27 453.914 151.825 455.526 151.709C456.907 151.652 459.785 149.81 459.901 152.055Z" fill="white"/>
<path d="M458.864 154.875C458.058 155.681 456.965 156.257 455.698 156.315C454.374 156.372 453.108 155.912 452.245 155.048C452.878 154.357 454.029 153.839 455.411 153.782C456.85 153.667 458.174 154.127 458.864 154.875Z" fill="white"/>
<path d="M449.079 140.657C448.56 143.132 441.71 143.19 440.674 142.441C440.636 142.365 440.578 142.307 440.502 142.269C440.041 141.52 439.581 140.139 439.581 140.139C439.581 140.139 440.847 138.815 441.538 138.47C441.71 138.354 442.401 138.009 443.322 137.779C444.531 137.491 446.2 137.376 447.639 138.412C447.755 138.527 448.733 139.275 449.079 140.254C449.079 140.369 449.079 140.503 449.079 140.657Z" fill="#222222"/>
<path d="M449.251 141.233C449.079 143.017 446.661 144.111 444.876 144.226C444.704 144.284 444.186 144.284 443.552 144.168C442.977 144.053 442.286 143.823 441.595 143.305C441.538 143.247 441.192 143.017 440.789 142.672C440.713 142.557 440.617 142.422 440.502 142.269C440.041 141.52 439.581 140.139 439.581 140.139C439.581 140.139 440.847 138.815 441.538 138.47C441.71 138.354 442.401 138.009 443.322 137.779C444.531 137.491 446.2 137.376 447.639 138.412C447.755 138.527 448.733 139.275 449.079 140.254C449.194 140.542 449.251 140.887 449.251 141.233Z" fill="white"/>
<path d="M441.135 140.83C441.192 138.93 442.689 137.433 444.589 137.433C446.488 137.433 448.042 138.988 447.985 140.887C447.985 142.787 446.431 144.283 444.531 144.283C442.631 144.283 441.135 142.729 441.135 140.83Z" fill="#B56953"/>
<path d="M446.546 140.254C446.834 141.405 446.143 142.557 444.992 142.787C443.84 143.075 442.747 142.384 442.459 141.233C442.171 140.139 442.862 138.988 444.013 138.7C445.164 138.412 446.315 139.103 446.546 140.254Z" fill="#222222"/>
<path d="M443.092 140.197C443.149 140.484 442.977 140.772 442.689 140.83C442.401 140.945 442.171 140.772 442.056 140.484C441.998 140.197 442.171 139.909 442.459 139.794C442.746 139.736 443.034 139.909 443.092 140.197Z" fill="white"/>
<path d="M444.473 141.405C444.531 141.52 444.416 141.693 444.301 141.751C444.128 141.808 443.955 141.693 443.898 141.52C443.898 141.348 443.955 141.233 444.128 141.175C444.301 141.117 444.473 141.233 444.473 141.405Z" fill="white"/>
<path d="M449.079 140.254C448.733 139.275 447.755 138.527 447.639 138.412C446.2 137.376 444.531 137.491 443.322 137.779C442.401 138.009 441.71 138.354 441.538 138.47C440.847 138.815 439.58 140.139 439.58 140.139C439.58 140.139 440.041 141.52 440.502 142.269C440.156 141.981 439.983 141.693 439.983 141.693C439.868 141.578 439.696 141.29 439.58 141.002C439.408 140.542 439.35 140.369 439.178 140.312C439.062 140.312 438.659 141.348 437.393 141.117C437.278 141.117 437.163 140.945 437.163 140.945C437.681 141.06 438.487 140.484 439.465 139.275C441.998 135.879 447.064 135.937 448.733 139.103C448.848 139.391 449.079 139.793 449.079 140.254Z" fill="#222222"/>
<path d="M458.289 140.657C458.807 143.19 465.599 143.363 466.636 142.614C466.712 142.576 466.77 142.518 466.808 142.442C467.326 141.693 467.787 140.312 467.787 140.312C467.787 140.312 466.52 138.988 465.887 138.642C465.887 138.642 465.868 138.623 465.83 138.585C465.657 138.527 465.024 138.182 464.103 137.952C462.894 137.606 461.225 137.491 459.785 138.47C459.613 138.585 458.692 139.276 458.289 140.312C458.289 140.427 458.289 140.542 458.289 140.657Z" fill="#222222"/>
<path d="M458.116 141.29C458.231 143.075 460.649 144.226 462.433 144.341C462.606 144.341 463.067 144.399 463.7 144.284C464.333 144.169 465.024 143.938 465.715 143.478C465.83 143.42 466.175 143.19 466.52 142.845C466.636 142.729 466.731 142.595 466.808 142.442C467.326 141.693 467.787 140.312 467.787 140.312C467.787 140.312 466.52 138.988 465.887 138.642C465.887 138.642 465.868 138.623 465.83 138.585C465.657 138.527 465.024 138.182 464.103 137.952C462.894 137.606 461.225 137.491 459.785 138.47C459.613 138.585 458.692 139.276 458.289 140.312C458.174 140.6 458.116 140.945 458.116 141.29Z" fill="white"/>
<path d="M466.233 141.003C466.233 139.103 464.678 137.549 462.836 137.549C460.937 137.549 459.382 139.045 459.382 140.945C459.325 142.845 460.879 144.399 462.779 144.399C464.621 144.399 466.175 142.902 466.233 141.003Z" fill="#B56953"/>
<path d="M460.822 140.312C460.534 141.463 461.167 142.614 462.318 142.902C463.47 143.19 464.621 142.499 464.909 141.405C465.196 140.254 464.506 139.103 463.412 138.815C462.261 138.527 461.109 139.218 460.822 140.312Z" fill="#222222"/>
<path d="M460.476 140.197C460.361 140.484 460.534 140.772 460.822 140.83C461.109 140.945 461.397 140.772 461.455 140.484C461.57 140.197 461.397 139.909 461.109 139.851C460.822 139.736 460.534 139.909 460.476 140.197Z" fill="white"/>
<path d="M462.261 141.693C462.203 141.808 462.261 141.981 462.433 142.039C462.606 142.096 462.779 141.981 462.779 141.808C462.836 141.636 462.779 141.521 462.606 141.463C462.433 141.406 462.261 141.521 462.261 141.693Z" fill="white"/>
<path d="M458.289 140.312C458.692 139.276 459.613 138.585 459.785 138.47C461.225 137.491 462.894 137.606 464.103 137.952C465.024 138.182 465.657 138.527 465.83 138.585C465.868 138.623 465.887 138.642 465.887 138.642C466.52 138.988 467.787 140.312 467.787 140.312C467.787 140.312 467.326 141.693 466.808 142.442C467.211 142.154 467.384 141.866 467.384 141.866C467.441 141.751 467.614 141.521 467.787 141.175C467.96 140.772 468.017 140.542 468.19 140.542C468.305 140.484 468.708 141.521 469.974 141.348C470.089 141.348 470.205 141.233 470.205 141.233C469.686 141.29 468.881 140.715 467.96 139.448C465.484 136.052 460.419 135.994 458.692 139.16C458.519 139.391 458.289 139.851 458.289 140.312Z" fill="#222222"/>
<path d="M459.958 134.44C463.239 132.656 467.154 135.534 467.384 136.915C467.441 137.261 467.096 136.915 465.657 135.879C464.563 135.189 462.491 135.016 461.282 135.361C460.016 135.764 458.404 135.361 459.958 134.44Z" fill="#222222"/>
<path d="M458.519 107.558C472.047 108.191 483.617 122.006 477.515 142.557C474.982 135.591 471.183 128.108 464.736 122.352C464.736 122.352 465.83 127.59 466.636 129.547C459.901 128.223 449.597 126.784 449.251 117.862C447.985 121.834 437.22 131.735 436.76 128.799C436.012 113.66 448.273 107.155 458.519 107.558Z" fill="#222222"/>
<path d="M452.36 125.518C453.971 127.187 456.159 128.281 458.346 129.029C458.73 129.183 459.133 129.298 459.555 129.375C455.468 127.417 451.439 124.482 450 120.97C450.287 122.64 451.208 124.251 452.36 125.518Z" fill="#222222"/>
<path d="M443.783 126.899C444.512 126.324 445.203 125.671 445.855 124.942C447.064 123.503 448.042 121.776 448.676 119.992C448.906 119.378 449.079 118.744 449.194 118.092C447.524 121.258 445.107 125.115 443.092 127.417C443.322 127.264 443.552 127.091 443.783 126.899Z" fill="#222222"/>
<path d="M445.394 171.972C444.358 174.102 442.459 190.968 442.862 201.042C442.862 201.042 440.617 201.445 439.868 200.639C439.868 200.639 439.811 182.103 443.149 172.548C443.955 172.202 444.704 172.03 445.394 171.972Z" fill="#EAE6FF"/>
<path d="M476.709 173.066C471.356 181.931 469.226 191.659 469.283 201.157C469.283 201.157 471.356 201.272 472.277 200.639C472.277 200.639 471.644 185.845 478.839 173.526C478.091 173.123 477.17 173.123 476.709 173.066Z" fill="#EAE6FF"/>
<path d="M442.804 202.653C442.804 203.344 442.286 203.92 441.595 203.92C440.904 203.92 440.329 203.344 440.329 202.653C440.329 201.963 440.904 201.445 441.595 201.445C442.286 201.445 442.804 201.963 442.804 202.653Z" fill="#14539A"/>
<path d="M471.298 202.653C471.298 203.344 470.78 203.92 470.089 203.92C469.399 203.92 468.881 203.344 468.881 202.653C468.881 201.963 469.399 201.445 470.089 201.445C470.78 201.445 471.298 201.963 471.298 202.653Z" fill="#14539A"/>
<path d="M384.722 259.296C385.298 258.26 388.982 259.124 388.982 259.124V263.268C386.449 262.75 384.089 260.39 384.722 259.296Z" fill="#FFD8B5"/>
<path d="M464.045 226.14H391.572C389.327 226.14 387.485 227.924 387.485 230.227V282.264C387.485 284.509 389.327 286.294 391.572 286.294H464.045C466.348 286.294 468.132 284.509 468.132 282.264V230.227C468.132 227.924 466.348 226.14 464.045 226.14Z" fill="#14539A"/>
<path d="M391.572 283.531C390.824 283.531 390.248 282.955 390.248 282.264V230.227C390.248 229.478 390.824 228.903 391.572 228.903H464.045C464.793 228.903 465.369 229.478 465.369 230.227V282.264C465.369 282.955 464.793 283.531 464.045 283.531H391.572Z" fill="white"/>
<path d="M387.485 263.959C387.025 263.902 384.089 264.305 383.859 267.528C383.513 273.342 385.701 276.623 386.967 277.084C388.118 277.487 392.09 277.429 393.242 276.681C394.45 275.932 393.76 270.924 392.378 269.197C390.881 267.355 387.831 267.24 387.6 265.513C387.6 265.283 387.485 263.959 387.485 263.959Z" fill="#FFD8B5"/>
<path d="M479.242 268.219C472.622 270.176 472.162 275.472 466.693 277.486C461.455 279.386 455.295 276.853 455.526 273.802C455.929 268.909 468.478 269.197 468.132 263.671L479.242 268.219Z" fill="#FFD8B5"/>
<path fill-rule="evenodd" clip-rule="evenodd" d="M400.667 262.75C399.363 262.059 398.346 261.062 397.616 259.757C396.849 258.452 396.465 256.975 396.465 255.324C396.465 253.713 396.849 252.274 397.616 251.007C398.346 249.702 399.363 248.685 400.667 247.956C401.972 247.227 403.411 246.863 404.985 246.863C406.558 246.863 407.978 247.227 409.244 247.956C410.549 248.685 411.585 249.702 412.353 251.007C413.082 252.274 413.446 253.713 413.446 255.324C413.446 256.975 413.082 258.452 412.353 259.757C411.585 261.062 410.549 262.059 409.244 262.75C407.978 263.479 406.558 263.844 404.985 263.844C403.411 263.844 401.972 263.479 400.667 262.75ZM408.151 258.836C408.957 257.953 409.359 256.783 409.359 255.324C409.359 253.866 408.957 252.696 408.151 251.813C407.345 250.969 406.289 250.547 404.985 250.547C403.641 250.547 402.567 250.969 401.761 251.813C400.955 252.696 400.552 253.866 400.552 255.324C400.552 256.821 400.955 257.992 401.761 258.836C402.567 259.718 403.641 260.16 404.985 260.16C406.289 260.16 407.345 259.718 408.151 258.836Z" fill="#EFA000"/>
<path fill-rule="evenodd" clip-rule="evenodd" d="M427.665 255.094C427.243 255.862 426.571 256.495 425.65 256.994C424.729 257.493 423.597 257.742 422.254 257.742H419.721V263.671H415.691V247.093H422.254C423.559 247.093 424.671 247.323 425.592 247.784C426.513 248.244 427.204 248.877 427.665 249.683C428.125 250.489 428.356 251.41 428.356 252.446C428.356 253.406 428.125 254.288 427.665 255.094ZM423.693 254.001C424.038 253.617 424.211 253.099 424.211 252.446C424.211 251.794 424.038 251.276 423.693 250.892C423.309 250.547 422.733 250.374 421.966 250.374H419.721V254.519H421.966C422.733 254.519 423.309 254.346 423.693 254.001Z" fill="#EFA000"/>
<path d="M434.515 250.316V253.713H439.926V256.821H434.515V260.448H440.617V263.671H430.428V247.093H440.617V250.316H434.515Z" fill="#EFA000"/>
<path d="M458.058 263.671H454.029L447.294 253.482V263.671H443.265V247.093H447.294L454.029 257.397V247.093H458.058V263.671Z" fill="#EFA000"/>
</svg>
