<svg width="409" height="500" viewBox="0 0 409 500" fill="none" xmlns="http://www.w3.org/2000/svg">
<g clip-path="url(#clip0_47_6307)">
<path d="M58.3626 380.67C58.2859 380.67 58.1899 380.651 58.0748 380.613C55.7147 379.692 53.4121 378.656 51.1671 377.504C50.7642 377.274 50.5915 376.756 50.8217 376.353C50.9944 375.95 51.5125 375.777 51.973 375.95C54.1604 377.101 56.4054 378.08 58.708 379.001C59.1685 379.174 59.3412 379.692 59.1685 380.152C59.0534 380.498 58.708 380.67 58.3626 380.67ZM45.0653 373.935C44.9118 373.935 44.7583 373.897 44.6048 373.82C42.475 372.496 40.3451 371.057 38.3304 369.561C37.985 369.273 37.8699 368.755 38.1577 368.352C38.4455 368.006 39.0211 367.891 39.3665 368.179C41.3813 369.676 43.396 371.057 45.5259 372.381C45.9288 372.611 46.0439 373.13 45.8137 373.532C45.641 373.82 45.3532 373.935 45.0653 373.935ZM33.0921 365.013C32.8618 365.013 32.6891 364.955 32.5164 364.783C30.6168 363.171 28.8323 361.386 27.0479 359.544C26.76 359.199 26.76 358.681 27.1054 358.336C27.4508 357.99 28.0264 358.048 28.3143 358.393C30.0412 360.178 31.8257 361.905 33.6677 363.516C34.0131 363.862 34.0131 364.38 33.7253 364.725C33.5526 364.955 33.3223 365.013 33.0921 365.013ZM22.7881 354.191C22.5579 354.191 22.27 354.076 22.0974 353.846C20.5431 351.888 19.0465 349.874 17.6649 347.744C17.3771 347.398 17.4922 346.823 17.8952 346.593C18.2981 346.305 18.8162 346.42 19.104 346.823C20.4856 348.838 21.9247 350.852 23.4789 352.809C23.7667 353.155 23.7091 353.673 23.3062 354.018C23.1527 354.133 22.98 354.191 22.7881 354.191ZM14.4414 341.757C14.1535 341.757 13.8657 341.642 13.693 341.354C12.4842 339.167 11.3329 336.864 10.2968 334.619C10.1241 334.159 10.2968 333.641 10.7573 333.468C11.1602 333.238 11.6783 333.468 11.851 333.871C12.8871 336.116 14.0384 338.361 15.1897 340.491C15.4199 340.894 15.3048 341.412 14.9019 341.642C14.7484 341.719 14.5949 341.757 14.4414 341.757ZM8.28198 328.172C7.93661 328.172 7.59123 327.942 7.47611 327.596C6.61265 325.236 5.86432 322.819 5.23112 320.401C5.11599 319.94 5.34625 319.48 5.80676 319.307C6.26727 319.192 6.78534 319.48 6.90047 319.94C7.53367 322.301 8.28198 324.718 9.08788 327.021C9.26058 327.481 9.03028 327.942 8.56978 328.115C8.45468 328.153 8.35878 328.172 8.28198 328.172ZM4.42522 313.724C4.02227 313.724 3.67689 313.436 3.56176 313.033C3.15881 310.558 2.81343 308.025 2.58317 305.55C2.52561 305.031 2.87099 304.628 3.38907 304.571C3.84958 304.571 4.25253 304.916 4.31009 305.377C4.54035 307.794 4.82817 310.27 5.28868 312.687C5.34624 313.205 5.05842 313.608 4.59791 313.724C4.52116 313.724 4.46359 313.724 4.42522 313.724ZM3.10125 298.872C2.64074 298.872 2.23779 298.469 2.23779 297.951C2.23779 295.476 2.35292 292.885 2.64074 290.41C2.64074 289.95 3.10125 289.604 3.56176 289.662C4.02227 289.719 4.36766 290.122 4.31009 290.583C4.07984 293.001 3.9647 295.533 3.9647 298.009C3.9647 298.469 3.56176 298.872 3.10125 298.872ZM4.54034 283.963C4.50197 283.963 4.46359 283.963 4.42522 283.963C3.90714 283.848 3.61933 283.387 3.73445 282.927C4.19496 280.452 4.82817 277.976 5.5765 275.616C5.69162 275.156 6.2097 274.926 6.67022 275.041C7.13073 275.213 7.36098 275.674 7.24585 276.134C6.49752 278.437 5.92188 280.855 5.4038 283.272C5.34624 283.675 4.94329 283.963 4.54034 283.963ZM8.97278 269.745C8.85768 269.745 8.74248 269.706 8.62738 269.63C8.22448 269.457 7.99418 268.939 8.22448 268.536C9.20298 266.176 10.3543 263.931 11.6207 261.743C11.851 261.34 12.3691 261.225 12.8296 261.456C13.2325 261.686 13.3476 262.204 13.1174 262.607C11.9085 264.737 10.7573 266.924 9.77868 269.227C9.66358 269.514 9.31818 269.745 8.97278 269.745ZM16.5137 256.793C16.3218 256.793 16.1491 256.735 15.9956 256.62C15.5926 256.39 15.5351 255.814 15.8229 255.411C15.938 255.219 16.0915 255.028 16.2834 254.836C17.5498 253.166 19.0465 251.439 20.7734 249.713C21.1188 249.367 21.6368 249.367 21.9822 249.655C22.3276 250 22.3276 250.576 21.9822 250.921C20.3704 252.591 18.8738 254.26 17.6074 255.872C17.4539 256.064 17.3195 256.256 17.2044 256.447C17.0317 256.678 16.7439 256.793 16.5137 256.793ZM53.5848 255.929C52.3952 255.929 51.2247 255.833 50.0734 255.642C49.6129 255.526 49.3251 255.066 49.3826 254.605C49.4978 254.145 49.9583 253.857 50.4188 253.915C52.7789 254.318 55.2542 254.26 57.4991 253.742C57.9597 253.627 58.4202 253.915 58.5353 254.375C58.6504 254.836 58.3626 255.296 57.9021 255.411C56.5206 255.757 55.0239 255.929 53.5848 255.929ZM43.3384 252.879C43.1849 252.879 43.0314 252.821 42.8779 252.706C42.2255 252.284 41.6115 251.823 41.0359 251.324C39.6543 250.115 38.3304 248.907 37.1215 247.64C36.8337 247.295 36.8337 246.777 37.1791 246.431C37.5245 246.086 38.0426 246.086 38.3879 246.431C39.5392 247.698 40.8056 248.849 42.1296 250C42.6669 250.461 43.2425 250.883 43.8565 251.267C44.2595 251.555 44.317 252.073 44.0868 252.476C43.9141 252.763 43.6262 252.879 43.3384 252.879ZM64.0614 251.785C63.8695 251.785 63.6777 251.727 63.4858 251.612C63.1404 251.267 63.0829 250.749 63.3707 250.403C64.2917 249.252 64.7522 247.986 64.7522 246.604C64.7522 245.837 64.5987 245.031 64.2917 244.186C64.119 243.726 64.3493 243.265 64.8098 243.093C65.2703 242.92 65.7884 243.15 65.9035 243.611C66.2872 244.609 66.4791 245.606 66.4791 246.604C66.4791 248.389 65.9035 250.058 64.6946 251.497C64.5219 251.67 64.2917 251.785 64.0614 251.785ZM26.9327 246.144C26.6449 246.144 26.4147 246.028 26.242 245.798C25.9541 245.453 26.0117 244.877 26.3571 244.589C28.0264 243.208 29.7534 241.941 31.4803 240.79C30.2714 239.063 29.1777 237.221 28.2567 235.379C28.0264 234.976 28.1991 234.458 28.6596 234.228C29.0626 233.998 29.5807 234.17 29.8109 234.573C30.7319 236.415 31.8257 238.257 33.0345 239.984C33.3223 240.042 33.5526 240.157 33.6677 240.387C33.8404 240.617 33.8404 240.905 33.7828 241.135C33.898 241.481 33.7253 241.826 33.4374 242.057C33.2072 242.229 32.8618 242.287 32.574 242.114C30.8471 243.265 29.1201 244.589 27.4508 245.913C27.2973 246.067 27.1246 246.144 26.9327 246.144ZM60.7227 238.775C60.55 238.775 60.3198 238.718 60.1471 238.603C58.3626 237.048 56.2327 236.07 53.8726 235.609C53.4121 235.552 53.1243 235.091 53.1819 234.631C53.297 234.17 53.6999 233.825 54.218 233.94C56.866 234.401 59.2261 235.552 61.2984 237.279C61.6438 237.567 61.7013 238.142 61.4135 238.488C61.2408 238.66 60.953 238.775 60.7227 238.775ZM39.5392 238.142C39.1938 238.142 38.8485 237.969 38.7333 237.624C38.5606 237.221 38.7333 236.703 39.1938 236.473C41.6691 235.379 44.1443 234.573 46.4469 234.113C46.9074 233.998 47.3679 234.343 47.483 234.803C47.5406 235.264 47.2528 235.724 46.7923 235.782C44.6048 236.243 42.3023 236.991 39.8846 238.085C39.7695 238.123 39.6543 238.142 39.5392 238.142ZM26.1844 228.932C25.7814 228.932 25.4936 228.702 25.3785 228.356C24.5726 225.939 23.997 223.463 23.6516 220.931C23.594 220.47 23.9394 220.01 24.3999 219.952C24.8604 219.894 25.3209 220.24 25.3785 220.7C25.7239 223.118 26.242 225.536 26.9903 227.838C27.163 228.299 26.8752 228.759 26.4146 228.932C26.3379 228.932 26.2611 228.932 26.1844 228.932ZM24.0545 214.195C23.594 214.195 23.1911 213.792 23.1911 213.332C23.2486 210.857 23.5365 208.324 23.9394 205.791C24.0545 205.273 24.4575 204.985 24.9755 205.043C25.4361 205.158 25.7239 205.618 25.6663 206.079C25.2634 208.496 24.9756 210.972 24.918 213.389C24.918 213.85 24.5726 214.195 24.0545 214.195ZM26.5873 199.516C26.5106 199.516 26.4338 199.497 26.3571 199.459C25.8966 199.344 25.6088 198.883 25.7814 198.423C26.5298 196.063 27.4508 193.645 28.5445 191.342C28.7172 190.882 29.2353 190.709 29.6382 190.939C30.0987 191.112 30.2714 191.63 30.0987 192.091C29.0626 194.336 28.1416 196.638 27.3932 198.941C27.2781 199.286 26.9327 199.516 26.5873 199.516ZM32.8042 185.989C32.6507 185.989 32.4972 185.931 32.3437 185.816C31.9408 185.586 31.8257 185.068 32.0559 184.665C33.3223 182.535 34.7614 180.405 36.3156 178.39C36.6035 177.988 37.1215 177.93 37.5245 178.218C37.8699 178.506 37.985 179.024 37.6972 179.427C36.2005 181.441 34.819 183.456 33.5526 185.528C33.3799 185.816 33.0921 185.989 32.8042 185.989ZM41.7266 174.016C41.554 174.016 41.3237 173.901 41.151 173.785C40.8056 173.44 40.8056 172.922 41.0934 172.576C42.7628 170.734 44.5473 168.892 46.3893 167.166C46.7347 166.878 47.3103 166.878 47.6557 167.223C47.9435 167.568 47.9436 168.144 47.5982 168.432C45.7561 170.159 44.0292 171.943 42.3598 173.728C42.2447 173.901 41.9569 174.016 41.7266 174.016ZM52.6638 163.827C52.4335 163.827 52.1457 163.712 51.973 163.481C51.6852 163.136 51.7428 162.56 52.1457 162.273C54.1029 160.718 56.1176 159.222 58.2475 157.84C58.6504 157.552 59.1685 157.667 59.4563 158.07C59.6866 158.473 59.5714 158.991 59.2261 159.279C57.1538 160.661 55.139 162.1 53.2394 163.654C53.0475 163.769 52.8557 163.827 52.6638 163.827ZM263.117 155.998C260.7 155.998 258.167 155.941 255.634 155.883C255.174 155.825 254.771 155.422 254.828 154.962C254.828 154.501 255.231 154.099 255.692 154.156C258.224 154.214 260.7 154.271 263.117 154.271C263.635 154.271 263.981 154.674 263.981 155.135C263.981 155.595 263.635 155.998 263.117 155.998ZM270.601 155.883C270.14 155.883 269.795 155.48 269.737 155.02C269.737 154.559 270.083 154.156 270.601 154.156C273.076 154.041 275.551 153.926 278.026 153.753C278.487 153.696 278.89 154.041 278.947 154.559C278.947 155.02 278.602 155.422 278.142 155.48C275.666 155.653 273.134 155.768 270.658 155.883C270.658 155.883 270.639 155.883 270.601 155.883ZM248.208 155.48C248.17 155.48 248.151 155.48 248.151 155.48C245.733 155.307 243.2 155.135 240.667 154.904C240.207 154.847 239.862 154.444 239.919 153.926C239.919 153.465 240.38 153.12 240.84 153.178C243.315 153.408 245.848 153.58 248.266 153.753C248.726 153.811 249.072 154.214 249.072 154.674C249.014 155.135 248.669 155.48 248.208 155.48ZM65.0976 155.48C64.7522 155.48 64.4644 155.307 64.3492 155.02C64.0614 154.617 64.2341 154.099 64.6371 153.868C66.8245 152.602 69.0695 151.451 71.3145 150.357C71.7174 150.127 72.2355 150.299 72.4658 150.76C72.696 151.163 72.4658 151.681 72.0628 151.911C69.8178 153.005 67.6304 154.156 65.5005 155.365C65.347 155.442 65.2127 155.48 65.0976 155.48ZM285.51 154.789C285.107 154.789 284.704 154.444 284.646 153.983C284.589 153.523 284.934 153.12 285.395 153.062C287.87 152.775 290.345 152.429 292.82 152.026C293.281 151.969 293.684 152.314 293.799 152.775C293.857 153.235 293.511 153.696 293.051 153.753C290.633 154.156 288.1 154.501 285.625 154.732C285.586 154.77 285.548 154.789 285.51 154.789ZM233.299 154.099C233.299 154.099 233.28 154.099 233.242 154.099C230.824 153.811 228.349 153.465 225.816 153.12C225.298 153.062 225.01 152.659 225.068 152.141C225.125 151.681 225.586 151.335 226.046 151.451C228.579 151.796 231.054 152.084 233.414 152.372C233.875 152.429 234.22 152.89 234.163 153.35C234.105 153.753 233.76 154.099 233.299 154.099ZM300.304 152.429C299.901 152.429 299.555 152.141 299.44 151.738C299.325 151.278 299.67 150.817 300.131 150.76C302.549 150.242 304.966 149.724 307.384 149.148C307.845 149.033 308.305 149.321 308.42 149.781C308.535 150.242 308.248 150.702 307.787 150.817C305.369 151.393 302.894 151.969 300.476 152.429C300.4 152.429 300.342 152.429 300.304 152.429ZM218.505 152.026C218.467 152.026 218.429 152.026 218.39 152.026C216.03 151.681 213.612 151.278 210.964 150.817C210.504 150.76 210.216 150.299 210.274 149.839C210.389 149.378 210.792 149.033 211.31 149.148C213.9 149.551 216.318 149.954 218.62 150.299C219.139 150.414 219.426 150.817 219.369 151.335C219.311 151.738 218.908 152.026 218.505 152.026ZM203.769 149.551C203.731 149.551 203.673 149.551 203.596 149.551C201.14 149.09 198.703 148.649 196.286 148.227C195.768 148.112 195.48 147.651 195.595 147.191C195.652 146.73 196.113 146.443 196.574 146.5C199.03 146.961 201.486 147.402 203.942 147.824C204.402 147.939 204.69 148.342 204.632 148.86C204.575 149.263 204.172 149.551 203.769 149.551ZM78.51 148.975C78.1646 148.975 77.8768 148.803 77.7041 148.457C77.5314 147.997 77.7616 147.479 78.2221 147.306C80.5247 146.385 82.8848 145.522 85.3025 144.773C85.763 144.6 86.2235 144.831 86.3962 145.291C86.5114 145.752 86.2811 146.27 85.8206 146.385C83.4605 147.133 81.1579 147.997 78.8554 148.918C78.7402 148.956 78.6251 148.975 78.51 148.975ZM314.81 148.918C314.464 148.918 314.119 148.688 314.004 148.285C313.831 147.824 314.119 147.364 314.579 147.248C316.94 146.558 319.357 145.809 321.717 145.003C322.12 144.888 322.638 145.119 322.754 145.579C322.926 146.04 322.696 146.5 322.236 146.673C319.875 147.479 317.458 148.227 315.04 148.86C314.963 148.899 314.887 148.918 314.81 148.918ZM189.09 146.845C189.013 146.845 188.956 146.845 188.918 146.845C186.461 146.385 184.005 145.944 181.549 145.522C181.089 145.464 180.801 145.003 180.859 144.543C180.916 144.025 181.377 143.737 181.837 143.852C184.293 144.274 186.749 144.716 189.205 145.176C189.666 145.234 190.011 145.694 189.896 146.155C189.839 146.558 189.493 146.845 189.09 146.845ZM92.7283 144.313C92.3829 144.313 91.9799 144.082 91.9224 143.679C91.8072 143.219 92.0375 142.758 92.498 142.643C94.9157 142.01 97.3909 141.434 99.866 140.916C100.327 140.859 100.787 141.147 100.845 141.607C100.96 142.068 100.672 142.528 100.212 142.643C97.7939 143.104 95.3186 143.679 92.9585 144.313C92.8818 144.313 92.805 144.313 92.7283 144.313ZM174.354 144.255C174.315 144.255 174.258 144.255 174.181 144.255C171.591 143.795 169.173 143.449 166.813 143.046C166.352 142.989 166.007 142.528 166.122 142.068C166.18 141.607 166.64 141.262 167.101 141.377C169.461 141.722 171.879 142.125 174.469 142.528C174.93 142.643 175.275 143.046 175.217 143.564C175.102 143.967 174.757 144.255 174.354 144.255ZM329.028 144.198C328.683 144.198 328.337 144.025 328.222 143.679C328.049 143.219 328.28 142.701 328.683 142.528C330.985 141.665 333.345 140.744 335.648 139.765C336.051 139.592 336.569 139.823 336.742 140.226C336.914 140.686 336.742 141.204 336.281 141.377C333.979 142.355 331.618 143.277 329.316 144.14C329.201 144.178 329.105 144.198 329.028 144.198ZM159.56 142.01C159.522 142.01 159.483 142.01 159.445 142.01C156.912 141.665 154.437 141.377 152.019 141.089C151.559 141.089 151.213 140.629 151.271 140.168C151.328 139.708 151.731 139.362 152.249 139.42C154.609 139.65 157.142 139.938 159.675 140.283C160.136 140.341 160.481 140.801 160.423 141.262C160.366 141.722 159.963 142.01 159.56 142.01ZM107.407 141.377C106.947 141.377 106.601 141.032 106.544 140.629C106.486 140.168 106.774 139.708 107.292 139.65C109.71 139.305 112.242 139.017 114.718 138.729C115.178 138.729 115.639 139.074 115.696 139.535C115.696 139.995 115.351 140.456 114.89 140.456C112.415 140.686 109.94 141.032 107.522 141.377C107.484 141.377 107.445 141.377 107.407 141.377ZM144.708 140.456C144.67 140.456 144.651 140.456 144.651 140.456C142.118 140.226 139.585 140.111 137.168 139.995C136.707 139.938 136.362 139.535 136.362 139.074C136.362 138.614 136.822 138.211 137.283 138.268C139.7 138.384 142.233 138.499 144.766 138.729C145.227 138.729 145.572 139.132 145.572 139.65C145.514 140.111 145.111 140.456 144.708 140.456ZM122.259 139.995C121.798 139.995 121.453 139.592 121.395 139.132C121.395 138.671 121.74 138.268 122.259 138.268C124.619 138.153 127.036 138.096 129.512 138.096H129.742C130.26 138.096 130.605 138.499 130.605 138.959C130.605 139.42 130.26 139.823 129.742 139.823H129.512C127.094 139.823 124.676 139.88 122.316 139.995C122.316 139.995 122.297 139.995 122.259 139.995Z" fill="#FF737B"/>
<path d="M361.955 132.627L376.461 122.093L356.026 128.31L361.955 132.627Z" fill="#FF737B"/>
<path d="M376.461 122.093L347.391 119.33L352.975 123.878L376.461 122.093Z" fill="#FF737B"/>
<path d="M376.461 122.093L356.026 128.368L349.463 133.951L352.975 123.763L376.461 122.093Z" fill="#FF737B"/>
<g style="mix-blend-mode:multiply" opacity="0.6">
<path d="M19.553 151.358V149.459H33.195V142.378H11.897V144.22H-8.99904V137.198H-7.09904V142.263H9.99696V135.24H2.45596V128.103H-16.54V117.223H-1.91904V119.123H-14.64V126.203H9.99696V128.103H4.35596V133.341H25.654V126.26H13.048V119.813H14.948V124.361H36.246V117.338H29.454V115.381H38.146V126.26H27.554V135.24H11.897V140.479H35.095V151.358H19.553Z" fill="#AFDEDC"/>
</g>
<g style="mix-blend-mode:multiply" opacity="0.6">
<path d="M305.653 98.2217V96.3221H319.296V89.2993H298.055V91.0838H277.159V84.061H279.059V89.1842H296.155V82.1038H288.557V74.9659H269.561V64.0863H284.24V66.0435H271.518V73.0663H296.098V74.9659H290.514V80.2042H311.755V73.1814H299.149V66.6767H301.106V71.2242H322.347V64.2014H315.554V62.3018H324.247V73.1814H313.655V82.1038H298.055V87.3421H321.196V98.2217H305.653Z" fill="#AFDEDC"/>
</g>
<g style="mix-blend-mode:multiply" opacity="0.6">
<path d="M370.199 351.692V349.735H383.842V342.712H362.543V344.496H341.647V337.473H343.547V342.597H360.644V335.574H353.103V328.436H334.107V317.556H348.728V319.456H336.006V326.479H360.644V328.436H355.002V333.617H376.243V326.594H363.694V320.147H365.594V324.694H386.835V317.614H380.043V315.714H388.792V326.594H378.201V335.574H362.543V340.812H385.741V351.692H370.199Z" fill="#AFDEDC"/>
</g>
<g opacity="0.3">
<path d="M376.079 169.294C365.602 151.103 327.61 153.118 324.098 177.122C322.371 185.814 329.855 193.183 336.647 197.212C347.181 203.371 337.626 209.531 327.667 208.149C349.657 219.375 390.182 193.701 376.079 169.294Z" fill="#F45050"/>
<path d="M384.023 177.468C383.985 176.24 383.851 175.031 383.62 173.841C383.102 171.481 382.296 169.121 381.145 166.991C378.9 162.904 375.446 159.565 371.359 157.435C369.114 156.227 366.697 155.421 364.106 155.191C363.818 155.133 363.818 155.593 364.049 155.651C368.251 156.802 372.223 158.702 375.389 161.695C378.67 164.804 380.915 168.776 381.893 173.208C382.2 174.474 382.392 175.76 382.469 177.065C382.527 178.331 382.296 179.655 382.412 180.922C382.469 181.727 383.563 181.958 383.793 181.152C384.138 180.001 384.081 178.677 384.023 177.468Z" fill="#F45050"/>
<path d="M383.101 185.757C383.101 185.642 383.101 185.546 383.101 185.469C383.044 185.354 382.986 185.296 382.986 185.181C382.929 185.066 382.756 185.009 382.698 185.124C382.641 185.181 382.526 185.181 382.468 185.296C382.43 185.373 382.391 185.45 382.353 185.527C382.276 185.68 382.18 185.834 382.065 185.987C381.892 186.333 381.777 186.736 381.605 187.081C381.662 187.023 381.547 187.254 381.547 187.254C381.509 187.369 381.47 187.465 381.432 187.541C381.355 187.695 381.259 187.868 381.144 188.06C381.067 188.213 380.971 188.367 380.856 188.52C380.818 188.597 380.76 188.674 380.684 188.75C380.626 188.923 380.568 189.038 380.568 189.268C380.511 189.786 381.202 190.132 381.605 189.844C382.008 189.614 382.18 189.096 382.411 188.693C382.564 188.309 382.718 187.925 382.871 187.541C382.986 187.139 383.101 186.736 383.159 186.333C383.159 186.141 383.14 185.949 383.101 185.757Z" fill="#F45050"/>
<path d="M334.69 199.169C334.172 198.824 333.539 198.708 332.963 198.478C332.388 198.21 331.85 197.922 331.351 197.615C330.277 197.001 329.298 196.272 328.416 195.427C327.552 194.564 326.747 193.7 326.056 192.664C325.366 191.686 324.674 190.592 324.213 189.498C324.098 189.268 323.754 189.441 323.811 189.613C324.214 190.88 324.675 192.031 325.366 193.182C325.999 194.276 326.804 195.312 327.725 196.233C328.646 197.097 329.683 197.903 330.777 198.593C331.314 198.977 331.89 199.303 332.504 199.572C333.079 199.86 333.711 200.205 334.402 200.263C334.978 200.32 335.151 199.399 334.69 199.169Z" fill="#F45050"/>
<path d="M339.584 175.511C340.735 172.863 343.613 171.769 346.089 172.114C348.852 172.575 351.327 174.877 351.385 177.41C356.105 165.61 370.726 176.086 360.134 184.778C356.393 187.887 352.421 189.383 350.866 189.383C349.658 189.383 346.031 187.599 342.923 184.778C342.347 184.203 337.799 179.54 339.584 175.511Z" fill="white"/>
</g>
<path d="M153.564 289.766C153.564 289.766 138.704 273.55 114.03 278.609C114.03 278.609 128.218 296.36 153.564 289.766Z" fill="#8D0D29"/>
<path d="M282.663 190.324C282.663 190.324 260.614 179.686 210.455 184.922C165.051 181.639 145.462 199.871 145.462 199.871C164.05 269.15 146.806 384.721 146.806 384.721L209.669 387.346V387.434L210.722 387.384L211.698 387.434V387.346L279.95 384.721C279.95 384.721 273.775 314.694 278.416 250.385C279.975 228.653 277.959 207.834 282.663 190.324Z" fill="#14539A"/>
<path d="M328.004 227.436L368.768 267.261C369.934 268.301 370.72 269.708 370.987 271.255C372.191 278.38 374.904 300.886 368.831 334.537L350.928 334.714L350.243 283.68C350.243 283.68 321.855 263.533 312.054 257.117L328.004 227.436Z" fill="#FF9669"/>
<g style="mix-blend-mode:multiply" opacity="0.4">
<path d="M350.256 283.985L351.549 331.455C353.007 330.479 354.339 323.924 354.529 318.916C356.114 307.441 353.134 291.415 362.263 277.975C357.508 280.701 356.684 282.222 350.256 283.985Z" fill="#E17B58"/>
</g>
<path d="M277.592 188.308C277.592 188.308 295.38 195.129 332.277 225.838C332.277 225.838 326.584 247.431 317.506 266.564L278.099 249.637C276.615 241.966 272.013 216.176 277.592 188.308Z" fill="#144983"/>
<g style="mix-blend-mode:multiply" opacity="0.5">
<path d="M311.458 258.778C292.667 242.283 277.604 217.596 276.907 192.048C272.431 218.459 276.679 242.308 278.099 249.637L317.506 266.563C317.189 265.752 316.935 264.94 316.707 264.129C314.146 262.278 313.829 260.87 311.458 258.778Z" fill="#96757B"/>
</g>
<path d="M369.084 333.028C369.084 333.028 369.338 370.152 361.223 374.59C354.985 378.001 342.724 378.394 334.115 370.533L354.389 329.478L369.084 333.028Z" fill="#A1563C"/>
<path d="M71.4788 303.828C71.4788 303.828 66.9776 306.199 63.922 305.109C60.879 304.018 63.4401 310.878 68.0934 312.564C72.734 314.263 77.3239 311.157 77.6535 310.244C77.9705 309.343 74.8641 303.625 71.4788 303.828Z" fill="#FF9669"/>
<path d="M147.82 213.058L155.263 272.193L142.444 328.007C141.633 331.532 138.501 334.055 134.875 334.068L85.9837 335.386L81.2544 313.756L117.745 308.697L127.888 223.531L147.82 213.058Z" fill="#FF9669"/>
<g style="mix-blend-mode:multiply" opacity="0.4">
<path d="M147.82 213.058L127.888 223.531L125.2 246.1C127.28 249.789 129.042 253.644 130.703 257.574C133.239 263.571 135.331 269.772 136.802 276.111C138.133 281.855 139.274 287.599 138.234 293.482C136.65 302.459 131.464 311.233 124.008 316.52C112.458 324.736 97.3694 324.951 83.397 323.595L85.9835 335.386L134.874 334.068C138.501 334.055 141.632 331.532 142.444 328.007L155.263 272.193L147.82 213.058Z" fill="#E17B58"/>
</g>
<path d="M147.82 197.842C147.82 197.842 163.035 268.478 153.564 289.766C150.42 287.015 144.866 282.894 136.929 280.308C126.976 277.062 118.405 277.886 114.03 278.609C115.235 267.464 116.718 257.942 117.999 250.436C120.535 235.702 125.619 221.324 129.068 215.416C136.168 203.256 147.82 197.842 147.82 197.842Z" fill="#144983"/>
<g style="mix-blend-mode:multiply" opacity="0.5">
<path d="M152.473 223.429C153.399 234.156 153.171 244.996 151.053 255.546C149.215 264.675 145.88 275.756 138.07 280.714C145.386 283.313 150.571 287.155 153.564 289.767C159.295 276.872 155.985 245.871 152.473 223.429Z" fill="#96757B"/>
</g>
<g style="mix-blend-mode:multiply" opacity="0.2">
<path d="M278.416 250.385C279.29 238.124 268.627 285.227 261.02 328.159C256.836 351.793 236.105 368.872 212.103 368.453C211.723 368.453 211.338 368.449 210.95 368.441C186.732 368.022 166.484 349.904 163.39 325.877L153.678 261.796C156.112 322.365 146.806 384.721 146.806 384.721L209.669 387.345V387.434L210.721 387.383L211.698 387.434V387.345L279.95 384.721C279.95 384.721 273.775 314.694 278.416 250.385Z" fill="#FF6D41"/>
</g>
<path d="M77.8436 260.566H71.5675C69.9952 259.26 66.9776 258.296 64.0867 258.296C61.1832 258.296 59.3194 259.26 59.3067 260.566H53.5503L53.208 262.049L63.7951 271.571H88.1011L77.8436 260.566Z" fill="#DBDBDB"/>
<path d="M77.5897 261.96H71.3135C69.7413 260.654 66.7236 259.69 63.8328 259.69C60.9293 259.69 59.0654 260.654 59.0527 261.96H53.2964L63.5412 272.953H87.8472L77.5897 261.96Z" fill="#7C7C7C"/>
<path d="M173.508 337.452L172.456 339.443L103.227 337.452L36.3574 269.111L37.6634 267.171H107.957L173.508 337.452Z" fill="#C4D7F2"/>
<path d="M172.494 339.481H102.213L36.6494 269.2H106.943L172.494 339.481Z" fill="#91A8A4"/>
<path d="M353.286 371.205H244.473V280.638H353.286V371.205Z" fill="#FFB300"/>
<path d="M280.089 349.967C304.864 345.2 328.764 336.147 345.577 316.532C348.316 313.325 350.877 309.99 353.286 306.541V280.638H244.473V351.641C256.379 351.869 268.209 352.25 280.089 349.967Z" fill="#FFC200"/>
<path d="M368.831 332.343C368.831 332.343 356.329 326.257 356.165 326.764C356.127 326.891 354.973 322.441 354.973 323.899C353.426 323.404 353.248 328.717 353.248 328.717C353.248 328.717 347.505 349.156 348.773 352.706C350.041 356.256 353.248 354.316 353.882 352.921C354.161 352.287 355.784 348.737 356.672 344.591C357.433 349.916 359.449 371.382 352.691 372.333C351.676 372.409 350.662 372.485 349.635 372.536C348.24 372.612 346.833 372.65 345.413 372.701L343.283 372.777L342.23 372.84C342.23 372.84 341.774 372.878 341.634 372.904C341.609 372.891 341.457 372.853 341.013 372.764C340.1 372.587 339.225 373.195 339.048 374.108C338.959 374.463 339.048 375.047 339.327 375.427C339.694 375.883 339.618 375.731 339.694 375.82C339.796 375.913 339.906 375.993 340.024 376.061L340.303 376.226L340.683 376.454C340.912 376.581 341.127 376.682 341.33 376.784C341.748 376.986 342.167 377.113 342.585 377.265C346.744 378.647 351.245 378.09 355.467 377.303C358.574 376.72 360.78 375.11 363.087 373.069L367.005 369.607C368.261 368.504 369.148 367.021 369.516 365.385C370.758 359.996 373.345 347.038 368.831 332.343Z" fill="#FF9669"/>
<path d="M311.546 328.464H286.213V280.638H311.546V328.464Z" fill="#FFF3AA"/>
<path d="M342.141 297.881H324.226V289.424H342.141V297.881Z" fill="#FFF3AA"/>
<path d="M234.051 163.203V203.574C234.051 203.574 217.771 199.859 212.243 199.871C206.867 199.884 191.082 203.574 191.082 203.574V163.203H234.051Z" fill="#FF9669"/>
<path d="M342.141 311.055H324.226V302.61H342.141V311.055Z" fill="#FFF3AA"/>
<path d="M192.768 210.864C192.768 210.864 212.788 204.233 232.048 210.433C232.048 210.433 238.641 200.936 222.044 197.893C222.044 197.893 212.535 201.697 206.715 198.781C206.715 198.781 190.739 196.245 192.514 210.433" fill="#1F63AF"/>
<path d="M210.81 200.213C210.81 200.213 193.275 200.213 192.768 210.864C192.768 210.864 179.252 201.139 175.702 188.726C175.702 188.726 182.13 175.717 191.082 180.446C192.197 182.97 194.403 186.165 196.99 189.322C202.024 195.433 207.894 197.931 210.81 200.213Z" fill="#144983"/>
<path d="M146.818 388.245L133.797 500H197.231L213.739 443.121L231.528 500H286.213L279.823 387.345L146.818 388.245Z" fill="#231F20"/>
<path d="M214.233 200.213C214.233 200.213 231.756 200.213 232.263 210.864C232.263 210.864 245.779 201.139 249.329 188.726C249.329 188.726 242.914 175.717 233.95 180.446C232.834 182.97 230.628 186.165 228.041 189.322C223.007 195.433 217.137 197.931 214.233 200.213Z" fill="#144983"/>
<path d="M234.052 163.203V169.606C230.54 176.123 226.584 181.182 223.68 182.26C217.493 184.555 202.138 185.43 196.306 179.077C194.784 177.416 192.959 174.779 191.082 171.787V163.203H234.052Z" fill="#E17B58"/>
<path d="M186.796 137.376C188.432 143.373 186.162 149.205 181.724 150.423C177.287 151.627 172.355 147.76 170.732 141.763C169.096 135.765 171.366 129.933 175.803 128.716C180.241 127.511 185.161 131.391 186.796 137.376Z" fill="#FF9669"/>
<path d="M237.31 134.865C236.283 140.989 239.123 146.58 243.65 147.341C248.189 148.115 252.703 143.766 253.742 137.642C254.769 131.517 251.929 125.926 247.39 125.165C242.864 124.404 238.35 128.741 237.31 134.865Z" fill="#FF9669"/>
<path d="M240.924 135.473C240.341 138.91 241.938 142.041 244.474 142.472C247.023 142.903 249.546 140.469 250.129 137.033C250.712 133.597 249.115 130.465 246.579 130.034C244.03 129.616 241.507 132.05 240.924 135.473Z" fill="#DF7361"/>
<path d="M183.258 138.339C184.184 141.699 182.903 144.971 180.418 145.655C177.933 146.327 175.169 144.159 174.256 140.799C173.343 137.439 174.611 134.168 177.096 133.496C179.594 132.811 182.345 134.979 183.258 138.339Z" fill="#DF7361"/>
<path d="M246.337 124.494C247.656 150.917 233.291 175.908 214.082 176.859C194.873 177.81 178.098 154.366 176.779 127.943C175.474 101.532 187.138 97.0814 206.347 96.1305C225.556 95.1669 245.032 98.0704 246.337 124.494Z" fill="#FF9669"/>
<path d="M177.553 135.271C177.553 135.271 167.879 106.908 168.893 98.4634C169.907 90.0191 179.264 90.222 180.913 90.7038C182.561 91.1983 185.667 101.823 185.972 109.824C186.263 117.837 177.236 135.677 177.553 135.271Z" fill="#231F20"/>
<path d="M180.913 90.7032C180.913 90.7032 183.88 74.905 205.701 76.1095C227.522 77.3267 238.54 88.2942 243.599 87.6729C248.658 87.0389 246.287 109.164 224.973 110.571C203.659 111.979 192.032 104.13 185.782 107.25C179.531 110.369 177.185 93.6955 180.913 90.7032Z" fill="#231F20"/>
<path d="M245.108 99.6929C245.108 99.6929 251.232 110.331 246.312 131.86C246.312 131.86 236.689 115.707 236.702 107.161C236.727 98.6278 245.108 99.6929 245.108 99.6929Z" fill="#231F20"/>
<path d="M207.958 108.771C207.958 108.771 224.061 113.881 231.402 111.928C238.756 109.976 240.112 105.449 240.112 105.449" stroke="#231F20" stroke-width="2.38908" stroke-miterlimit="10"/>
<g style="mix-blend-mode:multiply" opacity="0.4">
<path d="M182.257 117.888C187.836 116.823 193.491 116.087 199.158 115.618C209.745 114.743 220.472 114.693 231.072 115.479C236.993 115.935 242.901 116.683 248.734 117.786C248.861 112.334 248.81 107.022 247.39 102.47C242.217 85.8601 228.815 72.5977 211.711 72.5977C193.998 72.5977 179.772 85.6826 174.865 103.243C173.584 107.82 174.129 113.691 174.548 119.409C177.16 118.661 180 118.319 182.257 117.888Z" fill="#D07250"/>
</g>
<path d="M207.045 56.0131C191.158 56.7104 167.904 74.7276 168.5 89.7144C168.741 95.9525 168.792 97.2585 169.033 103.497C176.488 99.9718 189.738 94.8241 207.108 93.9238C225.886 92.9475 240.556 97.3853 248.43 100.378L247.897 87.0391C247.314 72.0523 222.919 55.4679 207.045 56.0131Z" fill="#343030"/>
<path d="M178.77 84.7312C179.138 79.1017 180.634 73.5609 183.626 68.7555C185.123 66.3464 186.91 64.2163 188.901 62.3018C177.756 69.0217 168.12 80.0019 168.5 89.7141L169.033 103.496C172.012 102.089 175.943 100.415 180.672 98.8558C178.682 94.5449 178.479 89.3338 178.77 84.7312Z" fill="#3D3D3D"/>
<path d="M223.16 59.8296C226.291 62.7585 229.094 65.9917 231.452 69.415C234.977 74.4994 237.69 80.3191 238.413 86.5066C238.78 89.7144 238.844 93.6703 237.715 96.9923C242.039 98.108 245.665 99.3252 248.429 100.378L247.897 87.0391C247.491 76.6549 235.674 65.5225 223.16 59.8296Z" fill="#3D3D3D"/>
<path d="M206.931 56.0132C206.965 56.0132 207.003 56.0132 207.045 56.0132C207.079 56.0047 207.113 56.0005 207.147 56.0005L206.931 56.0132Z" fill="#FF6D41"/>
<path d="M251.624 114.401C251.713 115.682 250.42 116.607 249.253 116.1C239.161 111.764 226.253 106.958 209.124 107.833C192.958 108.657 178.732 114.819 168.994 119.866C167.878 120.436 166.572 119.612 166.623 118.357C166.75 114.426 167.777 109.646 169.235 105.678C173.875 98.5901 190.523 91.4897 206.436 90.4373C224.034 89.2835 241.811 95.0526 248.353 102.685C250.28 106.781 251.32 109.989 251.624 114.401Z" fill="#343030"/>
<path d="M251.612 114.553C241.19 109.976 227.572 104.27 209.023 105.209C191.538 106.109 176.31 113.235 166.585 118.458C166.167 114.198 167.321 107.998 169.134 103.053C173.774 95.9655 190.422 88.8652 206.335 87.8128C223.933 86.659 241.709 92.428 248.252 100.061C250.56 104.968 251.599 108.594 251.612 114.553Z" fill="#2F2929"/>
<path d="M184.932 107.592C181.116 104.93 178.986 99.9973 179.112 95.2173C174.497 97.601 170.922 100.327 169.134 103.053C167.321 107.998 166.167 114.198 166.585 118.458C172.063 115.517 179.277 111.979 187.645 109.279C186.72 108.771 185.807 108.213 184.932 107.592Z" fill="#272020"/>
<path d="M248.251 100.061C246.35 97.8418 243.484 95.8005 239.972 94.0254C239.997 94.4692 240.048 94.9129 240.048 95.3567C240.124 100.035 238.92 105.044 235.585 108.442C241.658 110.242 246.958 112.512 251.611 114.553C251.599 108.594 250.559 104.968 248.251 100.061Z" fill="#272020"/>
<path d="M89.8001 337.77C89.8001 337.77 95.9369 330.733 96.1651 328.083C96.3933 325.446 94.39 323.201 91.5752 325.357C88.7478 327.5 87.1121 331.367 85.4005 333.814C84.0565 335.728 87.9997 339.165 89.8001 337.77Z" fill="#FF9669"/>
<path d="M85.2989 334.22C85.2989 334.22 91.4863 324.977 91.3595 322.225C91.2454 319.474 88.8744 317.432 86.2625 320.032C83.6506 322.631 82.9279 328.045 81.0514 329.579C79.1749 331.101 83.6252 335.893 85.2989 334.22Z" fill="#FF9669"/>
<path d="M81.2794 329.858C81.2794 329.858 87.302 317.787 86.9217 315.061C86.5413 312.335 83.9801 310.535 81.6344 313.362C79.2888 316.202 77.9321 323.949 76.2077 325.648C74.4834 327.347 79.7833 331.684 81.2794 329.858Z" fill="#FF9669"/>
<path d="M76.3603 325.484C76.3603 325.484 81.2798 316.355 80.9248 313.806C80.5698 311.27 78.1861 309.597 75.9926 312.234C73.8118 314.871 73.8371 318.231 72.6326 320.653C71.3013 323.303 74.9656 327.183 76.3603 325.484Z" fill="#FF9669"/>
<path d="M279.95 372.688L279.823 387.345C269.502 389.513 250.166 392.886 227.103 393.761C222.741 393.926 218.253 394.002 213.676 393.951C209.035 393.913 204.559 393.773 200.248 393.545C199.513 393.511 198.782 393.473 198.055 393.431C175.182 392.1 156.493 390.54 146.818 388.245L146.945 373.576C156.619 375.87 175.308 377.43 198.182 378.761C198.909 378.812 199.64 378.854 200.375 378.888C204.686 379.104 209.162 379.256 213.802 379.294C218.392 379.332 222.881 379.256 227.23 379.091C250.293 378.229 269.629 374.843 279.95 372.688Z" fill="#353535"/>
<path d="M227.23 379.091L227.103 393.761C222.741 393.926 218.253 394.002 213.676 393.951C209.035 393.913 204.559 393.774 200.249 393.545L200.375 378.888C204.686 379.104 209.162 379.256 213.803 379.294C218.392 379.332 222.881 379.256 227.23 379.091Z" fill="#2B2B2B"/>
<path d="M225.049 379.877L224.935 393.596C224.923 394.737 223.997 395.65 222.856 395.637L204.458 395.473C204.374 395.473 204.294 395.468 204.217 395.46C203.19 395.32 202.417 394.446 202.417 393.393L202.544 379.674C202.556 378.533 203.482 377.62 204.623 377.633L223.008 377.798C224.149 377.81 225.062 378.736 225.049 379.877Z" fill="#9D9DA0"/>
<g opacity="0.4">
<path d="M218.05 377.76L207.92 395.511L204.458 395.473C204.374 395.473 204.293 395.468 204.217 395.46L214.348 377.722L218.05 377.76Z" fill="white"/>
<path d="M221.258 377.785L211.127 395.536L208.718 395.511L218.862 377.76L221.258 377.785Z" fill="white"/>
</g>
<g opacity="0.4">
<path d="M44.1485 39.4734C56.4096 18.1172 100.964 20.3047 105.166 48.511C107.181 58.6998 98.4887 67.3344 90.4873 72.0546C78.1687 79.3652 89.3936 86.5607 101.022 84.8914C75.2905 98.0735 27.6851 68.1403 44.1485 39.4734Z" fill="#FFB300"/>
<path d="M34.5352 50.1803C34.5736 48.7604 34.7271 47.3405 34.9958 45.9206C35.5714 43.0999 36.55 40.3944 37.9315 37.8616C40.4643 33.0838 44.4938 29.1695 49.3292 26.5791C51.9771 25.1976 54.7977 24.2765 57.7911 23.9312C58.1364 23.9312 58.194 24.4492 57.9062 24.5068C52.9557 25.8308 48.3506 28.0758 44.6089 31.6447C40.8097 35.2712 38.1618 39.9915 37.0105 45.1722C36.6651 46.6305 36.454 48.1272 36.3773 49.6622C36.3197 51.2164 36.55 52.7131 36.4348 54.2098C36.3773 55.1884 35.0533 55.4186 34.7655 54.44C34.4201 53.1161 34.4777 51.5618 34.5352 50.1803Z" fill="#FFB300"/>
<path d="M35.6288 59.8511C35.6288 59.736 35.6288 59.6209 35.6288 59.5058C35.6864 59.3906 35.744 59.3331 35.8015 59.2179C35.8591 59.0453 36.0318 58.9877 36.1469 59.1028C36.2045 59.1604 36.3196 59.2179 36.3772 59.3331C36.4347 59.3906 36.4923 59.5058 36.4923 59.5633C36.6074 59.7552 36.7226 59.9471 36.8377 60.139C37.0679 60.5419 37.1831 61.0024 37.4133 61.4629C37.3558 61.3478 37.4709 61.6356 37.4709 61.6356C37.5093 61.7508 37.5668 61.8467 37.6436 61.9235C37.7203 62.1537 37.8163 62.3648 37.9314 62.5567C38.0465 62.7485 38.1616 62.9404 38.2768 63.1323C38.3535 63.209 38.4111 63.2858 38.4495 63.3625C38.5646 63.5928 38.6222 63.7655 38.6222 63.9382C38.7373 64.629 37.8738 64.9743 37.4133 64.6865C36.9528 64.3987 36.7225 63.8231 36.4923 63.3625C36.262 62.902 36.0702 62.4223 35.9167 61.9235C35.744 61.5205 35.6288 61.0024 35.5713 60.5419C35.5713 60.3117 35.5905 60.0814 35.6288 59.8511Z" fill="#FFB300"/>
<path d="M92.7323 74.8179C93.3655 74.4725 94.1139 74.2998 94.7471 74.012C95.4378 73.705 96.0902 73.3596 96.7042 72.9758C97.9323 72.2467 99.0644 71.4024 100.101 70.443C101.137 69.4069 102.058 68.3707 102.864 67.1619C103.67 66.0106 104.475 64.7442 105.051 63.4202C105.166 63.19 105.512 63.3626 105.454 63.5929C105.051 65.0896 104.533 66.4711 103.727 67.7375C102.921 69.0615 101.943 70.2703 100.906 71.364C99.8127 72.4002 98.6614 73.3788 97.395 74.1847C96.7042 74.6068 96.0135 74.9714 95.3227 75.2784C94.6319 75.6238 93.8836 76.0267 93.1353 76.0843C92.3869 76.1994 92.2143 75.1057 92.7323 74.8179Z" fill="#FFB300"/>
<path fill-rule="evenodd" clip-rule="evenodd" d="M72.988 63.5354V67.1619H70.3977V63.7656C68.0951 63.7081 65.6199 63.0749 64.3535 62.2114L65.1018 59.5635C66.4833 60.3694 68.3829 61.0601 70.3977 61.1752V51.8499C66.9438 50.4684 64.814 48.4536 64.814 45.2876C64.814 42.1792 67.0014 39.7039 70.3977 38.9556V35.3291H72.988V38.6678C75.3482 38.7253 77.0175 39.301 78.0537 39.8766L77.1902 42.467C76.4419 42.064 75.0028 41.3733 72.988 41.3157V49.6625C77.0175 51.2743 79.0323 53.2314 79.0323 56.7428C79.0323 59.9664 77.0751 62.7295 72.988 63.5354ZM70.3977 48.5112V41.6611C68.7283 42.2943 68.0376 43.7334 68.0376 44.9422C68.0376 46.554 68.7859 47.5902 70.3977 48.5112ZM75.8662 57.0306C75.8662 55.1886 75.0028 53.9798 72.988 52.9436V60.8299C74.8301 60.2542 75.8662 58.8151 75.8662 57.0306Z" fill="white"/>
</g>
<g clip-path="url(#clip1_47_6307)">
<mask id="mask0_47_6307" style="mask-type:luminance" maskUnits="userSpaceOnUse" x="83" y="157" width="38" height="68">
<path d="M120.977 157.169H83.397V224.421H120.977V157.169Z" fill="white"/>
</mask>
<g mask="url(#mask0_47_6307)">
<path opacity="0.2" fill-rule="evenodd" clip-rule="evenodd" d="M87.2624 189.85L101.553 214.391L116.653 190.744C121.146 183.708 121.509 174.193 117.247 166.977C114.245 161.894 109.277 158.305 103.2 158.027C102.932 158.015 102.662 158.009 102.391 158.009C100.757 158.009 99.1703 158.234 97.6532 158.659C90.9616 160.533 86.2766 166.398 84.6912 173.312C83.3959 178.962 84.4228 184.974 87.2624 189.85ZM102.188 167.392H102.188C107.51 167.392 111.824 171.706 111.824 177.028V179.276C111.824 184.598 107.51 188.912 102.188 188.912H102.188C96.8659 188.912 92.5518 184.598 92.5518 179.276V177.028C92.5518 171.706 96.8659 167.392 102.188 167.392Z" fill="#231F20"/>
</g>
</g>
</g>
<defs>
<clipPath id="clip0_47_6307">
<rect width="409" height="500" fill="white"/>
</clipPath>
<clipPath id="clip1_47_6307">
<rect width="37.6606" height="67.2512" fill="white" transform="translate(83.397 157.169)"/>
</clipPath>
</defs>
</svg>
