<svg width="380" height="500" viewBox="0 0 380 500" fill="none" xmlns="http://www.w3.org/2000/svg">
<path d="M132.397 263.251C132.397 263.251 115.663 244.989 87.8774 250.686C87.8774 250.686 103.855 270.675 132.397 263.251Z" fill="#8D0D29"/>
<path d="M277.78 151.265C277.78 151.265 252.949 139.286 196.464 145.183C145.334 141.485 123.273 162.017 123.273 162.017C144.206 240.034 124.787 370.181 124.787 370.181L195.579 373.137V373.237L196.764 373.18L197.864 373.237V373.137L274.724 370.181C274.724 370.181 267.77 291.322 272.996 218.902C274.753 194.429 272.482 170.984 277.78 151.265Z" fill="#14539A"/>
<path d="M328.839 193.058L374.744 237.906C376.058 239.077 376.943 240.662 377.243 242.404C378.599 250.429 381.655 275.773 374.815 313.667L354.654 313.867L353.883 256.397C353.883 256.397 321.914 233.709 310.877 226.484L328.839 193.058Z" fill="#FF9669"/>
<g style="mix-blend-mode:multiply" opacity="0.4">
<path d="M353.897 256.74L355.354 310.198C356.996 309.098 358.495 301.716 358.709 296.077C360.494 283.155 357.139 265.107 367.419 249.972C362.065 253.042 361.137 254.755 353.897 256.74Z" fill="#E17B58"/>
</g>
<path d="M272.068 148.995C272.068 148.995 292.101 156.677 333.651 191.259C333.651 191.259 327.24 215.575 317.016 237.121L272.639 218.06C270.969 209.421 265.786 180.379 272.068 148.995Z" fill="#144983"/>
<g style="mix-blend-mode:multiply" opacity="0.5">
<path d="M310.206 228.354C289.045 209.778 272.083 181.978 271.297 153.207C266.257 182.949 271.04 209.806 272.64 218.059L317.017 237.121C316.66 236.207 316.374 235.293 316.117 234.379C313.233 232.295 312.876 230.71 310.206 228.354Z" fill="#96757B"/>
</g>
<path d="M375.101 311.968C375.101 311.968 375.386 353.775 366.248 358.773C359.223 362.613 345.416 363.056 335.721 354.204L358.552 307.97L375.101 311.968Z" fill="#A1563C"/>
<path d="M39.9592 279.086C39.9592 279.086 34.8904 281.756 31.4493 280.528C28.0225 279.3 30.9067 287.024 36.1469 288.923C41.3728 290.837 46.5416 287.338 46.9128 286.31C47.2698 285.297 43.7716 278.857 39.9592 279.086Z" fill="#FF9669"/>
<path d="M125.929 176.867L134.311 243.461L119.875 306.314C118.961 310.284 115.435 313.125 111.351 313.139L56.2936 314.624L50.9678 290.265L92.0609 284.568L103.484 188.661L125.929 176.867Z" fill="#FF9669"/>
<g style="mix-blend-mode:multiply" opacity="0.4">
<path d="M125.929 176.867L103.484 188.661L100.457 214.076C102.798 218.231 104.783 222.572 106.653 226.998C109.509 233.752 111.865 240.734 113.521 247.873C115.021 254.341 116.306 260.809 115.135 267.434C113.35 277.543 107.51 287.424 99.1144 293.378C86.1068 302.63 69.1156 302.873 53.3809 301.345L56.2936 314.624L111.351 313.139C115.435 313.125 118.961 310.284 119.875 306.314L134.311 243.461L125.929 176.867Z" fill="#E17B58"/>
</g>
<path d="M125.929 159.732C125.929 159.732 143.063 239.277 132.397 263.251C128.856 260.152 122.602 255.512 113.664 252.599C102.456 248.944 92.8035 249.872 87.8774 250.686C89.2339 238.135 90.9045 227.412 92.3466 218.959C95.2022 202.368 100.928 186.176 104.812 179.522C112.807 165.829 125.929 159.732 125.929 159.732Z" fill="#144983"/>
<g style="mix-blend-mode:multiply" opacity="0.5">
<path d="M131.169 188.546C132.212 200.626 131.955 212.834 129.57 224.713C127.5 234.994 123.745 247.473 114.949 253.056C123.188 255.983 129.028 260.309 132.397 263.251C138.851 248.73 135.125 213.819 131.169 188.546Z" fill="#96757B"/>
</g>
<g style="mix-blend-mode:multiply" opacity="0.2">
<path d="M272.996 218.902C273.982 205.095 261.974 258.139 253.407 306.486C248.695 333.1 225.35 352.333 198.321 351.862C197.892 351.862 197.459 351.857 197.021 351.848C169.75 351.377 146.947 330.973 143.463 303.915L132.526 231.753C135.267 299.96 124.787 370.181 124.787 370.181L195.579 373.137V373.237L196.764 373.18L197.864 373.237V373.137L274.724 370.181C274.724 370.181 267.771 291.322 272.996 218.902Z" fill="#FF6D41"/>
</g>
<path d="M47.1271 230.367H40.0593C38.2888 228.897 34.8906 227.812 31.6351 227.812C28.3654 227.812 26.2664 228.897 26.2522 230.367H19.7698L19.3843 232.038L31.3067 242.761H58.6783L47.1271 230.367Z" fill="#DBDBDB"/>
<path d="M46.8412 231.938H39.7734C38.0029 230.467 34.6047 229.382 31.3492 229.382C28.0795 229.382 25.9805 230.467 25.9663 231.938H19.4839L31.0208 244.317H58.3924L46.8412 231.938Z" fill="#7C7C7C"/>
<path d="M154.857 316.951L153.672 319.193L75.7123 316.951L0.408203 239.991L1.87886 237.806H81.0381L154.857 316.951Z" fill="#C4D7F2"/>
<path d="M153.715 319.236H74.5702L0.736816 240.091H79.8961L153.715 319.236Z" fill="#91A8A4"/>
<path d="M357.31 354.961H234.773V252.97H357.31V354.961Z" fill="#91A8A4"/>
<path d="M274.881 331.044C302.781 325.676 329.695 315.481 348.629 293.392C351.713 289.78 354.597 286.025 357.31 282.141V252.97H234.773V332.929C248.18 333.186 261.502 333.614 274.881 331.044Z" fill="#C4D7F2"/>
<path d="M374.815 311.197C374.815 311.197 360.737 304.344 360.551 304.915C360.509 305.057 359.209 300.046 359.209 301.688C357.467 301.131 357.267 307.114 357.267 307.114C357.267 307.114 350.799 330.13 352.227 334.128C353.655 338.126 357.267 335.942 357.981 334.371C358.295 333.657 360.123 329.659 361.122 324.99C361.979 330.987 364.249 355.16 356.639 356.231C355.497 356.317 354.355 356.402 353.198 356.46C351.627 356.545 350.042 356.588 348.443 356.645L346.045 356.731L344.859 356.802C344.859 356.802 344.345 356.845 344.188 356.874C344.16 356.859 343.988 356.816 343.489 356.717C342.461 356.517 341.475 357.202 341.276 358.23C341.176 358.63 341.276 359.287 341.59 359.715C342.004 360.229 341.918 360.058 342.004 360.158C342.118 360.262 342.242 360.353 342.375 360.429L342.689 360.615L343.117 360.872C343.374 361.014 343.617 361.129 343.846 361.243C344.317 361.471 344.788 361.614 345.259 361.785C349.943 363.342 355.011 362.713 359.766 361.828C363.264 361.171 365.749 359.358 368.347 357.059L372.759 353.161C374.173 351.919 375.172 350.248 375.586 348.407C376.986 342.338 379.899 327.746 374.815 311.197Z" fill="#FF9669"/>
<path d="M310.306 306.828H281.777V252.97H310.306V306.828Z" fill="#144983"/>
<path d="M344.759 272.389H324.584V262.865H344.759V272.389Z" fill="#144983"/>
<path d="M223.036 120.724V166.186C223.036 166.186 204.703 162.003 198.478 162.017C192.424 162.031 174.647 166.186 174.647 166.186V120.724H223.036Z" fill="#FF9669"/>
<path d="M344.759 287.224H324.584V277.714H344.759V287.224Z" fill="#144983"/>
<path d="M176.546 174.396C176.546 174.396 199.092 166.929 220.78 173.911C220.78 173.911 228.205 163.216 209.515 159.79C209.515 159.79 198.806 164.073 192.252 160.789C192.252 160.789 174.262 157.933 176.261 173.911" fill="#1F63AF"/>
<path d="M196.864 162.402C196.864 162.402 177.117 162.402 176.546 174.396C176.546 174.396 161.325 163.445 157.327 149.466C157.327 149.466 164.566 134.817 174.647 140.142C175.903 142.984 178.388 146.582 181.301 150.137C186.969 157.019 193.58 159.832 196.864 162.402Z" fill="#144983"/>
<path d="M124.801 374.15L110.137 500H181.572L200.162 435.947L220.195 500H281.777L274.581 373.137L124.801 374.15Z" fill="#231F20"/>
<path d="M200.719 162.402C200.719 162.402 220.452 162.402 221.023 174.396C221.023 174.396 236.244 163.445 240.242 149.466C240.242 149.466 233.017 134.817 222.922 140.142C221.666 142.984 219.181 146.582 216.268 150.137C210.6 157.019 203.989 159.832 200.719 162.402Z" fill="#144983"/>
<path d="M223.037 120.724V127.935C219.082 135.274 214.627 140.971 211.357 142.185C204.389 144.769 187.098 145.754 180.53 138.601C178.817 136.73 176.761 133.76 174.647 130.391V120.724H223.037Z" fill="#E17B58"/>
<path d="M169.821 91.6392C171.663 98.3928 169.107 104.961 164.11 106.332C159.112 107.688 153.558 103.333 151.73 96.5795C149.888 89.8258 152.444 83.2578 157.442 81.887C162.439 80.5306 167.979 84.8998 169.821 91.6392Z" fill="#FF9669"/>
<path d="M226.706 88.812C225.55 95.7084 228.748 102.005 233.845 102.862C238.957 103.733 244.04 98.8354 245.211 91.9389C246.367 85.0425 243.169 78.7457 238.057 77.889C232.96 77.0323 227.877 81.9155 226.706 88.812Z" fill="#FF9669"/>
<path d="M230.775 89.4974C230.119 93.3669 231.918 96.8936 234.773 97.3791C237.643 97.8646 240.485 95.1231 241.141 91.2537C241.798 87.3843 239.999 83.8575 237.144 83.372C234.274 82.9008 231.432 85.6423 230.775 89.4974Z" fill="#DF7361"/>
<path d="M165.837 92.7245C166.88 96.5082 165.438 100.192 162.639 100.963C159.84 101.72 156.728 99.2782 155.7 95.4945C154.672 91.7107 156.099 88.0269 158.898 87.2701C161.711 86.4991 164.809 88.9407 165.837 92.7245Z" fill="#DF7361"/>
<path d="M236.872 77.1325C238.357 106.889 222.18 135.031 200.548 136.102C178.916 137.173 160.026 110.772 158.541 81.0162C157.07 51.2744 170.206 46.2627 191.838 45.1918C213.47 44.1067 235.401 47.3764 236.872 77.1325Z" fill="#FF9669"/>
<path d="M159.412 89.2691C159.412 89.2691 148.518 57.3284 149.66 47.819C150.802 38.3096 161.34 38.5381 163.196 39.0807C165.052 39.6375 168.55 51.6028 168.893 60.6124C169.221 69.6364 159.055 89.726 159.412 89.2691Z" fill="#231F20"/>
<path d="M163.196 39.0805C163.196 39.0805 166.537 21.2896 191.11 22.6461C215.683 24.0168 228.091 36.3676 233.788 35.6679C239.485 34.954 236.815 59.8697 212.813 61.4546C188.811 63.0395 175.718 54.2012 168.679 57.7137C161.64 61.2262 158.998 42.4502 163.196 39.0805Z" fill="#231F20"/>
<path d="M235.488 49.2036C235.488 49.2036 242.384 61.1832 236.844 85.4278C236.844 85.4278 226.007 67.2372 226.021 57.6136C226.05 48.0042 235.488 49.2036 235.488 49.2036Z" fill="#231F20"/>
<path d="M193.652 59.427C193.652 59.427 211.785 65.1811 220.053 62.9823C228.334 60.7834 229.862 55.686 229.862 55.686" stroke="#231F20" stroke-width="2.6904" stroke-miterlimit="10"/>
<g style="mix-blend-mode:multiply" opacity="0.4">
<path d="M164.709 69.6932C170.992 68.4938 177.36 67.6657 183.742 67.1374C195.665 66.1522 207.744 66.0951 219.681 66.9803C226.349 67.4943 233.003 68.3368 239.571 69.579C239.713 63.4393 239.656 57.4567 238.057 52.3307C232.232 33.6261 217.139 18.6909 197.878 18.6909C177.931 18.6909 161.911 33.4262 156.385 53.2017C154.943 58.3562 155.557 64.9671 156.028 71.4066C158.969 70.5642 162.168 70.1787 164.709 69.6932Z" fill="#D07250"/>
</g>
<path d="M192.623 0.0147423C174.733 0.800052 148.546 21.0896 149.217 37.9666C149.489 44.9916 149.546 46.4622 149.817 53.4872C158.213 49.5178 173.133 43.7208 192.695 42.707C213.841 41.6076 230.361 46.605 239.228 49.9747L238.628 34.9539C237.972 18.0769 210.5 -0.599227 192.623 0.0147423Z" fill="#14539A"/>
<path d="M160.783 32.3551C161.197 26.0155 162.882 19.7759 166.251 14.3644C167.936 11.6515 169.95 9.25271 172.191 7.09668C159.641 14.6642 148.789 27.0293 149.217 37.9665L149.817 53.4871C153.172 51.9022 157.599 50.0174 162.925 48.2612C160.683 43.4065 160.454 37.5381 160.783 32.3551Z" fill="#1F63AF"/>
<path d="M210.771 4.3125C214.298 7.6108 217.453 11.2518 220.109 15.1069C224.078 20.8326 227.134 27.3863 227.948 34.3542C228.362 37.9666 228.433 42.4214 227.163 46.1624C232.031 47.4189 236.115 48.7896 239.228 49.9747L238.628 34.9539C238.171 23.2599 224.864 10.7235 210.771 4.3125Z" fill="#1F63AF"/>
<path d="M192.495 0.0147632C192.533 0.0147632 192.576 0.0147632 192.624 0.0147632C192.662 0.00524425 192.7 0.000488281 192.738 0.000488281L192.495 0.0147632Z" fill="#FF6D41"/>
<path d="M242.826 65.7667C242.926 67.2088 241.469 68.2512 240.156 67.68C228.79 62.7968 214.255 57.3853 194.965 58.3705C176.76 59.2986 160.739 66.2379 149.774 71.9207C148.517 72.5632 147.047 71.6351 147.104 70.2216C147.246 65.7953 148.403 60.4123 150.045 55.9432C155.271 47.9616 174.018 39.9657 191.938 38.7806C211.756 37.4813 231.774 43.9779 239.142 52.5735C241.312 57.1854 242.483 60.7978 242.826 65.7667Z" fill="#1F63AF"/>
<path d="M242.812 65.9381C231.075 60.7836 215.74 54.3584 194.851 55.415C175.161 56.4287 158.012 64.4532 147.061 70.3358C146.59 65.5383 147.889 58.5562 149.931 52.9876C155.157 45.006 173.904 37.0102 191.824 35.8251C211.642 34.5257 231.66 41.0224 239.028 49.618C241.627 55.1437 242.797 59.2273 242.812 65.9381Z" fill="#14539A"/>
<path d="M167.722 58.0992C163.424 55.1008 161.025 49.5465 161.168 44.1636C155.971 46.8479 151.944 49.9178 149.931 52.9876C147.889 58.5562 146.59 65.5383 147.061 70.3358C153.229 67.0232 161.354 63.0396 170.777 59.9983C169.735 59.4271 168.707 58.7989 167.722 58.0992Z" fill="#14539A"/>
<path d="M239.028 49.6178C236.886 47.1191 233.659 44.8203 229.704 42.8213C229.733 43.321 229.79 43.8208 229.79 44.3205C229.875 49.5892 228.519 55.2292 224.764 59.0558C231.603 61.0833 237.571 63.6391 242.812 65.938C242.797 59.2271 241.626 55.1435 239.028 49.6178Z" fill="#14539A"/>
<path d="M60.5913 317.308C60.5913 317.308 67.502 309.384 67.759 306.399C68.016 303.43 65.76 300.902 62.5902 303.33C59.4062 305.743 57.5643 310.098 55.6367 312.853C54.1232 315.009 58.5637 318.879 60.5913 317.308Z" fill="#FF9669"/>
<path d="M55.5226 313.31C55.5226 313.31 62.4905 302.901 62.3477 299.803C62.2192 296.705 59.5491 294.406 56.6078 297.333C53.6665 300.26 52.8526 306.357 50.7394 308.084C48.6262 309.798 53.6379 315.195 55.5226 313.31Z" fill="#FF9669"/>
<path d="M50.9963 308.399C50.9963 308.399 57.7785 294.806 57.3501 291.736C56.9218 288.666 54.0376 286.638 51.3961 289.823C48.7546 293.021 47.2268 301.745 45.2849 303.658C43.3431 305.572 49.3114 310.455 50.9963 308.399Z" fill="#FF9669"/>
<path d="M45.4564 303.472C45.4564 303.472 50.9964 293.192 50.5966 290.322C50.1968 287.466 47.5125 285.582 45.0423 288.552C42.5865 291.522 42.615 295.305 41.2586 298.032C39.7593 301.017 43.8858 305.386 45.4564 303.472Z" fill="#FF9669"/>
<path d="M274.724 356.631L274.581 373.137C262.959 375.578 241.184 379.376 215.212 380.362C210.3 380.547 205.246 380.633 200.091 380.576C194.865 380.533 189.825 380.376 184.97 380.119C184.142 380.081 183.319 380.038 182.5 379.99C156.742 378.491 135.696 376.735 124.801 374.15L124.944 357.63C135.838 360.215 156.885 361.971 182.643 363.47C183.462 363.527 184.285 363.575 185.113 363.613C189.968 363.856 195.008 364.027 200.234 364.07C205.403 364.113 210.457 364.027 215.355 363.841C241.327 362.871 263.101 359.058 274.724 356.631Z" fill="#353535"/>
<path d="M215.355 363.841L215.212 380.361C210.3 380.547 205.245 380.633 200.091 380.575C194.865 380.533 189.825 380.376 184.97 380.119L185.113 363.613C189.968 363.856 195.008 364.027 200.234 364.07C205.403 364.113 210.457 364.027 215.355 363.841Z" fill="#2B2B2B"/>
<path d="M212.899 364.727L212.77 380.176C212.756 381.461 211.714 382.489 210.429 382.475L189.711 382.289C189.616 382.289 189.525 382.284 189.44 382.275C188.283 382.118 187.412 381.132 187.412 379.947L187.555 364.498C187.569 363.213 188.611 362.185 189.897 362.199L210.6 362.385C211.885 362.399 212.913 363.442 212.899 364.727Z" fill="#9D9DA0"/>
<g opacity="0.4">
<path d="M205.017 362.342L193.609 382.332L189.711 382.289C189.616 382.289 189.525 382.284 189.439 382.275L200.848 362.299L205.017 362.342Z" fill="white"/>
<path d="M208.63 362.371L197.221 382.361L194.508 382.332L205.931 362.342L208.63 362.371Z" fill="white"/>
</g>
</svg>
