<svg width="579" height="501" viewBox="0 0 579 501" fill="none" xmlns="http://www.w3.org/2000/svg">
<path d="M576.211 388.182C579.55 330.273 503.047 318.76 538.276 213.706C564.986 134.095 536.204 102.262 479.273 93.7426C412.154 83.6113 426.257 25.8171 359.137 11.4262C284.88 -4.46147 273.31 51.318 213.904 79.5243C155.649 107.213 65.3312 95.2392 64.0073 169.669C63.3165 208.698 104.302 235.522 100.1 270.406C93.8829 322.041 8.1703 334.014 27.2239 394.456C37.9308 428.304 77.4772 442.292 106.489 431.527C135.156 420.878 147.82 415.64 173.091 418.633L191.972 423.123C254.486 446.552 253.45 458.007 320.857 434.003C392.352 421.914 431.61 467.908 503.162 458.41C537.183 453.92 573.563 433.715 576.211 388.182Z" fill="#F0F7EE"/>
<g style="mix-blend-mode:multiply">
<path d="M153.577 76.2432V74.3436H167.219V67.2632H145.921V69.1053H125.025V62.0825H126.925V67.1481H144.021V60.1253H136.48V52.9874H117.484V42.1078H132.105V44.0074H119.384V51.0878H144.021V52.9874H138.38V58.2257H159.678V51.1453H147.072V44.6982H148.972V49.2457H170.27V42.2229H163.478V40.2657H172.17V51.1453H161.578V60.1253H145.921V65.3636H169.119V76.2432H153.577Z" fill="#AFDEDC"/>
</g>
<g style="mix-blend-mode:multiply">
<path d="M39.4275 311.622V309.665H53.0702V302.642H31.7715V304.427H10.8758V297.404H12.7754V302.527H29.8719V295.447H22.331V288.366H3.33496V277.487H17.9562V279.386H5.23457V286.409H29.8719V288.366H24.2307V293.547H45.5293V286.524H32.9228V280.019H34.8224V284.567H56.1211V277.544H49.3285V275.645H58.0207V286.524H47.4289V295.447H31.7715V300.743H54.9698V311.622H39.4275Z" fill="#AFDEDC"/>
</g>
<path d="M578.629 483.508C578.629 492.948 449.282 500.604 289.715 500.604C130.148 500.604 0.802124 492.948 0.802124 483.508C0.802124 474.067 130.148 466.469 289.715 466.469C449.282 466.469 578.629 474.067 578.629 483.508Z" fill="#EAE8ED"/>
<path d="M361.728 460.482H128.997V123.388H361.728V460.482Z" fill="#478AD7"/>
<g style="mix-blend-mode:multiply">
<path d="M353.611 123.388V430.779C353.611 443.271 343.48 453.344 331.046 453.344H128.997V460.482H361.728V123.388H353.611Z" fill="#DAD1E0"/>
</g>
<path d="M345.898 342.591H144.827V151.537H345.898V342.591Z" fill="#8DCCFF"/>
<g style="mix-blend-mode:overlay">
<path d="M268.532 151.537L168.831 342.591H146.496L246.255 151.537H268.532Z" fill="#999999"/>
</g>
<g style="mix-blend-mode:overlay">
<path d="M290.291 151.537L190.533 342.591H181.207L280.908 151.537H290.291Z" fill="#999999"/>
</g>
<g style="mix-blend-mode:overlay">
<path d="M345.898 185.845V228.557L286.377 342.591H264.099L345.898 185.845Z" fill="#999999"/>
</g>
<g style="mix-blend-mode:overlay">
<path d="M189.151 151.537L144.827 236.443V193.674L166.816 151.537H189.151Z" fill="#999999"/>
</g>
<g style="mix-blend-mode:overlay">
<path d="M345.898 252.274V270.234L308.136 342.591H298.753L345.898 252.274Z" fill="#999999"/>
</g>
<path d="M249.881 348.636H240.844V145.493H249.881V348.636Z" fill="#478AD7"/>
<path d="M373.989 460.482H116.736V480.4H373.989V460.482Z" fill="#14539A"/>
<path d="M127.846 140.312C119.729 140.312 113.109 133.692 113.109 125.576V111.875H142.524V125.576C142.524 133.692 135.905 140.312 127.788 140.312H127.846Z" fill="#114D8F"/>
<path d="M142.524 110.609V124.309C142.524 132.426 149.087 138.988 157.203 138.988C165.32 138.988 171.882 132.426 171.882 124.309V110.609H142.524Z" fill="#E2E3EB"/>
<path d="M186.561 140.312C178.502 140.312 171.882 133.692 171.882 125.576V111.875H201.297V125.576C201.297 133.692 194.677 140.312 186.561 140.312Z" fill="#114D8F"/>
<path d="M215.976 140.312C224.093 140.312 230.655 133.692 230.655 125.576V111.875H201.297V125.576C201.297 133.692 207.86 140.312 215.976 140.312Z" fill="#E2E3EB"/>
<path d="M245.334 140.312C253.45 140.312 260.07 133.692 260.07 125.576V111.875H230.655V125.576C230.655 133.692 237.217 140.312 245.334 140.312Z" fill="#114D8F"/>
<path d="M362.879 140.312C370.996 140.312 377.615 133.692 377.615 125.576V111.875H348.2V125.576C348.2 133.692 354.763 140.312 362.879 140.312Z" fill="#114D8F"/>
<path d="M333.521 140.312C341.638 140.312 348.2 133.692 348.2 125.576V111.875H318.843V125.576C318.843 133.692 325.405 140.312 333.521 140.312Z" fill="#E2E3EB"/>
<path d="M289.428 111.875V125.576C289.428 133.692 295.99 140.312 304.106 140.312C312.223 140.312 318.843 133.692 318.843 125.576V111.875H289.428Z" fill="#114D8F"/>
<path d="M274.749 140.312C266.632 140.312 260.07 133.692 260.07 125.576V111.875H289.428V125.576C289.428 133.692 282.865 140.312 274.749 140.312Z" fill="#E2E3EB"/>
<path d="M186.964 73.8257L171.882 111.933H142.524L164.687 73.8257H186.964Z" fill="white"/>
<path d="M208.953 73.8257L201.297 111.933H171.882L186.964 73.8257H208.953Z" fill="#14539A"/>
<path d="M164.687 73.8256L142.524 111.933H113.109L144.712 76.3584C146.093 74.8042 148.626 73.8256 151.101 73.8256H164.687Z" fill="#14539A"/>
<path d="M208.953 73.8257L201.297 111.933H230.655L232.324 73.8257H208.953Z" fill="white"/>
<path d="M303.761 73.8257L318.843 111.933H348.2L326.038 73.8257H303.761Z" fill="white"/>
<path d="M281.772 73.8257L289.428 111.933H318.843L303.761 73.8257H281.772Z" fill="#14539A"/>
<path d="M326.038 73.8257L348.2 111.933H377.615L345.725 76.0707C344.516 74.6891 342.271 73.8257 340.141 73.8257H326.038Z" fill="#14539A"/>
<path d="M281.772 73.8257L289.428 111.933H260.07L258.401 73.8257H281.772Z" fill="white"/>
<path d="M260.07 111.875H230.655L232.324 73.8257H258.401L260.07 111.875Z" fill="#14539A"/>
<g style="mix-blend-mode:overlay">
<path fill-rule="evenodd" clip-rule="evenodd" d="M346.013 445.113H144.712V357.673H346.013V445.113ZM148.166 441.659H342.559V361.184H148.166V441.659Z" fill="#B3B3B3"/>
</g>
<g style="mix-blend-mode:overlay">
<path d="M324.139 423.296H166.586V379.432H324.139V423.296Z" fill="#999999"/>
</g>
<path d="M70.7423 423.296C65.0435 411.093 66.828 382.541 69.3032 356.234C71.7209 330.561 58.1934 309.722 58.0782 309.492L58.5388 309.147C58.7114 309.377 72.3541 330.388 69.8788 356.292C67.4036 382.541 65.6767 410.977 71.3179 423.008L70.7423 423.296Z" fill="#567812"/>
<path d="M74.599 421.915C70.6847 410.056 71.0301 380.814 77.3621 359.4C81.9097 343.973 95.8977 333.784 96.0704 333.669L96.4158 334.187C96.2431 334.302 82.4277 344.376 77.9378 359.573C71.6057 380.929 71.2603 409.941 75.1747 421.684L74.599 421.915Z" fill="#567812"/>
<path d="M73.7931 421.397C69.8788 409.596 69.4758 362.681 75.8654 341.268C80.413 325.841 94.401 315.652 94.5161 315.537L94.8615 316.055C94.7464 316.112 80.931 326.186 76.441 341.44C70.109 362.739 70.4544 409.481 74.3687 421.224L73.7931 421.397Z" fill="#567812"/>
<path d="M72.0086 426.519L71.8359 425.656C71.8359 425.541 71.3754 423.238 70.8573 419.266C69.188 410.171 65.6766 391.463 66.022 371.776C66.3098 351.514 61.0139 339.195 60.9564 339.08L61.4744 338.85C61.532 338.965 66.943 351.399 66.5976 371.776C66.3674 386.455 68.267 400.558 69.9363 410.574C68.7275 397.162 68.0367 376.784 72.0662 357.558C76.4986 336.144 77.3045 317.206 74.4839 301.318L75.0595 301.203C77.8801 317.206 77.0742 336.202 72.6418 357.673C67.6338 381.735 69.9363 407.523 71.4905 419.151C72.354 423.814 72.5843 425.311 72.4116 425.714L72.0086 426.519Z" fill="#567812"/>
<path d="M72.2389 424.965H71.6633C72.6419 402.4 70.5696 384.728 65.6191 372.294C60.611 359.976 54.3365 357.27 52.5521 356.752L52.7247 356.177C55.0849 356.867 61.2442 359.861 66.1371 372.064C71.2028 384.556 73.2175 402.343 72.2389 424.965Z" fill="#567812"/>
<path d="M70.9725 424.217C70.9149 424.102 70.0515 420.936 68.5548 406.545C66.6552 388.758 62.9136 379.49 57.0996 378.224L57.2147 377.648C63.4316 379.029 67.2309 388.182 69.1305 406.487C70.6271 420.763 71.5482 424.044 71.5482 424.044L70.9725 424.217Z" fill="#567812"/>
<path d="M69.7637 423.699C69.7637 423.526 69.3607 404.127 62.1653 395.78C56.6391 389.391 48.3499 389.563 45.2415 389.621C44.2629 389.679 43.9751 389.679 43.8599 389.506L44.2629 389.103C44.2629 389.045 44.2053 389.045 44.2053 389.045C44.3204 389.045 44.781 389.045 45.1839 389.045C48.4075 388.988 56.8694 388.758 62.6258 395.377C69.9939 403.897 70.3393 422.893 70.3393 423.699H69.7637Z" fill="#567812"/>
<path d="M76.5562 424.62C76.4986 424.39 74.3112 402.458 77.0743 392.096C82.4853 372.064 94.5161 367.056 94.6313 366.999L94.8615 367.517C94.7464 367.574 82.9458 372.525 77.6499 392.269C74.8868 402.458 77.1318 424.332 77.1318 424.562L76.5562 424.62Z" fill="#567812"/>
<path d="M73.1024 423.757C72.0087 412.474 73.5629 404.588 77.765 399.58C81.2764 395.378 86.5147 393.248 94.7464 392.672L94.8039 393.248C86.745 393.823 81.6218 395.896 78.2255 399.983C74.1385 404.818 72.6418 412.589 73.7356 423.699L73.1024 423.757Z" fill="#567812"/>
<path d="M75.002 423.181C75.002 423.066 73.3902 410.229 73.9083 395.09C74.3688 381.102 76.7289 362.221 85.5938 351.687L86.0543 352.089C69.3032 371.949 75.5777 422.605 75.6352 423.123L75.002 423.181Z" fill="#567812"/>
<path d="M113.973 331.482C107.526 333.036 106.086 339.943 100.215 340.174C97.6821 340.289 94.5737 337.583 96.243 333.957C96.243 333.957 96.2239 333.957 96.1855 333.957C94.6312 334.59 91.9833 334.993 90.6594 332.69C90.0837 331.079 90.7169 329.121 91.9833 327.913C93.1922 326.704 94.9191 326.071 96.646 325.725C102.863 324.401 109.771 326.704 113.973 331.482Z" fill="#9CBA2F"/>
<path d="M67.4036 335.511C67.0582 338.619 65.2737 340.922 62.8561 342.361C58.9993 344.721 53.5307 344.779 49.7315 342.246C42.0179 336.95 41.8452 326.473 42.7087 317.954C42.7087 317.877 42.7087 317.801 42.7087 317.724C49.5588 326.128 68.3822 319.739 67.4036 335.511Z" fill="#9CBA2F"/>
<path d="M59.5173 309.147C59.5173 309.147 59.4981 309.147 59.4597 309.147C56.4088 308.917 55.718 313.809 51.2856 311.91C44.1477 307.535 51.8613 295.677 42.3057 292.165C68.2094 288.078 74.0234 310.931 59.5173 309.147Z" fill="#567812"/>
<path d="M50.3071 390.139L50.0193 390.024C50.0576 390.062 50.096 390.101 50.1344 390.139C56.0635 396.471 39.4851 407.639 27.5693 380.699C34.6497 384.786 39.0245 381.677 45.8746 381.102C50.0768 380.987 55.9483 387.894 50.3071 390.139Z" fill="#9CBA2F"/>
<path d="M27.5693 380.699C27.5693 380.699 32.6925 388.585 44.2629 388.988C46.6806 389.103 48.6377 389.391 50.1344 390.139C56.0635 396.471 39.4851 407.639 27.5693 380.699Z" fill="#85A11F"/>
<path d="M91.4077 318.817L91.6955 318.587C91.6571 318.626 91.5996 318.645 91.5228 318.645C80.6432 320.372 80.6432 294.986 117.484 301.606C108.159 306.211 108.389 312.946 104.072 320.602C101.194 325.092 89.7383 326.301 91.4077 318.817Z" fill="#47630F"/>
<path d="M117.484 301.606C117.484 301.606 105.511 301.376 96.8762 313.291C95.0342 315.767 93.4224 317.609 91.5228 318.645C80.6432 320.372 80.6432 294.986 117.484 301.606Z" fill="#567812"/>
<path d="M59.69 378.684C57.9055 384.613 41.7876 384.095 41.212 366.077C41.212 366.077 41.212 366.097 41.212 366.135C45.5868 371.258 52.6672 368.035 56.7542 372.007C59.4597 374.597 60.2081 376.899 59.69 378.684Z" fill="#567812"/>
<path d="M59.69 378.684C57.9055 384.613 41.7876 384.095 41.212 366.077C41.212 366.077 41.212 366.097 41.212 366.135C41.3271 366.365 44.9536 374.079 49.7314 375C55.1424 376.036 57.3299 376.842 59.69 378.684Z" fill="#47630F"/>
<path d="M56.1786 355.543C55.5454 356.407 54.7395 356.234 54.1638 356.983C53.876 357.386 53.6457 358.134 53.5882 359.515C53.3579 371.258 32.3471 367.402 29.1235 346.794C29.1235 346.794 29.1235 346.775 29.1235 346.736C34.7648 347.657 40.9241 344.894 46.7381 345.758C52.1491 346.564 59.8626 350.823 56.1786 355.543Z" fill="#9CBA2F"/>
<path d="M54.1638 356.983C53.876 357.385 53.6457 358.134 53.5882 359.515C53.3579 371.258 32.3471 367.402 29.1235 346.794C30.2748 348.636 32.6925 351.917 37.4703 352.665C43.6296 353.644 51.4008 351.514 54.1638 356.983Z" fill="#85A11F"/>
<path d="M62.8561 342.361C58.9993 344.721 53.5307 344.779 49.7315 342.246C42.0179 336.95 41.8452 326.474 42.7087 317.954C43.0541 318.645 44.5507 321.581 45.9323 326.301C47.5441 331.654 52.3794 336.662 57.848 336.893C60.3233 337.008 61.935 339.541 62.8561 342.361Z" fill="#85A11F"/>
<path d="M59.5173 309.147C59.5173 309.147 59.4981 309.147 59.4597 309.147C56.4088 308.917 55.718 313.809 51.2856 311.91C44.1477 307.535 51.8613 295.677 42.3057 292.165C42.3057 292.165 50.5949 291.244 51.2281 298.67C51.6886 304.542 57.6177 306.787 59.5173 309.147Z" fill="#47630F"/>
<path d="M74.7718 301.261C74.5799 301.261 74.3688 301.261 74.1386 301.261C67.2309 296.483 64.4678 286.87 67.6914 279.156C70.9726 271.04 80.7009 264.592 79.0891 254.979C86.227 262.981 89.4506 272.018 90.5443 281.056C91.5229 289.057 86.3421 301.203 74.7718 301.261Z" fill="#9CBA2F"/>
<path d="M74.7718 301.261C76.8441 299.419 78.8588 296.425 78.5134 290.957C77.9954 283.646 80.4131 276.566 82.5429 269.658C84.6152 262.865 79.3769 255.382 79.0891 254.979C86.227 262.981 89.4506 272.018 90.5443 281.056C91.5229 289.057 86.3421 301.203 74.7718 301.261Z" fill="#85A11F"/>
<path d="M113.973 331.481C107.526 333.036 106.087 339.943 100.215 340.174C97.6822 340.289 94.5738 337.583 96.2431 333.957C96.2431 333.957 99.1213 333.726 103.036 331.481C106.892 329.294 113.973 331.481 113.973 331.481Z" fill="#85A11F"/>
<path d="M106.374 349.154C103.554 348.06 100.273 348.29 97.6822 349.787C93.9981 352.723 87.7236 357.097 85.1908 350.65C83.9244 339.943 104.129 340.864 106.374 349.154Z" fill="#9CBA2F"/>
<path d="M106.374 349.154C103.554 348.06 100.273 348.29 97.6822 349.787C93.9981 352.723 87.7236 357.097 85.1908 350.65C85.7089 350.19 86.5723 349.384 87.8963 349.557C93.1922 350.132 91.6955 348.348 97.1641 346.391C102.69 344.433 106.374 349.154 106.374 349.154Z" fill="#85A11F"/>
<path d="M119.096 359.515C119.019 359.554 118.942 359.573 118.866 359.573C108.907 361.933 107.526 368.495 101.654 374.885C97.8549 378.569 86.5723 377.187 89.6232 370.452C89.6616 370.376 89.7 370.318 89.7384 370.28L90.0837 370.107C78.8012 369.589 84.5576 344.491 119.096 359.515Z" fill="#567812"/>
<path d="M118.866 359.573C108.907 361.933 107.526 368.495 101.654 374.885C97.8549 378.569 86.5724 377.187 89.6233 370.452C90.3716 369.877 91.2926 369.359 92.5014 369.071C95.5523 368.323 96.9914 365.502 103.323 360.897C109.598 356.234 118.866 359.573 118.866 359.573Z" fill="#47630F"/>
<path d="M111.095 381.274C109.425 387.203 106.029 391.521 101.999 394.859C98.3729 397.795 90.6593 399.061 87.1479 393.075C87.1479 393.036 87.1479 392.979 87.1479 392.902C87.4358 388.182 91.1774 383.98 95.8977 383.174C100.848 382.253 106.95 385.016 111.095 381.274Z" fill="#9CBA2F"/>
<path d="M111.095 381.274C109.425 387.203 106.029 391.521 101.999 394.859C98.3729 397.795 90.6593 399.061 87.1479 393.075C87.1479 393.036 87.1479 392.979 87.1479 392.902C88.1841 392.614 89.7959 392.269 92.156 392.326C97.1065 392.384 96.4733 387.146 102.287 387.261C107.641 387.376 108.447 383.577 111.095 381.274Z" fill="#85A11F"/>
<path d="M82.255 480.399H62.9135C61.5896 480.399 60.4383 479.421 60.1505 478.154C56.1786 460.885 53.876 439.817 55.718 413.74H89.5081C91.1198 439.472 89.1627 460.597 85.0756 478.154C84.7878 479.478 83.6365 480.399 82.255 480.399Z" fill="#14539A"/>
<g style="mix-blend-mode:multiply">
<path d="M89.5081 413.74H55.7181C55.4495 417.386 55.2768 420.917 55.2 424.332H62.3379C74.3112 424.332 84.0395 434.118 83.8093 446.149C83.579 458.755 82.4277 470.153 80.5857 480.399H82.255C83.6366 480.399 84.7879 479.478 85.0757 478.154C89.1627 460.597 91.1199 439.472 89.5081 413.74Z" fill="#EAD3DD"/>
</g>
<path d="M89.3354 410.805H56.2362C54.4517 410.805 53.0126 412.186 53.0126 413.913C53.0126 415.64 54.4517 417.022 56.2362 417.022H89.3354C91.1199 417.022 92.5014 415.64 92.5014 413.913C92.5014 412.186 91.1199 410.805 89.3354 410.805Z" fill="#222222"/>
<path d="M505.465 355.658H402.138V129.029H505.465V355.658Z" fill="#14539A"/>
<path d="M500.111 350.42H407.491V134.268H500.111V350.42Z" fill="white"/>
<path d="M500.111 208.87H407.491V204.208H500.111V208.87Z" fill="#14539A"/>
<path d="M500.111 280.48H407.491V275.817H500.111V280.48Z" fill="#AA89E0"/>
<g style="mix-blend-mode:multiply">
<path d="M431.207 78.9488V77.0492H444.85V70.0264H423.609V71.8109H402.713V64.7881H404.613V69.9113H421.709V62.8309H414.111V55.693H395.115V44.8134H409.794V46.7706H397.072V53.7934H421.652V55.693H416.068V60.9313H437.309V53.9085H424.703V47.4038H426.66V51.9513H447.901V44.9285H441.108V43.0289H449.801V53.9085H439.209V62.8309H423.609V68.0692H446.75V78.9488H431.207Z" fill="#AFDEDC"/>
</g>
<g style="mix-blend-mode:multiply">
<path d="M549.501 302.412V300.455H563.144V293.432H541.845V295.216H520.949V288.193H522.849V293.317H539.946V286.294H532.405V279.156H513.409V268.276H528.03V270.176H515.308V277.199H539.946V279.156H534.304V284.337H555.545V277.314H542.996V270.867H544.896V275.414H566.137V268.334H559.345V266.434H568.094V277.314H557.503V286.294H541.845V291.532H565.043V302.412H549.501Z" fill="#AFDEDC"/>
</g>
<path d="M70.915 265.456C70.8766 265.456 70.8191 265.456 70.7423 265.456C69.5143 265.11 68.2863 264.765 67.0582 264.42C66.6553 264.247 66.3674 263.786 66.5401 263.326C66.6553 262.865 67.1158 262.635 67.5763 262.75C68.766 263.096 69.9556 263.441 71.1453 263.786C71.6058 263.901 71.8936 264.362 71.7785 264.822C71.6633 265.225 71.3179 265.456 70.915 265.456Z" fill="#6542BD"/>
<path d="M60.2656 261.944C60.1889 261.944 60.0929 261.925 59.9778 261.887C57.6177 260.966 55.3151 259.93 53.0701 258.778C52.6672 258.548 52.4945 258.03 52.7247 257.627C52.8974 257.224 53.4155 257.051 53.876 257.224C56.0634 258.375 58.3084 259.354 60.611 260.275C61.0715 260.448 61.2442 260.966 61.0715 261.426C60.9564 261.772 60.611 261.944 60.2656 261.944ZM46.9683 255.209C46.8148 255.209 46.6613 255.171 46.5078 255.094C44.378 253.77 42.2481 252.331 40.2334 250.835C39.888 250.547 39.7729 250.029 40.0607 249.626C40.3485 249.28 40.9241 249.165 41.2695 249.453C43.2843 250.95 45.299 252.331 47.4289 253.655C47.8318 253.885 47.9469 254.404 47.7167 254.806C47.544 255.094 47.2562 255.209 46.9683 255.209ZM34.9951 246.287C34.7648 246.287 34.5921 246.229 34.4194 246.057C32.5198 244.445 30.7353 242.66 28.9509 240.818C28.663 240.473 28.663 239.955 29.0084 239.61C29.3538 239.264 29.9294 239.322 30.2173 239.667C31.9442 241.452 33.7287 243.179 35.5707 244.79C35.9161 245.136 35.9161 245.654 35.6283 245.999C35.4556 246.229 35.2253 246.287 34.9951 246.287ZM24.6911 235.465C24.4609 235.465 24.173 235.35 24.0004 235.12C22.4461 233.162 20.9495 231.148 19.5679 229.018C19.2801 228.672 19.3952 228.097 19.7982 227.867C20.2011 227.579 20.7192 227.694 21.007 228.097C22.3886 230.112 23.8277 232.126 25.3819 234.083C25.6697 234.429 25.6121 234.947 25.2092 235.292C25.0557 235.407 24.883 235.465 24.6911 235.465ZM16.3444 223.031C16.0565 223.031 15.7687 222.916 15.596 222.628C14.3872 220.441 13.2359 218.138 12.1998 215.893C12.0271 215.433 12.1998 214.915 12.6603 214.742C13.0632 214.512 13.5813 214.742 13.754 215.145C14.7901 217.39 15.9414 219.635 17.0927 221.765C17.3229 222.168 17.2078 222.686 16.8049 222.916C16.6514 222.993 16.4979 223.031 16.3444 223.031ZM10.185 209.446C9.83963 209.446 9.49425 209.216 9.37913 208.87C8.51567 206.51 7.76734 204.093 7.13414 201.675C7.01901 201.214 7.24927 200.754 7.70978 200.581C8.17029 200.466 8.68836 200.754 8.80349 201.214C9.43669 203.575 10.185 205.992 10.9909 208.295C11.1636 208.755 10.9333 209.216 10.4728 209.389C10.3577 209.427 10.2618 209.446 10.185 209.446ZM6.32824 194.998C5.92529 194.998 5.57991 194.71 5.46478 194.307C5.06183 191.832 4.71645 189.299 4.48619 186.824C4.42863 186.305 4.77401 185.902 5.29209 185.845C5.7526 185.845 6.15555 186.19 6.21311 186.651C6.44337 189.068 6.73119 191.544 7.1917 193.961C7.24926 194.479 6.96144 194.882 6.50093 194.998C6.42418 194.998 6.36661 194.998 6.32824 194.998ZM5.00427 180.146C4.54376 180.146 4.14081 179.743 4.14081 179.225C4.14081 176.75 4.25594 174.159 4.54376 171.684C4.54376 171.224 5.00427 170.878 5.46478 170.936C5.92529 170.993 6.27068 171.396 6.21311 171.857C5.98286 174.275 5.86772 176.807 5.86772 179.283C5.86772 179.743 5.46478 180.146 5.00427 180.146ZM6.44336 165.237C6.40499 165.237 6.36661 165.237 6.32824 165.237C5.81016 165.122 5.52235 164.661 5.63747 164.201C6.09798 161.726 6.73119 159.25 7.47952 156.89C7.59464 156.43 8.11272 156.2 8.57324 156.315C9.03375 156.487 9.264 156.948 9.14887 157.408C8.40054 159.711 7.8249 162.129 7.30682 164.546C7.24926 164.949 6.84631 165.237 6.44336 165.237ZM10.8758 151.019C10.7607 151.019 10.6455 150.98 10.5304 150.904C10.1275 150.731 9.8972 150.213 10.1275 149.81C11.106 147.45 12.2573 145.205 13.5237 143.017C13.754 142.614 14.2721 142.499 14.7326 142.73C15.1355 142.96 15.2506 143.478 15.0204 143.881C13.8115 146.011 12.6603 148.198 11.6817 150.501C11.5666 150.788 11.2212 151.019 10.8758 151.019ZM18.4167 138.067C18.2248 138.067 18.0521 138.009 17.8986 137.894C17.4956 137.664 17.4381 137.088 17.7259 136.685C17.841 136.493 17.9945 136.302 18.1864 136.11C19.4528 134.44 20.9495 132.713 22.6764 130.987C23.0218 130.641 23.5398 130.641 23.8852 130.929C24.2306 131.274 24.2306 131.85 23.8852 132.195C22.2734 133.865 20.7768 135.534 19.5104 137.146C19.3569 137.338 19.2225 137.53 19.1074 137.721C18.9347 137.952 18.6469 138.067 18.4167 138.067ZM55.4878 137.203C54.2982 137.203 53.1277 137.107 51.9764 136.916C51.5159 136.8 51.2281 136.34 51.2856 135.879C51.4008 135.419 51.8613 135.131 52.3218 135.189C54.6819 135.592 57.1572 135.534 59.4021 135.016C59.8627 134.901 60.3232 135.189 60.4383 135.649C60.5534 136.11 60.2656 136.57 59.8051 136.685C58.4236 137.031 56.9269 137.203 55.4878 137.203ZM45.2414 134.153C45.0879 134.153 44.9344 134.095 44.7809 133.98C44.1285 133.558 43.5145 133.097 42.9389 132.598C41.5573 131.389 40.2334 130.181 39.0245 128.914C38.7367 128.569 38.7367 128.051 39.0821 127.705C39.4275 127.36 39.9456 127.36 40.2909 127.705C41.4422 128.972 42.7086 130.123 44.0326 131.274C44.5699 131.735 45.1455 132.157 45.7595 132.541C46.1625 132.829 46.22 133.347 45.9898 133.75C45.8171 134.037 45.5292 134.153 45.2414 134.153ZM65.9644 133.059C65.7725 133.059 65.5807 133.001 65.3888 132.886C65.0434 132.541 64.9859 132.023 65.2737 131.677C66.1947 130.526 66.6552 129.26 66.6552 127.878C66.6552 127.111 66.5017 126.305 66.1947 125.46C66.022 125 66.2523 124.539 66.7128 124.367C67.1733 124.194 67.6914 124.424 67.8065 124.885C68.1902 125.883 68.3821 126.88 68.3821 127.878C68.3821 129.663 67.8065 131.332 66.5976 132.771C66.4249 132.944 66.1947 133.059 65.9644 133.059ZM28.8357 127.418C28.5479 127.418 28.3177 127.302 28.145 127.072C27.8571 126.727 27.9147 126.151 28.2601 125.863C29.9294 124.482 31.6564 123.215 33.3833 122.064C32.1744 120.337 31.0807 118.495 30.1597 116.653C29.9294 116.25 30.1021 115.732 30.5626 115.502C30.9656 115.272 31.4837 115.444 31.7139 115.847C32.6349 117.689 33.7287 119.531 34.9375 121.258C35.2253 121.316 35.4556 121.431 35.5707 121.661C35.7434 121.891 35.7434 122.179 35.6858 122.409C35.801 122.755 35.6283 123.1 35.3404 123.331C35.1102 123.503 34.7648 123.561 34.477 123.388C32.7501 124.539 31.0231 125.863 29.3538 127.187C29.2003 127.341 29.0276 127.418 28.8357 127.418ZM62.6257 120.049C62.453 120.049 62.2228 119.992 62.0501 119.877C60.2656 118.322 58.1357 117.344 55.7756 116.883C55.3151 116.826 55.0273 116.365 55.0849 115.905C55.2 115.444 55.6029 115.099 56.121 115.214C58.769 115.675 61.1291 116.826 63.2014 118.553C63.5468 118.841 63.6043 119.416 63.3165 119.762C63.1438 119.934 62.856 120.049 62.6257 120.049ZM41.4422 119.416C41.0968 119.416 40.7515 119.243 40.6363 118.898C40.4636 118.495 40.6363 117.977 41.0968 117.747C43.5721 116.653 46.0473 115.847 48.3499 115.387C48.8104 115.272 49.2709 115.617 49.386 116.077C49.4436 116.538 49.1558 116.998 48.6953 117.056C46.5078 117.517 44.2053 118.265 41.7876 119.359C41.6725 119.397 41.5573 119.416 41.4422 119.416ZM28.0874 110.206C27.6844 110.206 27.3966 109.976 27.2815 109.63C26.4756 107.213 25.9 104.737 25.5546 102.205C25.497 101.744 25.8424 101.284 26.3029 101.226C26.7634 101.168 27.2239 101.514 27.2815 101.974C27.6269 104.392 28.145 106.81 28.8933 109.112C29.066 109.573 28.7782 110.033 28.3176 110.206C28.2409 110.206 28.1641 110.206 28.0874 110.206ZM25.9575 95.4696C25.497 95.4696 25.0941 95.0666 25.0941 94.6061C25.1516 92.1309 25.4395 89.5981 25.8424 87.0653C25.9575 86.5472 26.3605 86.2594 26.8785 86.3169C27.3391 86.4321 27.6269 86.8926 27.5693 87.3531C27.1664 89.7708 26.8786 92.246 26.821 94.6637C26.821 95.1242 26.4756 95.4696 25.9575 95.4696ZM28.4903 80.7908C28.4136 80.7908 28.3368 80.7716 28.2601 80.7332C27.7996 80.6181 27.5118 80.1576 27.6844 79.6971C28.4328 77.337 29.3538 74.9193 30.4475 72.6167C30.6202 72.1562 31.1383 71.9835 31.5412 72.2138C32.0017 72.3865 32.1744 72.9045 32.0017 73.3651C30.9656 75.61 30.0446 77.9126 29.2962 80.2152C29.1811 80.5605 28.8357 80.7908 28.4903 80.7908ZM34.7072 67.2633C34.5537 67.2633 34.4002 67.2057 34.2467 67.0906C33.8438 66.8603 33.7287 66.3423 33.9589 65.9393C35.2253 63.8094 36.6644 61.6796 38.2186 59.6648C38.5065 59.2619 39.0245 59.2043 39.4275 59.4922C39.7729 59.78 39.888 60.298 39.6002 60.701C38.1035 62.7157 36.722 64.7305 35.4556 66.8028C35.2829 67.0906 34.9951 67.2633 34.7072 67.2633ZM43.6296 55.29C43.457 55.29 43.2267 55.1749 43.054 55.0597C42.7086 54.7143 42.7086 54.1963 42.9964 53.8509C44.6658 52.0088 46.4503 50.1668 48.2923 48.4399C48.6377 48.1521 49.2133 48.1521 49.5587 48.4974C49.8465 48.8428 49.8466 49.4185 49.5012 49.7063C47.6591 51.4332 45.9322 53.2177 44.2628 55.0022C44.1477 55.1749 43.8599 55.29 43.6296 55.29ZM54.5668 45.1012C54.3365 45.1012 54.0487 44.986 53.876 44.7558C53.5882 44.4104 53.6458 43.8348 54.0487 43.547C56.0059 41.9927 58.0206 40.4961 60.1505 39.1145C60.5534 38.8267 61.0715 38.9418 61.3593 39.3448C61.5896 39.7477 61.4744 40.2658 61.1291 40.5536C59.0568 41.9352 57.042 43.3743 55.1424 44.9285C54.9505 45.0436 54.7587 45.1012 54.5668 45.1012ZM265.02 37.2725C262.603 37.2725 260.07 37.2149 257.537 37.1574C257.077 37.0998 256.674 36.6968 256.731 36.2363C256.731 35.7758 257.134 35.3729 257.595 35.4304C260.127 35.488 262.603 35.5456 265.02 35.5456C265.538 35.5456 265.884 35.9485 265.884 36.409C265.884 36.8695 265.538 37.2725 265.02 37.2725ZM272.504 37.1574C272.043 37.1574 271.698 36.7544 271.64 36.2939C271.64 35.8334 271.986 35.4304 272.504 35.4304C274.979 35.3153 277.454 35.2002 279.929 35.0275C280.39 34.9699 280.793 35.3153 280.85 35.8334C280.85 36.2939 280.505 36.6968 280.045 36.7544C277.569 36.9271 275.037 37.0422 272.561 37.1574C272.561 37.1574 272.542 37.1574 272.504 37.1574ZM250.111 36.7544C250.073 36.7544 250.054 36.7544 250.054 36.7544C247.636 36.5817 245.103 36.409 242.57 36.1788C242.11 36.1212 241.765 35.7183 241.822 35.2002C241.822 34.7397 242.283 34.3943 242.743 34.4519C245.218 34.6821 247.751 34.8548 250.169 35.0275C250.629 35.0851 250.975 35.488 250.975 35.9485C250.917 36.409 250.572 36.7544 250.111 36.7544ZM67.0006 36.7544C66.6552 36.7544 66.3674 36.5817 66.2522 36.2939C65.9644 35.891 66.1371 35.3729 66.5401 35.1426C68.7275 33.8762 70.9725 32.7249 73.2175 31.6312C73.6204 31.401 74.1385 31.5737 74.3688 32.0342C74.599 32.4371 74.3688 32.9552 73.9658 33.1855C71.7208 34.2792 69.5334 35.4304 67.4035 36.6393C67.25 36.716 67.1157 36.7544 67.0006 36.7544ZM287.413 36.0636C287.01 36.0636 286.607 35.7183 286.549 35.2578C286.492 34.7972 286.837 34.3943 287.298 34.3367C289.773 34.0489 292.248 33.7035 294.723 33.3006C295.184 33.243 295.587 33.5884 295.702 34.0489C295.76 34.5094 295.414 34.9699 294.954 35.0275C292.536 35.4304 290.003 35.7758 287.528 36.0061C287.489 36.0445 287.451 36.0636 287.413 36.0636ZM235.202 35.3729C235.202 35.3729 235.183 35.3729 235.145 35.3729C232.727 35.0851 230.252 34.7397 227.719 34.3943C227.201 34.3367 226.913 33.9338 226.971 33.4157C227.028 32.9552 227.489 32.6098 227.949 32.7249C230.482 33.0703 232.957 33.3581 235.317 33.646C235.778 33.7035 236.123 34.164 236.066 34.6245C236.008 35.0275 235.663 35.3729 235.202 35.3729ZM302.207 33.7035C301.804 33.7035 301.458 33.4157 301.343 33.0128C301.228 32.5522 301.573 32.0917 302.034 32.0342C304.452 31.5161 306.869 30.998 309.287 30.4224C309.748 30.3073 310.208 30.5951 310.323 31.0556C310.438 31.5161 310.151 31.9766 309.69 32.0917C307.272 32.6674 304.797 33.243 302.379 33.7035C302.303 33.7035 302.245 33.7035 302.207 33.7035ZM220.408 33.3006C220.37 33.3006 220.332 33.3006 220.293 33.3006C217.933 32.9552 215.515 32.5522 212.867 32.0917C212.407 32.0342 212.119 31.5737 212.177 31.1131C212.292 30.6526 212.695 30.3073 213.213 30.4224C215.803 30.8253 218.221 31.2283 220.523 31.5737C221.042 31.6888 221.329 32.0917 221.272 32.6098C221.214 33.0128 220.811 33.3006 220.408 33.3006ZM205.672 30.8253C205.634 30.8253 205.576 30.8253 205.499 30.8253C203.043 30.3648 200.606 29.9235 198.189 29.5014C197.671 29.3862 197.383 28.9257 197.498 28.4652C197.555 28.0047 198.016 27.7169 198.477 27.7744C200.933 28.235 203.389 28.6763 205.845 29.0984C206.305 29.2135 206.593 29.6165 206.535 30.1346C206.478 30.5375 206.075 30.8253 205.672 30.8253ZM80.413 30.2497C80.0676 30.2497 79.7798 30.077 79.6071 29.7316C79.4344 29.2711 79.6646 28.753 80.1251 28.5803C82.4277 27.6593 84.7878 26.7959 87.2055 26.0475C87.666 25.8748 88.1265 26.1051 88.2992 26.5656C88.4144 27.0261 88.1841 27.5442 87.7236 27.6593C85.3635 28.4076 83.0609 29.2711 80.7584 30.1921C80.6432 30.2305 80.5281 30.2497 80.413 30.2497ZM316.713 30.1921C316.367 30.1921 316.022 29.9619 315.907 29.5589C315.734 29.0984 316.022 28.6379 316.482 28.5228C318.843 27.832 321.26 27.0837 323.62 26.2778C324.023 26.1627 324.541 26.3929 324.657 26.8534C324.829 27.3139 324.599 27.7744 324.139 27.9471C321.778 28.753 319.361 29.5014 316.943 30.1346C316.866 30.1729 316.79 30.1921 316.713 30.1921ZM190.993 28.1198C190.916 28.1198 190.859 28.1198 190.821 28.1198C188.364 27.6593 185.908 27.218 183.452 26.7959C182.992 26.7383 182.704 26.2778 182.762 25.8173C182.819 25.2992 183.28 25.0114 183.74 25.1265C186.196 25.5486 188.652 25.99 191.108 26.4505C191.569 26.508 191.914 26.9686 191.799 27.4291C191.742 27.832 191.396 28.1198 190.993 28.1198ZM94.6313 25.587C94.2859 25.587 93.8829 25.3568 93.8254 24.9538C93.7102 24.4933 93.9405 24.0328 94.401 23.9177C96.8187 23.2845 99.2939 22.7088 101.769 22.1907C102.23 22.1332 102.69 22.421 102.748 22.8815C102.863 23.342 102.575 23.8025 102.115 23.9177C99.6969 24.3782 97.2216 24.9538 94.8615 25.587C94.7848 25.587 94.708 25.587 94.6313 25.587ZM176.257 25.5295C176.218 25.5295 176.161 25.5295 176.084 25.5295C173.494 25.0689 171.076 24.7236 168.716 24.3206C168.255 24.263 167.91 23.8025 168.025 23.342C168.083 22.8815 168.543 22.5361 169.004 22.6513C171.364 22.9966 173.782 23.3996 176.372 23.8025C176.833 23.9177 177.178 24.3206 177.12 24.8387C177.005 25.2416 176.66 25.5295 176.257 25.5295ZM330.931 25.4719C330.586 25.4719 330.24 25.2992 330.125 24.9538C329.952 24.4933 330.183 23.9752 330.586 23.8025C332.888 22.9391 335.248 22.0181 337.551 21.0395C337.954 20.8668 338.472 21.097 338.645 21.5C338.817 21.9605 338.645 22.4786 338.184 22.6513C335.882 23.6298 333.521 24.5509 331.219 25.4143C331.104 25.4527 331.008 25.4719 330.931 25.4719ZM161.463 23.2845C161.425 23.2845 161.386 23.2845 161.348 23.2845C158.815 22.9391 156.34 22.6513 153.922 22.3634C153.462 22.3634 153.116 21.9029 153.174 21.4424C153.231 20.9819 153.634 20.6365 154.152 20.6941C156.512 20.9243 159.045 21.2122 161.578 21.5575C162.039 21.6151 162.384 22.0756 162.326 22.5361C162.269 22.9966 161.866 23.2845 161.463 23.2845ZM109.31 22.6513C108.85 22.6513 108.504 22.3059 108.447 21.9029C108.389 21.4424 108.677 20.9819 109.195 20.9243C111.613 20.579 114.145 20.2911 116.621 20.0033C117.081 20.0033 117.542 20.3487 117.599 20.8092C117.599 21.2697 117.254 21.7302 116.793 21.7302C114.318 21.9605 111.843 22.3059 109.425 22.6513C109.387 22.6513 109.348 22.6513 109.31 22.6513ZM146.611 21.7302C146.573 21.7302 146.554 21.7302 146.554 21.7302C144.021 21.5 141.488 21.3849 139.071 21.2697C138.61 21.2122 138.265 20.8092 138.265 20.3487C138.265 19.8882 138.725 19.4852 139.186 19.5428C141.603 19.6579 144.136 19.7731 146.669 20.0033C147.13 20.0033 147.475 20.4063 147.475 20.9243C147.417 21.3849 147.014 21.7302 146.611 21.7302ZM124.162 21.2697C123.701 21.2697 123.356 20.8668 123.298 20.4063C123.298 19.9458 123.643 19.5428 124.162 19.5428C126.522 19.4277 128.939 19.3701 131.415 19.3701H131.645C132.163 19.3701 132.508 19.7731 132.508 20.2336C132.508 20.6941 132.163 21.097 131.645 21.097H131.415C128.997 21.097 126.579 21.1546 124.219 21.2697C124.219 21.2697 124.2 21.2697 124.162 21.2697Z" fill="#14539A"/>
<path d="M344.804 19.6004C344.516 19.6004 344.171 19.4277 344.056 19.1399C343.825 18.6794 344.056 18.1613 344.459 17.9886C345.571 17.4513 346.684 16.9141 347.797 16.3768C348.258 16.1466 348.776 16.3193 349.006 16.7798C349.179 17.1827 349.006 17.7008 348.603 17.931C347.452 18.4683 346.32 19.0056 345.207 19.5428C345.092 19.5812 344.957 19.6004 344.804 19.6004Z" fill="#6542BD"/>
<path d="M351.366 15.2255L364.088 11.5414L358.101 6.59094L351.366 15.2255Z" fill="#14539A"/>
<path d="M363.858 13.9017L378.364 3.36755L357.929 9.58445L363.858 13.9017Z" fill="#14539A"/>
<path d="M378.364 3.36744L349.294 0.60437L354.878 5.15192L378.364 3.36744Z" fill="#14539A"/>
<path d="M378.364 3.36755L357.929 9.64202L351.366 15.2257L354.878 5.03691L378.364 3.36755Z" fill="#14539A"/>
<path d="M255.753 18.9673L258.631 16.0891C259.322 15.3983 259.322 14.3622 258.631 13.6714C257.998 13.0382 256.904 13.0382 256.271 13.729L253.393 16.6072L250.457 13.729C249.824 13.0958 248.73 13.0958 248.097 13.729C247.406 14.4198 247.406 15.4559 248.097 16.1467L250.975 19.0249L248.097 21.9031C247.463 22.5938 247.463 23.63 248.154 24.3208C248.442 24.6086 248.903 24.7813 249.305 24.7813C249.766 24.7813 250.169 24.6086 250.514 24.2632L253.393 21.385L256.271 24.2632C256.616 24.6086 257.077 24.7813 257.48 24.7813C257.94 24.7237 258.343 24.6086 258.688 24.2632C259.322 23.5724 259.322 22.5363 258.688 21.8455L255.753 18.9673Z" fill="#FFB300"/>
<path d="M26.1302 450.524L29.0084 447.588C29.6416 446.955 29.6416 445.861 29.0084 445.228C28.3177 444.595 27.2815 444.595 26.5907 445.228L23.7126 448.164L20.7768 445.285C20.1436 444.595 19.0499 444.595 18.4167 445.285C17.7835 445.919 17.7835 447.012 18.4167 447.646L21.3524 450.524L18.4742 453.459C17.7835 454.093 17.7835 455.186 18.4742 455.82C18.8196 456.165 19.2226 456.338 19.6831 456.338C20.086 456.338 20.5465 456.165 20.8344 455.82L23.7126 452.884L26.6483 455.82C26.9361 456.107 27.3966 456.28 27.7996 456.28C28.2601 456.28 28.6631 456.107 29.0084 455.762C29.6992 455.129 29.6416 454.035 29.0084 453.402L26.1302 450.524Z" fill="#FFB300"/>
<path fill-rule="evenodd" clip-rule="evenodd" d="M541.845 207.259C538.161 207.259 535.225 204.323 535.168 200.639C535.168 197.012 538.161 194.019 541.788 194.019C545.414 194.019 548.407 196.955 548.407 200.639C548.465 204.266 545.472 207.259 541.845 207.259ZM541.788 196.091C539.312 196.091 537.24 198.164 537.24 200.639C537.298 203.172 539.312 205.187 541.845 205.187C544.32 205.187 546.393 203.114 546.335 200.639C546.335 198.106 544.32 196.091 541.788 196.091Z" fill="#723DBD"/>
<path fill-rule="evenodd" clip-rule="evenodd" d="M69.591 188.32C69.9364 188.838 69.9939 189.471 69.8788 190.105C69.6485 190.91 69.0729 191.544 68.267 191.774L60.3808 194.134C59.5749 194.364 58.7114 194.134 58.0782 193.558C57.445 192.983 57.2147 192.119 57.445 191.313L59.3446 183.312C59.5173 182.506 60.1505 181.873 60.9564 181.643C61.7623 181.412 62.6257 181.585 63.259 182.161L69.188 187.86C69.3415 187.975 69.4759 188.128 69.591 188.32ZM59.287 192.119C59.3254 192.158 59.3446 192.196 59.3446 192.234C59.4022 192.292 59.5749 192.407 59.8627 192.349L67.6914 190.047C67.9792 189.932 68.0367 189.759 68.0367 189.644C68.0943 189.586 68.0943 189.356 67.9216 189.183L61.9925 183.542C61.7623 183.37 61.5896 183.37 61.4745 183.427C61.4169 183.427 61.1866 183.542 61.1291 183.772L59.2295 191.774C59.1719 191.889 59.2295 192.062 59.287 192.119Z" fill="#FF5E8B"/>
<path fill-rule="evenodd" clip-rule="evenodd" d="M540.118 413.165C540.406 413.683 540.521 414.316 540.406 414.949C540.176 415.755 539.6 416.389 538.737 416.676L530.908 418.979C530.102 419.209 529.239 419.036 528.606 418.403C527.972 417.828 527.742 417.022 527.915 416.158L529.872 408.214C530.045 407.351 530.678 406.718 531.484 406.488C532.29 406.257 533.153 406.43 533.786 407.063L539.715 412.704C539.869 412.82 540.003 412.973 540.118 413.165ZM529.814 416.964C529.853 417.041 529.872 417.079 529.872 417.079C529.929 417.137 530.102 417.252 530.39 417.194L538.219 414.892C538.506 414.777 538.564 414.604 538.564 414.489C538.622 414.431 538.622 414.201 538.449 414.028L532.462 408.387C532.29 408.214 532.117 408.214 532.002 408.272C531.944 408.272 531.714 408.387 531.656 408.617L529.757 416.619C529.699 416.791 529.757 416.907 529.814 416.964Z" fill="#FF5E8B"/>
<path d="M33.3833 39.6327C45.6444 18.2765 90.1989 20.464 94.401 48.6703C96.4158 58.8591 87.7236 67.4937 79.7222 72.2139C67.4036 79.5245 78.6285 86.72 90.2564 85.0507C64.5254 98.2328 16.92 68.2996 33.3833 39.6327Z" fill="#FFB300"/>
<path d="M23.7701 50.3396C23.8085 48.9197 23.962 47.4998 24.2307 46.0799C24.8063 43.2592 25.7849 40.5537 27.1664 38.0209C29.6992 33.2431 33.7287 29.3288 38.5641 26.7384C41.212 25.3569 44.0326 24.4358 47.026 24.0905C47.3713 24.0905 47.4289 24.6085 47.1411 24.6661C42.1906 25.9901 37.5855 28.2351 33.8438 31.804C30.0446 35.4305 27.3967 40.1508 26.2454 45.3315C25.9 46.7898 25.6889 48.2865 25.6122 49.8215C25.5546 51.3757 25.7849 52.8724 25.6697 54.3691C25.6122 55.3477 24.2882 55.5779 24.0004 54.5993C23.655 53.2754 23.7126 51.7211 23.7701 50.3396Z" fill="#FFB300"/>
<path d="M24.8638 60.0102C24.8638 59.8951 24.8638 59.78 24.8638 59.6649C24.9214 59.5497 24.979 59.4922 25.0365 59.377C25.0941 59.2044 25.2668 59.1468 25.3819 59.2619C25.4395 59.3195 25.5546 59.377 25.6122 59.4922C25.6697 59.5497 25.7273 59.6649 25.7273 59.7224C25.8424 59.9143 25.9576 60.1062 26.0727 60.2981C26.3029 60.701 26.4181 61.1615 26.6483 61.622C26.5908 61.5069 26.7059 61.7947 26.7059 61.7947C26.7443 61.9099 26.8018 62.0058 26.8786 62.0826C26.9553 62.3128 27.0513 62.5239 27.1664 62.7158C27.2815 62.9076 27.3966 63.0995 27.5118 63.2914C27.5885 63.3681 27.6461 63.4449 27.6845 63.5216C27.7996 63.7519 27.8572 63.9246 27.8572 64.0973C27.9723 64.7881 27.1088 65.1334 26.6483 64.8456C26.1878 64.5578 25.9575 63.9822 25.7273 63.5216C25.497 63.0611 25.3052 62.5814 25.1517 62.0826C24.979 61.6796 24.8638 61.1615 24.8063 60.701C24.8063 60.4708 24.8255 60.2405 24.8638 60.0102Z" fill="#FFB300"/>
<path d="M81.9672 74.977C82.6004 74.6316 83.3488 74.4589 83.982 74.1711C84.6727 73.8641 85.3251 73.5187 85.9391 73.1349C87.1672 72.4058 88.2993 71.5615 89.3354 70.6021C90.3716 69.566 91.2926 68.5298 92.0985 67.321C92.9044 66.1697 93.7103 64.9033 94.2859 63.5793C94.401 63.3491 94.7464 63.5217 94.6889 63.752C94.2859 65.2487 93.7678 66.6302 92.9619 67.8966C92.156 69.2206 91.1774 70.4294 90.1413 71.5231C89.0476 72.5593 87.8963 73.5379 86.6299 74.3438C85.9391 74.7659 85.2484 75.1305 84.5576 75.4375C83.8668 75.7829 83.1185 76.1858 82.3702 76.2434C81.6218 76.3585 81.4492 75.2648 81.9672 74.977Z" fill="#FFB300"/>
<path fill-rule="evenodd" clip-rule="evenodd" d="M62.2228 63.6945V67.321H59.6325V63.9247C57.3299 63.8672 54.8547 63.234 53.5883 62.3705L54.3366 59.7226C55.7181 60.5285 57.6177 61.2192 59.6325 61.3343V52.009C56.1786 50.6275 54.0488 48.6127 54.0488 45.4467C54.0488 42.3383 56.2362 39.863 59.6325 39.1147V35.4882H62.2228V38.8269C64.583 38.8844 66.2523 39.4601 67.2885 40.0357L66.425 42.6261C65.6767 42.2231 64.2376 41.5324 62.2228 41.4748V49.8216C66.2523 51.4334 68.2671 53.3905 68.2671 56.9019C68.2671 60.1255 66.3099 62.8886 62.2228 63.6945ZM59.6325 48.6703V41.8202C57.9631 42.4534 57.2724 43.8925 57.2724 45.1013C57.2724 46.7131 58.0207 47.7493 59.6325 48.6703ZM65.101 57.1897C65.101 55.3477 64.2376 54.1389 62.2228 53.1027V60.989C64.0649 60.4133 65.101 58.9742 65.101 57.1897Z" fill="white"/>
<path d="M536.262 60.8161C525.785 42.6259 487.793 44.6406 484.281 68.6448C482.554 77.3369 490.038 84.7051 496.83 88.7346C507.364 94.8939 497.809 101.053 487.85 99.6717C509.84 110.897 550.365 85.2232 536.262 60.8161Z" fill="#14539A"/>
<path d="M544.205 68.9901C544.167 67.762 544.033 66.5532 543.802 65.3636C543.284 63.0034 542.478 60.6433 541.327 58.5135C539.082 54.4264 535.628 51.0877 531.541 48.9578C529.296 47.749 526.879 46.9431 524.288 46.7129C524 46.6553 524 47.1158 524.231 47.1734C528.433 48.3246 532.405 50.2243 535.571 53.2176C538.852 56.326 541.097 60.2979 542.075 64.7304C542.382 65.9968 542.574 67.2824 542.651 68.5871C542.709 69.8535 542.478 71.1775 542.594 72.4439C542.651 73.2498 543.745 73.4801 543.975 72.6742C544.32 71.5229 544.263 70.1989 544.205 68.9901Z" fill="#14539A"/>
<path d="M543.284 77.2793C543.284 77.1642 543.284 77.0683 543.284 76.9915C543.227 76.8764 543.169 76.8188 543.169 76.7037C543.112 76.5886 542.939 76.531 542.881 76.6461C542.824 76.7037 542.709 76.7037 542.651 76.8188C542.613 76.8956 542.574 76.9723 542.536 77.0491C542.459 77.2026 542.363 77.3561 542.248 77.5096C542.075 77.855 541.96 78.2579 541.788 78.6033C541.845 78.5457 541.73 78.776 541.73 78.776C541.692 78.8911 541.653 78.9871 541.615 79.0638C541.538 79.2173 541.442 79.39 541.327 79.5819C541.25 79.7354 541.154 79.8889 541.039 80.0424C541.001 80.1191 540.943 80.1959 540.867 80.2727C540.809 80.4453 540.751 80.5605 540.751 80.7907C540.694 81.3088 541.385 81.6542 541.788 81.3664C542.191 81.1361 542.363 80.618 542.594 80.2151C542.747 79.8313 542.901 79.4476 543.054 79.0638C543.169 78.6609 543.284 78.2579 543.342 77.855C543.342 77.6631 543.323 77.4712 543.284 77.2793Z" fill="#14539A"/>
<path d="M494.873 90.6916C494.355 90.3462 493.722 90.2311 493.146 90.0009C492.571 89.7322 492.033 89.4444 491.534 89.1374C490.46 88.5234 489.481 87.7942 488.599 86.95C487.735 86.0865 486.929 85.2231 486.238 84.1869C485.548 83.2083 484.857 82.1146 484.396 81.0209C484.281 80.7906 483.936 80.9633 483.993 81.136C484.396 82.4024 484.857 83.5537 485.548 84.705C486.181 85.7987 486.987 86.8349 487.908 87.7559C488.829 88.6193 489.865 89.4252 490.959 90.116C491.496 90.4997 492.072 90.8259 492.686 91.0946C493.261 91.3824 493.894 91.7278 494.585 91.7853C495.161 91.8429 495.334 90.9219 494.873 90.6916Z" fill="#14539A"/>
<path d="M499.766 67.033C500.917 64.385 503.795 63.2913 506.271 63.6367C509.034 64.0972 511.509 66.3997 511.567 68.9326C516.287 57.132 530.908 67.6086 520.316 76.3007C516.575 79.4092 512.603 80.9058 511.048 80.9058C509.84 80.9058 506.213 79.1214 503.105 76.3007C502.529 75.7251 497.981 71.0624 499.766 67.033Z" fill="white"/>
<path d="M396.842 469.231V482.759C393.964 485.119 389.474 487.191 383.775 488.803C375.486 491.163 364.664 492.545 352.633 492.545C337.609 492.545 324.426 490.357 315.734 486.846C312.683 485.637 310.208 484.256 308.424 482.759V469.231H396.842Z" fill="#FFB300"/>
<g style="mix-blend-mode:overlay">
<path d="M315.734 469.231V486.846C312.683 485.637 310.208 484.256 308.424 482.759V469.231H315.734Z" fill="#999999"/>
</g>
<g style="mix-blend-mode:multiply">
<path d="M396.842 469.231V482.759C393.964 485.119 389.474 487.191 383.775 488.803V469.231H396.842Z" fill="#EFE4D3"/>
</g>
<path d="M352.633 483.162C328.283 483.162 308.481 476.83 308.481 469.001C308.481 461.23 328.283 454.898 352.633 454.898C376.982 454.898 396.784 461.23 396.784 469.001C396.784 476.83 376.982 483.162 352.633 483.162Z" fill="#FFC943"/>
<path fill-rule="evenodd" clip-rule="evenodd" d="M390.682 469.001C390.682 475.793 373.644 481.262 352.633 481.262C331.622 481.262 314.583 475.793 314.583 469.001C314.583 462.266 331.622 456.74 352.633 456.74C373.644 456.74 390.682 462.266 390.682 469.001ZM388.034 469.001C388.034 462.726 372.147 457.603 352.633 457.603C333.061 457.603 317.231 462.726 317.231 469.001C317.231 475.333 333.061 480.456 352.633 480.456C372.147 480.456 388.034 475.333 388.034 469.001Z" fill="#FFB300"/>
<g style="mix-blend-mode:multiply">
<path fill-rule="evenodd" clip-rule="evenodd" d="M390.682 469.001C390.682 475.793 373.644 481.262 352.633 481.262C331.622 481.262 314.583 475.793 314.583 469.001C314.583 462.266 331.622 456.74 352.633 456.74C373.644 456.74 390.682 462.266 390.682 469.001ZM388.034 469.001C388.034 462.726 372.147 457.603 352.633 457.603C333.061 457.603 317.231 462.726 317.231 469.001C317.231 475.333 333.061 480.456 352.633 480.456C372.147 480.456 388.034 475.333 388.034 469.001Z" fill="#EFE4D3"/>
</g>
<g style="mix-blend-mode:multiply">
<path fill-rule="evenodd" clip-rule="evenodd" d="M355.684 477.463V479.65H350.963V477.635C346.646 477.578 342.041 477.175 339.681 476.714L341.12 475.103C343.595 475.621 347.164 476.024 350.963 476.081V470.497C344.516 469.692 340.602 468.483 340.602 466.583C340.602 464.683 344.574 463.244 350.963 462.784V460.596H355.684V462.611C360.058 462.669 363.224 463.014 365.182 463.359L363.57 464.856C362.188 464.626 359.425 464.223 355.684 464.165V469.173C363.167 470.152 366.966 471.303 366.966 473.433C366.966 475.333 363.282 477.002 355.684 477.463ZM350.963 468.483V464.396C347.797 464.799 346.473 465.604 346.473 466.353C346.473 467.331 347.913 467.965 350.963 468.483ZM361.037 473.606C361.037 472.512 359.483 471.764 355.684 471.131V475.851C359.08 475.505 361.037 474.7 361.037 473.606Z" fill="#EFE4D3"/>
</g>
<path fill-rule="evenodd" clip-rule="evenodd" d="M354.993 476.599V478.729H350.215V476.714C345.955 476.714 341.35 476.311 338.99 475.793L340.429 474.239C342.904 474.7 346.473 475.102 350.215 475.16V469.634C343.825 468.77 339.911 467.562 339.911 465.662C339.911 463.82 343.883 462.323 350.215 461.863V459.733H354.993V461.748C359.368 461.748 362.534 462.093 364.491 462.438L362.879 463.993C361.498 463.762 358.734 463.359 354.993 463.302V468.31C362.476 469.231 366.275 470.44 366.275 472.57C366.275 474.412 362.591 476.139 354.993 476.599ZM350.215 467.619V463.532C347.107 463.878 345.783 464.741 345.783 465.489C345.783 466.41 347.222 467.044 350.215 467.619ZM360.346 472.685C360.346 471.591 358.792 470.9 354.993 470.267V474.987C358.389 474.642 360.346 473.779 360.346 472.685Z" fill="#FFF19C"/>
<g style="mix-blend-mode:screen">
<path d="M368.981 455.819L363.743 457.316L315.159 471.188L309.92 472.685C308.942 471.534 308.481 470.267 308.481 469.001C308.481 468.118 308.711 467.274 309.172 466.468L317.979 463.935L341.062 457.316L349.87 454.84C350.791 454.802 351.712 454.783 352.633 454.783C358.389 454.783 363.915 455.128 368.981 455.819Z" fill="#232323"/>
</g>
<g style="mix-blend-mode:screen">
<path d="M396.784 469.001C396.784 469.615 396.669 470.21 396.439 470.785L388.61 473.03L360.577 481.032L352.748 483.277H352.633C338.932 483.277 326.671 481.262 318.555 478.096L323.102 476.772L380.033 460.539L384.581 459.215C392.179 461.748 396.784 465.201 396.784 469.001Z" fill="#232323"/>
</g>
<path d="M401.907 458.64V472.167C399.029 474.528 394.539 476.6 388.84 478.212C380.551 480.572 369.672 482.011 357.698 482.011C342.674 482.011 329.492 479.823 320.8 476.312C317.749 475.046 315.274 473.664 313.432 472.167V458.64H401.907Z" fill="#FFB300"/>
<g style="mix-blend-mode:overlay">
<path d="M320.8 458.64V476.312C317.749 475.046 315.274 473.664 313.432 472.167V458.64H320.8Z" fill="#999999"/>
</g>
<g style="mix-blend-mode:multiply">
<path d="M401.907 458.64V472.167C399.029 474.528 394.539 476.6 388.84 478.212V458.64H401.907Z" fill="#EFE4D3"/>
</g>
<path d="M357.698 472.571C333.291 472.571 313.489 466.239 313.489 458.467C313.489 450.696 333.291 444.364 357.698 444.364C382.048 444.364 401.85 450.696 401.85 458.467C401.85 466.239 382.048 472.571 357.698 472.571Z" fill="#FFC943"/>
<path fill-rule="evenodd" clip-rule="evenodd" d="M395.748 458.467C395.748 465.202 378.709 470.728 357.641 470.728C336.63 470.728 319.591 465.202 319.591 458.467C319.591 451.675 336.63 446.206 357.641 446.206C378.709 446.206 395.748 451.675 395.748 458.467ZM393.043 458.467C393.043 452.135 377.212 447.07 357.641 447.07C338.127 447.07 322.239 452.135 322.239 458.467C322.239 464.742 338.127 469.865 357.641 469.865C377.212 469.865 393.043 464.742 393.043 458.467Z" fill="#FFB300"/>
<g style="mix-blend-mode:multiply">
<path fill-rule="evenodd" clip-rule="evenodd" d="M395.748 458.467C395.748 465.202 378.709 470.728 357.641 470.728C336.63 470.728 319.591 465.202 319.591 458.467C319.591 451.675 336.63 446.206 357.641 446.206C378.709 446.206 395.748 451.675 395.748 458.467ZM393.043 458.467C393.043 452.135 377.212 447.07 357.641 447.07C338.127 447.07 322.239 452.135 322.239 458.467C322.239 464.742 338.127 469.865 357.641 469.865C377.212 469.865 393.043 464.742 393.043 458.467Z" fill="#EFE4D3"/>
</g>
<g style="mix-blend-mode:multiply">
<path fill-rule="evenodd" clip-rule="evenodd" d="M360.749 466.929V469.059H355.971V467.044C351.712 467.044 347.049 466.641 344.689 466.123L346.186 464.569C348.661 465.03 352.172 465.433 355.971 465.49V459.964C349.524 459.101 345.667 457.892 345.667 455.992C345.667 454.15 349.639 452.653 355.971 452.193V450.063H360.749V452.078C365.124 452.078 368.29 452.423 370.19 452.768L368.578 454.323C367.196 454.092 364.491 453.69 360.749 453.632V458.64C368.233 459.561 372.032 460.77 372.032 462.842C372.032 464.742 368.348 466.469 360.749 466.929ZM355.971 457.949V453.862C352.805 454.208 351.539 455.071 351.539 455.819C351.539 456.74 352.92 457.374 355.971 457.949ZM366.045 463.015C366.045 461.921 364.491 461.23 360.749 460.597V465.317C364.145 464.972 366.045 464.109 366.045 463.015Z" fill="#EFE4D3"/>
</g>
<path fill-rule="evenodd" clip-rule="evenodd" d="M360.058 466.008V468.195H355.281V466.181C351.021 466.123 346.358 465.72 343.998 465.26L345.495 463.648C347.97 464.166 351.481 464.569 355.281 464.627V459.043C348.834 458.237 344.977 457.028 344.977 455.128C344.977 453.229 348.949 451.79 355.281 451.329V449.142H360.058V451.157C364.376 451.214 367.599 451.502 369.499 451.905L367.887 453.402C366.506 453.171 363.8 452.768 360.058 452.711V457.719C367.542 458.697 371.341 459.849 371.341 461.979C371.341 463.878 367.657 465.548 360.058 466.008ZM355.281 457.028V452.941C352.115 453.344 350.848 454.15 350.848 454.898C350.848 455.877 352.23 456.51 355.281 457.028ZM365.354 462.151C365.354 461.058 363.8 460.309 360.058 459.676V464.396C363.455 464.051 365.354 463.187 365.354 462.151Z" fill="#FFF19C"/>
<g style="mix-blend-mode:screen">
<path d="M374.046 445.228L368.808 446.724L320.224 460.597L314.986 462.094C314.007 460.943 313.489 459.734 313.489 458.467C313.489 457.585 313.739 456.721 314.238 455.877L323.045 453.344L346.128 446.782L354.935 444.249C355.856 444.249 356.758 444.249 357.641 444.249C363.455 444.249 368.981 444.594 374.046 445.228Z" fill="#232323"/>
</g>
<g style="mix-blend-mode:screen">
<path d="M401.85 458.467C401.85 459.043 401.735 459.618 401.504 460.194L393.676 462.439L365.642 470.441L357.813 472.685H357.641C343.941 472.685 331.679 470.671 323.621 467.505L328.168 466.181L385.041 449.948L389.646 448.624C397.187 451.214 401.85 454.668 401.85 458.467Z" fill="#232323"/>
</g>
<path d="M396.842 447.645V461.173C393.964 463.533 389.474 465.605 383.775 467.217C375.486 469.577 364.664 471.016 352.633 471.016C337.609 471.016 324.426 468.829 315.734 465.317C312.683 464.051 310.208 462.669 308.424 461.173V447.645H396.842Z" fill="#FFB300"/>
<g style="mix-blend-mode:overlay">
<path d="M315.734 447.645V465.317C312.683 464.051 310.208 462.669 308.424 461.173V447.645H315.734Z" fill="#999999"/>
</g>
<g style="mix-blend-mode:multiply">
<path d="M396.842 447.645V461.173C393.964 463.533 389.474 465.605 383.775 467.217V447.645H396.842Z" fill="#EFE4D3"/>
</g>
<path d="M352.633 461.576C328.283 461.576 308.481 455.244 308.481 447.473C308.481 439.701 328.283 433.369 352.633 433.369C376.982 433.369 396.784 439.701 396.784 447.473C396.784 455.244 376.982 461.576 352.633 461.576Z" fill="#FFC943"/>
<path fill-rule="evenodd" clip-rule="evenodd" d="M390.682 447.472C390.682 454.207 373.643 459.733 352.633 459.733C331.622 459.733 314.583 454.207 314.583 447.472C314.583 440.679 331.622 435.211 352.633 435.211C373.643 435.211 390.682 440.679 390.682 447.472ZM388.034 447.472C388.034 441.14 372.147 436.074 352.633 436.074C333.061 436.074 317.231 441.14 317.231 447.472C317.231 453.746 333.061 458.869 352.633 458.869C372.147 458.869 388.034 453.746 388.034 447.472Z" fill="#FFB300"/>
<g style="mix-blend-mode:multiply">
<path fill-rule="evenodd" clip-rule="evenodd" d="M390.682 447.472C390.682 454.207 373.643 459.733 352.633 459.733C331.622 459.733 314.583 454.207 314.583 447.472C314.583 440.679 331.622 435.211 352.633 435.211C373.643 435.211 390.682 440.679 390.682 447.472ZM388.034 447.472C388.034 441.14 372.147 436.074 352.633 436.074C333.061 436.074 317.231 441.14 317.231 447.472C317.231 453.746 333.061 458.869 352.633 458.869C372.147 458.869 388.034 453.746 388.034 447.472Z" fill="#EFE4D3"/>
</g>
<g style="mix-blend-mode:multiply">
<path fill-rule="evenodd" clip-rule="evenodd" d="M355.684 455.934V458.064H350.963V456.049C346.646 456.049 342.041 455.646 339.681 455.128L341.12 453.574C343.595 454.034 347.164 454.437 350.963 454.495V448.969C344.516 448.105 340.602 446.896 340.602 444.997C340.602 443.155 344.574 441.658 350.963 441.197V439.068H355.684V441.082C360.058 441.082 363.224 441.428 365.182 441.773L363.57 443.327C362.188 443.04 359.425 442.694 355.684 442.637V447.645C363.167 448.566 366.966 449.774 366.966 451.847C366.966 453.746 363.282 455.473 355.684 455.934ZM350.963 446.954V442.867C347.797 443.212 346.473 444.076 346.473 444.824C346.473 445.745 347.912 446.378 350.963 446.954ZM361.037 452.02C361.037 450.926 359.483 450.235 355.684 449.602V454.322C359.08 453.919 361.037 453.113 361.037 452.02Z" fill="#EFE4D3"/>
</g>
<path fill-rule="evenodd" clip-rule="evenodd" d="M354.993 455.013V457.2H350.215V455.185C345.955 455.128 341.35 454.725 338.99 454.207L340.429 452.653C342.904 453.171 346.473 453.574 350.215 453.631V448.047C343.825 447.184 339.911 446.033 339.911 444.133C339.911 442.234 343.883 440.794 350.215 440.334V438.146H354.993V440.161C359.368 440.219 362.534 440.507 364.491 440.91L362.879 442.406C361.498 442.176 358.734 441.773 354.993 441.715V446.724C362.476 447.702 366.275 448.853 366.275 450.983C366.275 452.883 362.591 454.552 354.993 455.013ZM350.215 446.033V441.946C347.107 442.349 345.783 443.155 345.783 443.903C345.783 444.881 347.222 445.515 350.215 446.033ZM360.346 451.156C360.346 450.062 358.792 449.314 354.993 448.681V453.401C358.389 453.056 360.346 452.192 360.346 451.156Z" fill="#FFF19C"/>
<g style="mix-blend-mode:screen">
<path d="M368.981 434.232L363.742 435.729L315.159 449.602L309.92 451.098C308.942 449.947 308.481 448.738 308.481 447.472C308.481 446.589 308.711 445.726 309.172 444.882L317.979 442.349L341.062 435.786L349.87 433.254C350.791 433.254 351.712 433.254 352.633 433.254C358.389 433.254 363.915 433.599 368.981 434.232Z" fill="#232323"/>
</g>
<g style="mix-blend-mode:screen">
<path d="M396.784 447.472C396.784 448.048 396.669 448.623 396.439 449.199L388.61 451.444L360.576 459.445L352.748 461.69H352.633C338.932 461.69 326.671 459.676 318.555 456.51L323.102 455.186L380.033 438.953L384.581 437.629C392.179 440.219 396.784 443.673 396.784 447.472Z" fill="#232323"/>
</g>
<path d="M401.907 436.363V449.89C399.029 452.25 394.539 454.322 388.84 455.934C380.551 458.294 369.672 459.733 357.698 459.733C342.674 459.733 329.492 457.489 320.8 454.035C317.749 452.768 315.274 451.387 313.432 449.89V436.363H401.907Z" fill="#FFB300"/>
<g style="mix-blend-mode:overlay">
<path d="M320.8 436.363V454.035C317.749 452.768 315.274 451.387 313.432 449.89V436.363H320.8Z" fill="#999999"/>
</g>
<g style="mix-blend-mode:multiply">
<path d="M401.907 436.363V449.89C399.029 452.25 394.539 454.322 388.84 455.934V436.363H401.907Z" fill="#EFE4D3"/>
</g>
<path d="M357.698 450.293C333.291 450.293 313.489 443.961 313.489 436.19C313.489 428.419 333.291 422.087 357.698 422.087C382.048 422.087 401.85 428.419 401.85 436.19C401.85 443.961 382.048 450.293 357.698 450.293Z" fill="#FFC943"/>
<path fill-rule="evenodd" clip-rule="evenodd" d="M395.748 436.19C395.748 442.925 378.709 448.451 357.641 448.451C336.63 448.451 319.591 442.925 319.591 436.19C319.591 429.397 336.63 423.929 357.641 423.929C378.709 423.929 395.748 429.397 395.748 436.19ZM393.043 436.19C393.043 429.858 377.212 424.735 357.641 424.735C338.127 424.735 322.239 429.858 322.239 436.19C322.239 442.464 338.127 447.587 357.641 447.587C377.212 447.587 393.043 442.464 393.043 436.19Z" fill="#FFB300"/>
<g style="mix-blend-mode:multiply">
<path fill-rule="evenodd" clip-rule="evenodd" d="M395.748 436.19C395.748 442.925 378.709 448.451 357.641 448.451C336.63 448.451 319.591 442.925 319.591 436.19C319.591 429.397 336.63 423.929 357.641 423.929C378.709 423.929 395.748 429.397 395.748 436.19ZM393.043 436.19C393.043 429.858 377.212 424.735 357.641 424.735C338.127 424.735 322.239 429.858 322.239 436.19C322.239 442.464 338.127 447.587 357.641 447.587C377.212 447.587 393.043 442.464 393.043 436.19Z" fill="#EFE4D3"/>
</g>
<g style="mix-blend-mode:multiply">
<path fill-rule="evenodd" clip-rule="evenodd" d="M360.749 444.652V446.782H355.971V444.767C351.712 444.767 347.049 444.364 344.689 443.846L346.186 442.292C348.661 442.752 352.172 443.155 355.971 443.213V437.629C349.524 436.823 345.667 435.614 345.667 433.715C345.667 431.873 349.639 430.376 355.971 429.915V427.728H360.749V429.8C365.124 429.8 368.29 430.146 370.19 430.491L368.578 432.045C367.196 431.758 364.491 431.412 360.749 431.355V436.363C368.233 437.284 372.032 438.492 372.032 440.565C372.032 442.464 368.348 444.191 360.749 444.652ZM355.971 435.672V431.527C352.805 431.93 351.539 432.794 351.539 433.484C351.539 434.463 352.92 435.096 355.971 435.672ZM366.045 440.737C366.045 439.644 364.491 438.953 360.749 438.32V443.04C364.145 442.637 366.045 441.831 366.045 440.737Z" fill="#EFE4D3"/>
</g>
<path fill-rule="evenodd" clip-rule="evenodd" d="M360.058 443.731V445.918H355.281V443.846C351.021 443.846 346.358 443.443 343.998 442.925L345.495 441.371C347.97 441.889 351.481 442.292 355.281 442.292V436.765C348.834 435.902 344.977 434.751 344.977 432.851C344.977 430.952 348.949 429.455 355.281 429.052V426.865H360.058V428.879C364.376 428.937 367.599 429.225 369.499 429.57L367.887 431.124C366.506 430.894 363.8 430.491 360.058 430.433V435.442C367.542 436.42 371.341 437.571 371.341 439.701C371.341 441.601 367.657 443.27 360.058 443.731ZM355.281 434.751V430.664C352.115 431.067 350.848 431.873 350.848 432.621C350.848 433.599 352.23 434.175 355.281 434.751ZM365.354 439.816C365.354 438.723 363.8 438.032 360.058 437.399V442.119C363.455 441.774 365.354 440.91 365.354 439.816Z" fill="#FFF19C"/>
<g style="mix-blend-mode:screen">
<path d="M374.046 422.95L368.808 424.447L320.224 438.32L314.986 439.816C314.007 438.665 313.489 437.456 313.489 436.19C313.489 435.307 313.739 434.444 314.238 433.6L323.045 431.067L346.128 424.504L354.935 421.972C355.856 421.933 356.758 421.914 357.641 421.914C363.455 421.914 368.981 422.317 374.046 422.95Z" fill="#232323"/>
</g>
<g style="mix-blend-mode:screen">
<path d="M401.85 436.19C401.85 436.766 401.735 437.341 401.504 437.917L393.676 440.162L365.642 448.163L357.813 450.408H357.641C343.941 450.408 331.679 448.393 323.621 445.227L328.168 443.903L385.041 427.67L389.646 426.346C397.187 428.879 401.85 432.391 401.85 436.19Z" fill="#232323"/>
</g>
<path d="M396.842 425.368V438.838C393.964 441.256 389.474 443.328 383.775 444.94C375.486 447.3 364.664 448.682 352.633 448.682C337.609 448.682 324.426 446.494 315.734 442.983C312.683 441.774 310.208 440.392 308.424 438.838V425.368H396.842Z" fill="#FFB300"/>
<g style="mix-blend-mode:overlay">
<path d="M315.734 425.368V442.983C312.683 441.774 310.208 440.392 308.424 438.838V425.368H315.734Z" fill="#999999"/>
</g>
<g style="mix-blend-mode:multiply">
<path d="M396.842 425.368V438.838C393.964 441.256 389.474 443.328 383.775 444.94V425.368H396.842Z" fill="#EFE4D3"/>
</g>
<path d="M352.633 439.241C328.283 439.241 308.481 432.909 308.481 425.138C308.481 417.367 328.283 411.035 352.633 411.035C376.982 411.035 396.784 417.367 396.784 425.138C396.784 432.909 376.982 439.241 352.633 439.241Z" fill="#FFC943"/>
<path fill-rule="evenodd" clip-rule="evenodd" d="M390.682 425.138C390.682 431.93 373.643 437.399 352.633 437.399C331.622 437.399 314.583 431.93 314.583 425.138C314.583 418.345 331.622 412.876 352.633 412.876C373.643 412.876 390.682 418.345 390.682 425.138ZM388.034 425.138C388.034 418.863 372.147 413.74 352.633 413.74C333.061 413.74 317.231 418.863 317.231 425.138C317.231 431.47 333.061 436.535 352.633 436.535C372.147 436.535 388.034 431.47 388.034 425.138Z" fill="#FFB300"/>
<g style="mix-blend-mode:multiply">
<path fill-rule="evenodd" clip-rule="evenodd" d="M390.682 425.138C390.682 431.93 373.643 437.399 352.633 437.399C331.622 437.399 314.583 431.93 314.583 425.138C314.583 418.345 331.622 412.876 352.633 412.876C373.643 412.876 390.682 418.345 390.682 425.138ZM388.034 425.138C388.034 418.863 372.147 413.74 352.633 413.74C333.061 413.74 317.231 418.863 317.231 425.138C317.231 431.47 333.061 436.535 352.633 436.535C372.147 436.535 388.034 431.47 388.034 425.138Z" fill="#EFE4D3"/>
</g>
<g style="mix-blend-mode:multiply">
<path fill-rule="evenodd" clip-rule="evenodd" d="M355.684 433.6V435.787H350.963V433.715C346.646 433.715 342.041 433.312 339.681 432.794L341.12 431.24C343.595 431.758 347.164 432.161 350.963 432.161V426.634C344.516 425.771 340.602 424.62 340.602 422.72C340.602 420.82 344.574 419.324 350.963 418.921V416.733H355.684V418.748C360.058 418.806 363.224 419.094 365.182 419.439L363.57 420.993C362.188 420.763 359.425 420.36 355.684 420.302V425.31C363.167 426.289 366.966 427.44 366.966 429.57C366.966 431.47 363.282 433.139 355.684 433.6ZM350.963 424.62V420.533C347.797 420.936 346.473 421.741 346.473 422.49C346.473 423.468 347.912 424.044 350.963 424.62ZM361.037 429.685C361.037 428.592 359.483 427.901 355.684 427.268V431.988C359.08 431.642 361.037 430.779 361.037 429.685Z" fill="#EFE4D3"/>
</g>
<path fill-rule="evenodd" clip-rule="evenodd" d="M354.993 432.736V434.866H350.215V432.851C345.955 432.851 341.35 432.448 338.99 431.93L340.429 430.319C342.904 430.837 346.473 431.24 350.215 431.297V425.713C343.825 424.908 339.911 423.699 339.911 421.799C339.911 419.957 343.883 418.46 350.215 418V415.812H354.993V417.885C359.368 417.885 362.534 418.23 364.491 418.576L362.879 420.13C361.498 419.842 358.734 419.439 354.993 419.439V424.447C362.476 425.368 366.275 426.577 366.275 428.649C366.275 430.549 362.591 432.218 354.993 432.736ZM350.215 423.756V419.612C347.107 420.015 345.783 420.878 345.783 421.569C345.783 422.547 347.222 423.181 350.215 423.756ZM360.346 428.822C360.346 427.728 358.792 426.98 354.993 426.404V431.124C358.389 430.722 360.346 429.916 360.346 428.822Z" fill="#FFF19C"/>
<g style="mix-blend-mode:screen">
<path d="M368.981 411.898L363.742 413.395L315.159 427.325L309.92 428.822C308.942 427.613 308.481 426.404 308.481 425.138C308.481 424.255 308.711 423.392 309.172 422.547L317.979 420.072L341.062 413.452L349.87 410.919C350.791 410.919 351.712 410.919 352.633 410.919C358.389 410.919 363.915 411.265 368.981 411.898Z" fill="#232323"/>
</g>
<g style="mix-blend-mode:screen">
<path d="M396.784 425.138C396.784 425.714 396.669 426.289 396.439 426.865L388.61 429.11L360.576 437.111L352.748 439.356H352.633C338.932 439.356 326.671 437.341 318.555 434.175L323.102 432.909L380.033 416.618L384.581 415.352C392.179 417.885 396.784 421.339 396.784 425.138Z" fill="#232323"/>
</g>
<path d="M396.842 414.315V427.843C393.964 430.26 389.474 432.333 383.775 433.944C375.486 436.305 364.664 437.686 352.633 437.686C337.609 437.686 324.426 435.499 315.734 431.987C312.683 430.778 310.208 429.397 308.424 427.843V414.315H396.842Z" fill="#FFB300"/>
<g style="mix-blend-mode:overlay">
<path d="M315.734 414.315V431.987C312.683 430.778 310.208 429.397 308.424 427.843V414.315H315.734Z" fill="#999999"/>
</g>
<g style="mix-blend-mode:multiply">
<path d="M396.842 414.315V427.843C393.964 430.26 389.474 432.333 383.775 433.944V414.315H396.842Z" fill="#EFE4D3"/>
</g>
<path d="M352.633 428.246C328.283 428.246 308.481 421.914 308.481 414.143C308.481 406.372 328.283 400.04 352.633 400.04C376.982 400.04 396.784 406.372 396.784 414.143C396.784 421.914 376.982 428.246 352.633 428.246Z" fill="#FFC943"/>
<path fill-rule="evenodd" clip-rule="evenodd" d="M390.682 414.142C390.682 420.935 373.644 426.404 352.633 426.404C331.622 426.404 314.583 420.935 314.583 414.142C314.583 407.35 331.622 401.881 352.633 401.881C373.644 401.881 390.682 407.35 390.682 414.142ZM388.034 414.142C388.034 407.868 372.147 402.745 352.633 402.745C333.061 402.745 317.231 407.868 317.231 414.142C317.231 420.417 333.061 425.54 352.633 425.54C372.147 425.54 388.034 420.417 388.034 414.142Z" fill="#FFB300"/>
<g style="mix-blend-mode:multiply">
<path fill-rule="evenodd" clip-rule="evenodd" d="M390.682 414.142C390.682 420.935 373.644 426.404 352.633 426.404C331.622 426.404 314.583 420.935 314.583 414.142C314.583 407.35 331.622 401.881 352.633 401.881C373.644 401.881 390.682 407.35 390.682 414.142ZM388.034 414.142C388.034 407.868 372.147 402.745 352.633 402.745C333.061 402.745 317.231 407.868 317.231 414.142C317.231 420.417 333.061 425.54 352.633 425.54C372.147 425.54 388.034 420.417 388.034 414.142Z" fill="#EFE4D3"/>
</g>
<g style="mix-blend-mode:multiply">
<path fill-rule="evenodd" clip-rule="evenodd" d="M355.684 422.605V424.792H350.963V422.72C346.646 422.72 342.041 422.317 339.681 421.799L341.12 420.245C343.595 420.763 347.164 421.166 350.963 421.166V415.64C344.516 414.776 340.602 413.625 340.602 411.725C340.602 409.826 344.574 408.329 350.963 407.926V405.739H355.684V407.753C360.058 407.753 363.224 408.099 365.182 408.444L363.57 409.998C362.188 409.768 359.425 409.365 355.684 409.307V414.316C363.167 415.294 366.966 416.445 366.966 418.575C366.966 420.475 363.282 422.144 355.684 422.605ZM350.963 413.625V409.538C347.797 409.941 346.473 410.747 346.473 411.495C346.473 412.474 347.913 413.049 350.963 413.625ZM361.037 418.69C361.037 417.597 359.483 416.906 355.684 416.273V420.993C359.08 420.648 361.037 419.784 361.037 418.69Z" fill="#EFE4D3"/>
</g>
<path fill-rule="evenodd" clip-rule="evenodd" d="M354.993 421.741V423.871H350.215V421.856C345.955 421.856 341.35 421.453 338.99 420.935L340.429 419.323C342.904 419.842 346.473 420.244 350.215 420.302V414.718C343.825 413.912 339.911 412.704 339.911 410.804C339.911 408.904 343.883 407.465 350.215 407.005V404.817H354.993V406.89C359.368 406.89 362.534 407.235 364.491 407.58L362.879 409.077C361.498 408.847 358.734 408.444 354.993 408.444V413.452C362.476 414.373 366.275 415.524 366.275 417.654C366.275 419.554 362.591 421.223 354.993 421.741ZM350.215 412.704V408.617C347.107 409.02 345.783 409.883 345.783 410.574C345.783 411.552 347.222 412.186 350.215 412.704ZM360.346 417.827C360.346 416.733 358.792 415.985 354.993 415.409V420.072C358.389 419.726 360.346 418.921 360.346 417.827Z" fill="#FFF19C"/>
<g style="mix-blend-mode:screen">
<path d="M368.981 400.903L363.743 402.4L315.159 416.33L309.92 417.827C308.942 416.618 308.481 415.409 308.481 414.143C308.481 413.26 308.711 412.397 309.172 411.552L317.979 409.077L341.062 402.457L349.87 399.925C350.791 399.925 351.712 399.925 352.633 399.925C358.389 399.925 363.915 400.27 368.981 400.903Z" fill="#232323"/>
</g>
<g style="mix-blend-mode:screen">
<path d="M396.784 414.143C396.784 414.718 396.669 415.294 396.439 415.869L388.61 418.114L360.577 426.116L352.748 428.361H352.633C338.932 428.361 326.671 426.346 318.555 423.18L323.102 421.914L380.033 405.623L384.581 404.357C392.179 406.89 396.784 410.343 396.784 414.143Z" fill="#232323"/>
</g>
<path d="M439.209 134.728C439.381 119.416 450.664 107.097 464.479 107.212C478.295 107.328 489.405 119.819 489.232 135.131C489.117 150.501 477.777 162.819 464.019 162.704C450.203 162.531 439.094 150.04 439.209 134.728Z" fill="#222222"/>
<path d="M420.443 238.343L430.574 249.511C445.368 240.185 450.894 191.486 445.656 186.133C434.949 175.138 426.717 189.299 426.717 189.299C423.091 206.971 420.5 223.78 420.443 238.343Z" fill="#FFD8B5"/>
<path d="M421.019 237.71L395.46 266.319L402.195 273.169C402.195 273.169 422.343 261.081 433.107 247.093L421.019 237.71Z" fill="#FFD8B5"/>
<g style="mix-blend-mode:multiply">
<path d="M439.669 224.873C439.669 224.873 439.497 231.435 439.324 237.71C437.309 242.257 434.834 246.057 432.071 248.417C427.638 253.828 421.94 258.893 416.701 263.038V260.045C416.701 260.045 428.157 249.338 430.574 246.517C432.992 243.639 432.589 231.954 428.617 229.018C424.645 226.024 423.264 223.952 423.264 223.952L439.669 224.873Z" fill="#F0DED3"/>
</g>
<path d="M446.289 213.072C444.102 222.168 441.742 229.824 441.742 229.824C441.742 229.824 430.344 228.327 420.443 223.319C421.249 203.92 426.142 180.952 437.252 175.483C437.252 175.483 443.123 178.074 448.477 184.233C451.47 187.687 448.995 201.56 446.289 213.072Z" fill="#14539A"/>
<g style="mix-blend-mode:multiply">
<path d="M444.044 221.765C442.778 226.543 441.742 229.824 441.742 229.824C441.742 229.824 438.058 229.248 433.165 228.039C433.683 225.679 434.489 219.462 431.668 211C428.214 200.754 430.804 192.119 430.804 192.119L444.044 221.765Z" fill="#DBCDB9"/>
</g>
<path d="M440.245 478.097L449.858 479.881C450.146 462.094 464.537 407.696 455.845 389.16C455.672 388.873 438.173 376.496 433.28 390.139C436.503 420.821 441.511 455.013 440.245 478.097Z" fill="#F9C8A0"/>
<path d="M435.122 395.896C439.727 395.262 456.133 395.262 456.305 390.254C456.996 366.826 473.977 327.913 460.277 286.409C460.277 286.409 441.454 284.797 431.207 295.101C431.207 295.101 424.703 369.819 435.122 395.896Z" fill="#F9C8A0"/>
<path d="M496.37 446.206L510.53 444.019C503.45 431.93 490.786 381.159 474.611 373.043C474.323 372.87 457.514 358.824 457.744 378.569C457.975 393.823 480.943 426.174 496.37 446.206Z" fill="#FFD8B5"/>
<path d="M463.213 395.723C467.818 394.974 474.495 381.792 478.87 381.102C480.367 366.768 496.082 315.536 478.41 279.789C471.445 265.686 459.586 278.58 449.455 289.114C449.455 289.114 445.829 375 463.213 395.723Z" fill="#FFD8B5"/>
<path d="M486.181 368.207C469.775 374.424 437.482 368.495 427.293 363.372C427.293 363.372 421.364 276.278 436.906 261.081L486.354 261.426C489.289 265.283 487.562 270.579 489.059 275.529C498.269 305.808 486.181 368.207 486.181 368.207Z" fill="#14539A"/>
<g style="mix-blend-mode:multiply">
<path d="M486.181 368.207C486.181 368.207 490.901 296.943 484.684 285.833C482.209 281.343 471.675 280.883 471.675 280.883C478.755 276.22 481.921 274.839 489.059 275.529C498.269 305.808 486.181 368.207 486.181 368.207Z" fill="#DBCDB9"/>
</g>
<path d="M491.189 275.299C489.692 275.529 488.253 275.875 486.757 276.278C479.561 278.35 475.071 281.516 464.307 281.459C458.896 279.847 458.493 265.744 458.493 265.744C458.493 265.744 453.945 280.768 451.873 280.653C444.332 280.595 430.056 273.227 430.056 273.112C453.772 227.924 420.788 202.308 434.086 178.534C436.273 175.483 441.511 172.49 445.195 171.972C455.039 170.475 466.667 171.166 476.51 173.066C484.799 174.677 492.973 178.246 496.658 183.024C503.277 191.486 495.046 203.459 488.253 214.972C485.951 218.887 483.821 222.743 482.497 226.427C477.431 241.221 483.418 263.786 491.189 275.299Z" fill="#14539A"/>
<g style="mix-blend-mode:multiply">
<path d="M491.189 275.299C489.692 275.529 482.036 278.35 480.597 278.753C476.28 269.485 478.813 261.426 466.955 262.347L449.685 257.8C449.685 257.8 475.014 247.381 478.41 225.967C480.252 214.396 473.977 206.165 476.51 200.639L488.253 214.972C485.951 218.886 483.821 222.743 482.497 226.427C477.431 241.221 483.418 263.786 491.189 275.299Z" fill="#DBCDB9"/>
</g>
<path d="M439.669 200.639C439.669 200.639 456.363 202.999 472.078 200.639C472.078 200.639 472.423 220.844 481.288 232.241C482.094 245.999 485.145 253.425 489.347 262.693C495.103 275.357 493.722 291.532 493.722 291.532L491.189 341.095C465.631 338.907 448.534 343.858 425.336 336.95C425.163 320.544 426.602 303.275 428.099 288.539C428.099 288.539 429.365 271.212 432.992 260.275C434.546 255.555 436.849 231.666 436.849 231.666C436.849 231.666 438 209.964 439.669 200.639Z" fill="#EAE6FF"/>
<g style="mix-blend-mode:multiply">
<path d="M452.564 246.344C452.564 246.344 455.902 258.433 467.3 261.599C467.3 261.599 455.672 261.714 452.564 246.344Z" fill="#CDBDDB"/>
</g>
<g style="mix-blend-mode:multiply">
<path d="M444.793 250.662C444.793 250.662 450.491 271.212 469.833 276.623C469.833 276.623 450.088 276.796 444.793 250.662Z" fill="#CDBDDB"/>
</g>
<g style="mix-blend-mode:multiply">
<path d="M493.722 291.532L492.11 323.365C489.002 298.267 492.11 276.796 486.354 270.406C484.915 268.795 479.043 269.082 475.647 269.831C480.425 266.031 480.943 246.92 478.352 238.171C476.51 232.011 475.647 221.132 475.647 221.132C477.086 225.391 478.87 229.191 481.288 232.241L481.576 236.041L482.554 242.776C483.994 250.432 486.354 256.073 489.347 262.693C495.103 275.357 493.722 291.532 493.722 291.532Z" fill="#CDBDDB"/>
</g>
<path d="M476.51 173.066C474.898 177.325 467.07 184.866 463.616 187.86C461.659 186.133 458.55 184.291 456.766 181.93C455.212 183.888 451.815 185.154 448.88 187.111C446.347 184.003 444.274 177.268 445.195 171.972C455.096 170.533 466.667 171.166 476.51 173.066Z" fill="white"/>
<path d="M495.967 482.184C499.996 483.681 509.552 480.688 510.703 477.464C511.854 474.298 513.409 467.851 515.538 466.239C517.611 464.685 522.101 461.346 521.41 458.468C520.719 455.878 517.035 452.942 514.445 450.524C512.315 448.509 507.595 437.918 507.595 437.918L495.967 445.631C495.967 445.631 503.911 455.59 504.716 459.562C505.177 462.037 504.256 465.779 502.702 468.484C502.126 469.52 499.651 474.471 497.751 476.14C494.758 478.731 493.549 481.263 495.967 482.184Z" fill="#FFD8B5"/>
<path d="M494.355 482.357C498.385 483.854 509.552 480.688 510.703 477.464C511.854 474.298 513.409 467.851 515.539 466.239C517.611 464.685 522.101 461.346 521.41 458.468C520.719 455.878 517.035 452.942 514.445 450.524C514.445 450.524 515.366 453.748 515.308 456.684C515.251 459.677 507.192 475.507 501.09 471.477C498.097 474.068 491.937 481.436 494.355 482.357Z" fill="#222222"/>
<path d="M415.205 488.113C415.953 489.61 434.373 488.458 436.849 488.055C439.381 487.653 446.692 489.552 450.203 488.113C453.772 486.674 450.952 482.011 450.376 477.924C450.376 477.924 450.376 477.905 450.376 477.867C450.319 477.521 450.319 477.176 450.319 476.831C450.376 475.046 451.643 463.418 451.643 463.418L440.533 462.267C440.475 463.648 440.936 471.65 438.403 475.334C436.1 478.73 430.114 479.075 427.351 479.766C427.351 479.766 427.005 479.824 426.487 479.939C426.334 479.977 426.161 480.016 425.969 480.054C425.7 480.131 425.432 480.208 425.163 480.284C424.971 480.323 424.799 480.361 424.645 480.399C423.436 480.687 422.343 480.975 421.306 481.205C420.501 481.436 419.771 481.666 419.119 481.896C413.305 483.796 414.399 486.674 415.205 488.113Z" fill="#F9C8A0"/>
<path d="M415.205 488.113C417.91 490.243 434.373 488.458 436.849 488.055C439.381 487.652 446.692 489.552 450.203 488.113C453.772 486.674 450.952 482.011 450.376 477.924C450.376 477.924 450.376 477.905 450.376 477.866C450.376 479.766 448.649 482.875 445.368 483.393C440.936 484.141 428.444 485.177 426.43 483.105C424.53 481.148 427.351 479.766 427.351 479.766C427.351 479.766 427.005 479.824 426.487 479.939C426.334 479.977 426.161 480.016 425.969 480.054C425.7 480.131 425.432 480.207 425.163 480.284C425.01 480.323 424.837 480.361 424.645 480.399C423.667 480.63 422.515 480.917 421.306 481.205C420.501 481.435 419.771 481.666 419.119 481.896C413.305 483.796 413.881 487.077 415.205 488.113Z" fill="#222222"/>
<path d="M448.649 171.569C452.679 186.881 469.66 176.75 472.078 172.317C468.854 171.166 466.955 163.395 466.897 157.984C466.839 155.106 454.463 159.538 451.643 159.596C451.643 160.805 453.6 166.216 451.643 168.979C450.031 171.224 448.649 171.569 448.649 171.569Z" fill="#FFD8B5"/>
<g style="mix-blend-mode:multiply">
<path d="M452.391 163.74C452.909 165.237 453.715 166.734 456.42 167.252C459.356 167.77 463.558 165.525 466.149 161.956C465.803 160.402 464.997 161.38 464.94 159.768L459.011 159.884C459.011 159.884 452.448 163.107 452.391 163.74Z" fill="#EBCDC1"/>
</g>
<path d="M500.111 240.876L508.228 250.374C516.344 250.662 519.107 243.984 519.107 239.264C519.107 222.801 500.629 183.888 494.297 183.082C479.043 181.01 474.265 195.285 474.265 195.285L500.111 240.876Z" fill="#FFD8B5"/>
<g style="mix-blend-mode:multiply">
<path d="M509.379 219.923C509.379 219.923 508.113 223.146 503.45 225.334C501.435 226.312 498.615 227.636 497.924 228.903C496.139 232.184 499.881 236.213 499.766 240.3C499.766 240.3 497.348 235.983 495.161 232.184L492.801 228.039L492.225 227.003L509.379 219.923Z" fill="#F0DED3"/>
</g>
<path d="M490.556 227.636C495.679 227.348 513.869 218.714 515.136 215.375C515.136 215.375 502.011 182.909 490.556 178.361C482.957 175.368 471.099 194.422 471.099 194.422L490.556 227.636Z" fill="#14539A"/>
<path d="M499.766 240.3C494.47 244.56 475.935 259.239 467.645 264.247L469.315 272.248C473.862 269.255 515.539 257.224 518.129 242.2L499.766 240.3Z" fill="#FFD8B5"/>
<path d="M472.423 261.081C469.315 262.002 465.055 260.217 461.025 263.441C457.399 266.319 462.234 266.377 463.098 266.089C464.019 265.859 467.3 264.189 468.048 264.765C468.797 265.341 473.632 268.967 473.632 268.967L479.043 268.219L472.423 261.081Z" fill="#FFD8B5"/>
<path d="M489.807 113.084C485.202 112.278 479.906 117.632 479.906 117.632C478.18 124.597 479.791 130.065 485.433 134.267C485.433 134.267 492.571 134.728 495.967 131.447C501.435 126.151 497.751 114.581 489.807 113.084Z" fill="#222222"/>
<path d="M496.715 118.15C495.506 115.674 493.837 113.257 490.556 112.336C489.232 111.933 487.62 111.817 486.066 112.163C484.454 112.508 482.957 113.257 481.806 114.35C480.482 115.502 479.561 116.998 479.273 118.38C479.216 118.668 479.791 118.725 479.849 118.437C480.482 116.02 482.554 113.544 485.663 112.681C488.886 111.817 491.88 112.911 493.722 114.523C494.931 115.559 495.794 116.883 496.542 118.207C496.6 118.322 496.773 118.207 496.715 118.15Z" fill="#222222"/>
<path d="M495.852 132.195C496.6 131.389 496.945 130.526 497.06 129.605C497.06 129.547 496.945 129.605 496.945 129.605C496.658 131.907 493.779 133.865 491.131 134.44C488.023 135.189 485.202 134.555 482.554 133.922C482.151 133.865 481.806 134.383 482.209 134.498C484.512 135.016 486.929 135.419 489.52 135.131C491.822 134.843 494.297 133.922 495.852 132.195Z" fill="#222222"/>
<path d="M482.209 137.433C481.173 135.937 479.273 136.282 477.719 136.973C476.28 137.606 475.416 138.815 475.647 140.024C476.165 142.96 473.92 146.01 473.287 149.061C483.936 148.889 484.224 140.197 482.209 137.433Z" fill="#FFD8B5"/>
<g style="mix-blend-mode:multiply">
<path d="M480.482 139.678C479.734 139.39 478.64 139.506 478.18 140.081C478.007 140.311 478.467 140.599 478.698 140.311C478.928 140.139 479.216 140.081 479.561 140.139C479.791 140.196 480.022 140.427 480.137 140.657C480.482 141.233 480.079 141.866 479.791 142.384C479.446 142.959 479.043 143.42 478.525 143.88C478.007 144.341 477.316 144.686 476.798 145.204C476.28 145.607 477.143 146.298 477.777 146.01C478.295 145.838 478.698 145.435 479.101 145.147C479.446 144.84 479.772 144.514 480.079 144.168C480.655 143.42 481.173 142.672 481.403 141.866C481.633 141.117 481.518 140.081 480.482 139.678Z" fill="#EDD6C7"/>
</g>
<path d="M478.352 135.188C478.18 151.709 469.775 164.431 456.881 164.316C444.62 164.201 435.582 150.5 436.791 133.289C437.942 116.826 445.426 108.479 458.378 108.594C471.272 108.709 478.467 118.668 478.352 135.188Z" fill="#FFD8B5"/>
<g style="mix-blend-mode:multiply">
<path d="M450.376 145.147C450.894 143.651 452.161 143.075 452.506 139.161C453.082 141.521 451.873 144.514 451.412 145.78C450.491 148.313 454.924 147.91 453.6 148.198C452.046 148.486 449.34 148.025 450.376 145.147Z" fill="#EDD6C7"/>
</g>
<path d="M446.865 134.498C443.584 132.656 439.669 135.476 439.439 136.8C439.381 137.203 439.669 136.858 441.166 135.879C442.26 135.189 444.332 135.016 445.541 135.419C446.807 135.822 448.419 135.476 446.865 134.498Z" fill="#222222"/>
<path d="M459.702 152.055C459.759 153.091 459.356 154.127 458.665 154.875C457.859 155.681 456.766 156.257 455.499 156.315C454.175 156.372 452.909 155.912 452.046 155.048C451.355 154.357 450.952 153.494 450.894 152.515C450.779 150.27 453.715 151.825 455.327 151.709C456.708 151.652 459.586 149.81 459.702 152.055Z" fill="white"/>
<path d="M458.665 154.875C457.859 155.681 456.766 156.257 455.499 156.315C454.175 156.372 452.909 155.912 452.046 155.048C452.679 154.357 453.83 153.839 455.212 153.782C456.651 153.667 457.975 154.127 458.665 154.875Z" fill="white"/>
<path d="M448.88 140.657C448.361 143.132 441.511 143.19 440.475 142.441C440.437 142.365 440.379 142.307 440.303 142.269C439.842 141.52 439.382 140.139 439.382 140.139C439.382 140.139 440.648 138.815 441.339 138.47C441.511 138.354 442.202 138.009 443.123 137.779C444.332 137.491 446.001 137.376 447.44 138.412C447.556 138.527 448.534 139.275 448.88 140.254C448.88 140.369 448.88 140.503 448.88 140.657Z" fill="#222222"/>
<path d="M449.052 141.233C448.88 143.017 446.462 144.111 444.677 144.226C444.505 144.284 443.987 144.284 443.353 144.168C442.778 144.053 442.087 143.823 441.396 143.305C441.339 143.247 440.993 143.017 440.59 142.672C440.514 142.557 440.418 142.422 440.303 142.269C439.842 141.52 439.382 140.139 439.382 140.139C439.382 140.139 440.648 138.815 441.339 138.47C441.511 138.354 442.202 138.009 443.123 137.779C444.332 137.491 446.001 137.376 447.44 138.412C447.556 138.527 448.534 139.275 448.88 140.254C448.995 140.542 449.052 140.887 449.052 141.233Z" fill="white"/>
<path d="M440.936 140.83C440.993 138.93 442.49 137.433 444.39 137.433C446.289 137.433 447.843 138.988 447.786 140.887C447.786 142.787 446.232 144.283 444.332 144.283C442.432 144.283 440.936 142.729 440.936 140.83Z" fill="#B56953"/>
<path d="M446.347 140.254C446.635 141.405 445.944 142.557 444.793 142.787C443.641 143.075 442.548 142.384 442.26 141.233C441.972 140.139 442.663 138.988 443.814 138.7C444.965 138.412 446.116 139.103 446.347 140.254Z" fill="#222222"/>
<path d="M442.893 140.197C442.95 140.484 442.778 140.772 442.49 140.83C442.202 140.945 441.972 140.772 441.857 140.484C441.799 140.197 441.972 139.909 442.26 139.794C442.547 139.736 442.835 139.909 442.893 140.197Z" fill="white"/>
<path d="M444.274 141.405C444.332 141.52 444.217 141.693 444.102 141.751C443.929 141.808 443.756 141.693 443.699 141.52C443.699 141.348 443.756 141.233 443.929 141.175C444.102 141.117 444.274 141.233 444.274 141.405Z" fill="white"/>
<path d="M448.88 140.254C448.534 139.275 447.556 138.527 447.44 138.412C446.001 137.376 444.332 137.491 443.123 137.779C442.202 138.009 441.511 138.354 441.339 138.47C440.648 138.815 439.381 140.139 439.381 140.139C439.381 140.139 439.842 141.52 440.303 142.269C439.957 141.981 439.784 141.693 439.784 141.693C439.669 141.578 439.497 141.29 439.381 141.002C439.209 140.542 439.151 140.369 438.979 140.312C438.863 140.312 438.46 141.348 437.194 141.117C437.079 141.117 436.964 140.945 436.964 140.945C437.482 141.06 438.288 140.484 439.266 139.275C441.799 135.879 446.865 135.937 448.534 139.103C448.649 139.391 448.88 139.793 448.88 140.254Z" fill="#222222"/>
<path d="M458.09 140.657C458.608 143.19 465.4 143.363 466.437 142.614C466.513 142.576 466.571 142.518 466.609 142.442C467.127 141.693 467.588 140.312 467.588 140.312C467.588 140.312 466.321 138.988 465.688 138.642C465.688 138.642 465.669 138.623 465.631 138.585C465.458 138.527 464.825 138.182 463.904 137.952C462.695 137.606 461.026 137.491 459.586 138.47C459.414 138.585 458.493 139.276 458.09 140.312C458.09 140.427 458.09 140.542 458.09 140.657Z" fill="#222222"/>
<path d="M457.917 141.29C458.032 143.075 460.45 144.226 462.234 144.341C462.407 144.341 462.868 144.399 463.501 144.284C464.134 144.169 464.825 143.938 465.516 143.478C465.631 143.42 465.976 143.19 466.321 142.845C466.437 142.729 466.532 142.595 466.609 142.442C467.127 141.693 467.588 140.312 467.588 140.312C467.588 140.312 466.321 138.988 465.688 138.642C465.688 138.642 465.669 138.623 465.631 138.585C465.458 138.527 464.825 138.182 463.904 137.952C462.695 137.606 461.026 137.491 459.586 138.47C459.414 138.585 458.493 139.276 458.09 140.312C457.975 140.6 457.917 140.945 457.917 141.29Z" fill="white"/>
<path d="M466.034 141.003C466.034 139.103 464.479 137.549 462.637 137.549C460.738 137.549 459.183 139.045 459.183 140.945C459.126 142.845 460.68 144.399 462.58 144.399C464.422 144.399 465.976 142.902 466.034 141.003Z" fill="#B56953"/>
<path d="M460.623 140.312C460.335 141.463 460.968 142.614 462.119 142.902C463.271 143.19 464.422 142.499 464.71 141.405C464.997 140.254 464.307 139.103 463.213 138.815C462.062 138.527 460.91 139.218 460.623 140.312Z" fill="#222222"/>
<path d="M460.277 140.197C460.162 140.484 460.335 140.772 460.623 140.83C460.91 140.945 461.198 140.772 461.256 140.484C461.371 140.197 461.198 139.909 460.91 139.851C460.623 139.736 460.335 139.909 460.277 140.197Z" fill="white"/>
<path d="M462.062 141.693C462.004 141.808 462.062 141.981 462.234 142.039C462.407 142.096 462.58 141.981 462.58 141.808C462.637 141.636 462.58 141.521 462.407 141.463C462.234 141.406 462.062 141.521 462.062 141.693Z" fill="white"/>
<path d="M458.09 140.312C458.493 139.276 459.414 138.585 459.586 138.47C461.026 137.491 462.695 137.606 463.904 137.952C464.825 138.182 465.458 138.527 465.631 138.585C465.669 138.623 465.688 138.642 465.688 138.642C466.321 138.988 467.588 140.312 467.588 140.312C467.588 140.312 467.127 141.693 466.609 142.442C467.012 142.154 467.185 141.866 467.185 141.866C467.242 141.751 467.415 141.521 467.588 141.175C467.761 140.772 467.818 140.542 467.991 140.542C468.106 140.484 468.509 141.521 469.775 141.348C469.89 141.348 470.006 141.233 470.006 141.233C469.487 141.29 468.682 140.715 467.761 139.448C465.285 136.052 460.22 135.994 458.493 139.16C458.32 139.391 458.09 139.851 458.09 140.312Z" fill="#222222"/>
<path d="M459.759 134.44C463.04 132.656 466.955 135.534 467.185 136.915C467.242 137.261 466.897 136.915 465.458 135.879C464.364 135.189 462.292 135.016 461.083 135.361C459.817 135.764 458.205 135.361 459.759 134.44Z" fill="#222222"/>
<path d="M458.32 107.558C471.848 108.191 483.418 122.006 477.316 142.557C474.783 135.591 470.984 128.108 464.537 122.352C464.537 122.352 465.631 127.59 466.437 129.547C459.702 128.223 449.398 126.784 449.052 117.862C447.786 121.834 437.021 131.735 436.561 128.799C435.813 113.66 448.074 107.155 458.32 107.558Z" fill="#222222"/>
<path d="M452.161 125.518C453.772 127.187 455.96 128.281 458.147 129.029C458.531 129.183 458.934 129.298 459.356 129.375C455.269 127.417 451.24 124.482 449.801 120.97C450.088 122.64 451.009 124.251 452.161 125.518Z" fill="#222222"/>
<path d="M443.584 126.899C444.313 126.324 445.004 125.671 445.656 124.942C446.865 123.503 447.843 121.776 448.477 119.992C448.707 119.378 448.88 118.744 448.995 118.092C447.325 121.258 444.908 125.115 442.893 127.417C443.123 127.264 443.353 127.091 443.584 126.899Z" fill="#222222"/>
<path d="M445.195 171.972C444.159 174.102 442.26 190.968 442.663 201.042C442.663 201.042 440.418 201.445 439.669 200.639C439.669 200.639 439.612 182.103 442.95 172.548C443.756 172.202 444.505 172.03 445.195 171.972Z" fill="#EAE6FF"/>
<path d="M476.51 173.066C471.157 181.931 469.027 191.659 469.084 201.157C469.084 201.157 471.157 201.272 472.078 200.639C472.078 200.639 471.445 185.845 478.64 173.526C477.892 173.123 476.971 173.123 476.51 173.066Z" fill="#EAE6FF"/>
<path d="M442.605 202.653C442.605 203.344 442.087 203.92 441.396 203.92C440.705 203.92 440.13 203.344 440.13 202.653C440.13 201.963 440.705 201.445 441.396 201.445C442.087 201.445 442.605 201.963 442.605 202.653Z" fill="#14539A"/>
<path d="M471.099 202.653C471.099 203.344 470.581 203.92 469.89 203.92C469.2 203.92 468.682 203.344 468.682 202.653C468.682 201.963 469.2 201.445 469.89 201.445C470.581 201.445 471.099 201.963 471.099 202.653Z" fill="#14539A"/>
<path d="M384.523 259.296C385.099 258.26 388.783 259.124 388.783 259.124V263.268C386.25 262.75 383.89 260.39 384.523 259.296Z" fill="#FFD8B5"/>
<path d="M463.846 226.14H391.373C389.128 226.14 387.286 227.924 387.286 230.227V282.264C387.286 284.509 389.128 286.294 391.373 286.294H463.846C466.149 286.294 467.933 284.509 467.933 282.264V230.227C467.933 227.924 466.149 226.14 463.846 226.14Z" fill="#14539A"/>
<path d="M391.373 283.531C390.625 283.531 390.049 282.955 390.049 282.264V230.227C390.049 229.478 390.625 228.903 391.373 228.903H463.846C464.594 228.903 465.17 229.478 465.17 230.227V282.264C465.17 282.955 464.594 283.531 463.846 283.531H391.373Z" fill="white"/>
<path d="M387.286 263.959C386.826 263.902 383.89 264.305 383.66 267.528C383.314 273.342 385.502 276.623 386.768 277.084C387.919 277.487 391.891 277.429 393.043 276.681C394.251 275.932 393.561 270.924 392.179 269.197C390.682 267.355 387.632 267.24 387.401 265.513C387.401 265.283 387.286 263.959 387.286 263.959Z" fill="#FFD8B5"/>
<path d="M479.043 268.219C472.423 270.176 471.963 275.472 466.494 277.486C461.256 279.386 455.096 276.853 455.327 273.802C455.73 268.909 468.279 269.197 467.933 263.671L479.043 268.219Z" fill="#FFD8B5"/>
<path fill-rule="evenodd" clip-rule="evenodd" d="M400.468 262.75C399.164 262.059 398.147 261.062 397.417 259.757C396.65 258.452 396.266 256.975 396.266 255.324C396.266 253.713 396.65 252.274 397.417 251.007C398.147 249.702 399.164 248.685 400.468 247.956C401.773 247.227 403.212 246.863 404.786 246.863C406.359 246.863 407.779 247.227 409.045 247.956C410.35 248.685 411.386 249.702 412.154 251.007C412.883 252.274 413.247 253.713 413.247 255.324C413.247 256.975 412.883 258.452 412.154 259.757C411.386 261.062 410.35 262.059 409.045 262.75C407.779 263.479 406.359 263.844 404.786 263.844C403.212 263.844 401.773 263.479 400.468 262.75ZM407.952 258.836C408.758 257.953 409.16 256.783 409.16 255.324C409.16 253.866 408.758 252.696 407.952 251.813C407.146 250.969 406.09 250.547 404.786 250.547C403.442 250.547 402.368 250.969 401.562 251.813C400.756 252.696 400.353 253.866 400.353 255.324C400.353 256.821 400.756 257.992 401.562 258.836C402.368 259.718 403.442 260.16 404.786 260.16C406.09 260.16 407.146 259.718 407.952 258.836Z" fill="#EAE6FF"/>
<path fill-rule="evenodd" clip-rule="evenodd" d="M427.466 255.094C427.044 255.862 426.372 256.495 425.451 256.994C424.53 257.493 423.398 257.742 422.055 257.742H419.522V263.671H415.492V247.093H422.055C423.36 247.093 424.472 247.323 425.393 247.784C426.314 248.244 427.005 248.877 427.466 249.683C427.926 250.489 428.157 251.41 428.157 252.446C428.157 253.406 427.926 254.288 427.466 255.094ZM423.494 254.001C423.839 253.617 424.012 253.099 424.012 252.446C424.012 251.794 423.839 251.276 423.494 250.892C423.11 250.547 422.534 250.374 421.767 250.374H419.522V254.519H421.767C422.534 254.519 423.11 254.346 423.494 254.001Z" fill="#EAE6FF"/>
<path d="M434.316 250.316V253.713H439.727V256.821H434.316V260.448H440.418V263.671H430.229V247.093H440.418V250.316H434.316Z" fill="#EAE6FF"/>
<path d="M457.859 263.671H453.83L447.095 253.482V263.671H443.066V247.093H447.095L453.83 257.397V247.093H457.859V263.671Z" fill="#EAE6FF"/>
</svg>
