<svg width="812" height="500" viewBox="0 0 812 500" fill="none" xmlns="http://www.w3.org/2000/svg">
<path d="M802.933 212.225C803.008 208.769 803.022 205.307 803.003 201.842C812.778 237.863 814.913 275.407 807.802 311.424C807.653 310.237 807.55 309.046 807.516 307.85C806.058 275.975 808.975 243.891 802.933 212.225Z" fill="#F5F5F7"/>
<path d="M739.936 428.826C655.53 503.857 528.85 451.618 408.689 453.048C291.734 454.439 195.475 499.819 79.2861 465.25C-15.1149 437.164 6.84258 261.687 171.028 293.954C286.606 316.669 255.272 218.803 318.101 132.788C403.461 15.9317 511.812 -18.8029 616.178 9.13628C708.741 33.9156 778.968 113.272 803.004 201.842C803.023 205.307 803.008 208.769 802.933 212.225C808.975 243.891 806.058 275.974 807.517 307.849C807.551 309.046 807.653 310.237 807.803 311.424C799.303 354.477 777.596 395.348 739.936 428.826Z" fill="#F5F5F7"/>
<path d="M148.621 204.185H183.97V225.865H195.934V86.5371H216.789V71.769H223.378V59.1536H227.254V35.8184H230.796V59.1536H234.672V71.769H241.261V86.5371H262.12V225.865H321.676L322.336 148.424H347.311V112.731H385.602V148.424H409.656L409.517 201.424H436.878V180.6H478.969V219.021H504.853V250.09H513.614V139.321H528.885V127.58H533.71H541.98H546.804V139.321H562.079V223.419H605.688L606.172 188.523H624.46V103.298H652.498V188.523H670.112L670.01 230.659H690.045V344.05H436.878H91.139V138.459H148.621V204.185Z" fill="#E6E9F3"/>
<path d="M142.856 395.919C64.1714 395.919 0.384735 392.399 0.384735 388.057C0.384735 383.714 64.1714 380.194 142.856 380.194C221.541 380.194 285.328 383.714 285.328 388.057C285.328 392.399 221.541 395.919 142.856 395.919Z" fill="#7A8DB0"/>
<path d="M250.126 388.696C240.322 388.696 232.375 381.011 232.375 371.53C232.375 362.05 240.322 354.364 250.126 354.364C259.929 354.364 267.876 362.05 267.876 371.53C267.876 381.011 259.929 388.696 250.126 388.696Z" fill="#243354"/>
<path d="M275.9 358.191H138.016V256.958H275.81L275.9 358.191Z" fill="#2F4171"/>
<path d="M270.756 358.191H116.119V260.424H270.734L270.756 358.191Z" fill="#243354"/>
<path d="M195.798 339.509H214.85V358.191H195.798V339.509Z" fill="#EF7C59"/>
<path d="M214.85 339.509V358.191H195.798L210.584 339.509H214.85Z" fill="#F19A6D"/>
<path d="M214.057 339.509H225.588V358.191H214.057V339.509Z" fill="#F3CE90"/>
<path d="M194.786 316.037H226.381V339.765H194.786V316.037Z" fill="#EF7C59"/>
<path d="M226.381 316.037V339.765H194.786L220.453 316.037H226.381Z" fill="#F19A6D"/>
<path d="M225.588 316.037H234.311V339.765H225.588V316.037Z" fill="#F3CE90"/>
<path d="M179.774 292.31H211.37V316.038H179.774V292.31Z" fill="#969696"/>
<path d="M211.578 316.246H179.566V292.102H211.578V316.246ZM211.161 292.518H179.982V315.829H211.161V292.518Z" fill="black"/>
<path d="M211.369 292.31V316.038H179.774L205.441 292.31H211.369Z" fill="#F19A6D"/>
<path d="M210.576 292.31H219.299V316.038H210.576V292.31Z" fill="#F3CE90"/>
<path d="M20.8547 351.277H62.1018C62.936 351.277 63.6184 351.959 63.6184 352.794V363.74C63.6184 364.575 62.936 365.257 62.1018 365.257H20.8547C20.0205 365.257 19.3381 364.575 19.3381 363.74V352.793C19.3381 351.959 20.0205 351.277 20.8547 351.277Z" fill="#5681BF"/>
<path d="M202.444 268.583H234.04V292.31H202.444V268.583Z" fill="#EF7C59"/>
<path d="M234.04 268.583V292.31H202.444L228.112 268.583H234.04Z" fill="#F19A6D"/>
<path d="M233.247 268.583H241.97V292.31H233.247V268.583Z" fill="#F3CE90"/>
<path d="M185.044 363.871C185.637 363.871 186.119 364.336 186.119 364.91C186.119 365.485 185.637 365.95 185.044 365.95C184.45 365.95 183.969 365.485 183.969 364.91C183.969 364.336 184.45 363.871 185.044 363.871Z" fill="#919191"/>
<path d="M185.044 363.662C185.751 363.662 186.327 364.222 186.327 364.91C186.327 365.598 185.751 366.158 185.044 366.158C184.336 366.158 183.76 365.598 183.76 364.91C183.761 364.222 184.336 363.662 185.044 363.662ZM185.044 365.742C185.522 365.742 185.911 365.369 185.911 364.91C185.911 364.452 185.522 364.079 185.044 364.079C184.566 364.079 184.177 364.452 184.177 364.91C184.177 365.369 184.566 365.742 185.044 365.742Z" fill="black"/>
<path d="M93.5685 388.696C83.7653 388.696 75.8181 381.011 75.8181 371.53C75.8181 362.05 83.7653 354.364 93.5685 354.364C103.372 354.364 111.319 362.05 111.319 371.53C111.319 381.011 103.372 388.696 93.5685 388.696Z" fill="#243354"/>
<path d="M56.9399 291.226L57.2372 302.414L33.9262 301.652C33.9262 301.652 36.6145 291.226 56.9399 291.226Z" fill="#14539A"/>
<path d="M36.7538 301.281H90.665V348.895H13.5775L19.9936 311.831C21.0366 305.807 28.2259 301.281 36.7538 301.281Z" fill="#99B1DA"/>
<path d="M35.5863 306.347H46.524L45.8544 326.239H24.2375L27.1011 311.604C27.6907 308.59 31.3115 306.347 35.5863 306.347Z" fill="#3D5891"/>
<path d="M28.3906 312.151C28.8894 309.476 31.9525 307.485 35.5692 307.485H44.8225L44.2561 325.138H30.0235C27.8756 325.138 26.2192 323.792 26.5019 322.276L28.3906 312.151Z" fill="white"/>
<path d="M56.2561 256.958H204.529V358.191H56.2561V256.958Z" fill="#14539A"/>
<path d="M198.904 336.431L198.725 354.351H61.7009V260.798H198.904V336.431Z" fill="#14539A"/>
<path d="M13.5775 348.896H60.6144C62.0542 348.896 63.2321 349.43 63.2321 350.084V362.088C63.2321 362.742 62.0539 363.277 60.6144 363.277H48.6861C45.4779 361.191 40.1519 359.826 34.1227 359.826C29.2192 359.826 25.8998 360.767 22.8423 362.201C21.6215 362.774 19.8016 364.374 19.8016 364.374C19.4831 364.867 18.9442 365.257 18.1973 365.257H6.37087C5.62399 365.257 5.01274 364.87 5.01274 364.397L9.03465 350.549C9.03506 350.549 9.43541 349.092 13.5775 348.896Z" fill="#14539A"/>
<path d="M59.583 358.19H278.247C279.326 358.19 280.209 359.074 280.209 360.153V366.046C280.209 367.125 279.326 368.008 278.247 368.008H59.583C58.5036 368.008 57.6205 367.125 57.6205 366.046V360.153C57.6203 359.074 58.5034 358.19 59.583 358.19Z" fill="#14539A"/>
<path d="M68.93 360.657H109.427C110.468 360.657 111.319 361.508 111.319 362.549V380.512C111.319 381.552 110.468 382.403 109.427 382.403H68.9298C67.8894 382.403 67.0383 381.552 67.0383 380.512V362.549C67.0386 361.508 67.8896 360.657 68.93 360.657Z" fill="#2F4171"/>
<g opacity="0.14">
<path d="M198.904 336.658V354.351H61.8796L61.7009 260.798H91.9244C99.4173 282.17 126.296 332.863 198.904 336.658Z" fill="#2F4171"/>
</g>
<path d="M16.2878 330.798C15.0761 330.798 13.4819 330.12 13.3863 328.73C13.2906 327.341 15.2179 318.816 15.2179 318.816L16.2878 330.798Z" fill="#2F4171"/>
<path d="M16.2697 318.105H21.1842C21.8055 318.105 22.314 318.613 22.314 319.235V329.669C22.314 330.29 21.8057 330.798 21.1842 330.798H16.2699C15.6486 330.798 15.14 330.29 15.14 329.668V319.235C15.14 318.613 15.6484 318.105 16.2697 318.105Z" fill="#3D5891"/>
<path d="M16.9009 318.816H20.8075C21.3377 318.816 21.7715 319.25 21.7715 319.781V329.217C21.7715 329.747 21.3375 330.181 20.8075 330.181H16.9009C16.3707 330.181 15.9369 329.747 15.9369 329.217V319.781C15.9369 319.25 16.3709 318.816 16.9009 318.816Z" fill="white"/>
<path d="M39.4897 329.428H43.8514C44.4624 329.428 44.962 329.783 44.962 330.218C44.962 330.653 44.4622 331.009 43.8514 331.009H39.4897C38.8788 331.009 38.3791 330.653 38.3791 330.218C38.3791 329.783 38.8788 329.428 39.4897 329.428Z" fill="#3D5891"/>
<path d="M220.453 339.637H239.506V358.063H220.453V339.637Z" fill="#EF7C59"/>
<path d="M239.506 339.637V358.191H220.453V354.001L235.455 339.637H239.506Z" fill="#F19A6D"/>
<path d="M238.713 339.637H247.436V358.191H238.713V339.637Z" fill="#F3CE90"/>
<path d="M34.1229 388.696C24.3197 388.696 16.3726 381.011 16.3726 371.53C16.3726 362.05 24.3197 354.364 34.1229 354.364C43.926 354.364 51.873 362.05 51.873 371.53C51.873 381.011 43.926 388.696 34.1229 388.696Z" fill="#243354"/>
<path d="M34.123 380.194C29.1751 380.194 25.1641 376.315 25.1641 371.53C25.1641 366.745 29.1751 362.866 34.123 362.866C39.0709 362.866 43.082 366.745 43.082 371.53C43.082 376.315 39.0709 380.194 34.123 380.194Z" fill="#5681BF"/>
<g opacity="0.35">
<path d="M40.8719 368.613C40.8719 367.349 40.5897 366.149 40.0863 365.066C41.9238 366.653 43.0817 368.96 43.0817 371.53C43.0817 376.315 39.0707 380.194 34.1228 380.194C30.4822 380.194 27.3511 378.093 25.9495 375.077C27.5336 376.445 29.6222 377.277 31.913 377.277C36.8609 377.277 40.8719 373.398 40.8719 368.613Z" fill="#2F4171"/>
</g>
<path d="M34.123 368.845C35.6568 368.845 36.9003 370.047 36.9003 371.531C36.9003 373.014 35.6568 374.217 34.123 374.217C32.5893 374.217 31.3457 373.014 31.3457 371.531C31.3455 370.047 32.5891 368.845 34.123 368.845Z" fill="#99B1DA"/>
<path d="M29.3971 375.093C29.9908 375.093 30.4723 375.559 30.4723 376.133C30.4723 376.707 29.9908 377.173 29.3971 377.173C28.8033 377.173 28.322 376.707 28.322 376.133C28.3222 375.559 28.8035 375.093 29.3971 375.093Z" fill="#99B1DA"/>
<path d="M28.1428 367.372C28.7367 367.372 29.218 367.837 29.218 368.411C29.218 368.986 28.7367 369.451 28.1428 369.451C27.549 369.451 27.0678 368.986 27.0678 368.411C27.0678 367.837 27.549 367.372 28.1428 367.372Z" fill="#99B1DA"/>
<path d="M39.9687 367.372C40.5625 367.372 41.0437 367.837 41.0437 368.411C41.0437 368.986 40.5623 369.451 39.9687 369.451C39.375 369.451 38.8935 368.986 38.8935 368.411C38.8935 367.837 39.375 367.372 39.9687 367.372Z" fill="#99B1DA"/>
<path d="M39.0727 375.093C39.6665 375.093 40.1478 375.559 40.1478 376.133C40.1478 376.707 39.6665 377.173 39.0727 377.173C38.479 377.173 37.9976 376.707 37.9976 376.133C37.9976 375.559 38.479 375.093 39.0727 375.093Z" fill="#99B1DA"/>
<path d="M34.123 363.871C34.7168 363.871 35.1982 364.336 35.1982 364.91C35.1982 365.485 34.7168 365.95 34.123 365.95C33.5293 365.95 33.0478 365.485 33.0478 364.91C33.0478 364.336 33.529 363.871 34.123 363.871Z" fill="#99B1DA"/>
<path d="M177.007 388.696C167.204 388.696 159.257 381.011 159.257 371.53C159.257 362.05 167.204 354.364 177.007 354.364C186.81 354.364 194.757 362.05 194.757 371.53C194.757 381.011 186.81 388.696 177.007 388.696Z" fill="#243354"/>
<path d="M177.007 380.194C172.059 380.194 168.048 376.315 168.048 371.53C168.048 366.745 172.059 362.866 177.007 362.866C181.955 362.866 185.966 366.745 185.966 371.53C185.966 376.315 181.955 380.194 177.007 380.194Z" fill="#5681BF"/>
<g opacity="0.35">
<path d="M183.756 368.613C183.756 367.349 183.473 366.149 182.97 365.066C184.807 366.653 185.965 368.96 185.965 371.53C185.965 376.315 181.954 380.194 177.006 380.194C173.366 380.194 170.235 378.093 168.833 375.077C170.417 376.445 172.506 377.277 174.797 377.277C179.745 377.277 183.756 373.398 183.756 368.613Z" fill="#2F4171"/>
</g>
<path d="M177.007 368.845C178.54 368.845 179.784 370.047 179.784 371.531C179.784 373.014 178.54 374.217 177.007 374.217C175.473 374.217 174.229 373.014 174.229 371.531C174.229 370.047 175.473 368.845 177.007 368.845Z" fill="#99B1DA"/>
<path d="M172.281 375.093C172.875 375.093 173.356 375.559 173.356 376.133C173.356 376.707 172.875 377.173 172.281 377.173C171.687 377.173 171.206 376.707 171.206 376.133C171.206 375.559 171.687 375.093 172.281 375.093Z" fill="#99B1DA"/>
<path d="M171.027 367.372C171.62 367.372 172.102 367.837 172.102 368.411C172.102 368.986 171.62 369.451 171.027 369.451C170.433 369.451 169.952 368.986 169.952 368.411C169.952 367.837 170.433 367.372 171.027 367.372Z" fill="#99B1DA"/>
<path d="M182.852 367.372C183.446 367.372 183.927 367.837 183.927 368.411C183.927 368.986 183.446 369.451 182.852 369.451C182.258 369.451 181.777 368.986 181.777 368.411C181.777 367.837 182.258 367.372 182.852 367.372Z" fill="#99B1DA"/>
<path d="M181.957 375.093C182.55 375.093 183.032 375.559 183.032 376.133C183.032 376.707 182.55 377.173 181.957 377.173C181.363 377.173 180.882 376.707 180.882 376.133C180.881 375.559 181.363 375.093 181.957 375.093Z" fill="#99B1DA"/>
<path d="M177.007 363.871C177.6 363.871 178.082 364.336 178.082 364.91C178.082 365.485 177.6 365.95 177.007 365.95C176.413 365.95 175.931 365.485 175.931 364.91C175.932 364.336 176.413 363.871 177.007 363.871Z" fill="#99B1DA"/>
<path d="M214.548 292.31H246.144V316.038H214.548V292.31Z" fill="#EF7C59"/>
<path d="M246.144 292.31V316.038H214.548L240.216 292.31H246.144Z" fill="#F19A6D"/>
<path d="M245.351 292.31H254.073V316.038H245.351V292.31Z" fill="#F3CE90"/>
<path d="M22.314 321.687H23.9542V327.922H22.314V321.687Z" fill="#2F4171"/>
<path d="M396.4 445.936C398.872 447.655 400.347 448.878 400.347 448.878C400.347 448.878 398.763 447.796 396.4 445.936Z" fill="#14539A"/>
<path d="M425.553 426.771C426.356 428.184 426.785 429.039 426.785 429.039C426.785 429.039 426.284 428.204 425.553 426.771Z" fill="#14539A"/>
<path d="M361.269 436.126C373.745 431.849 389.253 440.967 396.4 445.936C398.763 447.796 400.347 448.878 400.347 448.878C400.347 448.878 398.872 447.654 396.4 445.936C387.165 438.665 366.023 419.503 381.016 406.583C401.731 388.73 420.643 418.144 425.553 426.771C426.285 428.204 426.785 429.039 426.785 429.039C426.785 429.039 426.356 428.184 425.553 426.771C421.554 418.945 410.637 393.26 436.582 388.214C467.274 382.243 476.075 426.788 476.075 426.788C476.075 426.788 476.075 404.287 494.902 405.664C513.731 407.042 516.027 439.705 516.027 439.705C516.027 439.705 524.292 431.267 542.661 435.514C561.03 439.76 561.8 457.556 552.69 470.414H368.617C368.617 470.415 339.839 443.474 361.269 436.126Z" fill="#14539A"/>
<path d="M458.86 459.593C460.513 460.909 461.499 461.845 461.499 461.845C461.499 461.845 460.44 461.017 458.86 459.593Z" fill="#C4D7F2"/>
<path d="M478.352 444.918C478.89 446 479.176 446.654 479.176 446.654C479.176 446.654 478.842 446.015 478.352 444.918Z" fill="#C4D7F2"/>
<path d="M435.37 452.081C443.711 448.806 454.081 455.788 458.86 459.593C460.44 461.017 461.499 461.846 461.499 461.846C461.499 461.846 460.513 460.909 458.86 459.593C452.684 454.026 438.548 439.353 448.573 429.46C462.424 415.79 475.069 438.312 478.352 444.919C478.842 446.015 479.176 446.655 479.176 446.655C479.176 446.655 478.89 446 478.352 444.919C475.679 438.926 468.379 419.259 485.727 415.395C506.249 410.823 512.134 444.931 512.134 444.931C512.134 444.931 512.134 427.702 524.723 428.756C537.312 429.811 538.848 454.822 538.848 454.822C538.848 454.822 544.374 448.361 556.657 451.612C568.939 454.864 569.454 468.49 563.362 478.336H440.283C440.283 478.336 421.041 457.707 435.37 452.081Z" fill="#C4D7F2"/>
<path d="M507.107 25.6494H697.775C703.165 25.6494 707.534 30.0182 707.534 35.4075V485.703H497.348V35.4075C497.348 30.0182 501.717 25.6494 507.107 25.6494Z" fill="#14539A"/>
<path d="M512.478 36.0977H692.405C695.341 36.0977 697.721 38.4772 697.721 41.4131V485.703H507.163V41.4131C507.163 38.4774 509.542 36.0977 512.478 36.0977Z" fill="#B5CAE8"/>
<path d="M613.579 80.3086H697.721V272.716H613.579V80.3086Z" fill="white"/>
<path d="M512.478 36.0972H613.579V485.703H507.162V41.4126C507.163 38.477 509.542 36.0972 512.478 36.0972Z" fill="white"/>
<path d="M512.478 35.8892H613.788V485.911H506.954V41.4127C506.955 38.3669 509.432 35.8892 512.478 35.8892ZM507.371 485.495H613.371V36.3058H512.478C509.662 36.3058 507.371 38.5969 507.371 41.4129V485.495Z" fill="black"/>
<path d="M512.478 36.0977H613.579V485.703H507.163V41.4131C507.163 38.4774 509.542 36.0977 512.478 36.0977Z" fill="white"/>
<path d="M697.721 36.0977H725.524V486.839H697.721V36.0977Z" fill="#14539A"/>
<path d="M613.579 75.6064H697.721V80.3083H613.579V75.6064Z" fill="#3D5891"/>
<path d="M681.982 71.7441H683.611C684.855 71.7441 685.863 72.7523 685.863 73.996V280.447C685.863 281.691 684.855 282.699 683.611 282.699H681.982C680.738 282.699 679.73 281.691 679.73 280.447V73.996C679.73 72.7525 680.738 71.7441 681.982 71.7441Z" fill="#5681BF"/>
<path d="M665.569 71.7441H667.198C668.442 71.7441 669.45 72.7523 669.45 73.996V280.447C669.45 281.691 668.442 282.699 667.198 282.699H665.569C664.325 282.699 663.317 281.691 663.317 280.447V73.996C663.317 72.7525 664.325 71.7441 665.569 71.7441Z" fill="#5681BF"/>
<path d="M649.156 71.7441H650.785C652.028 71.7441 653.037 72.7523 653.037 73.996V280.447C653.037 281.691 652.028 282.699 650.785 282.699H649.156C647.912 282.699 646.904 281.691 646.904 280.447V73.996C646.904 72.7525 647.912 71.7441 649.156 71.7441Z" fill="#5681BF"/>
<path d="M632.742 71.7441H634.372C635.615 71.7441 636.623 72.7523 636.623 73.996V280.447C636.623 281.691 635.615 282.699 634.372 282.699H632.742C631.498 282.699 630.49 281.691 630.49 280.447V73.996C630.491 72.7525 631.499 71.7441 632.742 71.7441Z" fill="#5681BF"/>
<path d="M629.379 406.042H697.721V420.761H629.379C628.584 420.761 627.94 420.117 627.94 419.322V407.48C627.94 406.686 628.584 406.042 629.379 406.042Z" fill="white"/>
<path d="M633.664 420.761H697.721V486.07H633.664V420.761Z" fill="#3D5891"/>
<path d="M664.33 425.94H680.139C682.623 425.94 684.637 427.954 684.637 430.438C684.637 432.921 682.623 434.935 680.139 434.935H664.33C661.846 434.935 659.832 432.921 659.832 430.438C659.832 427.954 661.846 425.94 664.33 425.94Z" fill="white"/>
<path d="M638.026 348.2H697.721V406.042H638.026V348.2Z" fill="#5681BF"/>
<path d="M648.656 354.797H665.693V366.79H648.656V354.797Z" fill="white"/>
<path d="M648.656 383.963H674.279V389.414H648.656V383.963Z" fill="white"/>
<path d="M648.656 392.685H674.279V398.137H648.656V392.685Z" fill="white"/>
<path d="M655.242 325.018H665.879H668.674H679.312C681.149 325.018 682.51 326.724 682.103 328.515L677.62 348.2H668.674H665.879H656.934L652.451 328.515C652.043 326.724 653.405 325.018 655.242 325.018Z" fill="black"/>
<path d="M660.309 296.396C670.02 300.996 665.407 312.22 665.407 312.22C663.758 316.188 654.789 318.169 650.905 311.422C647.021 304.676 650.598 291.796 660.309 296.396Z" fill="#14539A"/>
<path d="M675.642 301.61C686.988 299.463 687.908 309.48 684.228 315.204C680.548 320.929 671.129 319.053 669.45 315.851C669.45 315.851 664.296 303.756 675.642 301.61Z" fill="#14539A"/>
<path d="M655.893 303.187C656.354 303.419 666.694 308.729 668.337 316.763C668.925 315.824 669.626 314.935 670.462 314.185C674.577 310.491 678.077 311.599 678.224 311.648C678.438 311.719 678.554 311.951 678.482 312.165C678.411 312.379 678.182 312.495 677.965 312.423C677.838 312.382 674.751 311.434 671.008 314.793C667.184 318.224 666.293 325 666.285 325.068C666.259 325.275 666.083 325.426 665.88 325.426C665.863 325.426 665.846 325.425 665.828 325.423C665.605 325.395 665.446 325.19 665.473 324.966C665.499 324.76 665.963 321.229 667.689 317.899C666.836 309.723 655.638 303.974 655.524 303.916C655.323 303.814 655.242 303.568 655.344 303.367C655.446 303.166 655.692 303.085 655.893 303.187Z" fill="#255144"/>
<path d="M603.349 36.0977H613.579V485.703H603.349V36.0977Z" fill="#14539A"/>
<mask id="mask0_43_5685" style="mask-type:luminance" maskUnits="userSpaceOnUse" x="396" y="36" width="208" height="464">
<path d="M396.259 36.0977H603.349V500H396.259V36.0977Z" fill="white"/>
</mask>
<g mask="url(#mask0_43_5685)">
<path d="M520.683 495.771C463.826 495.771 417.734 492.451 417.734 488.355C417.734 484.26 463.826 480.939 520.683 480.939C577.54 480.939 623.632 484.26 623.632 488.355C623.632 492.451 577.54 495.771 520.683 495.771Z" fill="#7A8DB0"/>
</g>
<mask id="mask1_43_5685" style="mask-type:luminance" maskUnits="userSpaceOnUse" x="396" y="36" width="208" height="464">
<path d="M396.259 36.0977H603.349V500H396.259V36.0977Z" fill="white"/>
</mask>
<g mask="url(#mask1_43_5685)">
<path d="M405.748 115.177C407.396 115.104 412.629 121.422 413.38 122.329L413.964 121.38C411.503 118.836 406.051 111.413 407.74 111.329C409.387 111.256 414.433 117.241 415.632 118.7L415.924 118.221C413.557 115.52 409.887 110.412 411.243 110.412C412.807 110.412 416.873 115.155 417.425 115.812L417.457 115.771C417.457 115.771 420.522 118.44 422.68 121.046C423.16 117.606 423.931 113.967 424.651 113.915C425.766 113.842 425.912 114.134 425.839 117.773C425.792 120.286 425.554 124.162 425.41 126.333C429.347 130.4 438.087 138.089 443.236 143.195C449.688 149.6 458.815 159.17 461.019 160.367C462.178 160.998 468.743 158.935 474.715 156.844C480.093 154.95 484.991 153.038 484.991 153.038L488.467 170.492C488.467 170.492 476.09 173.685 467.5 175.786C463.449 176.784 460.238 177.528 459.569 177.585C457.478 177.745 446.26 171.434 440.429 163.352C435.296 156.26 423.362 140.207 419.104 134.329C417.645 133.505 416.164 132.463 414.819 131.441C413.485 130.43 412.296 129.439 411.452 128.71C411.378 128.678 411.285 128.626 411.191 128.553C410.941 128.376 410.576 128.011 410.148 127.542H410.138C408.366 125.592 405.488 121.724 405.488 120.64C405.488 120.463 405.561 120.358 405.738 120.348C406.875 120.286 410.054 123.799 411.462 125.415L411.806 124.852C409.564 122.631 404.111 115.25 405.748 115.177Z" fill="#F5B0A6"/>
<path d="M492.28 102.914C492.28 102.914 496.555 92.0027 503.733 86.5552C510.91 81.1075 527.389 84.3923 527.389 84.3923C527.389 84.3923 537.842 81.4475 543.585 89.8398C549.327 98.2321 540.296 114.477 550.701 116.244C561.105 118.01 570.135 119.777 571.117 133.715C572.098 147.653 563.657 147.064 573.865 153.15C584.073 159.236 595.656 173.762 580.147 187.112C564.639 200.461 539.707 201.05 532.836 194.964C525.966 188.879 540.972 170.818 525.224 173.37C509.476 175.922 514.972 164.929 518.31 156.88C521.647 148.831 530.46 124.865 520.469 124.489C514.845 124.277 514.366 155.037 510.754 153.738C486.672 145.08 500.406 119.046 498.367 117.166C491.574 110.9 492.28 102.914 492.28 102.914Z" fill="black"/>
<path d="M492.072 102.895L492.086 102.838C492.129 102.728 496.465 91.8099 503.607 86.3897C510.655 81.0401 526.213 83.9503 527.382 84.179C528.179 83.9743 538.2 81.6018 543.757 89.7226C546.294 93.432 546 98.5115 545.716 103.424C545.354 109.674 545.041 115.072 550.735 116.039C555.415 116.833 560.719 117.734 564.556 120.241C568.719 122.961 570.87 127.238 571.325 133.701C571.731 139.471 570.556 142.712 569.698 145.079C568.506 148.366 568.105 149.474 573.972 152.972C579.93 156.524 587.139 163.566 587.847 171.723C588.331 177.303 585.786 182.533 580.283 187.27C570.8 195.433 559.293 197.831 553.277 198.534C551.248 198.771 549.265 198.886 547.369 198.886C540.882 198.885 535.426 197.537 532.698 195.121C529.701 192.466 530.749 187.563 531.674 183.236C532.449 179.607 533.182 176.179 531.576 174.491C530.501 173.36 528.434 173.062 525.257 173.576C520.114 174.41 516.878 173.879 515.363 171.953C513.004 168.953 515.415 163.226 517.542 158.173C517.738 157.708 517.931 157.25 518.117 156.801C519.763 152.831 527.772 132.714 523.788 126.498C523.057 125.359 521.938 124.753 520.461 124.697C520.444 124.697 520.428 124.697 520.411 124.697C517.54 124.697 515.964 134.14 514.696 141.735C513.684 147.803 512.809 153.043 511.41 153.863C511.176 154 510.932 154.024 510.683 153.935C502.664 151.052 497.897 145.872 496.514 138.54C495.361 132.426 496.759 126.098 497.683 121.91C498.184 119.641 498.617 117.68 498.226 117.32C491.435 111.057 492.065 102.976 492.072 102.895ZM498.09 122C497.173 126.154 495.787 132.432 496.924 138.462C498.277 145.639 502.954 150.713 510.824 153.542C510.954 153.59 511.074 153.577 511.2 153.503C512.43 152.782 513.373 147.131 514.285 141.667C515.722 133.059 517.214 124.163 520.477 124.281C522.098 124.342 523.33 125.012 524.138 126.273C525.797 128.861 525.683 133.938 523.798 141.362C522.129 147.938 519.538 154.461 518.502 156.96C518.315 157.41 518.122 157.869 517.926 158.335C515.843 163.282 513.483 168.888 515.691 171.695C517.084 173.466 520.28 173.96 525.19 173.165C528.513 172.626 530.701 172.966 531.878 174.203C533.636 176.051 532.88 179.584 532.081 183.323C531.136 187.744 530.159 192.315 532.975 194.809C536.415 197.856 544.365 199.155 553.229 198.12C559.197 197.422 570.613 195.044 580.011 186.954C585.407 182.31 587.904 177.198 587.432 171.759C586.738 163.759 579.632 156.831 573.759 153.33C567.596 149.656 568.097 148.274 569.306 144.937C570.152 142.605 571.309 139.412 570.909 133.73C569.922 119.72 560.569 118.131 550.665 116.45C544.603 115.42 544.941 109.582 545.299 103.4C545.58 98.5576 545.87 93.5503 543.412 89.958C540.094 85.109 535.125 84.1163 531.613 84.1163C529.209 84.1163 527.487 84.5815 527.445 84.5934L527.397 84.6068L527.348 84.597C527.184 84.5645 510.879 81.3936 503.859 86.7218C496.991 91.9343 492.737 102.335 492.485 102.961C492.45 103.493 492.077 111.081 498.508 117.013C499.075 117.536 498.704 119.216 498.09 122Z" fill="black"/>
<path d="M526.689 108.391C526.689 108.391 538.644 108.869 538.685 116.433C538.726 123.998 534.409 127.967 543.635 132.019C552.86 136.071 559.345 138.721 556.103 145.789C552.86 152.856 551.683 161.984 561.4 166.401C571.117 170.818 554.368 193.492 544.044 189.369C533.72 185.247 539.762 172.29 533.796 169.051C527.831 165.812 515.267 167.579 515.267 167.579C515.267 167.579 510.823 104.858 526.689 108.391Z" fill="black"/>
<path d="M521.866 109.431C523.285 108.208 524.917 107.79 526.716 108.184C526.98 108.197 529.877 108.361 532.741 109.379C536.748 110.805 538.876 113.244 538.893 116.432C538.904 118.481 538.598 120.272 538.328 121.853C537.599 126.115 537.118 128.93 543.718 131.829L544.335 132.099C550.565 134.832 555.485 136.991 556.806 140.462C557.407 142.041 557.239 143.812 556.292 145.876C554.614 149.533 552.977 154.866 554.707 159.505C555.788 162.402 558.068 164.658 561.486 166.212C564.748 167.694 565.435 171.318 563.371 176.155C561.743 179.971 558.544 184.013 555.022 186.703C552.11 188.928 549.253 190.076 546.723 190.076C545.751 190.076 544.827 189.907 543.967 189.563C537.964 187.166 537.388 181.852 536.88 177.164C536.496 173.628 536.165 170.575 533.697 169.234C531.289 167.927 527.348 167.257 522.301 167.309C518.472 167.345 515.327 167.781 515.296 167.785L515.075 167.816L515.059 167.593C515.05 167.47 514.192 155.134 514.593 141.879C515.135 124.04 517.581 113.122 521.866 109.431ZM515.46 167.343C517.223 167.114 528.303 165.832 533.896 168.868C536.556 170.313 536.914 173.619 537.294 177.119C537.79 181.69 538.352 186.872 544.121 189.176C547.077 190.356 550.858 189.36 554.769 186.372C558.238 183.722 561.387 179.745 562.988 175.991C564.95 171.393 564.34 167.966 561.314 166.591C557.791 164.99 555.438 162.655 554.317 159.65C552.537 154.877 554.203 149.43 555.914 145.701C556.811 143.745 556.976 142.079 556.417 140.61C555.158 137.302 550.308 135.174 544.168 132.48L543.551 132.21C536.652 129.18 537.183 126.077 537.917 121.782C538.184 120.219 538.488 118.446 538.477 116.434C538.437 109.156 526.798 108.604 526.68 108.599L526.644 108.595C526.234 108.503 525.833 108.458 525.442 108.458C524.241 108.458 523.133 108.889 522.138 109.746C512.461 118.084 515.225 163.745 515.46 167.343Z" fill="black"/>
<path d="M600.673 391.569C607.6 401.772 611.034 407.615 616.552 416.249C625.683 430.524 628.953 437.212 633.466 440.427C634.215 440.964 634.998 441.471 635.843 441.999C641.781 445.692 646.589 449.252 645.326 453.228C644.063 457.204 617.926 476.763 613.826 479.538C609.727 482.313 604.147 486.974 602.21 485.021C600.274 483.069 600.137 479.612 601.458 477.535C602.315 476.183 607.15 468.114 610.715 461.085C612.63 457.318 614.177 453.851 614.554 451.874C615.636 446.219 607.295 434.036 601.128 425.555C597.962 421.202 588.401 413.364 581.541 404.961C575.029 396.989 571.127 388.328 571.127 388.328L584.005 370.49C584.005 370.49 594.242 382.107 600.673 391.569Z" fill="#F5B0A6"/>
<path d="M595.49 387.284C594.026 390.552 591.983 393.739 589.165 396.599C586.921 398.881 584.981 401.073 583.29 403.116C576.777 395.144 571.127 388.328 571.127 388.328L584.005 370.49C584.004 370.49 589.059 377.822 595.49 387.284Z" fill="#949494"/>
<path d="M584.176 370.372C584.227 370.445 589.305 377.813 595.662 387.167L595.728 387.264L595.68 387.37C594.092 390.915 591.95 394.069 589.313 396.745C587.273 398.821 585.355 400.949 583.45 403.249L583.288 403.444L583.128 403.248C576.691 395.368 571.023 388.53 570.967 388.461L570.864 388.337L584.008 370.129L584.176 370.372ZM571.39 388.32C572.18 389.273 577.395 395.572 583.29 402.788C585.15 400.553 587.025 398.479 589.016 396.453C591.592 393.839 593.689 390.762 595.252 387.306C589.572 378.948 584.926 372.196 584 370.852L571.39 388.32Z" fill="black"/>
<path d="M610.715 461.085C615.123 460.604 619.655 464.932 625.897 457.772C630.975 451.946 627.682 444.096 633.466 440.427C634.215 440.964 634.998 441.471 635.843 441.999C641.781 445.692 646.589 449.252 645.326 453.228C644.063 457.204 617.926 476.763 613.826 479.538C609.727 482.313 604.147 486.974 602.21 485.021C600.274 483.069 600.137 479.612 601.458 477.535C602.315 476.183 607.15 468.114 610.715 461.085Z" fill="#2F4171"/>
<path d="M430.2 475.377C431.954 474.848 442.175 471.497 450.506 468.13C454.975 466.327 458.898 464.519 460.689 463.138C465.816 459.188 467.434 443.269 468.244 431.937C468.659 426.12 468.902 412.645 469.043 400.898C469.172 389.749 469.21 380.16 469.21 380.16L493.736 374.272C493.736 374.272 492.791 383.878 491.491 396.208C490.083 409.499 488.264 425.963 486.769 436.972C484.303 455.179 484.217 460.947 485.83 466.754C486.095 467.72 486.413 468.686 486.769 469.711C489.289 476.904 490.908 483.201 486.861 485.63C482.814 488.058 445.31 486.169 439.644 485.63C433.977 485.09 425.613 485.09 425.343 482.122C425.074 479.154 427.502 476.186 430.2 475.377Z" fill="#F5B0A6"/>
<path d="M493.736 374.272C493.736 374.272 492.792 383.878 491.491 396.208C487.789 397.908 483.634 399.138 479.037 399.559C475.372 399.899 472.043 400.374 469.043 400.897C469.172 389.749 469.21 380.16 469.21 380.16L493.736 374.272Z" fill="#949494"/>
<path d="M469.001 380.159L469.002 379.995L493.972 374.001L493.943 374.293C493.934 374.389 492.984 384.04 491.698 396.23L491.686 396.348L491.578 396.398C487.566 398.24 483.353 399.373 479.055 399.767C475.724 400.076 472.461 400.513 469.078 401.103L468.831 401.146L468.834 400.895C468.962 389.875 469.001 380.255 469.001 380.159ZM479.018 399.352C483.229 398.966 487.36 397.862 491.296 396.068C492.451 385.117 493.332 376.238 493.5 374.543L469.418 380.324C469.412 381.628 469.37 390.519 469.254 400.65C472.56 400.079 475.756 399.654 479.018 399.352Z" fill="black"/>
<path d="M498.328 229.951C498.328 229.951 522.206 232.169 531.11 231.899C533.776 231.818 536.301 231.424 538.611 231.025C539.161 230.933 539.696 230.836 540.219 230.744C544.86 229.929 548.454 229.384 550.267 231.921C551.816 234.085 555.026 239.977 557.724 249.054C557.881 249.577 558.032 250.111 558.183 250.656C560.293 258.217 561.982 267.795 562.139 279.116C562.5 305.38 556.381 335.237 559.619 342.074C562.856 348.906 581.927 357.54 591.64 373.729C601.353 389.918 609.987 400.71 608.908 404.671C608.628 405.696 607.715 407.137 606.469 408.692C606.269 408.94 606.064 409.188 605.848 409.436C602.206 413.71 596.421 418.486 594.155 417.978C590.917 417.261 535.875 374.452 530.479 369.056C525.082 363.659 518.968 312.573 518.968 312.573C518.968 312.573 497.745 345.312 496.666 348.906C495.586 352.505 497.745 365.456 496.666 387.403C495.586 409.344 494.863 418.701 491.987 419.781C489.111 420.86 468.605 419.419 467.882 416.899C467.644 416.068 467.17 407.801 466.651 396.89C465.804 379.109 464.827 354.292 464.547 343.154C464.541 343.11 464.541 343.067 464.541 343.019L464.531 342.565C464.466 340.175 464.444 338.497 464.466 337.757C464.644 331.638 493.083 229.492 498.328 229.951Z" fill="black"/>
<g opacity="0.36">
<path d="M489.468 328.762C497.022 320.489 517.172 275.517 518.969 271.561C520.766 267.606 518.969 312.573 518.969 312.573C518.969 312.573 497.745 345.312 496.666 348.906C495.587 352.505 497.745 365.456 496.666 387.403C495.587 409.344 494.864 418.701 491.987 419.781C489.111 420.86 468.605 419.419 467.882 416.899C467.645 416.068 467.17 407.801 466.652 396.89C471.951 397.807 479.144 398.913 483.084 398.913C489.829 398.913 485.873 371.932 485.873 357.184C485.873 342.571 464.952 343.143 464.547 343.154C464.542 343.154 464.542 343.154 464.542 343.154V343.019L464.531 342.565L464.466 337.757C464.467 337.758 481.913 337.034 489.468 328.762Z" fill="black"/>
</g>
<path d="M430.2 475.377C431.954 474.848 442.175 471.497 450.506 468.13C454.753 470.79 455.562 477.535 466.355 475.916C475.135 474.6 478.016 465.788 485.83 466.753C486.095 467.72 486.413 468.685 486.769 469.711C489.289 476.904 490.908 483.201 486.861 485.63C482.814 488.058 445.31 486.169 439.644 485.63C433.978 485.09 425.614 485.09 425.344 482.122C425.074 479.154 427.502 476.186 430.2 475.377Z" fill="black"/>
<path d="M608.712 397.003C611.048 396.535 615.228 402.933 615.918 404.005C616.609 405.077 594.86 419.253 594.86 419.253C593.662 420.038 586.097 415.428 585.822 412.248C585.547 409.068 606.376 397.472 608.712 397.003Z" fill="black"/>
<path d="M497.215 411.79C499.722 412.767 499.029 420.422 498.904 421.699C498.778 422.976 468.397 421.886 468.397 421.886C466.72 421.83 462.984 413.663 465.005 410.908C467.026 408.153 494.707 410.813 497.215 411.79Z" fill="black"/>
<path d="M505.568 98.6706C506.896 97.4272 506.896 97.4272 506.896 97.4272C506.896 97.4272 506.692 99.7595 514.369 103.979C522.045 108.199 525.565 106.941 526.516 107.233C527.467 107.515 527.844 112.611 528.955 113.798C529.323 114.193 529.662 114.325 529.944 114.325C530.463 114.325 530.792 113.873 530.83 113.807C531.678 112.018 533.439 111.415 535.342 113.205C537.875 115.606 537.461 118.263 537.009 119.318C535.897 121.851 532.459 122.303 532.459 122.303L532.648 141.057C532.648 141.057 526.12 151.889 516.089 152.765C506.283 153.632 508.968 141.651 509.1 141.076C509.109 141.067 509.1 141.067 509.1 141.067C509.109 141.057 509.109 141.057 509.109 141.057C509.109 141.057 511.304 140.511 513.659 139.89V136.291C511.558 136.159 509.034 135.547 506.33 133.889C503.373 132.09 502.544 128.727 501.696 124.385C501.47 123.198 501.291 121.964 501.15 120.712C500.227 112.602 500.943 103.804 500.943 103.804C500.943 103.804 504.23 99.9233 505.568 98.6706Z" fill="#F5B0A6"/>
<path d="M476.142 154.771C476.245 154.724 490.45 145.475 495.753 143.534C498.946 142.367 508.93 141.123 509.109 141.057L501.555 146.454L501.668 172.084C501.668 172.084 500.331 172.668 498.343 173.535C492.776 175.965 482.142 180.58 481.944 180.58C481.143 179.94 479.712 175.315 478.449 170.163C476.707 163.164 475.275 155.167 476.142 154.771Z" fill="#11529B"/>
<g opacity="0.39">
<path d="M498.343 173.535C492.776 175.965 482.142 180.581 481.944 180.581C481.143 179.94 479.712 175.315 478.449 170.163L495.96 158.379L498.343 173.535Z" fill="#EF7C59"/>
</g>
<path d="M493.144 221.79C493.144 221.79 493.784 212.87 493.144 204.939C492.644 198.628 489.178 187.692 487.784 182.784C487.426 181.522 487.2 180.656 487.2 180.373C487.2 178.989 494.387 152.746 495.103 151.55C495.809 150.373 508.695 141.349 509.1 141.067C509.043 141.349 506.17 153.641 516.089 152.765C526.12 151.889 532.648 141.057 532.648 141.057C532.648 141.057 550.319 146.473 551.59 148.263C552.862 150.062 549.716 153.349 548.218 165.349C547.973 167.318 547.681 169.465 547.361 171.698C545.741 183.114 543.518 197.017 544.422 202.716C545.496 209.526 558.325 237.284 558.683 246.845C558.711 247.626 555.367 247.777 550.196 247.645C541.803 247.429 528.588 246.487 517.228 246.402C512.669 246.364 501.922 248.135 495.055 249.011C492.333 249.36 486.041 250.415 486.738 247.768L493.144 221.79Z" fill="#14539A"/>
<g opacity="0.26">
<path d="M515.553 182.243C527.098 178.906 540.161 168.089 540.161 168.089L547.361 171.698C545.741 183.114 543.518 197.017 544.422 202.716C545.496 209.526 558.325 237.285 558.683 246.845C558.711 247.627 555.367 247.777 550.196 247.646C539.552 233.3 526.243 215.403 501.649 228.082C508.196 224.474 520.619 214.659 522.258 211.692C525.452 205.928 516.089 203.479 516.089 203.479C516.089 203.479 504.462 201.226 503.196 201.491C494.207 203.376 497.373 207.802 497.006 211.607C496.629 215.413 493.143 221.79 493.143 221.79C493.143 221.79 493.784 212.87 493.143 204.938C492.644 198.628 489.178 187.692 487.784 182.784C492.486 185.242 499.404 186.911 515.553 182.243Z" fill="#14539A"/>
</g>
<path d="M497.117 220.885C500.702 220.277 510.34 218.362 518.862 214.338C527.39 210.309 537.226 208.23 537.924 206.641C538.357 205.661 537.881 194.322 537.452 185.753C537.183 180.403 536.934 176.131 536.934 176.131C538.609 165.65 561.239 176.221 561.239 176.221C561.239 176.221 560.913 185.319 560.587 193.603C560.348 199.845 560.106 205.624 560.009 206.715C559.782 209.262 558.306 219.58 555.644 220.268C552.988 220.951 552.842 222.587 541.16 224.513C529.478 226.433 510.886 228.854 508.798 229.41C506.705 229.961 506.108 232.476 503.569 233.906C501.031 235.336 501.331 236.093 500.519 238.953C499.707 241.818 498.6 245.934 498.6 245.934C498.6 245.934 497.865 245.87 496.759 245.775C496.439 245.747 496.195 245.489 496.019 245.144C495.594 244.299 495.527 242.919 495.527 242.919C495.527 242.919 495.527 242.919 495.245 242.895L493.317 242.728C492.687 242.674 492.274 242.369 492.01 241.961C491.695 241.488 491.583 240.879 491.545 240.359C491.54 240.354 491.541 240.348 491.547 240.337C491.511 239.746 491.58 239.279 491.58 239.279C491.58 239.279 491.58 239.279 490.159 238.607C489.63 238.357 489.323 237.924 489.141 237.474C488.84 236.722 488.91 235.937 488.91 235.937C488.91 235.937 488.542 236.07 488.053 236.182C487.184 236.376 485.942 236.505 485.777 235.666C485.526 234.358 489.675 223.172 490.528 221.964C491.377 220.757 493.538 221.493 497.117 220.885Z" fill="#F5B0A6"/>
<path d="M496.01 231.751C495.948 231.812 495.857 231.898 495.753 232.01C495.858 231.892 495.943 231.806 496.01 231.751Z" fill="#757575"/>
<path d="M495.877 231.591L496.156 231.899L496.105 231.95C496.05 232.003 495.981 232.07 495.905 232.152L495.598 231.871C495.711 231.745 495.802 231.653 495.877 231.591Z" fill="black"/>
<path d="M492.573 227.639C492.573 227.639 492.573 227.639 490.254 233.348C489.705 234.702 489.356 236.113 489.14 237.474C488.84 236.722 488.91 235.937 488.91 235.937C488.91 235.937 488.541 236.07 488.053 236.181C489.582 231.701 492.573 227.639 492.573 227.639Z" fill="#F18A8B"/>
<path d="M491.58 239.279C491.692 236.337 494.646 233.118 495.723 232.034C494.823 233.006 492.612 235.949 492.01 241.96C491.695 241.488 491.582 240.879 491.545 240.359C491.54 240.353 491.541 240.348 491.547 240.337C491.553 239.959 491.568 239.602 491.58 239.279Z" fill="#F18A8B"/>
<path d="M497.911 234.846C497.824 235.141 496.243 240.32 496.019 245.145C495.593 244.299 495.527 242.919 495.527 242.919C495.527 242.919 495.527 242.919 495.245 242.895C495.304 242.356 495.404 241.798 495.538 241.227C496.61 236.707 497.81 234.98 497.911 234.846Z" fill="#F18A8B"/>
<path d="M550.148 147.304C550.148 147.304 557.947 146.915 562.436 157.18C565.981 165.286 568.152 186.215 564.895 193.426C564.456 194.401 564.016 195.203 563.597 195.783C563.187 196.349 562.796 196.707 562.436 196.821C558.961 197.928 536.664 197.664 535.692 191.119C535.689 191.107 535.082 185.646 535.079 185.635C534.969 184.848 535.029 183.642 535.226 182.132C536.677 171.023 545.614 143.541 550.148 147.304Z" fill="#11529B"/>
<path d="M516.505 114.914C517.366 114.914 518.063 115.908 518.063 117.135C518.063 118.362 517.366 119.356 516.505 119.356C515.645 119.356 514.947 118.362 514.947 117.135C514.947 115.908 515.645 114.914 516.505 114.914Z" fill="#202020"/>
<path d="M516.101 115.676C516.554 115.676 516.921 116.177 516.921 116.794C516.921 117.412 516.554 117.913 516.101 117.913C515.648 117.913 515.281 117.412 515.281 116.794C515.281 116.177 515.648 115.676 516.101 115.676Z" fill="white"/>
<path d="M504.314 114.914C505.174 114.914 505.871 115.908 505.871 117.135C505.871 118.362 505.174 119.356 504.314 119.356C503.453 119.356 502.756 118.362 502.756 117.135C502.756 115.908 503.453 114.914 504.314 114.914Z" fill="#202020"/>
<path d="M503.909 115.676C504.362 115.676 504.73 116.177 504.73 116.794C504.73 117.412 504.362 117.913 503.909 117.913C503.456 117.913 503.089 117.412 503.089 116.794C503.089 116.177 503.456 115.676 503.909 115.676Z" fill="white"/>
<path d="M515.712 112.233C515.738 112.222 518.393 111.245 520.083 113.921C520.145 114.018 520.116 114.147 520.018 114.208C519.984 114.23 519.945 114.241 519.907 114.241C519.838 114.241 519.77 114.206 519.731 114.143C518.228 111.763 515.96 112.585 515.86 112.622C515.753 112.663 515.632 112.609 515.591 112.502C515.55 112.395 515.604 112.274 515.712 112.233Z" fill="black"/>
<path d="M509.512 118.245C509.598 118.321 509.606 118.453 509.53 118.539C509.161 118.956 508.24 120.204 508.397 120.964C508.581 121.861 509.613 122.228 509.623 122.232C509.731 122.269 509.789 122.388 509.752 122.496C509.723 122.583 509.642 122.637 509.555 122.637C509.533 122.637 509.51 122.634 509.488 122.626C509.436 122.608 508.222 122.181 507.988 121.048C507.758 119.929 509.158 118.33 509.218 118.263C509.294 118.177 509.425 118.169 509.512 118.245Z" fill="black"/>
<path d="M506.333 111.513C506.437 111.562 506.482 111.685 506.433 111.79C506.384 111.894 506.26 111.939 506.156 111.89C506.134 111.88 504.028 110.914 502.394 112.202C502.356 112.232 502.311 112.247 502.266 112.247C502.204 112.247 502.143 112.219 502.102 112.167C502.031 112.077 502.046 111.946 502.136 111.875C503.97 110.429 506.237 111.468 506.333 111.513Z" fill="black"/>
<path d="M508.594 126.1C509.98 126.029 511.366 125.958 512.752 125.888L513.46 126.363C513.41 127.438 512.926 128.502 512.09 129.18C511.253 129.857 510.067 130.107 509.054 129.744C508.041 129.382 507.265 128.385 507.242 127.309C507.235 126.991 507.3 126.65 507.524 126.425C507.794 126.155 508.213 126.119 508.594 126.1Z" fill="white"/>
<path d="M519.148 120.481C521.023 120.481 522.544 121.287 522.544 122.282C522.544 123.276 521.023 124.082 519.148 124.082C517.272 124.082 515.752 123.276 515.752 122.282C515.752 121.287 517.272 120.481 519.148 120.481Z" fill="#F18A8B"/>
<path d="M504.697 122.659C504.697 123.587 503.373 124.341 501.682 124.442C501.461 123.284 501.286 122.08 501.148 120.857H501.296C503.171 120.858 504.697 121.657 504.697 122.659Z" fill="#F18A8B"/>
<path d="M534.212 114.09C534.453 114.006 534.725 114.135 534.811 114.38C534.897 114.626 534.766 114.895 534.521 114.98C531.497 116.033 532.584 119.768 532.631 119.926C532.706 120.175 532.566 120.438 532.317 120.513C532.271 120.527 532.226 120.533 532.18 120.533C531.978 120.533 531.791 120.403 531.73 120.2C531.23 118.56 531.107 115.172 534.212 114.09Z" fill="#F18A8B"/>
<path d="M535.468 117.283C535.639 117.476 535.621 117.768 535.431 117.942C535.241 118.114 534.943 118.101 534.767 117.912C534.673 117.81 533.784 116.947 532.209 118.325C532.12 118.403 532.01 118.441 531.899 118.441C531.769 118.441 531.638 118.387 531.545 118.28C531.373 118.085 531.394 117.787 531.589 117.616C533.909 115.584 535.454 117.265 535.468 117.283Z" fill="#F18A8B"/>
<path d="M519.469 135.439C521.632 134.659 524.983 131.757 525.092 131.589C524.99 131.88 522.792 138.292 513.712 139.924L513.654 136.373C513.654 136.373 516.59 136.476 519.469 135.439Z" fill="#F18A8B"/>
</g>
<g opacity="0.4">
<path d="M377.559 25.8389H458.597C465.057 25.8389 470.343 31.1243 470.343 37.5841V73.137C470.343 79.0705 465.488 83.9251 459.554 83.9251H457.472L461.377 100.416L436.865 83.9251H376.86C370.406 83.9251 365.125 78.6443 365.125 72.1897V38.2735C365.125 31.4345 370.72 25.8389 377.559 25.8389Z" fill="#5681BF"/>
</g>
<path d="M381.147 23.1162H462.185C468.644 23.1162 473.93 28.4016 473.93 34.8616V70.4145C473.93 76.3481 469.075 81.2026 463.141 81.2026H461.06L464.964 97.6935L440.452 81.2026H380.447C373.993 81.2026 368.712 75.9218 368.712 69.4672V35.551C368.712 28.712 374.307 23.1162 381.147 23.1162Z" fill="#14539A"/>
<path d="M378.972 44.7378H463.47C464.621 44.7378 465.562 45.6795 465.562 46.8305C465.562 47.9811 464.621 48.923 463.47 48.923H378.972C377.821 48.923 376.88 47.9811 376.88 46.8305C376.88 45.6797 377.821 44.7378 378.972 44.7378Z" fill="white"/>
<path d="M378.972 54.104H463.47C464.621 54.104 465.562 55.0459 465.562 56.1965C465.562 57.3475 464.621 58.2892 463.47 58.2892H378.972C377.821 58.2892 376.88 57.3475 376.88 56.1965C376.88 55.0457 377.821 54.104 378.972 54.104Z" fill="white"/>
<path d="M378.972 63.4707H463.47C464.621 63.4707 465.562 64.4122 465.562 65.5632C465.562 66.7138 464.621 67.6557 463.47 67.6557H378.972C377.821 67.6557 376.88 66.714 376.88 65.5632C376.88 64.4122 377.821 63.4707 378.972 63.4707Z" fill="white"/>
<path d="M425.007 31.8838H460.879C462.249 31.8838 463.37 33.0046 463.37 34.3748C463.37 35.745 462.249 36.8657 460.879 36.8657H425.007C423.637 36.8657 422.516 35.7448 422.516 34.3748C422.516 33.0046 423.637 31.8838 425.007 31.8838Z" fill="white"/>
<path d="M394.702 31.8838H415.243C416.613 31.8838 417.734 33.0046 417.734 34.3746C417.734 35.7446 416.613 36.8657 415.242 36.8657H394.702C393.332 36.8657 392.211 35.7448 392.211 34.3748V34.3746C392.211 33.0046 393.332 31.8838 394.702 31.8838Z" fill="white"/>
<path d="M315.163 495.563C268.101 495.563 229.949 489.856 229.949 482.815C229.949 475.774 268.101 470.066 315.163 470.066C362.225 470.066 400.376 475.774 400.376 482.815C400.376 489.856 362.225 495.563 315.163 495.563Z" fill="#7A8DB0"/>
<path d="M235.909 179.864L257.941 179.502C258.042 179.5 258.142 179.502 258.241 179.506C260.806 179.619 262.871 181.712 262.914 184.313L263.293 207.346C263.328 209.495 261.615 211.266 259.466 211.302L235.432 211.697C233.283 211.732 231.512 210.019 231.477 207.87L231.098 184.836C231.053 182.135 233.207 179.909 235.909 179.864Z" fill="#3D5891"/>
<path d="M235.909 179.864L257.941 179.502C260.643 179.457 262.87 181.612 262.914 184.314L262.981 188.41L231.165 188.934L231.098 184.837C231.053 182.135 233.208 179.909 235.909 179.864Z" fill="#99B1DA"/>
<path d="M253.845 129.708L328.176 128.486C328.514 128.479 328.854 128.485 329.188 128.501C334.174 128.721 338.602 131.158 341.486 134.866C342.441 136.095 343.227 137.463 343.807 138.934C344.515 140.729 344.919 142.677 344.952 144.718L346.151 217.594L346.254 223.808L346.36 230.284C346.408 233.193 344.087 235.592 341.177 235.641L244.376 237.233C241.465 237.28 239.068 234.959 239.02 232.051L237.612 146.482C237.462 137.368 244.729 129.858 253.845 129.708Z" fill="#3D5891"/>
<path d="M344.952 144.719L346.353 229.874C346.404 233.01 343.903 235.595 340.767 235.646L330.952 235.808L329.187 128.5C337.841 128.88 344.808 135.943 344.952 144.719Z" fill="#BDBDBD"/>
<path d="M345.16 144.715L346.561 229.871C346.587 231.443 345.999 232.932 344.905 234.062C343.811 235.192 342.343 235.829 340.77 235.855L330.748 236.02L328.975 128.283L329.196 128.293C338.003 128.679 345.015 135.893 345.16 144.715ZM331.157 235.596L340.764 235.438C342.225 235.414 343.589 234.822 344.606 233.772C345.622 232.722 346.168 231.339 346.144 229.877L344.744 144.722C344.603 136.193 337.882 129.206 329.399 128.72L331.157 235.596Z" fill="black"/>
<path d="M252.835 129.757L254.6 237.064L244.786 237.226C241.649 237.277 239.065 234.777 239.013 231.64L237.613 146.485C237.468 137.709 244.199 130.421 252.835 129.757Z" fill="#5681BF"/>
<path d="M253.844 129.707L328.175 128.486C333.191 128.402 337.721 130.566 340.805 134.049C342.264 135.692 343.399 137.631 344.111 139.766C344.63 141.324 344.924 142.988 344.952 144.718L345.18 158.54L237.841 160.307L237.613 146.484C237.462 137.369 244.73 129.858 253.844 129.707Z" fill="#99B1DA"/>
<path d="M288.149 82.5813C292.105 74.7351 301.26 75.4038 306.422 72.6911C306.431 72.7193 306.441 72.7288 306.441 72.7288C306.441 72.7288 308.871 72.6441 312.29 72.7101C320.193 72.8703 331.063 70.1857 334.322 78.5972C336.827 85.0588 329.65 84.3334 329.65 84.3334C329.65 84.3334 330.087 85.0836 330.987 85.8218C334.367 88.5924 337.074 92.6759 328.755 93.4984C328.689 93.5268 328.652 93.5361 328.652 93.5361C328.652 93.5361 328.049 94.1672 327.05 95.1938C322.642 99.6963 310.52 111.838 307.534 111.857C305.631 111.875 302.72 113.59 299.772 114.372C298.491 114.72 297.21 114.88 295.995 114.654C293.405 114.164 291.097 106.516 291.097 106.516C291.097 106.516 286.953 99.1124 286.548 91.2945C286.416 88.6476 286.708 85.9536 287.744 83.4765C287.866 83.1653 288.007 82.8638 288.149 82.5813Z" fill="black"/>
<path d="M288.149 82.5811C292.105 74.7349 301.26 75.4037 306.422 72.691C306.431 72.7191 306.441 72.7287 306.441 72.7287C306.441 72.7287 311.801 67.7155 312.786 69.1118C313.772 70.508 312.29 72.7099 312.29 72.7099C309.945 75.4603 306.017 75.4697 301.26 76.5341C295.025 77.928 287.414 82.6378 288.431 91.2282C289.834 103.078 296.748 109.454 299.772 114.371C298.491 114.72 297.21 114.88 295.995 114.654C293.405 114.164 291.097 106.516 291.097 106.516C291.097 106.516 286.952 99.1122 286.547 91.2943C286.528 88.4026 286.868 85.6803 287.744 83.4764C287.866 83.1651 288.007 82.8636 288.149 82.5811Z" fill="black"/>
<path d="M287.963 82.4873C290.737 76.9846 296.032 75.6055 300.703 74.3886C302.784 73.8465 304.749 73.3344 306.325 72.5065L306.436 72.4494C307.271 71.6809 310.831 68.5144 312.368 68.6638C312.623 68.6901 312.822 68.8003 312.957 68.9915C314.013 70.4882 312.527 72.7313 312.463 72.8261L312.449 72.8448C310.595 75.0184 307.745 75.5309 304.444 76.1248C303.438 76.3057 302.397 76.493 301.306 76.7373C297.818 77.5169 294.525 79.1921 292.269 81.3338C289.406 84.0517 288.184 87.3725 288.638 91.2038C289.717 100.315 294.156 106.281 297.397 110.637C298.355 111.925 299.26 113.141 299.949 114.262L300.095 114.499L299.826 114.572C298.857 114.836 297.98 114.967 297.173 114.967C296.749 114.967 296.344 114.931 295.956 114.859C293.316 114.359 291.068 107.135 290.904 106.597C290.663 106.159 286.732 98.8811 286.339 91.2957C286.318 88.1305 286.726 85.474 287.55 83.3998C287.659 83.1215 287.79 82.8319 287.963 82.4873ZM291.279 106.414L291.296 106.455C291.319 106.53 293.597 113.988 296.033 114.449C297.027 114.634 298.146 114.566 299.445 114.241C298.786 113.201 297.947 112.074 297.062 110.885C293.794 106.492 289.317 100.475 288.224 91.2525C287.761 87.3398 289.061 83.8052 291.982 81.0313C294.291 78.8394 297.656 77.1263 301.215 76.3307C302.315 76.0842 303.36 75.8965 304.37 75.7146C307.72 75.1121 310.367 74.6359 312.123 72.5842C312.223 72.4321 313.478 70.4532 312.616 69.2317C312.552 69.1409 312.46 69.0919 312.325 69.0784C311.084 68.9476 307.76 71.7803 306.583 72.8807L306.438 73.0167L306.371 72.9515C304.78 73.7569 302.849 74.26 300.808 74.7915C296.222 75.9861 291.024 77.3403 288.335 82.6742C288.168 83.0069 288.042 83.2859 287.937 83.5521L287.937 83.5528C287.133 85.5769 286.735 88.1809 286.756 91.2832C287.153 98.9607 291.237 106.34 291.279 106.414Z" fill="black"/>
<path d="M299.667 100.656C299.667 100.656 300.826 105.121 302.446 105.997C302.484 106.016 302.512 106.035 302.55 106.054C302.597 106.073 302.653 106.091 302.71 106.11C302.748 106.12 302.795 106.12 302.832 106.129C304.481 106.044 304.716 94.8919 304.716 94.8919C304.716 94.8919 308.748 96.2954 314.437 96.2577C320.126 96.2106 328.651 93.5356 328.651 93.5356C328.651 93.5356 328.688 94.2513 328.698 95.6267C328.698 96.3142 328.698 97.1619 328.679 98.17C328.66 99.1213 328.773 103.577 328.782 107.806C328.782 109.021 328.773 110.217 328.754 111.31C328.726 112.892 328.66 114.258 328.547 115.134C327.728 121.596 319.91 122.302 319.91 122.302L320.871 129.48L328.66 133.436L325.307 145.097C325.307 145.097 320.174 146.067 306.789 146.284C293.404 146.5 297.822 145.652 299.027 142.186C300.242 138.72 300.346 124.836 300.233 121.389C300.129 117.932 299.658 111.705 296.964 111.235C294.393 110.783 290.88 107.316 292.321 101.721C293.884 95.6642 299.667 100.656 299.667 100.656Z" fill="#F5B0A6"/>
<path d="M319.911 122.298L320.868 129.475C320.868 129.475 314.383 129.435 309.702 126.439C305.022 123.443 302.14 118.197 302.14 118.197C302.14 118.197 302.699 118.632 306.732 120.96C310.766 123.287 319.911 122.298 319.911 122.298Z" fill="#F18A8B"/>
<path d="M315.327 114.487C315.5 114.466 316.913 115.066 318.191 114.904C319.469 114.743 320.573 114.305 320.235 115.192C320.235 115.192 319.29 117.018 317.815 117.13C316.34 117.242 315.295 115.709 315.193 115.23C315.091 114.751 314.938 114.532 315.327 114.487Z" fill="white"/>
<path d="M309.104 85.3796C310.734 84.4484 310.618 81.4217 310.618 81.4217C310.618 81.4217 317.952 84.7975 318.941 82.4113C319.93 80.0248 318.068 78.1621 318.068 78.1621C318.068 78.1621 322.026 79.6757 320.862 83.2261C319.698 86.7765 311.956 83.6336 311.956 83.6336C311.956 83.6336 312.538 86.6602 309.453 87.0677C306.368 87.4752 305.787 84.4486 305.787 84.4486C305.787 84.4486 307.474 86.3109 309.104 85.3796Z" fill="black"/>
<path d="M309.001 85.199C310.501 84.3417 310.411 81.459 310.41 81.4298L310.397 81.0909L310.705 81.2328C310.759 81.2573 316.099 83.6955 318.13 82.8998C318.438 82.7794 318.64 82.5934 318.749 82.3315C319.671 80.1063 317.992 78.3819 317.92 78.3094L317.236 77.6211L318.143 77.9678C318.184 77.9834 322.272 79.5946 321.06 83.2911C320.843 83.9546 320.398 84.4459 319.74 84.7511C317.503 85.788 313.392 84.3955 312.202 83.9515C312.232 84.443 312.196 85.3507 311.65 86.1084C311.185 86.7534 310.455 87.1457 309.481 87.2742C309.277 87.3013 309.083 87.3138 308.899 87.3138C306.16 87.3134 305.588 84.5178 305.582 84.4875L305.443 83.76L305.941 84.3084C305.957 84.3257 307.537 86.0357 309.001 85.199ZM309.427 86.8615C310.281 86.7486 310.914 86.414 311.31 85.8675C311.982 84.9386 311.754 83.6853 311.752 83.6728L311.681 83.2969L312.035 83.4405C312.086 83.4613 317.151 85.4932 319.565 84.373C320.122 84.1148 320.481 83.7184 320.664 83.1615C321.119 81.775 320.816 80.55 319.765 79.5207C319.434 79.1961 319.075 78.9419 318.769 78.7548C319.253 79.5513 319.786 80.918 319.134 82.4911C318.982 82.8582 318.695 83.1261 318.282 83.288C316.355 84.0423 312.01 82.2594 310.826 81.743C310.806 82.5792 310.615 84.7567 309.208 85.5607C308.055 86.2198 306.906 85.6284 306.232 85.1221C306.602 85.9355 307.481 87.1169 309.427 86.8615Z" fill="black"/>
<path d="M364.119 463.909L382.354 474.904L379.672 482.814L350.308 479.597V462.568L347.894 450.232L362.241 451.037L364.119 463.909Z" fill="#F5B0A6"/>
<path d="M361.035 471.954C366.13 471.954 365.212 466.867 368.017 466.26C370.823 465.652 387.181 475.976 389.863 480.401C392.544 484.826 387.583 486.301 379.002 485.496C370.42 484.692 359.694 482.815 359.694 482.815C359.694 482.815 349.369 480.937 347.894 479.999C346.42 479.06 350.308 469.272 350.308 469.272C350.308 469.272 355.939 471.954 361.035 471.954Z" fill="black"/>
<path d="M251.981 434.645L265.873 441.223L262.546 454.734L276.185 472.975L270.34 479.733L242.541 464.713L249.403 447.84L251.981 434.645Z" fill="#F5B0A6"/>
<path d="M256.249 461.463C261.298 463.515 262.438 458.105 265.462 458.634C268.487 459.162 280.535 475.983 281.409 481.448C282.284 486.913 276.774 486.375 268.595 482.12C260.417 477.866 250.544 471.684 250.544 471.684C250.544 471.684 241.071 465.664 239.988 464.139C238.905 462.615 246.701 454.483 246.701 454.483C246.701 454.483 251.201 459.41 256.249 461.463Z" fill="black"/>
<path d="M347.542 241.697C347.542 241.697 374.643 350.365 374.643 356.01C374.643 360.729 374.643 424.633 372.914 450.807C372.579 455.944 372.17 459.092 371.687 459.303C368.73 460.592 339.658 460.592 340.644 455.888C341.629 451.184 340.102 368.241 340.619 365.419C341.137 362.596 306.151 311.32 304.18 291.092C303.559 284.718 303.313 277.746 303.268 271.188C303.165 256.93 304.008 244.614 304.008 244.614L347.542 241.697Z" fill="black"/>
<g opacity="0.36">
<path d="M319.667 272.152C319.667 272.152 328.882 316.965 338.949 331.078C349.021 345.19 358.875 356.979 359.368 359.788C359.861 362.596 353.455 445.538 359.368 448.361C361.6 449.429 367.026 450.224 372.914 450.807C372.579 455.944 372.17 459.092 371.687 459.303C368.731 460.592 339.658 460.592 340.644 455.888C341.629 451.183 340.102 368.241 340.619 365.419C341.137 362.596 306.151 311.32 304.18 291.092C303.559 284.717 303.313 277.746 303.269 271.188C308.186 270.257 313.636 270.511 319.667 272.152Z" fill="black"/>
</g>
<path d="M265.251 337.042C266.551 329.281 268.811 275.789 274.274 263.412C274.331 263.28 274.397 263.148 274.453 263.026C274.604 262.706 274.755 262.395 274.905 262.093C278.23 255.406 281.32 251.544 283.204 249.556C284.391 248.313 285.097 247.804 285.097 247.804L297.86 250.865L299.301 251.204L323.772 257.063C323.772 257.063 297.907 372.948 292.651 394.895C288.224 413.385 281.612 441.926 276.883 450.676C271.881 450.007 261.417 448.528 251.074 446.654C247.721 446.042 244.387 445.392 241.25 444.714C241.363 436.576 246.082 424.858 247.514 418.5C248.767 412.999 263.941 344.879 265.251 337.042Z" fill="black"/>
<g opacity="0.36">
<path d="M265.251 337.042C266.551 329.281 268.811 275.789 274.274 263.412C274.331 263.28 274.397 263.148 274.453 263.026C274.604 262.706 274.755 262.395 274.905 262.093C278.23 255.406 281.32 251.544 283.204 249.556C289.637 252.288 294.403 254.925 294.403 254.925C294.403 254.925 276.639 293.224 275.461 319.278C274.435 341.818 254.202 417.266 251.075 446.654C247.721 446.042 244.387 445.392 241.25 444.714C241.363 436.576 246.082 424.858 247.514 418.5C248.767 412.999 263.941 344.879 265.251 337.042Z" fill="black"/>
</g>
<path d="M334.668 137.545C336.666 138.045 339.206 138.828 341.81 139.688C343.965 140.4 346.162 141.166 348.129 141.87C352.563 143.453 355.972 147.048 357.331 151.556C359.771 159.651 367.259 189.729 365.473 195.972L347.886 195.22L346.503 195.16L344.345 185.148L340.428 166.983L334.338 138.738L334.124 137.742L334.049 137.395C334.066 137.399 334.084 137.403 334.103 137.409C334.286 137.451 334.473 137.497 334.668 137.545Z" fill="#11529B"/>
<path d="M347.289 243.151C347.289 243.151 351.637 248.042 352.387 249.491C353.137 250.94 338.776 257.642 317.582 258.91C296.388 260.178 276.825 258.548 275.014 255.811C273.202 253.075 277.187 247.499 277.187 247.499L347.289 243.151Z" fill="#C4D7F2"/>
<path d="M263.293 154.596C263.293 154.596 271.3 146.425 278.093 142.622C280.012 141.547 281.952 140.473 283.748 139.486V139.484C285.71 138.405 287.5 137.427 288.904 136.664C290.767 135.651 291.949 135.014 291.949 135.014L313.415 144.807L324.283 132.841C324.283 132.841 329.781 134.945 334.097 137.236C334.29 137.339 334.481 137.441 334.668 137.545C336.682 138.65 338.358 139.779 338.956 140.72C340.063 142.46 342.888 158.945 345.456 176.518C346.133 181.155 346.792 185.867 347.398 190.403C347.519 191.871 347.687 193.487 347.886 195.22C349.876 212.553 355.044 241.312 350.363 245.96C341.957 252.871 278.54 263.585 274.463 248.88C272.962 244.373 274.382 234.792 275.323 224.294C275.512 222.168 275.684 220.002 275.807 217.836C276.064 213.285 276.112 208.719 275.686 204.458C275.367 195.031 264.256 156.681 263.293 154.596Z" fill="#14539A"/>
<path d="M275.807 217.837C285.783 206.871 291.652 183.911 289.527 160.488C288.473 148.871 285.895 141.96 283.748 139.486V139.484C285.71 138.405 287.499 137.428 288.904 136.664C292.526 141.017 295.587 150.183 295.429 167.617C295.13 200.557 282.942 216.662 275.323 224.294C275.288 224.329 275.256 224.362 275.221 224.397L275.447 218.226C275.568 218.099 275.688 217.968 275.807 217.837Z" fill="#2F4171"/>
<path d="M340.427 166.983C340.377 164.543 340.242 162.086 340.018 159.622C338.983 148.187 336.466 141.311 334.338 138.737C334.306 138.697 334.271 138.656 334.238 138.618C334.182 138.325 334.147 138.033 334.124 137.742C334.115 137.63 334.109 137.518 334.103 137.408C334.101 137.351 334.099 137.293 334.097 137.237C334.29 137.339 334.481 137.441 334.668 137.545C336.666 138.045 339.206 138.828 341.81 139.688C344.273 144.894 346.04 153.396 345.918 166.751C345.888 170.186 345.727 173.44 345.456 176.518C345.187 179.562 344.811 182.436 344.344 185.148C340.739 206.123 331.751 217.507 325.712 223.531L325.938 217.361C335.073 207.68 340.869 188.02 340.427 166.983Z" fill="#2F4171"/>
<path d="M303.336 164.79C306.798 164.337 310.033 167.249 310.563 171.294C311.092 175.34 308.715 178.986 305.253 179.439C301.791 179.892 298.556 176.98 298.026 172.935C297.497 168.89 299.874 165.243 303.336 164.79Z" fill="#C4D7F2"/>
<path d="M319.654 183.242C323.695 207.22 322.978 253.586 322.971 254.051L321.341 254.025C321.349 253.56 322.063 207.343 318.046 183.513C314.012 159.579 312.618 145.027 312.604 144.882L314.227 144.729C314.241 144.873 315.631 159.373 319.654 183.242Z" fill="#2E6857"/>
<g opacity="0.31">
<path d="M281.114 163.978C281.114 163.978 286.618 168.107 288.498 172.163C290.213 175.86 291.985 190.566 291.985 190.566L297.776 194.542L341.925 189.088L346.717 161.479C348.059 177.622 355.513 240.864 350.363 245.961C339.187 246.743 321.01 247.955 317.814 247.77C313.144 247.499 278.908 231.468 278.908 231.468V243.252C278.908 243.252 293.732 255.324 321.618 254.12C242.038 264.009 289.736 238.178 271.256 182.337C276.737 171.357 281.114 163.978 281.114 163.978Z" fill="#14539A"/>
</g>
<path d="M312.195 223.314C315.36 224.238 316.961 224.944 318.695 225.198C318.892 225.227 319.081 225.255 319.279 225.264C317.423 228.533 322.308 237.877 320.057 242.445C315.339 242.039 307.222 235.597 303.906 232.96C302.55 230.793 312.195 223.314 312.195 223.314Z" fill="#BDBDBD"/>
<path d="M312.068 223.15L312.152 223.084L312.254 223.114C313.434 223.458 314.388 223.77 315.23 224.044C316.637 224.503 317.654 224.835 318.724 224.992L318.761 224.997C318.942 225.023 319.113 225.047 319.289 225.056L319.627 225.072L319.46 225.367C318.625 226.837 319.242 229.706 319.896 232.743C320.669 236.338 321.468 240.054 320.244 242.537L320.181 242.665L320.039 242.652C315.239 242.239 307.207 235.851 303.777 233.122L303.749 233.1L303.73 233.07C302.314 230.809 311.065 223.927 312.068 223.15ZM304.066 232.821C307.165 235.286 315.248 241.704 319.932 242.223C321.001 239.868 320.232 236.292 319.488 232.831C318.855 229.889 318.256 227.1 318.958 225.445C318.873 225.434 318.788 225.422 318.702 225.41L318.664 225.404C317.558 225.242 316.527 224.906 315.101 224.44C314.286 224.175 313.367 223.875 312.239 223.544C311.795 223.893 309.66 225.59 307.684 227.477C303.968 231.026 303.805 232.344 304.066 232.821Z" fill="black"/>
<path d="M298.86 130.908C299.947 131.179 313.687 142.758 313.687 142.758C313.687 142.758 323.333 131.075 324.012 131.075C324.692 131.075 333.619 135.014 334.066 136.237C334.512 137.46 327.666 150.618 326.355 148.916C319.92 140.564 313.415 144.805 313.415 144.805C313.415 144.805 307.781 141.549 303.226 150.773C302.292 152.664 292.629 138.954 291.95 135.014C291.95 135.014 297.773 130.636 298.86 130.908Z" fill="#C4D7F2"/>
<path d="M295.78 198.765H352.687V246.354H295.78V198.765Z" fill="#F19A6D"/>
<path d="M396.07 238.208L352.687 246.354V198.764L396.07 193.181V238.208Z" fill="#EF7C59"/>
<path d="M310.616 198.765H334.152V207.418H310.616V198.765Z" fill="#EF7C59"/>
<path d="M396.07 193.181L352.687 198.764H295.78L339.163 193.181H396.07Z" fill="#F3CE90"/>
<path d="M376.657 193.181L334.152 198.764H310.616L348.71 193.181H376.657Z" fill="#F19A6D"/>
<path d="M311.943 102.187C312.803 102.187 313.501 103.182 313.501 104.408C313.501 105.635 312.803 106.63 311.943 106.63C311.083 106.63 310.385 105.635 310.385 104.408C310.385 103.182 311.083 102.187 311.943 102.187Z" fill="#202020"/>
<path d="M312.324 102.834C312.777 102.834 313.145 103.335 313.145 103.953C313.145 104.571 312.777 105.071 312.324 105.071C311.871 105.071 311.504 104.571 311.504 103.953C311.504 103.335 311.871 102.834 312.324 102.834Z" fill="white"/>
<path d="M324.134 106.63C323.274 106.63 322.577 105.635 322.577 104.408C322.577 103.182 323.274 102.187 324.134 102.187C324.995 102.187 325.692 103.182 325.692 104.408C325.692 105.635 324.995 106.63 324.134 106.63Z" fill="#202020"/>
<path d="M324.516 102.834C324.969 102.834 325.336 103.335 325.336 103.953C325.336 104.571 324.969 105.071 324.516 105.071C324.063 105.071 323.695 104.571 323.695 103.953C323.696 103.335 324.063 102.834 324.516 102.834Z" fill="white"/>
<path d="M312.737 99.507C312.844 99.548 312.897 99.668 312.857 99.7755C312.816 99.8828 312.695 99.9364 312.588 99.8962C312.492 99.8599 310.222 99.0351 308.718 101.417C308.678 101.48 308.61 101.514 308.541 101.514C308.503 101.514 308.465 101.504 308.43 101.482C308.333 101.421 308.304 101.292 308.365 101.195C310.055 98.5187 312.71 99.4966 312.737 99.507Z" fill="black"/>
<path d="M318.825 109.506C318.836 109.502 319.867 109.135 320.052 108.237C320.208 107.478 319.287 106.229 318.919 105.813C318.843 105.726 318.851 105.595 318.937 105.519C319.023 105.442 319.154 105.45 319.231 105.537C319.291 105.604 320.69 107.202 320.46 108.321C320.227 109.454 319.012 109.882 318.961 109.9C318.938 109.907 318.915 109.911 318.893 109.911C318.807 109.911 318.726 109.856 318.696 109.77C318.659 109.662 318.717 109.543 318.825 109.506Z" fill="black"/>
<path d="M322.115 98.7861C322.211 98.7411 324.478 97.703 326.312 99.1482C326.402 99.2194 326.417 99.3505 326.346 99.4407C326.305 99.4928 326.244 99.5201 326.183 99.5201C326.137 99.5201 326.092 99.5055 326.054 99.4753C324.425 98.1913 322.313 99.1536 322.292 99.1632C322.188 99.2122 322.064 99.1669 322.016 99.0628C321.966 98.9588 322.011 98.8349 322.115 98.7861Z" fill="black"/>
<path d="M309.3 111.355C307.425 111.355 305.904 110.549 305.904 109.555C305.904 108.56 307.425 107.754 309.3 107.754C311.176 107.754 312.696 108.56 312.696 109.555C312.696 110.549 311.176 111.355 309.3 111.355Z" fill="#F18A8B"/>
<path d="M328.001 107.759C328.274 107.759 328.538 107.778 328.782 107.806C328.782 109.021 328.773 110.217 328.754 111.31C328.509 111.338 328.264 111.357 328.001 111.357C326.126 111.357 324.6 110.547 324.6 109.558C324.6 108.559 326.126 107.759 328.001 107.759Z" fill="#F18A8B"/>
<path d="M296.051 102.136C299.155 103.217 299.032 106.605 298.533 108.245C298.471 108.448 298.284 108.579 298.082 108.579C298.037 108.579 297.991 108.572 297.946 108.558C297.696 108.483 297.556 108.22 297.631 107.971C297.679 107.813 298.765 104.078 295.742 103.025C295.496 102.94 295.365 102.671 295.451 102.426C295.537 102.18 295.81 102.051 296.051 102.136Z" fill="#F18A8B"/>
<path d="M298.673 105.661C298.869 105.833 298.889 106.13 298.717 106.326C298.624 106.432 298.494 106.487 298.363 106.487C298.253 106.487 298.142 106.449 298.053 106.37C296.478 104.993 295.59 105.856 295.495 105.957C295.319 106.146 295.021 106.16 294.832 105.987C294.641 105.813 294.623 105.521 294.794 105.329C294.809 105.311 296.353 103.629 298.673 105.661Z" fill="#F18A8B"/>
<path d="M378.489 233.061C382.795 233.275 386.955 230.655 386.955 230.655C386.955 230.655 379.865 230.865 377.668 228.494C375.464 226.128 382.986 226.98 386.242 226.166C387.865 225.761 390.402 224.858 392.535 224.054C394.033 223.489 395.737 223.916 396.751 225.155C398.585 227.396 400.489 231.132 398.821 236.005C396.587 238.013 395.123 240.703 394.438 241.632C393.491 242.906 385.786 245.631 382.358 244.581C378.924 243.53 375.689 241.884 375.124 241.217C374.578 240.582 386.279 240.416 387.344 240.405C386.689 240.378 381.955 240.199 379.697 240.144C377.266 240.083 374.51 238.789 373.176 237.555C371.886 236.358 385.402 236.317 386.199 236.31C385.837 236.285 382.88 236.107 382.097 236.224C381.26 236.349 376.724 236.462 373.85 234.587C370.976 232.712 371.648 233.951 370.639 232.212C369.624 230.471 374.189 232.856 378.489 233.061Z" fill="#F5B0A6"/>
<path d="M315.598 224.125C318.15 224.908 321.18 225.776 323.107 226.131C326.972 226.843 335.7 225.293 333.298 228.221C330.905 231.153 322.604 231.429 322.604 231.429C322.604 231.429 327.659 234.184 332.674 233.618C337.685 233.062 342.844 229.94 341.786 232.048C340.735 234.155 341.429 232.657 338.208 235.06C334.987 237.463 329.678 237.664 328.69 237.58C327.768 237.5 324.324 237.926 323.904 237.981C324.835 237.931 340.634 236.985 339.215 238.479C337.746 240.019 334.62 241.734 331.784 241.984C329.149 242.214 323.63 242.772 322.866 242.852C324.112 242.786 337.799 242.12 337.208 242.902C336.596 243.723 332.936 245.884 329 247.366C325.071 248.844 315.866 246.227 314.666 244.807C313.798 243.772 311.888 240.737 309.13 238.554C306.822 232.982 308.772 228.476 310.751 225.722C311.846 224.199 313.805 223.575 315.598 224.125Z" fill="#F5B0A6"/>
<path d="M327.255 96.1624C324.079 97.3365 315.961 93.9086 315.961 93.9086L328.775 92.1567C328.775 92.1567 330.432 94.9882 327.255 96.1624Z" fill="black"/>
<path d="M328.884 91.9316L328.954 92.0516C328.986 92.1054 329.719 93.3818 329.271 94.6346C328.996 95.4033 328.342 95.9831 327.328 96.3581C326.839 96.5387 326.242 96.6156 325.58 96.6156C321.885 96.6156 316.164 94.2204 315.88 94.1006L315.18 93.8052L328.747 91.9504L328.884 91.9316ZM316.771 94.0081C318.824 94.8048 324.668 96.8952 327.183 95.9671C328.076 95.6371 328.646 95.1423 328.878 94.4964C329.189 93.6308 328.814 92.7077 328.658 92.3827L316.771 94.0081Z" fill="black"/>
<path d="M271.028 149.143C280.81 145.339 286.244 190.713 286.609 193.294C286.974 195.875 312.6 218.97 314.231 221.415C315.861 223.86 306.623 237.446 303.09 237.446C299.558 237.446 269.941 215.981 267.224 210.276C263.609 199.23 248.83 155.254 271.028 149.143Z" fill="#11529B"/>
<path d="M286.609 193.294L280.225 158.355C280.225 158.355 286.93 186.744 286.609 193.294Z" fill="#2E6857"/>
</svg>
