<svg width="812" height="500" viewBox="0 0 812 500" fill="none" xmlns="http://www.w3.org/2000/svg">
<path d="M802.548 212.225C802.623 208.769 802.637 205.307 802.618 201.842C812.393 237.863 814.528 275.407 807.417 311.424C807.268 310.237 807.166 309.046 807.131 307.85C805.673 275.975 808.59 243.891 802.548 212.225Z" fill="#F5F5F7"/>
<path d="M739.551 428.826C655.145 503.857 528.465 451.618 408.304 453.048C291.349 454.439 195.09 499.819 78.9011 465.25C-15.4999 437.164 6.45763 261.687 170.643 293.954C286.221 316.669 254.887 218.803 317.716 132.788C403.076 15.9317 511.427 -18.8029 615.793 9.13628C708.356 33.9156 778.583 113.272 802.619 201.842C802.638 205.307 802.623 208.769 802.548 212.225C808.59 243.891 805.673 275.974 807.132 307.849C807.166 309.046 807.268 310.237 807.418 311.424C798.918 354.477 777.211 395.348 739.551 428.826Z" fill="#F5F5F7"/>
<path d="M148.236 204.185H183.585V225.865H195.549V86.5371H216.404V71.769H222.993V59.1536H226.869V35.8184H230.411V59.1536H234.287V71.769H240.876V86.5371H261.735V225.865H321.291L321.951 148.424H346.926V112.731H385.217V148.424H409.271L409.132 201.424H436.493V180.6H478.584V219.021H504.468V250.09H513.229V139.321H528.5V127.58H533.325H541.595H546.419V139.321H561.694V223.419H605.303L605.787 188.523H624.075V103.298H652.114V188.523H669.727L669.625 230.659H689.66V344.05H436.493H90.7541V138.459H148.236V204.185Z" fill="#EDEDED"/>
<path d="M142.471 395.919C63.7865 395.919 -0.000152588 392.399 -0.000152588 388.057C-0.000152588 383.714 63.7865 380.194 142.471 380.194C221.156 380.194 284.943 383.714 284.943 388.057C284.943 392.399 221.156 395.919 142.471 395.919Z" fill="#7A8DB0"/>
<path d="M249.741 388.696C239.937 388.696 231.99 381.011 231.99 371.53C231.99 362.05 239.937 354.364 249.741 354.364C259.544 354.364 267.491 362.05 267.491 371.53C267.491 381.011 259.544 388.696 249.741 388.696Z" fill="black"/>
<path d="M275.515 358.191H137.631V256.958H275.425L275.515 358.191Z" fill="#2F4171"/>
<path d="M270.371 358.191H115.734V260.424H270.348L270.371 358.191Z" fill="#2A2E36"/>
<path d="M195.413 339.509H214.465V358.191H195.413V339.509Z" fill="#EF7C59"/>
<path d="M214.465 339.509V358.191H195.413L210.199 339.509H214.465Z" fill="#F19A6D"/>
<path d="M213.672 339.509H225.203V358.191H213.672V339.509Z" fill="#F3CE90"/>
<path d="M194.401 316.037H225.996V339.765H194.401V316.037Z" fill="#EF7C59"/>
<path d="M225.996 316.037V339.765H194.401L220.068 316.037H225.996Z" fill="#F19A6D"/>
<path d="M225.203 316.037H233.926V339.765H225.203V316.037Z" fill="#F3CE90"/>
<path d="M179.389 292.31H210.985V316.038H179.389V292.31Z" fill="#969696"/>
<path d="M211.193 316.246H179.181V292.102H211.193V316.246ZM210.776 292.518H179.598V315.829H210.776V292.518Z" fill="black"/>
<path d="M210.984 292.31V316.038H179.389L205.056 292.31H210.984Z" fill="#F19A6D"/>
<path d="M210.191 292.31H218.914V316.038H210.191V292.31Z" fill="#F3CE90"/>
<path d="M20.4697 351.277H61.7168C62.5509 351.277 63.2334 351.959 63.2334 352.794V363.74C63.2334 364.575 62.5509 365.257 61.7168 365.257H20.4697C19.6355 365.257 18.9531 364.575 18.9531 363.74V352.793C18.9531 351.959 19.6355 351.277 20.4697 351.277Z" fill="#5681BF"/>
<path d="M202.06 268.583H233.655V292.31H202.06V268.583Z" fill="#EF7C59"/>
<path d="M233.655 268.583V292.31H202.06L227.727 268.583H233.655Z" fill="#F19A6D"/>
<path d="M232.862 268.583H241.585V292.31H232.862V268.583Z" fill="#F3CE90"/>
<path d="M184.659 363.871C185.252 363.871 185.734 364.336 185.734 364.91C185.734 365.485 185.252 365.95 184.659 365.95C184.065 365.95 183.584 365.485 183.584 364.91C183.584 364.336 184.065 363.871 184.659 363.871Z" fill="#919191"/>
<path d="M184.659 363.662C185.367 363.662 185.942 364.222 185.942 364.91C185.942 365.598 185.367 366.158 184.659 366.158C183.951 366.158 183.375 365.598 183.375 364.91C183.376 364.222 183.951 363.662 184.659 363.662ZM184.659 365.742C185.137 365.742 185.526 365.369 185.526 364.91C185.526 364.452 185.137 364.079 184.659 364.079C184.181 364.079 183.792 364.452 183.792 364.91C183.792 365.369 184.181 365.742 184.659 365.742Z" fill="black"/>
<path d="M93.1836 388.696C83.3804 388.696 75.4333 381.011 75.4333 371.53C75.4333 362.05 83.3804 354.364 93.1836 354.364C102.987 354.364 110.934 362.05 110.934 371.53C110.934 381.011 102.987 388.696 93.1836 388.696Z" fill="black"/>
<path d="M56.555 291.226L56.8523 302.414L33.5413 301.652C33.5413 301.652 36.2296 291.226 56.555 291.226Z" fill="#858282"/>
<path d="M36.3689 301.281H90.2802V348.895H13.1926L19.6088 311.831C20.6517 305.807 27.841 301.281 36.3689 301.281Z" fill="#AFAFAF"/>
<path d="M35.2013 306.347H46.139L45.4695 326.239H23.8526L26.7161 311.604C27.3057 308.59 30.9266 306.347 35.2013 306.347Z" fill="#3D5891"/>
<path d="M28.0057 312.151C28.5045 309.476 31.5676 307.485 35.1843 307.485H44.4376L43.8712 325.138H29.6386C27.4907 325.138 25.8343 323.792 26.117 322.276L28.0057 312.151Z" fill="white"/>
<path d="M55.8711 256.958H204.144V358.191H55.8711V256.958Z" fill="#14539A"/>
<path d="M198.519 336.431L198.34 354.351H61.316V260.798H198.519V336.431Z" fill="#14539A"/>
<path d="M13.1926 348.896H60.2295C61.6693 348.896 62.8472 349.43 62.8472 350.084V362.088C62.8472 362.742 61.6691 363.277 60.2295 363.277H48.3012C45.0931 361.191 39.767 359.826 33.7378 359.826C28.8343 359.826 25.5149 360.767 22.4574 362.201C21.2366 362.774 19.4168 364.374 19.4168 364.374C19.0982 364.867 18.5593 365.257 17.8125 365.257H5.98598C5.23911 365.257 4.62785 364.87 4.62785 364.397L8.64976 350.549C8.65017 350.549 9.05052 349.092 13.1926 348.896Z" fill="#858282"/>
<path d="M59.198 358.19H277.862C278.941 358.19 279.824 359.074 279.824 360.153V366.046C279.824 367.125 278.941 368.008 277.862 368.008H59.198C58.1186 368.008 57.2355 367.125 57.2355 366.046V360.153C57.2353 359.074 58.1184 358.19 59.198 358.19Z" fill="#14539A"/>
<path d="M68.5451 360.657H109.042C110.083 360.657 110.934 361.508 110.934 362.549V380.512C110.934 381.552 110.083 382.403 109.042 382.403H68.5449C67.5045 382.403 66.6535 381.552 66.6535 380.512V362.549C66.6537 361.508 67.5047 360.657 68.5451 360.657Z" fill="#737272"/>
<g opacity="0.14">
<path d="M198.519 336.658V354.351H61.4947L61.316 260.798H91.5395C99.0324 282.17 125.911 332.863 198.519 336.658Z" fill="#2F4171"/>
</g>
<path d="M15.9028 330.798C14.6912 330.798 13.0969 330.12 13.0013 328.73C12.9057 327.341 14.833 318.816 14.833 318.816L15.9028 330.798Z" fill="#2F4171"/>
<path d="M15.8848 318.105H20.7993C21.4206 318.105 21.9291 318.613 21.9291 319.235V329.669C21.9291 330.29 21.4208 330.798 20.7993 330.798H15.885C15.2637 330.798 14.7551 330.29 14.7551 329.668V319.235C14.7551 318.613 15.2635 318.105 15.8848 318.105Z" fill="#3D5891"/>
<path d="M16.516 318.816H20.4226C20.9529 318.816 21.3866 319.25 21.3866 319.781V329.217C21.3866 329.747 20.9526 330.181 20.4226 330.181H16.516C15.9858 330.181 15.552 329.747 15.552 329.217V319.781C15.552 319.25 15.986 318.816 16.516 318.816Z" fill="white"/>
<path d="M39.1047 329.428H43.4664C44.0774 329.428 44.577 329.783 44.577 330.218C44.577 330.653 44.0772 331.009 43.4664 331.009H39.1047C38.4938 331.009 37.9941 330.653 37.9941 330.218C37.9941 329.783 38.4938 329.428 39.1047 329.428Z" fill="#3D5891"/>
<path d="M220.068 339.637H239.121V358.063H220.068V339.637Z" fill="#EF7C59"/>
<path d="M239.121 339.637V358.191H220.068V354.001L235.07 339.637H239.121Z" fill="#F19A6D"/>
<path d="M238.328 339.637H247.051V358.191H238.328V339.637Z" fill="#F3CE90"/>
<path d="M33.7379 388.696C23.9347 388.696 15.9876 381.011 15.9876 371.53C15.9876 362.05 23.9347 354.364 33.7379 354.364C43.541 354.364 51.488 362.05 51.488 371.53C51.488 381.011 43.541 388.696 33.7379 388.696Z" fill="black"/>
<path d="M33.738 380.194C28.7901 380.194 24.779 376.315 24.779 371.53C24.779 366.745 28.7901 362.866 33.738 362.866C38.6859 362.866 42.6969 366.745 42.6969 371.53C42.6969 376.315 38.6859 380.194 33.738 380.194Z" fill="#737272"/>
<g opacity="0.35">
<path d="M40.487 368.613C40.487 367.349 40.2047 366.149 39.7014 365.066C41.5389 366.653 42.6968 368.96 42.6968 371.53C42.6968 376.315 38.6858 380.194 33.7378 380.194C30.0972 380.194 26.9662 378.093 25.5645 375.077C27.1487 376.445 29.2372 377.277 31.5281 377.277C36.476 377.277 40.487 373.398 40.487 368.613Z" fill="#2F4171"/>
</g>
<path d="M33.738 368.845C35.2717 368.845 36.5153 370.047 36.5153 371.531C36.5153 373.014 35.2717 374.217 33.738 374.217C32.2042 374.217 30.9607 373.014 30.9607 371.531C30.9604 370.047 32.204 368.845 33.738 368.845Z" fill="#99B1DA"/>
<path d="M29.012 375.093C29.6058 375.093 30.0873 375.559 30.0873 376.133C30.0873 376.707 29.6058 377.173 29.012 377.173C28.4183 377.173 27.937 376.707 27.937 376.133C27.9372 375.559 28.4185 375.093 29.012 375.093Z" fill="#99B1DA"/>
<path d="M27.7578 367.372C28.3517 367.372 28.833 367.837 28.833 368.411C28.833 368.986 28.3517 369.451 27.7578 369.451C27.164 369.451 26.6827 368.986 26.6827 368.411C26.6827 367.837 27.164 367.372 27.7578 367.372Z" fill="#99B1DA"/>
<path d="M39.5837 367.372C40.1775 367.372 40.6587 367.837 40.6587 368.411C40.6587 368.986 40.1773 369.451 39.5837 369.451C38.99 369.451 38.5085 368.986 38.5085 368.411C38.5085 367.837 38.99 367.372 39.5837 367.372Z" fill="#99B1DA"/>
<path d="M38.6878 375.093C39.2815 375.093 39.7628 375.559 39.7628 376.133C39.7628 376.707 39.2815 377.173 38.6878 377.173C38.094 377.173 37.6127 376.707 37.6127 376.133C37.6127 375.559 38.094 375.093 38.6878 375.093Z" fill="#99B1DA"/>
<path d="M33.738 363.871C34.3317 363.871 34.8132 364.336 34.8132 364.91C34.8132 365.485 34.3317 365.95 33.738 365.95C33.1442 365.95 32.6628 365.485 32.6628 364.91C32.6628 364.336 33.144 363.871 33.738 363.871Z" fill="#99B1DA"/>
<path d="M176.622 388.696C166.819 388.696 158.872 381.011 158.872 371.53C158.872 362.05 166.819 354.364 176.622 354.364C186.425 354.364 194.372 362.05 194.372 371.53C194.372 381.011 186.425 388.696 176.622 388.696Z" fill="black"/>
<path d="M176.622 380.194C171.674 380.194 167.663 376.315 167.663 371.53C167.663 366.745 171.674 362.866 176.622 362.866C181.57 362.866 185.581 366.745 185.581 371.53C185.581 376.315 181.57 380.194 176.622 380.194Z" fill="#737272"/>
<g opacity="0.35">
<path d="M183.371 368.613C183.371 367.349 183.088 366.149 182.585 365.066C184.422 366.653 185.58 368.96 185.58 371.53C185.58 376.315 181.569 380.194 176.621 380.194C172.981 380.194 169.85 378.093 168.448 375.077C170.032 376.445 172.121 377.277 174.412 377.277C179.36 377.277 183.371 373.398 183.371 368.613Z" fill="#2F4171"/>
</g>
<path d="M176.622 368.845C178.155 368.845 179.399 370.047 179.399 371.531C179.399 373.014 178.155 374.217 176.622 374.217C175.088 374.217 173.844 373.014 173.844 371.531C173.844 370.047 175.088 368.845 176.622 368.845Z" fill="#99B1DA"/>
<path d="M171.896 375.093C172.49 375.093 172.971 375.559 172.971 376.133C172.971 376.707 172.49 377.173 171.896 377.173C171.302 377.173 170.821 376.707 170.821 376.133C170.821 375.559 171.302 375.093 171.896 375.093Z" fill="#99B1DA"/>
<path d="M170.642 367.372C171.235 367.372 171.717 367.837 171.717 368.411C171.717 368.986 171.235 369.451 170.642 369.451C170.048 369.451 169.567 368.986 169.567 368.411C169.567 367.837 170.048 367.372 170.642 367.372Z" fill="#99B1DA"/>
<path d="M182.467 367.372C183.061 367.372 183.542 367.837 183.542 368.411C183.542 368.986 183.061 369.451 182.467 369.451C181.873 369.451 181.392 368.986 181.392 368.411C181.392 367.837 181.873 367.372 182.467 367.372Z" fill="#99B1DA"/>
<path d="M181.572 375.093C182.165 375.093 182.647 375.559 182.647 376.133C182.647 376.707 182.165 377.173 181.572 377.173C180.978 377.173 180.497 376.707 180.497 376.133C180.496 375.559 180.978 375.093 181.572 375.093Z" fill="#99B1DA"/>
<path d="M176.622 363.871C177.215 363.871 177.697 364.336 177.697 364.91C177.697 365.485 177.215 365.95 176.622 365.95C176.028 365.95 175.546 365.485 175.546 364.91C175.547 364.336 176.028 363.871 176.622 363.871Z" fill="#99B1DA"/>
<path d="M214.163 292.31H245.759V316.038H214.163V292.31Z" fill="#EF7C59"/>
<path d="M245.759 292.31V316.038H214.163L239.831 292.31H245.759Z" fill="#F19A6D"/>
<path d="M244.966 292.31H253.688V316.038H244.966V292.31Z" fill="#F3CE90"/>
<path d="M21.9291 321.687H23.5693V327.922H21.9291V321.687Z" fill="#2F4171"/>
<path d="M396.016 445.936C398.487 447.655 399.962 448.878 399.962 448.878C399.962 448.878 398.378 447.796 396.016 445.936Z" fill="#14539A"/>
<path d="M425.168 426.771C425.971 428.184 426.4 429.039 426.4 429.039C426.4 429.039 425.9 428.204 425.168 426.771Z" fill="#14539A"/>
<path d="M360.885 436.126C373.36 431.849 388.868 440.967 396.016 445.936C398.378 447.796 399.962 448.878 399.962 448.878C399.962 448.878 398.488 447.654 396.016 445.936C386.78 438.665 365.638 419.503 380.631 406.583C401.346 388.73 420.258 418.144 425.168 426.771C425.9 428.204 426.4 429.039 426.4 429.039C426.4 429.039 425.971 428.184 425.168 426.771C421.169 418.945 410.253 393.26 436.197 388.214C466.889 382.243 475.69 426.788 475.69 426.788C475.69 426.788 475.69 404.287 494.518 405.664C513.346 407.042 515.642 439.705 515.642 439.705C515.642 439.705 523.908 431.267 542.277 435.514C560.645 439.76 561.415 457.556 552.305 470.414H368.232C368.232 470.415 339.454 443.474 360.885 436.126Z" fill="#3DB078"/>
<path d="M458.475 459.593C460.128 460.909 461.114 461.845 461.114 461.845C461.114 461.845 460.055 461.017 458.475 459.593Z" fill="#C4D7F2"/>
<path d="M477.968 444.918C478.505 446 478.792 446.654 478.792 446.654C478.792 446.654 478.457 446.015 477.968 444.918Z" fill="#C4D7F2"/>
<path d="M434.985 452.081C443.327 448.806 453.696 455.788 458.475 459.593C460.055 461.017 461.114 461.846 461.114 461.846C461.114 461.846 460.128 460.909 458.475 459.593C452.3 454.026 438.163 439.353 448.188 429.46C462.04 415.79 474.684 438.312 477.968 444.919C478.457 446.015 478.792 446.655 478.792 446.655C478.792 446.655 478.505 446 477.968 444.919C475.294 438.926 467.995 419.259 485.342 415.395C505.864 410.823 511.749 444.931 511.749 444.931C511.749 444.931 511.749 427.702 524.338 428.756C536.927 429.811 538.463 454.822 538.463 454.822C538.463 454.822 543.99 448.361 556.272 451.612C568.554 454.864 569.069 468.49 562.977 478.336H439.898C439.898 478.336 420.656 457.707 434.985 452.081Z" fill="#C4D7F2"/>
<path d="M506.722 25.6494H697.391C702.78 25.6494 707.149 30.0182 707.149 35.4075V485.703H496.963V35.4075C496.964 30.0182 501.332 25.6494 506.722 25.6494Z" fill="#9E9E9E"/>
<path d="M512.093 36.0977H692.021C694.956 36.0977 697.336 38.4772 697.336 41.4131V485.703H506.778V41.4131C506.778 38.4774 509.158 36.0977 512.093 36.0977Z" fill="#E4E3E3"/>
<path d="M613.194 80.3086H697.336V272.716H613.194V80.3086Z" fill="white"/>
<path d="M512.093 36.0972H613.194V485.703H506.778V41.4126C506.778 38.477 509.157 36.0972 512.093 36.0972Z" fill="white"/>
<path d="M512.093 35.8892H613.403V485.911H506.569V41.4127C506.57 38.3669 509.048 35.8892 512.093 35.8892ZM506.986 485.495H612.986V36.3058H512.093C509.277 36.3058 506.986 38.5969 506.986 41.4129V485.495Z" fill="black"/>
<path d="M512.093 36.0977H613.194V485.703H506.778V41.4131C506.778 38.4774 509.158 36.0977 512.093 36.0977Z" fill="white"/>
<path d="M697.336 36.0977H725.139V486.839H697.336V36.0977Z" fill="#9E9E9E"/>
<path d="M613.194 75.6064H697.336V80.3083H613.194V75.6064Z" fill="#CBC6C6"/>
<path d="M681.597 71.7441H683.227C684.47 71.7441 685.478 72.7523 685.478 73.996V280.447C685.478 281.691 684.47 282.699 683.227 282.699H681.597C680.354 282.699 679.346 281.691 679.346 280.447V73.996C679.346 72.7525 680.354 71.7441 681.597 71.7441Z" fill="#CBC6C6"/>
<path d="M665.184 71.7441H666.813C668.057 71.7441 669.065 72.7523 669.065 73.996V280.447C669.065 281.691 668.057 282.699 666.813 282.699H665.184C663.94 282.699 662.932 281.691 662.932 280.447V73.996C662.932 72.7525 663.94 71.7441 665.184 71.7441Z" fill="#CBC6C6"/>
<path d="M648.771 71.7441H650.4C651.644 71.7441 652.652 72.7523 652.652 73.996V280.447C652.652 281.691 651.644 282.699 650.4 282.699H648.771C647.527 282.699 646.519 281.691 646.519 280.447V73.996C646.519 72.7525 647.527 71.7441 648.771 71.7441Z" fill="#CBC6C6"/>
<path d="M632.357 71.7441H633.987C635.23 71.7441 636.239 72.7523 636.239 73.996V280.447C636.239 281.691 635.23 282.699 633.987 282.699H632.357C631.114 282.699 630.105 281.691 630.105 280.447V73.996C630.106 72.7525 631.114 71.7441 632.357 71.7441Z" fill="#CBC6C6"/>
<path d="M628.994 406.042H697.336V420.761H628.994C628.199 420.761 627.555 420.117 627.555 419.322V407.48C627.555 406.686 628.2 406.042 628.994 406.042Z" fill="white"/>
<path d="M633.279 420.761H697.336V486.07H633.279V420.761Z" fill="#F19A6D"/>
<path d="M663.945 425.94H679.754C682.238 425.94 684.252 427.954 684.252 430.438C684.252 432.921 682.238 434.935 679.754 434.935H663.945C661.461 434.935 659.447 432.921 659.447 430.438C659.447 427.954 661.461 425.94 663.945 425.94Z" fill="white"/>
<path d="M637.641 348.2H697.336V406.042H637.641V348.2Z" fill="#EF7C59"/>
<path d="M648.271 354.797H665.308V366.79H648.271V354.797Z" fill="white"/>
<path d="M648.271 383.963H673.894V389.414H648.271V383.963Z" fill="white"/>
<path d="M648.271 392.685H673.894V398.137H648.271V392.685Z" fill="white"/>
<path d="M654.857 325.018H665.494H668.29H678.927C680.764 325.018 682.126 326.724 681.718 328.515L677.235 348.2H668.289H665.494H656.549L652.066 328.515C651.658 326.724 653.02 325.018 654.857 325.018Z" fill="black"/>
<path d="M659.924 296.396C669.635 300.996 665.022 312.22 665.022 312.22C663.373 316.188 654.404 318.169 650.52 311.422C646.636 304.676 650.214 291.796 659.924 296.396Z" fill="#3DB078"/>
<path d="M675.257 301.61C686.603 299.463 687.523 309.48 683.843 315.204C680.163 320.929 670.745 319.053 669.065 315.851C669.065 315.851 663.911 303.756 675.257 301.61Z" fill="#3DB078"/>
<path d="M655.509 303.187C655.969 303.419 666.309 308.729 667.952 316.763C668.54 315.824 669.241 314.935 670.077 314.185C674.192 310.491 677.692 311.599 677.839 311.648C678.053 311.719 678.169 311.951 678.098 312.165C678.026 312.379 677.797 312.495 677.581 312.423C677.453 312.382 674.366 311.434 670.623 314.793C666.799 318.224 665.908 325 665.9 325.068C665.874 325.275 665.698 325.426 665.495 325.426C665.478 325.426 665.461 325.425 665.444 325.423C665.22 325.395 665.061 325.19 665.089 324.966C665.115 324.76 665.578 321.229 667.304 317.899C666.452 309.723 655.253 303.974 655.14 303.916C654.938 303.814 654.857 303.568 654.959 303.367C655.061 303.166 655.307 303.085 655.509 303.187Z" fill="#255144"/>
<path d="M602.964 36.0977H613.194V485.703H602.964V36.0977Z" fill="#9E9E9E"/>
<mask id="mask0_171_231" style="mask-type:luminance" maskUnits="userSpaceOnUse" x="395" y="36" width="208" height="464">
<path d="M395.874 36.0977H602.964V500H395.874V36.0977Z" fill="white"/>
</mask>
<g mask="url(#mask0_171_231)">
<path opacity="0.2" d="M520.298 495.771C463.441 495.771 417.349 492.451 417.349 488.355C417.349 484.26 463.441 480.939 520.298 480.939C577.155 480.939 623.247 484.26 623.247 488.355C623.247 492.451 577.155 495.771 520.298 495.771Z" fill="#7A8DB0"/>
</g>
<mask id="mask1_171_231" style="mask-type:luminance" maskUnits="userSpaceOnUse" x="399" y="80" width="204" height="407">
<path d="M399.991 80.3081H602.964V486.839H399.991V80.3081Z" fill="white"/>
</mask>
<g mask="url(#mask1_171_231)">
<path d="M405.363 115.177C407.011 115.104 412.244 121.422 412.995 122.329L413.579 121.38C411.119 118.836 405.666 111.413 407.355 111.329C409.002 111.256 414.048 117.241 415.247 118.7L415.539 118.221C413.172 115.52 409.503 110.412 410.858 110.412C412.422 110.412 416.488 115.155 417.041 115.812L417.072 115.771C417.072 115.771 420.137 118.44 422.295 121.046C422.775 117.606 423.546 113.967 424.266 113.915C425.381 113.842 425.527 114.134 425.454 117.773C425.407 120.286 425.169 124.162 425.025 126.333C428.963 130.4 437.703 138.089 442.851 143.195C449.303 149.6 458.43 159.17 460.634 160.367C461.793 160.998 468.358 158.935 474.33 156.844C479.708 154.95 484.607 153.038 484.607 153.038L488.082 170.492C488.082 170.492 475.705 173.685 467.115 175.786C463.065 176.784 459.853 177.528 459.184 177.585C457.093 177.745 445.875 171.434 440.044 163.352C434.911 156.26 422.977 140.207 418.719 134.329C417.26 133.505 415.779 132.463 414.434 131.441C413.1 130.43 411.911 129.439 411.067 128.71C410.994 128.678 410.9 128.626 410.806 128.553C410.556 128.376 410.191 128.011 409.763 127.542H409.753C407.981 125.592 405.103 121.724 405.103 120.64C405.103 120.463 405.176 120.358 405.353 120.348C406.49 120.286 409.669 123.799 411.077 125.415L411.421 124.852C409.179 122.631 403.726 115.25 405.363 115.177Z" fill="#F5B0A6"/>
<path d="M491.895 102.914C491.895 102.914 496.171 92.0027 503.348 86.5552C510.526 81.1075 527.004 84.3923 527.004 84.3923C527.004 84.3923 537.458 81.4475 543.2 89.8398C548.942 98.2321 539.912 114.477 550.316 116.244C560.72 118.01 569.751 119.777 570.732 133.715C571.714 147.653 563.272 147.064 573.481 153.15C583.689 159.236 595.271 173.762 579.762 187.112C564.254 200.461 539.322 201.05 532.452 194.964C525.581 188.879 540.587 170.818 524.839 173.37C509.091 175.922 514.587 164.929 517.925 156.88C521.262 148.831 530.075 124.865 520.084 124.489C514.46 124.277 513.982 155.037 510.369 153.738C486.288 145.08 500.021 119.046 497.983 117.166C491.189 110.9 491.895 102.914 491.895 102.914Z" fill="black"/>
<path d="M491.687 102.895L491.701 102.838C491.744 102.728 496.08 91.8099 503.222 86.3897C510.27 81.0401 525.829 83.9503 526.997 84.179C527.794 83.9743 537.815 81.6018 543.372 89.7226C545.91 93.432 545.615 98.5115 545.331 103.424C544.969 109.674 544.656 115.072 550.351 116.039C555.03 116.833 560.334 117.734 564.171 120.241C568.334 122.961 570.485 127.238 570.94 133.701C571.346 139.471 570.171 142.712 569.313 145.079C568.122 148.366 567.72 149.474 573.587 152.972C579.545 156.524 586.754 163.566 587.462 171.723C587.946 177.303 585.401 182.533 579.898 187.27C570.415 195.433 558.908 197.831 552.892 198.534C550.863 198.771 548.88 198.886 546.985 198.886C540.497 198.885 535.041 197.537 532.313 195.121C529.316 192.466 530.364 187.563 531.289 183.236C532.065 179.607 532.797 176.179 531.191 174.491C530.116 173.36 528.049 173.062 524.872 173.576C519.729 174.41 516.493 173.879 514.978 171.953C512.619 168.953 515.03 163.226 517.157 158.173C517.353 157.708 517.546 157.25 517.732 156.801C519.378 152.831 527.387 132.714 523.403 126.498C522.673 125.359 521.553 124.753 520.076 124.697C520.059 124.697 520.043 124.697 520.026 124.697C517.155 124.697 515.579 134.14 514.311 141.735C513.299 147.803 512.424 153.043 511.025 153.863C510.791 154 510.547 154.024 510.298 153.935C502.279 151.052 497.512 145.872 496.129 138.54C494.976 132.426 496.374 126.098 497.298 121.91C497.799 119.641 498.232 117.68 497.841 117.32C491.05 111.057 491.68 102.976 491.687 102.895ZM497.705 122C496.788 126.154 495.402 132.432 496.539 138.462C497.892 145.639 502.569 150.713 510.439 153.542C510.57 153.59 510.689 153.577 510.815 153.503C512.045 152.782 512.989 147.131 513.901 141.667C515.337 133.059 516.829 124.163 520.092 124.281C521.713 124.342 522.945 125.012 523.754 126.273C525.413 128.861 525.298 133.938 523.413 141.362C521.744 147.938 519.153 154.461 518.117 156.96C517.93 157.41 517.737 157.869 517.541 158.335C515.459 163.282 513.098 168.888 515.306 171.695C516.699 173.466 519.895 173.96 524.806 173.165C528.128 172.626 530.316 172.966 531.493 174.203C533.251 176.051 532.496 179.584 531.696 183.323C530.751 187.744 529.774 192.315 532.59 194.809C536.03 197.856 543.98 199.155 552.844 198.12C558.812 197.422 570.228 195.044 579.626 186.954C585.022 182.31 587.519 177.198 587.047 171.759C586.353 163.759 579.247 156.831 573.374 153.33C567.211 149.656 567.712 148.274 568.921 144.937C569.767 142.605 570.924 139.412 570.524 133.73C569.538 119.72 560.184 118.131 550.281 116.45C544.218 115.42 544.556 109.582 544.915 103.4C545.195 98.5576 545.485 93.5503 543.028 89.958C539.71 85.109 534.741 84.1163 531.228 84.1163C528.824 84.1163 527.102 84.5815 527.06 84.5934L527.012 84.6068L526.963 84.597C526.799 84.5645 510.494 81.3936 503.474 86.7218C496.606 91.9343 492.352 102.335 492.1 102.961C492.065 103.493 491.692 111.081 498.124 117.013C498.691 117.536 498.32 119.216 497.705 122Z" fill="black"/>
<path d="M526.304 108.391C526.304 108.391 538.259 108.869 538.3 116.433C538.341 123.998 534.024 127.967 543.25 132.019C552.476 136.071 558.961 138.721 555.718 145.789C552.476 152.856 551.298 161.984 561.015 166.401C570.733 170.818 553.984 193.492 543.659 189.369C533.335 185.247 539.377 172.29 533.411 169.051C527.446 165.812 514.882 167.579 514.882 167.579C514.882 167.579 510.438 104.858 526.304 108.391Z" fill="black"/>
<path d="M521.481 109.431C522.9 108.208 524.532 107.79 526.331 108.184C526.595 108.197 529.492 108.361 532.356 109.379C536.363 110.805 538.491 113.244 538.508 116.432C538.519 118.481 538.213 120.272 537.943 121.853C537.214 126.115 536.733 128.93 543.334 131.829L543.95 132.099C550.18 134.832 555.1 136.991 556.421 140.462C557.022 142.041 556.854 143.812 555.907 145.876C554.229 149.533 552.592 154.866 554.322 159.505C555.403 162.402 557.684 164.658 561.101 166.212C564.363 167.694 565.05 171.318 562.986 176.155C561.359 179.971 558.159 184.013 554.637 186.703C551.725 188.928 548.868 190.076 546.338 190.076C545.366 190.076 544.442 189.907 543.582 189.563C537.579 187.166 537.003 181.852 536.495 177.164C536.111 173.628 535.78 170.575 533.312 169.234C530.905 167.927 526.963 167.257 521.916 167.309C518.087 167.345 514.942 167.781 514.911 167.785L514.69 167.816L514.674 167.593C514.665 167.47 513.807 155.134 514.209 141.879C514.75 124.04 517.196 113.122 521.481 109.431ZM515.075 167.343C516.839 167.114 527.918 165.832 533.511 168.868C536.171 170.313 536.53 173.619 536.909 177.119C537.405 181.69 537.967 186.872 543.736 189.176C546.692 190.356 550.473 189.36 554.385 186.372C557.853 183.722 561.002 179.745 562.603 175.991C564.565 171.393 563.955 167.966 560.929 166.591C557.407 164.99 555.053 162.655 553.932 159.65C552.152 154.877 553.818 149.43 555.529 145.701C556.426 143.745 556.591 142.079 556.032 140.61C554.773 137.302 549.923 135.174 543.783 132.48L543.166 132.21C536.268 129.18 536.798 126.077 537.532 121.782C537.8 120.219 538.103 118.446 538.092 116.434C538.052 109.156 526.413 108.604 526.296 108.599L526.259 108.595C525.849 108.503 525.448 108.458 525.058 108.458C523.856 108.458 522.749 108.889 521.753 109.746C512.076 118.084 514.84 163.745 515.075 167.343Z" fill="black"/>
<path d="M600.288 391.569C607.214 401.772 610.649 407.615 616.167 416.249C625.298 430.524 628.568 437.212 633.081 440.427C633.829 440.964 634.613 441.471 635.458 441.999C641.396 445.692 646.204 449.252 644.941 453.228C643.678 457.204 617.541 476.763 613.441 479.538C609.342 482.313 603.762 486.974 601.825 485.021C599.889 483.069 599.752 479.612 601.073 477.535C601.93 476.183 606.765 468.114 610.33 461.085C612.244 457.318 613.792 453.851 614.169 451.874C615.251 446.219 606.909 434.036 600.743 425.555C597.577 421.202 588.016 413.364 581.156 404.961C574.644 396.989 570.742 388.328 570.742 388.328L583.619 370.49C583.619 370.49 593.857 382.107 600.288 391.569Z" fill="#F5B0A6"/>
<path d="M595.105 387.284C593.641 390.552 591.598 393.739 588.78 396.599C586.537 398.881 584.596 401.073 582.905 403.116C576.393 395.144 570.742 388.328 570.742 388.328L583.62 370.49C583.619 370.49 588.674 377.822 595.105 387.284Z" fill="#949494"/>
<path d="M583.791 370.372C583.842 370.445 588.92 377.813 595.277 387.167L595.343 387.264L595.295 387.37C593.707 390.915 591.565 394.069 588.928 396.745C586.888 398.821 584.97 400.949 583.065 403.249L582.903 403.444L582.743 403.248C576.306 395.368 570.638 388.53 570.582 388.461L570.479 388.337L583.623 370.129L583.791 370.372ZM571.005 388.32C571.795 389.273 577.01 395.572 582.906 402.788C584.765 400.553 586.64 398.479 588.631 396.453C591.207 393.839 593.304 390.762 594.867 387.306C589.187 378.948 584.541 372.196 583.615 370.852L571.005 388.32Z" fill="black"/>
<path d="M610.33 461.085C614.738 460.604 619.27 464.932 625.512 457.772C630.59 451.946 627.297 444.096 633.081 440.427C633.829 440.964 634.613 441.471 635.458 441.999C641.396 445.692 646.204 449.252 644.941 453.228C643.678 457.204 617.541 476.763 613.441 479.538C609.342 482.313 603.762 486.974 601.825 485.021C599.889 483.069 599.752 479.612 601.073 477.535C601.93 476.183 606.765 468.114 610.33 461.085Z" fill="#2F4171"/>
<path d="M429.815 475.377C431.569 474.848 441.79 471.497 450.121 468.13C454.59 466.327 458.513 464.519 460.304 463.138C465.431 459.188 467.049 443.269 467.859 431.937C468.274 426.12 468.517 412.645 468.658 400.898C468.787 389.749 468.825 380.16 468.825 380.16L493.351 374.272C493.351 374.272 492.406 383.878 491.106 396.208C489.698 409.499 487.879 425.963 486.384 436.972C483.918 455.179 483.832 460.947 485.445 466.754C485.71 467.72 486.028 468.686 486.384 469.711C488.904 476.904 490.523 483.201 486.476 485.63C482.429 488.058 444.925 486.169 439.259 485.63C433.592 485.09 425.228 485.09 424.958 482.122C424.689 479.154 427.117 476.186 429.815 475.377Z" fill="#F5B0A6"/>
<path d="M493.351 374.272C493.351 374.272 492.407 383.878 491.106 396.208C487.404 397.908 483.249 399.138 478.652 399.559C474.987 399.899 471.658 400.374 468.658 400.897C468.787 389.749 468.825 380.16 468.825 380.16L493.351 374.272Z" fill="#949494"/>
<path d="M468.616 380.159L468.617 379.995L493.587 374.001L493.558 374.293C493.549 374.389 492.599 384.04 491.313 396.23L491.301 396.348L491.193 396.398C487.181 398.24 482.968 399.373 478.67 399.767C475.339 400.076 472.076 400.513 468.693 401.103L468.446 401.146L468.449 400.895C468.577 389.875 468.616 380.255 468.616 380.159ZM478.633 399.352C482.844 398.966 486.975 397.862 490.911 396.068C492.066 385.117 492.947 376.238 493.115 374.543L469.033 380.324C469.027 381.628 468.985 390.519 468.869 400.65C472.175 400.079 475.371 399.654 478.633 399.352Z" fill="black"/>
<path d="M497.943 229.951C497.943 229.951 521.821 232.169 530.725 231.899C533.391 231.818 535.916 231.424 538.226 231.025C538.776 230.933 539.31 230.836 539.834 230.744C544.475 229.929 548.069 229.384 549.882 231.921C551.431 234.085 554.641 239.977 557.339 249.054C557.496 249.577 557.647 250.111 557.798 250.656C559.908 258.217 561.597 267.795 561.754 279.116C562.115 305.38 555.996 335.237 559.234 342.074C562.471 348.906 581.542 357.54 591.255 373.729C600.968 389.918 609.602 400.71 608.523 404.671C608.243 405.696 607.33 407.137 606.084 408.692C605.884 408.94 605.679 409.188 605.463 409.436C601.821 413.71 596.036 418.486 593.77 417.978C590.532 417.261 535.49 374.452 530.094 369.056C524.697 363.659 518.583 312.573 518.583 312.573C518.583 312.573 497.36 345.312 496.281 348.906C495.201 352.505 497.36 365.456 496.281 387.403C495.201 409.344 494.478 418.701 491.602 419.781C488.726 420.86 468.22 419.419 467.497 416.899C467.259 416.068 466.785 407.801 466.266 396.89C465.419 379.109 464.442 354.292 464.162 343.154C464.156 343.11 464.156 343.067 464.156 343.019L464.146 342.565C464.081 340.175 464.059 338.497 464.081 337.757C464.259 331.638 492.698 229.492 497.943 229.951Z" fill="black"/>
<g opacity="0.36">
<path d="M489.083 328.762C496.637 320.489 516.787 275.517 518.584 271.561C520.381 267.606 518.584 312.573 518.584 312.573C518.584 312.573 497.36 345.312 496.281 348.906C495.202 352.505 497.36 365.456 496.281 387.403C495.202 409.344 494.479 418.701 491.602 419.781C488.726 420.86 468.22 419.419 467.497 416.899C467.26 416.068 466.785 407.801 466.267 396.89C471.566 397.807 478.759 398.913 482.699 398.913C489.444 398.913 485.488 371.932 485.488 357.184C485.488 342.571 464.567 343.143 464.162 343.154C464.157 343.154 464.157 343.154 464.157 343.154V343.019L464.146 342.565L464.081 337.757C464.081 337.758 481.528 337.034 489.083 328.762Z" fill="black"/>
</g>
<path d="M429.815 475.377C431.569 474.848 441.79 471.497 450.121 468.13C454.368 470.79 455.177 477.535 465.97 475.916C474.75 474.6 477.631 465.788 485.445 466.753C485.71 467.72 486.028 468.685 486.384 469.711C488.904 476.904 490.523 483.201 486.476 485.63C482.429 488.058 444.925 486.169 439.259 485.63C433.592 485.09 425.228 485.09 424.958 482.122C424.689 479.154 427.117 476.186 429.815 475.377Z" fill="black"/>
<path d="M608.327 397.003C610.663 396.535 614.843 402.933 615.533 404.005C616.224 405.077 594.475 419.253 594.475 419.253C593.277 420.038 585.712 415.428 585.437 412.248C585.162 409.068 605.991 397.472 608.327 397.003Z" fill="black"/>
<path d="M496.83 411.79C499.337 412.767 498.644 420.422 498.519 421.699C498.393 422.976 468.012 421.886 468.012 421.886C466.335 421.83 462.599 413.663 464.62 410.908C466.641 408.153 494.322 410.813 496.83 411.79Z" fill="black"/>
<path d="M505.183 98.6706C506.511 97.4272 506.511 97.4272 506.511 97.4272C506.511 97.4272 506.307 99.7595 513.984 103.979C521.661 108.199 525.18 106.941 526.131 107.233C527.082 107.515 527.459 112.611 528.571 113.798C528.938 114.193 529.277 114.325 529.56 114.325C530.078 114.325 530.407 113.873 530.445 113.807C531.293 112.018 533.054 111.415 534.957 113.205C537.49 115.606 537.076 118.263 536.624 119.318C535.512 121.851 532.075 122.303 532.075 122.303L532.263 141.057C532.263 141.057 525.735 151.889 515.704 152.765C505.899 153.632 508.583 141.651 508.715 141.076C508.724 141.067 508.715 141.067 508.715 141.067C508.724 141.057 508.724 141.057 508.724 141.057C508.724 141.057 510.919 140.511 513.274 139.89V136.291C511.173 136.159 508.649 135.547 505.945 133.889C502.988 132.09 502.159 128.727 501.311 124.385C501.085 123.198 500.906 121.964 500.765 120.712C499.842 112.602 500.558 103.804 500.558 103.804C500.558 103.804 503.845 99.9233 505.183 98.6706Z" fill="#F5B0A6"/>
<path d="M475.757 154.771C475.86 154.724 490.065 145.475 495.368 143.534C498.561 142.367 508.545 141.123 508.724 141.057L501.17 146.454L501.283 172.084C501.283 172.084 499.946 172.668 497.958 173.535C492.391 175.965 481.757 180.58 481.559 180.58C480.758 179.94 479.327 175.315 478.065 170.163C476.322 163.164 474.89 155.167 475.757 154.771Z" fill="#C4D7F2"/>
<g opacity="0.39">
<path d="M497.958 173.535C492.391 175.965 481.757 180.581 481.559 180.581C480.759 179.94 479.327 175.315 478.065 170.163L495.575 158.379L497.958 173.535Z" fill="#96B5DB"/>
</g>
<path d="M492.759 221.79C492.759 221.79 493.399 212.87 492.759 204.939C492.26 198.628 488.793 187.692 487.399 182.784C487.041 181.522 486.815 180.656 486.815 180.373C486.815 178.989 494.002 152.746 494.718 151.55C495.424 150.373 508.31 141.349 508.715 141.067C508.659 141.349 505.786 153.641 515.704 152.765C525.736 151.889 532.263 141.057 532.263 141.057C532.263 141.057 549.934 146.473 551.205 148.263C552.477 150.062 549.331 153.349 547.833 165.349C547.588 167.318 547.296 169.465 546.976 171.698C545.356 183.114 543.133 197.017 544.037 202.716C545.111 209.526 557.94 237.284 558.298 246.845C558.326 247.626 554.982 247.777 549.811 247.645C541.418 247.429 528.203 246.487 516.843 246.402C512.284 246.364 501.537 248.135 494.67 249.011C491.948 249.36 485.656 250.415 486.353 247.768L492.759 221.79Z" fill="#C4D7F2"/>
<g opacity="0.26">
<path d="M515.168 182.243C526.713 178.906 539.776 168.089 539.776 168.089L546.976 171.698C545.356 183.114 543.133 197.017 544.037 202.716C545.111 209.526 557.94 237.285 558.298 246.845C558.326 247.627 554.982 247.777 549.811 247.646C539.167 233.3 525.858 215.403 501.264 228.082C507.811 224.474 520.235 214.659 521.874 211.692C525.067 205.928 515.704 203.479 515.704 203.479C515.704 203.479 504.077 201.226 502.811 201.491C493.822 203.376 496.988 207.802 496.621 211.607C496.244 215.413 492.759 221.79 492.759 221.79C492.759 221.79 493.399 212.87 492.759 204.938C492.259 198.628 488.793 187.692 487.399 182.784C492.101 185.242 499.019 186.911 515.168 182.243Z" fill="#14539A"/>
</g>
<path d="M496.732 220.885C500.317 220.277 509.955 218.362 518.477 214.338C527.005 210.309 536.841 208.23 537.54 206.641C537.972 205.661 537.496 194.322 537.067 185.753C536.798 180.403 536.549 176.131 536.549 176.131C538.224 165.65 560.854 176.221 560.854 176.221C560.854 176.221 560.528 185.319 560.202 193.603C559.963 199.845 559.721 205.624 559.624 206.715C559.397 209.262 557.921 219.58 555.259 220.268C552.603 220.951 552.457 222.587 540.775 224.513C529.093 226.433 510.501 228.854 508.413 229.41C506.32 229.961 505.723 232.476 503.185 233.906C500.646 235.336 500.946 236.093 500.134 238.953C499.322 241.818 498.215 245.934 498.215 245.934C498.215 245.934 497.48 245.87 496.375 245.775C496.054 245.747 495.81 245.489 495.635 245.144C495.209 244.299 495.142 242.919 495.142 242.919C495.142 242.919 495.142 242.919 494.86 242.895L492.932 242.728C492.302 242.674 491.889 242.369 491.625 241.961C491.31 241.488 491.198 240.879 491.16 240.359C491.155 240.354 491.156 240.348 491.162 240.337C491.126 239.746 491.195 239.279 491.195 239.279C491.195 239.279 491.195 239.279 489.774 238.607C489.245 238.357 488.938 237.924 488.756 237.474C488.455 236.722 488.525 235.937 488.525 235.937C488.525 235.937 488.157 236.07 487.668 236.182C486.799 236.376 485.557 236.505 485.392 235.666C485.141 234.358 489.29 223.172 490.143 221.964C490.992 220.757 493.153 221.493 496.732 220.885Z" fill="#F5B0A6"/>
<path d="M495.625 231.751C495.564 231.812 495.472 231.898 495.368 232.01C495.473 231.892 495.559 231.806 495.625 231.751Z" fill="#757575"/>
<path d="M495.492 231.591L495.771 231.899L495.72 231.95C495.665 232.003 495.596 232.07 495.52 232.152L495.213 231.871C495.326 231.745 495.417 231.653 495.492 231.591Z" fill="black"/>
<path d="M492.188 227.639C492.188 227.639 492.188 227.639 489.869 233.348C489.32 234.702 488.971 236.113 488.755 237.474C488.455 236.722 488.525 235.937 488.525 235.937C488.525 235.937 488.156 236.07 487.668 236.181C489.197 231.701 492.188 227.639 492.188 227.639Z" fill="#F18A8B"/>
<path d="M491.195 239.279C491.307 236.337 494.261 233.118 495.338 232.034C494.438 233.006 492.227 235.949 491.625 241.96C491.31 241.488 491.197 240.879 491.16 240.359C491.155 240.353 491.156 240.348 491.162 240.337C491.168 239.959 491.183 239.602 491.195 239.279Z" fill="#F18A8B"/>
<path d="M497.526 234.846C497.439 235.141 495.858 240.32 495.634 245.145C495.208 244.299 495.142 242.919 495.142 242.919C495.142 242.919 495.142 242.919 494.86 242.895C494.919 242.356 495.019 241.798 495.153 241.227C496.225 236.707 497.425 234.98 497.526 234.846Z" fill="#F18A8B"/>
<path d="M549.764 147.304C549.764 147.304 557.562 146.915 562.052 157.18C565.596 165.286 567.768 186.215 564.51 193.426C564.071 194.401 563.631 195.203 563.212 195.783C562.802 196.349 562.411 196.707 562.052 196.821C558.576 197.928 536.28 197.664 535.307 191.119C535.304 191.107 534.697 185.646 534.695 185.635C534.584 184.848 534.644 183.642 534.841 182.132C536.292 171.023 545.229 143.541 549.764 147.304Z" fill="#C4D7F2"/>
<path d="M516.12 114.914C516.981 114.914 517.678 115.908 517.678 117.135C517.678 118.362 516.981 119.356 516.12 119.356C515.26 119.356 514.562 118.362 514.562 117.135C514.562 115.908 515.26 114.914 516.12 114.914Z" fill="#202020"/>
<path d="M515.716 115.676C516.169 115.676 516.536 116.177 516.536 116.794C516.536 117.412 516.169 117.913 515.716 117.913C515.263 117.913 514.896 117.412 514.896 116.794C514.896 116.177 515.263 115.676 515.716 115.676Z" fill="white"/>
<path d="M503.929 114.914C504.789 114.914 505.487 115.908 505.487 117.135C505.487 118.362 504.789 119.356 503.929 119.356C503.068 119.356 502.371 118.362 502.371 117.135C502.371 115.908 503.068 114.914 503.929 114.914Z" fill="#202020"/>
<path d="M503.524 115.676C503.977 115.676 504.345 116.177 504.345 116.794C504.345 117.412 503.977 117.913 503.524 117.913C503.071 117.913 502.704 117.412 502.704 116.794C502.704 116.177 503.071 115.676 503.524 115.676Z" fill="white"/>
<path d="M515.327 112.233C515.353 112.222 518.008 111.245 519.698 113.921C519.76 114.018 519.731 114.147 519.633 114.208C519.599 114.23 519.56 114.241 519.522 114.241C519.453 114.241 519.386 114.206 519.346 114.143C517.843 111.763 515.575 112.585 515.476 112.622C515.368 112.663 515.248 112.609 515.207 112.502C515.166 112.395 515.219 112.274 515.327 112.233Z" fill="black"/>
<path d="M509.127 118.245C509.213 118.321 509.221 118.453 509.145 118.539C508.776 118.956 507.855 120.204 508.012 120.964C508.196 121.861 509.228 122.228 509.238 122.232C509.346 122.269 509.404 122.388 509.367 122.496C509.338 122.583 509.257 122.637 509.17 122.637C509.148 122.637 509.125 122.634 509.103 122.626C509.051 122.608 507.837 122.181 507.603 121.048C507.373 119.929 508.773 118.33 508.833 118.263C508.909 118.177 509.04 118.169 509.127 118.245Z" fill="black"/>
<path d="M505.948 111.513C506.052 111.562 506.097 111.685 506.048 111.79C505.999 111.894 505.875 111.939 505.771 111.89C505.75 111.88 503.643 110.914 502.01 112.202C501.971 112.232 501.926 112.247 501.881 112.247C501.819 112.247 501.758 112.219 501.717 112.167C501.646 112.077 501.661 111.946 501.752 111.875C503.585 110.429 505.852 111.468 505.948 111.513Z" fill="black"/>
<path d="M508.209 126.1C509.595 126.029 510.981 125.958 512.367 125.888L513.075 126.363C513.025 127.438 512.541 128.502 511.705 129.18C510.869 129.857 509.682 130.107 508.669 129.744C507.656 129.382 506.88 128.385 506.857 127.309C506.85 126.991 506.915 126.65 507.14 126.425C507.409 126.155 507.828 126.119 508.209 126.1Z" fill="white"/>
<path d="M518.763 120.481C520.638 120.481 522.159 121.287 522.159 122.282C522.159 123.276 520.638 124.082 518.763 124.082C516.887 124.082 515.367 123.276 515.367 122.282C515.367 121.287 516.887 120.481 518.763 120.481Z" fill="#F18A8B"/>
<path d="M504.312 122.659C504.312 123.587 502.988 124.341 501.297 124.442C501.076 123.284 500.901 122.08 500.764 120.857H500.911C502.786 120.858 504.312 121.657 504.312 122.659Z" fill="#F18A8B"/>
<path d="M533.827 114.09C534.068 114.006 534.34 114.135 534.427 114.38C534.512 114.626 534.381 114.895 534.136 114.98C531.112 116.033 532.199 119.768 532.246 119.926C532.321 120.175 532.181 120.438 531.932 120.513C531.887 120.527 531.841 120.533 531.796 120.533C531.593 120.533 531.406 120.403 531.345 120.2C530.846 118.56 530.722 115.172 533.827 114.09Z" fill="#F18A8B"/>
<path d="M535.083 117.283C535.254 117.476 535.236 117.768 535.046 117.942C534.856 118.114 534.558 118.101 534.383 117.912C534.288 117.81 533.399 116.947 531.824 118.325C531.735 118.403 531.625 118.441 531.514 118.441C531.384 118.441 531.253 118.387 531.16 118.28C530.988 118.085 531.009 117.787 531.204 117.616C533.524 115.584 535.069 117.265 535.083 117.283Z" fill="#F18A8B"/>
<path d="M519.084 135.439C521.247 134.659 524.599 131.757 524.707 131.589C524.605 131.88 522.407 138.292 513.327 139.924L513.269 136.373C513.269 136.373 516.205 136.476 519.084 135.439Z" fill="#F18A8B"/>
</g>
<g opacity="0.4">
<path d="M377.174 25.8389H458.212C464.672 25.8389 469.958 31.1243 469.958 37.5841V73.137C469.958 79.0705 465.103 83.9251 459.169 83.9251H457.087L460.992 100.416L436.48 83.9251H376.475C370.021 83.9251 364.74 78.6443 364.74 72.1897V38.2735C364.74 31.4345 370.335 25.8389 377.174 25.8389Z" fill="#EDEDED"/>
</g>
<path d="M380.762 23.1162H461.8C468.26 23.1162 473.545 28.4016 473.545 34.8616V70.4145C473.545 76.3481 468.69 81.2026 462.757 81.2026H460.675L464.58 97.6935L440.067 81.2026H380.062C373.608 81.2026 368.327 75.9218 368.327 69.4672V35.551C368.327 28.712 373.922 23.1162 380.762 23.1162Z" fill="#FFCE31"/>
<path d="M378.587 44.7378H463.085C464.236 44.7378 465.177 45.6795 465.177 46.8305C465.177 47.9811 464.236 48.923 463.085 48.923H378.587C377.437 48.923 376.495 47.9811 376.495 46.8305C376.495 45.6797 377.437 44.7378 378.587 44.7378Z" fill="white"/>
<path d="M378.587 54.104H463.085C464.236 54.104 465.177 55.0459 465.177 56.1965C465.177 57.3475 464.236 58.2892 463.085 58.2892H378.587C377.437 58.2892 376.495 57.3475 376.495 56.1965C376.495 55.0457 377.437 54.104 378.587 54.104Z" fill="white"/>
<path d="M378.587 63.4707H463.085C464.236 63.4707 465.177 64.4122 465.177 65.5632C465.177 66.7138 464.236 67.6557 463.085 67.6557H378.587C377.437 67.6557 376.495 66.714 376.495 65.5632C376.495 64.4122 377.437 63.4707 378.587 63.4707Z" fill="white"/>
<path d="M424.623 31.8838H460.494C461.864 31.8838 462.985 33.0046 462.985 34.3748C462.985 35.745 461.864 36.8657 460.494 36.8657H424.623C423.253 36.8657 422.132 35.7448 422.132 34.3748C422.132 33.0046 423.253 31.8838 424.623 31.8838Z" fill="white"/>
<path d="M394.317 31.8838H414.858C416.228 31.8838 417.349 33.0046 417.349 34.3746C417.349 35.7446 416.228 36.8657 414.858 36.8657H394.317C392.947 36.8657 391.826 35.7448 391.826 34.3748V34.3746C391.826 33.0046 392.947 31.8838 394.317 31.8838Z" fill="white"/>
<path opacity="0.2" d="M314.778 495.563C267.716 495.563 229.565 489.856 229.565 482.815C229.565 475.774 267.716 470.066 314.778 470.066C361.84 470.066 399.991 475.774 399.991 482.815C399.991 489.856 361.84 495.563 314.778 495.563Z" fill="#7A8DB0"/>
<path d="M235.524 179.864L257.556 179.502C257.657 179.5 257.757 179.502 257.856 179.506C260.421 179.619 262.486 181.712 262.529 184.313L262.908 207.346C262.943 209.495 261.23 211.266 259.081 211.302L235.047 211.697C232.898 211.732 231.127 210.019 231.092 207.87L230.713 184.836C230.668 182.135 232.822 179.909 235.524 179.864Z" fill="#CF7575"/>
<path d="M235.524 179.864L257.556 179.502C260.258 179.457 262.485 181.612 262.529 184.314L262.597 188.41L230.78 188.934L230.713 184.837C230.668 182.135 232.823 179.909 235.524 179.864Z" fill="#DAA2A2"/>
<path d="M253.46 129.708L327.792 128.486C328.13 128.479 328.469 128.485 328.803 128.501C333.79 128.721 338.217 131.158 341.101 134.866C342.056 136.095 342.842 137.463 343.422 138.934C344.13 140.729 344.534 142.677 344.567 144.718L345.766 217.594L345.869 223.808L345.975 230.284C346.023 233.193 343.703 235.592 340.792 235.641L243.991 237.233C241.08 237.28 238.683 234.959 238.635 232.051L237.227 146.482C237.077 137.368 244.344 129.858 253.46 129.708Z" fill="#CF7575"/>
<path d="M344.567 144.719L345.968 229.874C346.02 233.01 343.519 235.595 340.382 235.646L330.568 235.808L328.802 128.5C337.456 128.88 344.423 135.943 344.567 144.719Z" fill="#BDBDBD"/>
<path d="M344.775 144.715L346.176 229.871C346.202 231.443 345.614 232.932 344.52 234.062C343.427 235.192 341.958 235.829 340.386 235.855L330.363 236.02L328.59 128.283L328.812 128.293C337.618 128.679 344.63 135.893 344.775 144.715ZM330.773 235.596L340.379 235.438C341.84 235.414 343.204 234.822 344.221 233.772C345.237 232.722 345.784 231.339 345.76 229.877L344.359 144.722C344.218 136.193 337.497 129.206 329.014 128.72L330.773 235.596Z" fill="black"/>
<path d="M252.45 129.757L254.216 237.064L244.401 237.226C241.265 237.277 238.68 234.777 238.629 231.64L237.228 146.485C237.083 137.709 243.814 130.421 252.45 129.757Z" fill="#DAA2A2"/>
<path d="M253.459 129.707L327.79 128.486C332.806 128.402 337.336 130.566 340.421 134.049C341.879 135.692 343.014 137.631 343.726 139.766C344.245 141.324 344.539 142.988 344.568 144.718L344.795 158.54L237.456 160.307L237.228 146.484C237.078 137.369 244.346 129.858 253.459 129.707Z" fill="#CF7575"/>
<path d="M287.764 82.5813C291.72 74.7351 300.875 75.4038 306.037 72.6911C306.047 72.7193 306.056 72.7288 306.056 72.7288C306.056 72.7288 308.486 72.6441 311.905 72.7101C319.808 72.8703 330.678 70.1857 333.937 78.5972C336.443 85.0588 329.265 84.3334 329.265 84.3334C329.265 84.3334 329.702 85.0836 330.603 85.8218C333.982 88.5924 336.689 92.6759 328.37 93.4984C328.304 93.5268 328.267 93.5361 328.267 93.5361C328.267 93.5361 327.664 94.1672 326.665 95.1938C322.257 99.6963 310.135 111.838 307.149 111.857C305.246 111.875 302.336 113.59 299.387 114.372C298.106 114.72 296.825 114.88 295.61 114.654C293.02 114.164 290.712 106.516 290.712 106.516C290.712 106.516 286.568 99.1124 286.163 91.2945C286.031 88.6476 286.323 85.9536 287.359 83.4765C287.481 83.1653 287.622 82.8638 287.764 82.5813Z" fill="black"/>
<path d="M287.764 82.5811C291.72 74.7349 300.875 75.4037 306.037 72.691C306.046 72.7191 306.056 72.7287 306.056 72.7287C306.056 72.7287 311.416 67.7155 312.401 69.1118C313.387 70.508 311.905 72.7099 311.905 72.7099C309.56 75.4603 305.632 75.4697 300.875 76.5341C294.64 77.928 287.029 82.6378 288.046 91.2282C289.45 103.078 296.363 109.454 299.387 114.371C298.106 114.72 296.825 114.88 295.61 114.654C293.02 114.164 290.712 106.516 290.712 106.516C290.712 106.516 286.567 99.1122 286.162 91.2943C286.144 88.4026 286.483 85.6803 287.359 83.4764C287.481 83.1651 287.622 82.8636 287.764 82.5811Z" fill="black"/>
<path d="M287.578 82.4873C290.352 76.9846 295.647 75.6055 300.319 74.3886C302.399 73.8465 304.364 73.3344 305.94 72.5065L306.051 72.4494C306.887 71.6809 310.446 68.5144 311.983 68.6638C312.239 68.6901 312.437 68.8003 312.572 68.9915C313.628 70.4882 312.142 72.7313 312.078 72.8261L312.064 72.8448C310.21 75.0184 307.36 75.5309 304.059 76.1248C303.053 76.3057 302.013 76.493 300.921 76.7373C297.434 77.5169 294.14 79.1921 291.884 81.3338C289.021 84.0517 287.799 87.3725 288.253 91.2038C289.332 100.315 293.771 106.281 297.012 110.637C297.97 111.925 298.875 113.141 299.564 114.262L299.71 114.499L299.441 114.572C298.473 114.836 297.595 114.967 296.788 114.967C296.364 114.967 295.959 114.931 295.571 114.859C292.931 114.359 290.683 107.135 290.519 106.597C290.278 106.159 286.347 98.8811 285.954 91.2957C285.933 88.1305 286.341 85.474 287.165 83.3998C287.274 83.1215 287.405 82.8319 287.578 82.4873ZM290.894 106.414L290.912 106.455C290.934 106.53 293.212 113.988 295.648 114.449C296.642 114.634 297.761 114.566 299.06 114.241C298.401 113.201 297.562 112.074 296.678 110.885C293.409 106.492 288.932 100.475 287.839 91.2525C287.376 87.3398 288.676 83.8052 291.598 81.0313C293.906 78.8394 297.271 77.1263 300.83 76.3307C301.93 76.0842 302.975 75.8965 303.985 75.7146C307.335 75.1121 309.982 74.6359 311.739 72.5842C311.838 72.4321 313.094 70.4532 312.231 69.2317C312.167 69.1409 312.075 69.0919 311.94 69.0784C310.699 68.9476 307.375 71.7803 306.198 72.8807L306.053 73.0167L305.986 72.9515C304.395 73.7569 302.464 74.26 300.424 74.7915C295.838 75.9861 290.639 77.3403 287.95 82.6742C287.784 83.0069 287.657 83.2859 287.553 83.5521L287.552 83.5528C286.748 85.5769 286.35 88.1809 286.371 91.2832C286.768 98.9607 290.853 106.34 290.894 106.414Z" fill="black"/>
<path d="M299.283 100.656C299.283 100.656 300.441 105.121 302.061 105.997C302.099 106.016 302.127 106.035 302.165 106.054C302.212 106.073 302.268 106.091 302.325 106.11C302.363 106.12 302.41 106.12 302.447 106.129C304.096 106.044 304.331 94.8919 304.331 94.8919C304.331 94.8919 308.363 96.2954 314.052 96.2577C319.741 96.2106 328.266 93.5356 328.266 93.5356C328.266 93.5356 328.303 94.2513 328.313 95.6267C328.313 96.3142 328.313 97.1619 328.294 98.17C328.275 99.1213 328.388 103.577 328.398 107.806C328.398 109.021 328.388 110.217 328.369 111.31C328.341 112.892 328.275 114.258 328.162 115.134C327.343 121.596 319.525 122.302 319.525 122.302L320.486 129.48L328.276 133.436L324.922 145.097C324.922 145.097 319.789 146.067 306.404 146.284C293.019 146.5 297.437 145.652 298.642 142.186C299.858 138.72 299.961 124.836 299.848 121.389C299.745 117.932 299.273 111.705 296.579 111.235C294.008 110.783 290.495 107.316 291.936 101.721C293.499 95.6642 299.283 100.656 299.283 100.656Z" fill="#F5B0A6"/>
<path d="M319.526 122.298L320.483 129.475C320.483 129.475 313.998 129.435 309.317 126.439C304.637 123.443 301.755 118.197 301.755 118.197C301.755 118.197 302.314 118.632 306.347 120.96C310.381 123.287 319.526 122.298 319.526 122.298Z" fill="#F18A8B"/>
<path d="M314.942 114.487C315.115 114.466 316.529 115.066 317.807 114.904C319.085 114.743 320.188 114.305 319.851 115.192C319.851 115.192 318.905 117.018 317.43 117.13C315.955 117.242 314.91 115.709 314.808 115.23C314.706 114.751 314.553 114.532 314.942 114.487Z" fill="white"/>
<path d="M308.719 85.3796C310.349 84.4484 310.233 81.4217 310.233 81.4217C310.233 81.4217 317.567 84.7975 318.556 82.4113C319.546 80.0248 317.683 78.1621 317.683 78.1621C317.683 78.1621 321.641 79.6757 320.477 83.2261C319.313 86.7765 311.571 83.6336 311.571 83.6336C311.571 83.6336 312.153 86.6602 309.069 87.0677C305.984 87.4752 305.402 84.4486 305.402 84.4486C305.402 84.4486 307.09 86.3109 308.719 85.3796Z" fill="black"/>
<path d="M308.616 85.199C310.116 84.3417 310.026 81.459 310.025 81.4298L310.012 81.0909L310.32 81.2328C310.374 81.2573 315.714 83.6955 317.745 82.8998C318.053 82.7794 318.255 82.5934 318.364 82.3315C319.287 80.1063 317.608 78.3819 317.536 78.3094L316.851 77.6211L317.758 77.9678C317.799 77.9834 321.887 79.5946 320.675 83.2911C320.458 83.9546 320.014 84.4459 319.355 84.7511C317.119 85.788 313.007 84.3955 311.817 83.9515C311.848 84.443 311.811 85.3507 311.265 86.1084C310.8 86.7534 310.07 87.1457 309.096 87.2742C308.892 87.3013 308.698 87.3138 308.514 87.3138C305.775 87.3134 305.203 84.5178 305.198 84.4875L305.058 83.76L305.556 84.3084C305.572 84.3257 307.152 86.0357 308.616 85.199ZM309.042 86.8615C309.896 86.7486 310.53 86.414 310.925 85.8675C311.597 84.9386 311.369 83.6853 311.367 83.6728L311.296 83.2969L311.65 83.4405C311.701 83.4613 316.767 85.4932 319.18 84.373C319.737 84.1148 320.096 83.7184 320.279 83.1615C320.734 81.775 320.431 80.55 319.38 79.5207C319.049 79.1961 318.691 78.9419 318.384 78.7548C318.868 79.5513 319.401 80.918 318.749 82.4911C318.597 82.8582 318.31 83.1261 317.897 83.288C315.97 84.0423 311.626 82.2594 310.441 81.743C310.421 82.5792 310.23 84.7567 308.823 85.5607C307.67 86.2198 306.521 85.6284 305.847 85.1221C306.217 85.9355 307.096 87.1169 309.042 86.8615Z" fill="black"/>
<path d="M363.734 463.909L381.969 474.904L379.287 482.814L349.923 479.597V462.568L347.51 450.232L361.856 451.037L363.734 463.909Z" fill="#F5B0A6"/>
<path d="M360.65 471.954C365.745 471.954 364.827 466.867 367.633 466.26C370.438 465.652 386.796 475.976 389.478 480.401C392.16 484.826 387.198 486.301 378.617 485.496C370.036 484.692 359.309 482.815 359.309 482.815C359.309 482.815 348.985 480.937 347.51 479.999C346.035 479.06 349.923 469.272 349.923 469.272C349.923 469.272 355.555 471.954 360.65 471.954Z" fill="black"/>
<path d="M251.597 434.645L265.488 441.223L262.162 454.734L275.8 472.975L269.955 479.733L242.156 464.713L249.018 447.84L251.597 434.645Z" fill="#F5B0A6"/>
<path d="M255.864 461.463C260.913 463.515 262.053 458.105 265.077 458.634C268.102 459.162 280.15 475.983 281.024 481.448C281.899 486.913 276.389 486.375 268.21 482.12C260.032 477.866 250.16 471.684 250.16 471.684C250.16 471.684 240.686 465.664 239.603 464.139C238.52 462.615 246.316 454.483 246.316 454.483C246.316 454.483 250.816 459.41 255.864 461.463Z" fill="black"/>
<path d="M347.157 241.697C347.157 241.697 374.259 350.365 374.259 356.01C374.259 360.729 374.259 424.633 372.529 450.807C372.194 455.944 371.785 459.092 371.302 459.303C368.346 460.592 339.273 460.592 340.259 455.888C341.244 451.184 339.717 368.241 340.234 365.419C340.752 362.596 305.766 311.32 303.795 291.092C303.174 284.718 302.928 277.746 302.884 271.188C302.78 256.93 303.623 244.614 303.623 244.614L347.157 241.697Z" fill="black"/>
<g opacity="0.36">
<path d="M319.282 272.152C319.282 272.152 328.497 316.965 338.564 331.078C348.636 345.19 358.49 356.979 358.983 359.788C359.476 362.596 353.07 445.538 358.983 448.361C361.215 449.429 366.641 450.224 372.529 450.807C372.194 455.944 371.785 459.092 371.302 459.303C368.346 460.592 339.273 460.592 340.259 455.888C341.244 451.183 339.717 368.241 340.234 365.419C340.752 362.596 305.766 311.32 303.795 291.092C303.174 284.717 302.928 277.746 302.884 271.188C307.801 270.257 313.251 270.511 319.282 272.152Z" fill="black"/>
</g>
<path d="M264.866 337.042C266.166 329.281 268.426 275.789 273.89 263.412C273.946 263.28 274.012 263.148 274.068 263.026C274.219 262.706 274.37 262.395 274.521 262.093C277.845 255.406 280.935 251.544 282.819 249.556C284.006 248.313 284.712 247.804 284.712 247.804L297.475 250.865L298.916 251.204L323.388 257.063C323.388 257.063 297.522 372.948 292.266 394.895C287.839 413.385 281.227 441.926 276.498 450.676C271.497 450.007 261.032 448.528 250.69 446.654C247.336 446.042 244.002 445.392 240.865 444.714C240.978 436.576 245.697 424.858 247.129 418.5C248.382 412.999 263.557 344.879 264.866 337.042Z" fill="black"/>
<g opacity="0.36">
<path d="M264.866 337.042C266.166 329.281 268.426 275.789 273.89 263.412C273.946 263.28 274.012 263.148 274.069 263.026C274.219 262.706 274.37 262.395 274.521 262.093C277.845 255.406 280.935 251.544 282.819 249.556C289.252 252.288 294.018 254.925 294.018 254.925C294.018 254.925 276.254 293.224 275.076 319.278C274.05 341.818 253.817 417.266 250.69 446.654C247.336 446.042 244.002 445.392 240.865 444.714C240.979 436.576 245.698 424.858 247.129 418.5C248.382 412.999 263.557 344.879 264.866 337.042Z" fill="black"/>
</g>
<path d="M334.283 137.545C336.281 138.045 338.821 138.828 341.425 139.688C343.58 140.4 345.777 141.166 347.744 141.87C352.178 143.453 355.587 147.048 356.946 151.556C359.386 159.651 366.874 189.729 365.088 195.972L347.501 195.22L346.118 195.16L343.96 185.148L340.043 166.983L333.954 138.738L333.739 137.742L333.664 137.395C333.682 137.399 333.699 137.403 333.718 137.409C333.901 137.451 334.088 137.497 334.283 137.545Z" fill="#11529B"/>
<path d="M346.904 243.151C346.904 243.151 351.252 248.042 352.002 249.491C352.752 250.94 338.391 257.642 317.197 258.91C296.003 260.178 276.44 258.548 274.629 255.811C272.817 253.075 276.802 247.499 276.802 247.499L346.904 243.151Z" fill="#C4D7F2"/>
<path d="M262.908 154.596C262.908 154.596 270.915 146.425 277.708 142.622C279.627 141.547 281.568 140.473 283.363 139.486V139.484C285.325 138.405 287.115 137.427 288.519 136.664C290.382 135.651 291.564 135.014 291.564 135.014L313.03 144.807L323.899 132.841C323.899 132.841 329.396 134.945 333.712 137.236C333.905 137.339 334.096 137.441 334.283 137.545C336.297 138.65 337.973 139.779 338.571 140.72C339.678 142.46 342.504 158.945 345.071 176.518C345.748 181.155 346.408 185.867 347.013 190.403C347.135 191.871 347.303 193.487 347.501 195.22C349.492 212.553 354.659 241.312 349.978 245.96C341.572 252.871 278.156 263.585 274.078 248.88C272.577 244.373 273.997 234.792 274.938 224.294C275.127 222.168 275.299 220.002 275.422 217.836C275.679 213.285 275.727 208.719 275.301 204.458C274.983 195.031 263.871 156.681 262.908 154.596Z" fill="#14539A"/>
<path d="M275.422 217.837C285.398 206.871 291.267 183.911 289.142 160.488C288.089 148.871 285.51 141.96 283.363 139.486V139.484C285.325 138.405 287.115 137.428 288.519 136.664C292.141 141.017 295.202 150.183 295.044 167.617C294.745 200.557 282.557 216.662 274.938 224.294C274.904 224.329 274.871 224.362 274.836 224.397L275.062 218.226C275.183 218.099 275.303 217.968 275.422 217.837Z" fill="#CF7575"/>
<path d="M340.043 166.983C339.992 164.543 339.857 162.086 339.634 159.622C338.598 148.187 336.081 141.311 333.953 138.737C333.921 138.697 333.886 138.656 333.853 138.618C333.797 138.325 333.762 138.033 333.739 137.742C333.73 137.63 333.724 137.518 333.718 137.408C333.716 137.351 333.714 137.293 333.712 137.237C333.905 137.339 334.096 137.441 334.283 137.545C336.281 138.045 338.821 138.828 341.425 139.688C343.888 144.894 345.655 153.396 345.534 166.751C345.503 170.186 345.343 173.44 345.071 176.518C344.803 179.562 344.426 182.436 343.96 185.148C340.355 206.123 331.366 217.507 325.327 223.531L325.553 217.361C334.688 207.68 340.484 188.02 340.043 166.983Z" fill="#CF7575"/>
<path d="M302.951 164.79C306.413 164.337 309.648 167.249 310.178 171.294C310.707 175.34 308.33 178.986 304.868 179.439C301.406 179.892 298.171 176.98 297.642 172.935C297.112 168.89 299.489 165.243 302.951 164.79Z" fill="#C4D7F2"/>
<path d="M319.269 183.242C323.31 207.22 322.594 253.586 322.586 254.051L320.956 254.025C320.964 253.56 321.678 207.343 317.661 183.513C313.627 159.579 312.233 145.027 312.219 144.882L313.842 144.729C313.856 144.873 315.246 159.373 319.269 183.242Z" fill="#C4D7F2"/>
<g opacity="0.31">
<path d="M280.729 163.978C280.729 163.978 286.233 168.107 288.113 172.163C289.828 175.86 291.6 190.566 291.6 190.566L297.391 194.542L341.541 189.088L346.332 161.479C347.674 177.622 355.128 240.864 349.978 245.961C338.802 246.743 320.625 247.955 317.429 247.77C312.759 247.499 278.523 231.468 278.523 231.468V243.252C278.523 243.252 293.347 255.324 321.233 254.12C241.653 264.009 289.351 238.178 270.871 182.337C276.352 171.357 280.729 163.978 280.729 163.978Z" fill="#14539A"/>
</g>
<path d="M311.811 223.314C314.975 224.238 316.577 224.944 318.31 225.198C318.508 225.227 318.696 225.255 318.894 225.264C317.038 228.533 321.924 237.877 319.672 242.445C314.954 242.039 306.837 235.597 303.522 232.96C302.165 230.793 311.811 223.314 311.811 223.314Z" fill="#BDBDBD"/>
<path d="M311.683 223.15L311.767 223.084L311.869 223.114C313.049 223.458 314.003 223.77 314.845 224.044C316.253 224.503 317.269 224.835 318.339 224.992L318.376 224.997C318.557 225.023 318.728 225.047 318.904 225.056L319.242 225.072L319.075 225.367C318.241 226.837 318.858 229.706 319.511 232.743C320.284 236.338 321.083 240.054 319.859 242.537L319.796 242.665L319.655 242.652C314.854 242.239 306.822 235.851 303.392 233.122L303.364 233.1L303.345 233.07C301.929 230.809 310.68 223.927 311.683 223.15ZM303.681 232.821C306.78 235.286 314.863 241.704 319.547 242.223C320.616 239.868 319.847 236.292 319.103 232.831C318.47 229.889 317.871 227.1 318.573 225.445C318.488 225.434 318.404 225.422 318.317 225.41L318.279 225.404C317.173 225.242 316.142 224.906 314.716 224.44C313.902 224.175 312.982 223.875 311.854 223.544C311.41 223.893 309.275 225.59 307.299 227.477C303.583 231.026 303.42 232.344 303.681 232.821Z" fill="black"/>
<path d="M298.475 130.908C299.562 131.179 313.303 142.758 313.303 142.758C313.303 142.758 322.948 131.075 323.628 131.075C324.307 131.075 333.235 135.014 333.681 136.237C334.127 137.46 327.281 150.618 325.97 148.916C319.535 140.564 313.031 144.805 313.031 144.805C313.031 144.805 307.396 141.549 302.841 150.773C301.908 152.664 292.244 138.954 291.565 135.014C291.565 135.014 297.388 130.636 298.475 130.908Z" fill="#C4D7F2"/>
<path d="M295.395 198.765H352.302V246.354H295.395V198.765Z" fill="#F19A6D"/>
<path d="M395.685 238.208L352.302 246.354V198.764L395.685 193.181V238.208Z" fill="#EF7C59"/>
<path d="M310.231 198.765H333.767V207.418H310.231V198.765Z" fill="#EF7C59"/>
<path d="M395.685 193.181L352.302 198.764H295.395L338.778 193.181H395.685Z" fill="#F3CE90"/>
<path d="M376.272 193.181L333.767 198.764H310.231L348.326 193.181H376.272Z" fill="#F19A6D"/>
<path d="M311.558 102.187C312.418 102.187 313.116 103.182 313.116 104.408C313.116 105.635 312.418 106.63 311.558 106.63C310.698 106.63 310 105.635 310 104.408C310 103.182 310.698 102.187 311.558 102.187Z" fill="#202020"/>
<path d="M311.939 102.834C312.393 102.834 312.76 103.335 312.76 103.953C312.76 104.571 312.393 105.071 311.939 105.071C311.487 105.071 311.119 104.571 311.119 103.953C311.119 103.335 311.486 102.834 311.939 102.834Z" fill="white"/>
<path d="M323.75 106.63C322.889 106.63 322.192 105.635 322.192 104.408C322.192 103.182 322.889 102.187 323.75 102.187C324.61 102.187 325.308 103.182 325.308 104.408C325.308 105.635 324.61 106.63 323.75 106.63Z" fill="#202020"/>
<path d="M324.131 102.834C324.584 102.834 324.951 103.335 324.951 103.953C324.951 104.571 324.584 105.071 324.131 105.071C323.678 105.071 323.311 104.571 323.311 103.953C323.311 103.335 323.678 102.834 324.131 102.834Z" fill="white"/>
<path d="M312.352 99.507C312.459 99.548 312.513 99.668 312.472 99.7755C312.431 99.8828 312.311 99.9364 312.203 99.8962C312.107 99.8599 309.837 99.0351 308.333 101.417C308.293 101.48 308.226 101.514 308.156 101.514C308.118 101.514 308.08 101.504 308.045 101.482C307.948 101.421 307.919 101.292 307.981 101.195C309.67 98.5187 312.325 99.4966 312.352 99.507Z" fill="black"/>
<path d="M318.44 109.506C318.451 109.502 319.482 109.135 319.667 108.237C319.823 107.478 318.902 106.229 318.534 105.813C318.458 105.726 318.466 105.595 318.552 105.519C318.638 105.442 318.77 105.45 318.846 105.537C318.906 105.604 320.305 107.202 320.075 108.321C319.842 109.454 318.627 109.882 318.576 109.9C318.553 109.907 318.53 109.911 318.508 109.911C318.422 109.911 318.341 109.856 318.311 109.77C318.274 109.662 318.332 109.543 318.44 109.506Z" fill="black"/>
<path d="M321.73 98.7861C321.826 98.7411 324.093 97.703 325.927 99.1482C326.017 99.2194 326.033 99.3505 325.962 99.4407C325.92 99.4928 325.859 99.5201 325.798 99.5201C325.753 99.5201 325.707 99.5055 325.669 99.4753C324.041 98.1913 321.929 99.1536 321.908 99.1632C321.803 99.2122 321.679 99.1669 321.631 99.0628C321.582 98.9588 321.626 98.8349 321.73 98.7861Z" fill="black"/>
<path d="M308.915 111.355C307.04 111.355 305.519 110.549 305.519 109.555C305.519 108.56 307.04 107.754 308.915 107.754C310.791 107.754 312.311 108.56 312.311 109.555C312.311 110.549 310.791 111.355 308.915 111.355Z" fill="#F18A8B"/>
<path d="M327.616 107.759C327.889 107.759 328.153 107.778 328.398 107.806C328.398 109.021 328.388 110.217 328.369 111.31C328.124 111.338 327.88 111.357 327.616 111.357C325.741 111.357 324.215 110.547 324.215 109.558C324.215 108.559 325.741 107.759 327.616 107.759Z" fill="#F18A8B"/>
<path d="M295.666 102.136C298.77 103.217 298.647 106.605 298.148 108.245C298.086 108.448 297.899 108.579 297.697 108.579C297.652 108.579 297.606 108.572 297.561 108.558C297.311 108.483 297.171 108.22 297.246 107.971C297.294 107.813 298.38 104.078 295.357 103.025C295.111 102.94 294.98 102.671 295.066 102.426C295.152 102.18 295.425 102.051 295.666 102.136Z" fill="#F18A8B"/>
<path d="M298.288 105.661C298.484 105.833 298.504 106.13 298.332 106.326C298.239 106.432 298.109 106.487 297.978 106.487C297.868 106.487 297.757 106.449 297.668 106.37C296.093 104.993 295.205 105.856 295.11 105.957C294.934 106.146 294.636 106.16 294.447 105.987C294.256 105.813 294.238 105.521 294.409 105.329C294.424 105.311 295.968 103.629 298.288 105.661Z" fill="#F18A8B"/>
<path d="M378.105 233.061C382.41 233.275 386.57 230.655 386.57 230.655C386.57 230.655 379.48 230.865 377.284 228.494C375.079 226.128 382.601 226.98 385.858 226.166C387.481 225.761 390.017 224.858 392.15 224.054C393.648 223.489 395.352 223.916 396.366 225.155C398.201 227.396 400.104 231.132 398.436 236.005C396.202 238.013 394.738 240.703 394.053 241.632C393.106 242.906 385.401 245.631 381.973 244.581C378.539 243.53 375.304 241.884 374.739 241.217C374.193 240.582 385.894 240.416 386.959 240.405C386.304 240.378 381.57 240.199 379.312 240.144C376.881 240.083 374.125 238.789 372.791 237.555C371.501 236.358 385.018 236.317 385.814 236.31C385.452 236.285 382.495 236.107 381.712 236.224C380.875 236.349 376.34 236.462 373.465 234.587C370.591 232.712 371.263 233.951 370.254 232.212C369.239 230.471 373.804 232.856 378.105 233.061Z" fill="#F5B0A6"/>
<path d="M315.213 224.125C317.765 224.908 320.795 225.776 322.722 226.131C326.588 226.843 335.316 225.293 332.913 228.221C330.52 231.153 322.219 231.429 322.219 231.429C322.219 231.429 327.274 234.184 332.29 233.618C337.3 233.062 342.46 229.94 341.401 232.048C340.35 234.155 341.044 232.657 337.823 235.06C334.602 237.463 329.293 237.664 328.306 237.58C327.383 237.5 323.94 237.926 323.519 237.981C324.45 237.931 340.249 236.985 338.83 238.479C337.361 240.019 334.235 241.734 331.399 241.984C328.764 242.214 323.245 242.772 322.482 242.852C323.727 242.786 337.414 242.12 336.823 242.902C336.211 243.723 332.551 245.884 328.615 247.366C324.686 248.844 315.481 246.227 314.282 244.807C313.413 243.772 311.503 240.737 308.745 238.554C306.438 232.982 308.387 228.476 310.366 225.722C311.461 224.199 313.421 223.575 315.213 224.125Z" fill="#F5B0A6"/>
<path d="M326.871 96.1624C323.694 97.3365 315.576 93.9086 315.576 93.9086L328.39 92.1567C328.39 92.1567 330.048 94.9882 326.871 96.1624Z" fill="black"/>
<path d="M328.499 91.9316L328.57 92.0516C328.601 92.1054 329.335 93.3818 328.886 94.6346C328.611 95.4033 327.958 95.9831 326.943 96.3581C326.454 96.5387 325.857 96.6156 325.195 96.6156C321.5 96.6156 315.779 94.2204 315.495 94.1006L314.796 93.8052L328.362 91.9504L328.499 91.9316ZM316.386 94.0081C318.439 94.8048 324.283 96.8952 326.798 95.9671C327.691 95.6371 328.261 95.1423 328.493 94.4964C328.804 93.6308 328.429 92.7077 328.273 92.3827L316.386 94.0081Z" fill="black"/>
<path d="M270.643 149.143C280.425 145.339 285.859 190.713 286.224 193.294C286.589 195.875 312.215 218.97 313.846 221.415C315.476 223.86 306.238 237.446 302.705 237.446C299.173 237.446 269.556 215.981 266.839 210.276C263.224 199.23 248.445 155.254 270.643 149.143Z" fill="#11529B"/>
<path d="M286.225 193.294L279.84 158.355C279.84 158.355 286.545 186.744 286.225 193.294Z" fill="#C4D7F2"/>
</svg>
