<svg width="201" height="200" viewBox="0 0 201 200" fill="none" xmlns="http://www.w3.org/2000/svg">
<g clip-path="url(#clip0_46_5699)">
<path d="M162.493 192.886C152.766 197.573 141.049 199.878 127.807 199.995H127.221C93.1221 199.995 61.4827 185.503 38.2811 162.301C14.6101 138.397 0.118332 105.937 0.587472 71.7211C0.704659 58.8309 3.00934 47.4645 7.57965 37.9731L25.7425 39.4966L54.5686 68.4399L56.7952 87.1891L50.9362 91.5246C49.53 93.282 49.296 96.9144 51.6393 99.2582L76.4819 124.101L101.325 148.943C103.551 151.17 107.418 151.17 109.645 148.943L113.394 143.787L132.26 146.014L161.087 174.841L162.493 192.886Z" fill="#F0C419"/>
<path d="M162.493 192.885C152.766 197.573 141.048 199.878 127.807 199.995H127.221C93.1219 199.995 61.4825 185.503 38.281 162.301L76.4813 124.1L101.325 148.943C103.55 151.169 107.418 151.169 109.644 148.943L113.394 143.787L132.26 146.013L161.087 174.84L162.493 192.885Z" fill="#F29C1F"/>
<path d="M72.0838 50.718L43.5381 22.1724C36.6377 15.2779 25.6065 15.6439 17.8475 22.9962C15.6511 25.0841 10.539 31.8275 7.58154 37.9403L56.8147 87.1731C63.0498 82.5348 64.8529 81.193 70.1556 77.2492C78.7357 70.8625 79.6783 58.3122 72.0838 50.718Z" fill="#F4A93C"/>
<path d="M178.468 157.102L152.674 131.309C142.094 120.729 129.659 121.943 123.328 130.433L113.44 143.799L162.524 192.883C166.29 191.085 176.143 184.208 177.53 182.793C185.042 175.125 185.442 164.077 178.468 157.102Z" fill="#E57E25"/>
<path d="M130.268 99.6103C130.268 102.891 127.69 105.469 124.409 105.469C121.128 105.469 118.55 102.891 118.55 99.6103C118.55 94.6884 116.558 90.3525 113.394 87.1892C110.23 84.0248 105.894 82.0334 100.973 82.0334C97.6913 82.0334 95.114 79.4549 95.114 76.1744C95.114 72.8928 97.6917 70.3154 100.973 70.3154C109.059 70.3154 116.441 73.5963 121.714 78.8693C126.987 84.1424 130.268 91.5248 130.268 99.6103Z" fill="#FCB33B"/>
<path d="M130.268 99.61C130.268 102.891 127.69 105.469 124.409 105.469C121.128 105.469 118.55 102.89 118.55 99.61C118.55 94.6882 116.558 90.3522 113.394 87.189L121.714 78.8687C126.987 84.1421 130.268 91.5245 130.268 99.61Z" fill="#F0C419"/>
<path d="M153.704 99.6101C153.704 102.891 151.126 105.469 147.845 105.469C144.564 105.469 141.986 102.891 141.986 99.6101C141.986 88.3605 137.416 78.0484 129.916 70.666C122.535 63.1668 112.223 58.5969 100.973 58.5969C97.6913 58.5969 95.114 56.0183 95.114 52.7379C95.114 49.4562 97.6917 46.8789 100.973 46.8789C115.503 46.8789 128.628 52.7379 138.237 62.3468C147.846 71.9558 153.704 85.0796 153.704 99.6101Z" fill="#FCB33B"/>
<path d="M153.704 99.6103C153.704 102.891 151.127 105.469 147.845 105.469C144.564 105.469 141.986 102.891 141.986 99.6103C141.986 88.3607 137.416 78.0486 129.917 70.6662L138.237 62.3467C147.845 71.956 153.704 85.0798 153.704 99.6103Z" fill="#F0C419"/>
<path d="M177.14 99.6103C177.14 102.891 174.563 105.469 171.281 105.469C168 105.469 165.422 102.891 165.422 99.6103C165.422 81.7982 158.157 65.7451 146.556 54.0268C134.839 42.426 118.785 35.1608 100.973 35.1608C97.6913 35.1608 95.114 32.5831 95.114 29.3018C95.114 26.0206 97.6917 23.4429 100.973 23.4429C121.948 23.4429 141.048 31.9968 154.759 45.8241C168.587 59.5338 177.14 78.6346 177.14 99.6103Z" fill="#FCB33B"/>
<path d="M177.141 99.61C177.141 102.891 174.563 105.469 171.282 105.469C168 105.469 165.423 102.89 165.423 99.61C165.423 81.7979 158.157 65.7448 146.557 54.0265L154.759 45.8237C168.587 59.5335 177.141 78.6342 177.141 99.61Z" fill="#F0C419"/>
<path d="M200.576 99.6102C200.576 102.891 197.999 105.469 194.717 105.469C191.436 105.469 188.858 102.891 188.858 99.6102C188.858 75.3536 179.015 53.4407 163.079 37.5044C147.143 21.5681 125.23 11.7248 100.973 11.7248C97.6913 11.7248 95.114 9.14705 95.114 5.86581C95.114 2.58457 97.6917 0.00683594 100.973 0.00683594C128.394 0.00683594 153.353 11.1388 171.399 29.1849C189.444 47.2298 200.576 72.1895 200.576 99.6102Z" fill="#FCB33B"/>
<path d="M200.576 99.6101C200.576 102.891 197.999 105.469 194.717 105.469C191.436 105.469 188.858 102.891 188.858 99.6101C188.858 75.3535 179.015 53.4407 163.079 37.5044L171.399 29.1841C189.444 47.2298 200.576 72.1895 200.576 99.6101Z" fill="#F0C419"/>
</g>
<defs>
<clipPath id="clip0_46_5699">
<rect width="200" height="200" fill="white" transform="translate(0.576416 0.000488281)"/>
</clipPath>
</defs>
</svg>
