<svg width="500" height="500" viewBox="0 0 500 500" fill="none" xmlns="http://www.w3.org/2000/svg">
<g clip-path="url(#clip0_37_1068)">
<path d="M0.976562 82.9849V351.994C0.976562 375.919 20.3705 395.313 44.2963 395.313H456.974C480.9 395.313 500.294 375.919 500.294 351.994V82.9849C500.294 59.3109 481.106 40.123 457.432 40.123H43.8385C20.1645 40.123 0.976562 59.3109 0.976562 82.9849Z" fill="#AFDEDC"/>
<path d="M351.349 453.117L250.637 476.067L149.918 453.117L163.715 395.317L246.361 364.929L337.551 395.317L342.014 414.028L351.349 453.117Z" fill="#0E4C92"/>
<path d="M500.298 346.893V351.99C500.298 375.916 480.896 395.317 456.97 395.317H44.2962C20.3705 395.317 0.980347 375.916 0.980347 351.99V346.893H500.298Z" fill="#14539A"/>
<path d="M351.349 453.117H197.304L206.638 414.028H342.014L351.349 453.117Z" fill="#14539A"/>
<path d="M410.706 485.298V499.024H90.5724V485.298C90.5724 467.526 104.98 453.117 122.753 453.117H378.525C396.297 453.117 410.706 467.526 410.706 485.298Z" fill="#0E4C92"/>
<path d="M410.706 485.298V499.024H145.588V485.298C145.588 467.526 159.996 453.117 177.78 453.117H378.525C396.297 453.117 410.706 467.526 410.706 485.298Z" fill="#14539A"/>
<path d="M91.6252 96.8132H295.578L321.564 346.893H65.6433L91.6252 96.8132Z" fill="#14539A"/>
<path d="M191.906 177.67H333.679L351.738 346.893H173.847L191.906 177.67Z" fill="#0E4C92"/>
<path d="M211.269 177.67H353.039L371.101 346.893H193.207L211.269 177.67Z" fill="#F0F7EE"/>
<path d="M248.627 128.914C244.404 128.914 240.986 125.492 240.986 121.269V70.8352C240.986 44.7083 219.73 23.4528 193.604 23.4528C167.477 23.4528 146.221 44.7083 146.221 70.8352V121.269C146.221 125.488 142.799 128.91 138.58 128.91C134.357 128.91 130.936 125.488 130.936 121.269V70.8352C130.936 36.2778 159.05 8.1673 193.604 8.1673C228.157 8.1673 256.271 36.2816 256.271 70.8352V121.269C256.271 125.492 252.85 128.914 248.627 128.914Z" fill="#3C3F4D"/>
<path d="M282.154 281.895C259.819 281.895 241.65 263.725 241.65 241.39V208.53C241.65 204.308 245.071 200.886 249.294 200.886C253.513 200.886 256.935 204.308 256.935 208.53V241.39C256.935 255.299 268.25 266.609 282.154 266.609C296.059 266.609 307.373 255.299 307.373 241.39V208.53C307.373 204.308 310.795 200.886 315.018 200.886C319.237 200.886 322.659 204.308 322.659 208.53V241.39C322.659 263.725 304.489 281.895 282.154 281.895Z" fill="#14539A"/>
<path d="M464.634 73.7343C464.634 114.998 431.183 148.445 389.923 148.445C348.66 148.445 315.212 114.998 315.212 73.7343C315.212 32.4745 348.66 -0.976562 389.923 -0.976562C431.183 -0.976562 464.634 32.4745 464.634 73.7343Z" fill="#14539A"/>
<path d="M382.092 119.034C379.322 119.034 376.762 117.531 375.412 115.101L355.03 78.4149C352.982 74.7261 354.309 70.0722 358.002 68.0237C361.694 65.9752 366.344 67.3027 368.393 70.9953L381.641 94.8372L410.885 34.6794C412.727 30.8838 417.297 29.3007 421.101 31.147C424.896 32.9933 426.476 37.5671 424.629 41.3627L388.966 114.731C387.718 117.294 385.151 118.95 382.301 119.03C382.233 119.03 382.164 119.034 382.092 119.034Z" fill="white"/>
<path d="M472.336 208.714H398.968C394.749 208.714 391.327 205.292 391.327 201.073C391.327 196.85 394.749 193.428 398.968 193.428H472.336C476.559 193.428 479.977 196.85 479.977 201.073C479.977 205.292 476.555 208.714 472.336 208.714Z" fill="#14539A"/>
<path d="M472.336 244.381H414.257C410.034 244.381 406.612 240.959 406.612 236.74C406.612 232.517 410.034 229.095 414.257 229.095H472.336C476.559 229.095 479.977 232.517 479.977 236.74C479.977 240.959 476.555 244.381 472.336 244.381Z" fill="#14539A"/>
</g>
<defs>
<clipPath id="clip0_37_1068">
<rect width="500" height="500" fill="white"/>
</clipPath>
</defs>
</svg>
