<svg width="201" height="200" viewBox="0 0 201 200" fill="none" xmlns="http://www.w3.org/2000/svg">
<path d="M169.326 140.625L188.501 159.8C190.348 161.647 191.814 163.839 192.813 166.252C193.812 168.665 194.327 171.251 194.326 173.863C194.326 179.137 192.231 184.196 188.502 187.926C184.772 191.655 179.713 193.75 174.439 193.75C171.827 193.751 169.241 193.237 166.828 192.237C164.415 191.238 162.223 189.772 160.376 187.925L141.201 168.75L169.326 140.625Z" fill="#939393"/>
<path d="M152.139 157.813L166.626 172.3C170.273 175.953 175.199 178.042 180.36 178.123C185.52 178.205 190.51 176.273 194.27 172.738C194.002 167.863 191.949 163.258 188.501 159.8L169.326 140.625L152.139 157.813Z" fill="#B5B5B5"/>
<path d="M169.326 140.625L141.201 168.75L134.036 161.585C133.335 160.884 132.78 160.053 132.401 159.137C132.021 158.222 131.826 157.241 131.826 156.25C131.826 155.26 132.021 154.279 132.401 153.364C132.78 152.448 133.335 151.617 134.036 150.916L151.492 133.46C152.193 132.759 153.024 132.204 153.939 131.825C154.855 131.446 155.836 131.25 156.826 131.25C157.817 131.25 158.798 131.446 159.713 131.825C160.629 132.204 161.46 132.759 162.161 133.46L169.326 140.625Z" fill="#B5B5B5"/>
<path d="M150.576 134.376L128.098 111.897L111.92 126.969L134.951 150.001L150.576 134.376Z" fill="#474747"/>
<path d="M75.5764 143.75C113.546 143.75 144.326 112.97 144.326 75.0005C144.326 37.0309 113.546 6.25049 75.5764 6.25049C37.6068 6.25049 6.82642 37.0309 6.82642 75.0005C6.82642 112.97 37.6068 143.75 75.5764 143.75Z" fill="#939393"/>
<path d="M75.5764 128.125C104.917 128.125 128.701 104.341 128.701 75.0005C128.701 45.6604 104.917 21.8755 75.5764 21.8755C46.2363 21.8755 22.4514 45.6604 22.4514 75.0005C22.4514 104.341 46.2363 128.125 75.5764 128.125Z" fill="#F2F2F2"/>
<path d="M119.326 68.7504C119.333 60.9651 117.624 53.274 114.321 46.2239C111.018 39.1739 106.203 32.9381 100.217 27.9598C88.604 21.8719 75.1492 20.2955 62.4433 23.5341C49.7375 26.7728 38.6789 34.5974 31.3969 45.5014C24.1148 56.4055 21.1242 69.6181 23.0007 82.5952C24.8772 95.5723 31.4882 107.396 41.5609 115.791C49.6546 120.041 58.7085 122.128 67.8458 121.851C76.9831 121.575 85.8941 118.943 93.7159 114.212C101.538 109.48 108.005 102.809 112.492 94.8447C116.979 86.8801 119.333 77.8919 119.326 68.7504Z" fill="white"/>
<path d="M80.7389 87.8506C90.3295 89.1756 97.4514 94.1131 97.4514 100.001C97.4514 106.904 87.6577 112.501 75.5764 112.501C63.4952 112.501 53.7014 106.904 53.7014 100.001C53.7014 94.1131 60.8233 89.1756 70.4139 87.8506" fill="#4D8C28"/>
<path d="M97.4514 59.3755C97.4513 65.4197 95.2571 71.2584 91.2764 75.8067L75.5764 93.7505L59.8764 75.8067C55.8958 71.2584 53.7015 65.4197 53.7014 59.3755C53.7014 53.5739 56.0061 48.0099 60.1085 43.9075C64.2108 39.8052 69.7748 37.5005 75.5764 37.5005C81.378 37.5005 86.942 39.8052 91.0444 43.9075C95.1467 48.0099 97.4514 53.5739 97.4514 59.3755Z" fill="#F4A93C"/>
<path d="M81.9014 75.8067C85.8821 71.2584 88.0763 65.4197 88.0764 59.3755C88.0747 54.3895 86.3697 49.5537 83.2439 45.6692C80.1181 41.7847 75.7591 39.0845 70.8889 38.0161C66.0187 39.0845 61.6597 41.7847 58.5339 45.6692C55.4081 49.5537 53.7031 54.3895 53.7014 59.3755C53.7015 65.4197 55.8958 71.2584 59.8764 75.8067L70.8889 88.3942L81.9014 75.8067Z" fill="#F6B940"/>
<path d="M75.5764 62.5005C79.0282 62.5005 81.8264 59.7023 81.8264 56.2505C81.8264 52.7987 79.0282 50.0005 75.5764 50.0005C72.1246 50.0005 69.3264 52.7987 69.3264 56.2505C69.3264 59.7023 72.1246 62.5005 75.5764 62.5005Z" fill="#F2F2F2"/>
<path d="M152.095 157.857L169.326 140.625L162.161 133.46C161.46 132.759 160.629 132.203 159.713 131.824C158.798 131.445 157.817 131.25 156.826 131.25C155.836 131.25 154.855 131.445 153.94 131.824C153.024 132.203 152.193 132.759 151.492 133.46L139.595 145.357L152.095 157.857Z" fill="#CCCCCC"/>
</svg>
