<svg width="500" height="500" viewBox="0 0 500 500" fill="none" xmlns="http://www.w3.org/2000/svg">
<path d="M340.779 181.305L339.425 200.918L319.204 493.154H136.801L121.671 274.468L116.581 200.918L115.227 181.305H340.779Z" fill="#AFDEDC"/>
<path d="M115.227 181.305L116.581 200.918H286.352V274.468H267.425L277.105 363.335C274.968 361.366 272.625 359.616 270.092 358.157C263.12 310.87 222.275 274.468 173.086 274.468H121.67L136.801 493.155H254.137C257.961 489.203 261.207 484.77 263.806 479.975C266.228 475.513 268.072 470.757 269.308 465.835C272.564 464.059 275.594 461.804 278.29 459.107C281.676 455.725 284.359 451.828 286.283 447.597L291.245 493.156H319.203L339.423 200.92H339.425L340.08 191.431L340.102 191.113L340.779 181.307L115.227 181.305Z" fill="#99D6D3"/>
<path d="M251.539 450.986C251.539 458.086 249.744 464.774 246.577 470.599C244.674 474.11 242.282 477.307 239.477 480.112C232.024 487.565 221.727 492.174 210.351 492.174H67.1747C51.5233 492.174 37.9218 483.457 30.9491 470.6C27.7812 464.775 25.9872 458.087 25.9872 450.987H251.539V450.986Z" fill="#14539A"/>
<path d="M251.539 450.986C251.539 458.086 249.744 464.774 246.577 470.599H30.9491C27.7812 464.774 25.9872 458.086 25.9872 450.986H251.539Z" fill="#C4D7F2"/>
<path d="M270.171 431.373C270.171 436.786 267.975 441.689 264.424 445.239C260.874 448.789 255.971 450.986 250.558 450.986H26.9677C16.1318 450.986 7.35449 442.209 7.35449 431.373C7.35449 426.273 9.30566 421.625 12.5029 418.133C12.6894 417.918 12.8955 417.712 13.1016 417.506C16.6514 413.956 21.5547 411.758 26.9677 411.758H250.558C256.697 411.758 262.179 414.573 265.768 418.996C268.524 422.37 270.171 426.685 270.171 431.373Z" fill="#B2C5DF"/>
<path d="M265.768 418.997L220.51 450.986H58.9765L12.5029 418.133C12.6895 417.918 12.8955 417.712 13.1016 417.506C16.6514 413.956 21.5547 411.758 26.9677 411.758H250.558C256.697 411.759 262.179 414.574 265.768 418.997Z" fill="#14539A"/>
<path d="M270.171 392.146C270.171 397.559 267.975 402.463 264.424 406.012C260.875 409.562 255.971 411.759 250.558 411.759H26.9677C16.1318 411.759 7.35449 402.982 7.35449 392.146C7.35449 386.733 9.55078 381.83 13.1016 378.28C16.6514 374.73 21.5547 372.533 26.9677 372.533H250.558C261.394 372.533 270.171 381.31 270.171 392.146Z" fill="white"/>
<path d="M242.026 411.759H37.4609L108.216 461.773L139.744 439.487L171.272 461.773L242.026 411.759Z" fill="#0E4C92"/>
<path d="M178.97 411.759L151.227 431.373L139.744 439.483L122.749 451.496L116.943 447.397L66.538 411.759H178.97Z" fill="#B2C5DF"/>
<path d="M242.026 411.759L214.284 431.373H65.204L37.4609 411.759H242.026Z" fill="#B2C5DF"/>
<path d="M301.552 22.5463V23.517C301.552 30.352 296.845 36.2856 290.186 37.8344L242.712 48.9154V113.639H213.293V25.3803L283.351 8.25829C292.619 5.99267 301.552 13.0044 301.552 22.5463Z" fill="#91A8A4"/>
<path d="M258.616 392.146H18.9169C11.7607 392.146 7.97359 383.485 12.996 378.386C13.0312 378.351 13.0664 378.315 13.1015 378.28C16.6513 374.73 21.5546 372.533 26.9677 372.533H250.558C256.032 372.533 260.982 374.773 264.539 378.386C269.558 383.487 265.772 392.146 258.616 392.146Z" fill="#B3C5DF"/>
<path d="M251.539 372.533H25.9872C25.9872 365.757 26.8505 359.186 28.4589 352.92C32.0087 339.132 39.2069 326.814 48.9647 317.057C63.1649 302.867 82.7782 294.081 104.44 294.081H173.087C209.635 294.081 240.36 319.088 249.068 352.921C250.675 359.186 251.539 365.757 251.539 372.533Z" fill="#14539A"/>
<path d="M335.385 210.724H305.965V374.494H335.385V210.724Z" fill="#C4D7F2"/>
<path d="M364.315 232.298H334.895V396.068H364.315V232.298Z" fill="#AFDEDC"/>
<path d="M393.735 210.724H364.315V374.494H393.735V210.724Z" fill="#C4D7F2"/>
<path d="M423.154 232.298H393.734V396.068H423.154V232.298Z" fill="#99D6D3"/>
<path d="M452.573 232.298H423.153V396.068H452.573V232.298Z" fill="#C4D7F2"/>
<path d="M481.993 199.937H452.573V363.707H481.993V199.937Z" fill="#AFDEDC"/>
<path d="M242.712 94.0257H213.293V113.639H242.712V94.0257Z" fill="#91A8A4"/>
<path d="M332.933 146.982H123.073L129.418 127.368L133.86 113.64H322.146L326.588 127.368L332.933 146.982Z" fill="#0E4C92"/>
<path d="M481.993 274.468V363.708H452.573V396.069H393.734V374.495H364.315V396.069H334.895V374.495H305.965V274.468H334.483L334.895 275.615L335.385 276.987L355.567 333.307H425.526L446.611 274.468H481.993Z" fill="#0E4C92"/>
<path d="M460.419 294.081L439.335 352.92H341.759L320.675 294.081H289.294L310.869 492.173H470.226L491.8 294.081H460.419Z" fill="#14539A"/>
<path d="M360.392 181.305H95.6141L106.401 146.982H349.605L360.392 181.305Z" fill="#14539A"/>
<path d="M251.539 372.533H25.9872C25.9872 365.757 26.8505 359.186 28.4589 352.92H249.068C250.675 359.186 251.539 365.757 251.539 372.533Z" fill="#C4D7F2"/>
<path d="M337.258 462.754L328.499 382.34H452.594L443.836 462.754H337.258Z" fill="#B0BEC5"/>
<path d="M330.661 470.109H450.434L460.793 374.985H320.3L330.661 470.109ZM444.394 389.695L437.237 455.399H343.854L336.698 389.695H444.394Z" fill="black"/>
<path d="M101.498 317.125H86.7879V331.835H101.498V317.125Z" fill="white"/>
<path d="M131.242 325.951H116.532V340.661H131.242V325.951Z" fill="white"/>
<path d="M160.995 325.951H146.285V340.661H160.995V325.951Z" fill="white"/>
<path d="M190.738 317.125H176.028V331.835H190.738V317.125Z" fill="white"/>
<path d="M258.403 218.079H238.934V203.369H258.403V218.079ZM224.224 218.079H146.753V203.369H224.224V218.079Z" fill="white"/>
<path d="M426.831 429.902H413.102V415.192H426.831V429.902ZM398.392 429.902H383.682V415.192H398.392V429.902ZM368.972 429.902H354.262V415.192H368.972V429.902Z" fill="white"/>
</svg>
