<svg width="216" height="200" viewBox="0 0 216 200" fill="none" xmlns="http://www.w3.org/2000/svg">
<path d="M34.5786 152.597C34.5786 154.878 32.729 156.736 30.4399 156.736C28.1508 156.736 26.3013 154.878 26.3013 152.597C26.3013 150.308 28.1508 148.45 30.4399 148.45C32.729 148.45 34.5786 150.308 34.5786 152.597Z" fill="#14539A"/>
<path d="M215.576 85.4829C215.576 88.4106 213.204 90.7827 210.277 90.7827C207.349 90.7827 204.969 88.4106 204.969 85.4829C204.969 82.5469 207.349 80.1748 210.277 80.1748C213.204 80.1748 215.576 82.5469 215.576 85.4829Z" fill="#14539A"/>
<path d="M196.982 91.4791C196.982 137.908 159.344 175.554 112.915 175.554C66.4771 175.554 28.8394 137.908 28.8394 91.4791C28.8394 45.0498 66.4771 7.41211 112.915 7.41211C159.344 7.41211 196.982 45.0498 196.982 91.4791Z" fill="#F0F7EE"/>
<path d="M41.0231 93.37C41.0065 93.37 40.99 93.37 40.9734 93.37C39.3395 93.2705 37.7553 93.0383 36.2707 92.6982C35.8063 92.5904 35.516 92.1259 35.6238 91.6615C35.7233 91.197 36.1961 90.9067 36.6605 91.0145C38.0539 91.338 39.5385 91.5454 41.0812 91.6366C41.5539 91.6698 41.9189 92.0762 41.8857 92.5572C41.8608 93.0134 41.4793 93.37 41.0231 93.37ZM45.6345 93.3203C45.1867 93.3203 44.8052 92.9802 44.772 92.5241C44.7388 92.0513 45.0954 91.6283 45.5682 91.5951C47.0279 91.479 48.5291 91.2717 50.0386 90.9814C50.5114 90.8901 50.9592 91.1887 51.0505 91.6615C51.1417 92.1259 50.8431 92.5821 50.3704 92.6733C48.8028 92.9885 47.227 93.2041 45.7009 93.3203C45.6788 93.3203 45.6567 93.3203 45.6345 93.3203ZM54.6749 91.562C54.3017 91.562 53.9616 91.3214 53.8455 90.9482C53.7045 90.492 53.9616 90.011 54.4178 89.87C55.836 89.4304 57.2709 88.9079 58.6725 88.319C59.1204 88.1366 59.6181 88.3439 59.8088 88.7835C59.9913 89.2231 59.7839 89.7373 59.3444 89.9198C57.8846 90.5252 56.4 91.0643 54.932 91.5205C54.8435 91.5481 54.7578 91.562 54.6749 91.562ZM32.0989 91.2468C31.9745 91.2468 31.8501 91.2219 31.734 91.1638C30.2245 90.4672 28.8477 89.6129 27.6451 88.6176C27.2718 88.3107 27.2221 87.7633 27.529 87.3984C27.8275 87.0335 28.3749 86.9754 28.7399 87.2823C29.8347 88.178 31.087 88.9577 32.4638 89.5963C32.8951 89.7954 33.0859 90.3096 32.8868 90.7409C32.7375 91.0643 32.4224 91.2468 32.0989 91.2468ZM25.0988 85.4079C24.8251 85.4079 24.5597 85.2752 24.3856 85.0347C23.7884 84.1638 23.241 83.2266 22.76 82.2562C22.5526 82.3143 22.3121 82.2894 22.1048 82.1733C20.8026 81.4351 19.4922 80.5145 18.1983 79.4529C17.8334 79.146 17.7836 78.6069 18.0905 78.2337C18.3891 77.8687 18.9365 77.819 19.3014 78.1175C20.2303 78.8889 21.1758 79.569 22.113 80.1661C22.196 79.9505 22.3702 79.7763 22.5941 79.6851C23.0337 79.5109 23.5396 79.7183 23.7221 80.1661C24.2612 81.5097 24.991 82.8534 25.8121 84.056C26.0858 84.4458 25.9863 84.9849 25.5965 85.2586C25.4389 85.3581 25.273 85.4079 25.0988 85.4079ZM29.6273 84.4541C28.6486 84.4541 27.6202 84.3131 26.5586 84.0394C26.1024 83.915 25.8204 83.4505 25.9448 82.9861C26.0609 82.5216 26.5337 82.2396 26.9982 82.364C28.4993 82.7538 29.9176 82.8202 31.1783 82.5714C31.651 82.4801 32.0989 82.787 32.1984 83.2515C32.2897 83.7242 31.9828 84.1804 31.5183 84.2716C30.9129 84.3877 30.2742 84.4541 29.6273 84.4541ZM35.4496 82.2728C35.1925 82.2728 34.9437 82.1567 34.7695 81.9493C34.471 81.5761 34.529 81.0287 34.9022 80.7301C36.0219 79.8261 36.9674 78.7064 37.6558 77.4789C37.888 77.0642 38.4106 76.9149 38.8335 77.1472C39.2482 77.3794 39.3975 77.9019 39.1653 78.3249C38.3774 79.7349 37.2743 81.037 35.9887 82.0737C35.8312 82.2064 35.6404 82.2728 35.4496 82.2728ZM21.7398 76.9066C21.3085 76.9066 20.9353 76.5832 20.8855 76.1436C20.8109 75.563 20.7777 74.9825 20.7777 74.4185C20.7777 73.3237 20.9104 72.2538 21.1675 71.2419C21.2837 70.7857 21.7564 70.5037 22.2209 70.6199C22.6853 70.7443 22.959 71.217 22.8429 71.6732C22.619 72.544 22.5111 73.4647 22.5111 74.4185C22.5111 74.9078 22.536 75.422 22.6024 75.9362C22.6521 76.4173 22.3204 76.8403 21.8393 76.8983C21.8062 76.9039 21.773 76.9066 21.7398 76.9066ZM15.4116 76.4753C15.1793 76.4753 14.9471 76.3841 14.7729 76.2017C13.7113 75.0488 12.7078 73.813 11.7954 72.5357C11.5217 72.1459 11.6047 71.6068 11.9945 71.3248C12.3843 71.0511 12.9234 71.1424 13.2054 71.5322C14.0763 72.7514 15.0301 73.9208 16.0502 75.0239C16.3737 75.3723 16.3488 75.9197 16.0004 76.2514C15.8346 76.4007 15.6189 76.4753 15.4116 76.4753ZM39.6878 74.377C39.6768 74.377 39.6657 74.377 39.6546 74.377C39.1736 74.3604 38.8004 73.954 38.817 73.4813C38.8225 73.3817 38.8253 73.2822 38.8253 73.1827C38.8253 73.0057 38.8197 72.8288 38.8087 72.6519C38.734 71.5902 38.4354 70.4706 37.9378 69.4089C37.7387 68.9777 37.9212 68.4634 38.3525 68.2644C38.7838 68.057 39.3063 68.2478 39.5053 68.6791C40.0942 69.9232 40.4509 71.2585 40.5338 72.5357C40.5504 72.7514 40.5587 72.967 40.5587 73.1827C40.5587 73.3043 40.5559 73.426 40.5504 73.5476C40.5338 74.0121 40.144 74.377 39.6878 74.377ZM10.0703 68.9777C9.75513 68.9777 9.45655 68.8118 9.29897 68.5215C8.63546 67.2691 8.07147 66.0084 7.6236 64.781C7.54619 64.5764 7.47431 64.369 7.40796 64.1589C7.25038 63.711 7.4992 63.2217 7.94707 63.0641C8.40323 62.9148 8.89257 63.1553 9.04186 63.6115C9.10821 63.805 9.17733 63.9958 9.24921 64.1838C9.6722 65.3449 10.203 66.531 10.8333 67.7087C11.0573 68.1317 10.8914 68.6542 10.4684 68.8781C10.344 68.9445 10.203 68.9777 10.0703 68.9777ZM24.0123 68.198C23.8299 68.198 23.6557 68.1483 23.4981 68.0322C23.1166 67.7502 23.0337 67.2111 23.3157 66.8212C24.3773 65.3864 25.6462 64.2336 26.9816 63.4954C27.4046 63.2715 27.9271 63.4208 28.1593 63.8437C28.3915 64.2584 28.2339 64.781 27.8192 65.0132C26.6913 65.6352 25.6214 66.6139 24.709 67.8497C24.5432 68.0819 24.2778 68.198 24.0123 68.198ZM35.9556 66.2573C35.7565 66.2573 35.5575 66.1826 35.3999 66.0499C34.2719 65.0795 33.0029 64.4741 31.7257 64.2833C31.2529 64.2087 30.9295 63.7691 30.9958 63.2963C31.0705 62.8236 31.51 62.5001 31.9828 62.5665C33.5835 62.807 35.1511 63.5617 36.5195 64.7312C36.8845 65.0464 36.9259 65.5855 36.6191 65.9504C36.4449 66.1494 36.2044 66.2573 35.9556 66.2573ZM7.13426 60.2774C6.71128 60.2774 6.34635 59.9705 6.27999 59.5392C6.05606 58.0795 5.93994 56.57 5.93994 55.0522V54.8034C5.94824 54.3306 6.33805 53.9491 6.8108 53.9491C6.8108 53.9491 6.81357 53.9491 6.8191 53.9491C7.29185 53.9491 7.68166 54.3389 7.67337 54.82V55.0522C7.67337 56.4871 7.78119 57.9053 7.98854 59.2738C8.06318 59.7466 7.73972 60.1944 7.26697 60.2608C7.22273 60.2718 7.1785 60.2774 7.13426 60.2774ZM7.18403 51.0794C7.13979 51.0794 7.09556 51.0767 7.05133 51.0711C6.57857 50.9965 6.25511 50.5569 6.32976 50.0842C6.56198 48.5664 6.90204 47.0154 7.34161 45.4728C7.47431 45.0166 7.95536 44.7512 8.41152 44.8839C8.87598 45.0166 9.14139 45.4893 9.00868 45.9538C8.5857 47.4218 8.26223 48.8981 8.0383 50.3496C7.97195 50.7726 7.60701 51.0794 7.18403 51.0794ZM9.69708 42.2298C9.58926 42.2298 9.48144 42.205 9.37362 42.1635C8.92575 41.981 8.7184 41.4751 8.90086 41.0355C9.48973 39.609 10.1698 38.1824 10.9246 36.789C11.1485 36.3661 11.671 36.2085 12.094 36.4324C12.517 36.6646 12.6663 37.1872 12.4424 37.6101C11.7208 38.9538 11.0656 40.3305 10.5016 41.6907C10.3606 42.0225 10.0371 42.2298 9.69708 42.2298ZM14.0597 34.1101C13.8938 34.1101 13.7279 34.0604 13.5786 33.9608C13.1805 33.7037 13.0727 33.1646 13.3381 32.7665C14.1924 31.4809 15.1213 30.212 16.1 28.9762C16.3985 28.603 16.9377 28.5449 17.3109 28.8435C17.6841 29.1338 17.7505 29.6812 17.4519 30.0544C16.5064 31.2487 15.6023 32.4845 14.7812 33.7203C14.6154 33.9774 14.3334 34.1101 14.0597 34.1101ZM19.7908 26.8944C19.5751 26.8944 19.3678 26.8115 19.2019 26.6539C18.8535 26.3304 18.8287 25.783 19.1604 25.4347C19.94 24.6053 20.7611 23.7676 21.5988 22.9631C21.9472 22.6397 22.4946 22.648 22.8263 22.9963C23.1498 23.3363 23.1415 23.892 22.7931 24.2155C21.9803 25.0034 21.1758 25.8079 20.4211 26.6124C20.2552 26.7949 20.023 26.8944 19.7908 26.8944Z" fill="#14539A"/>
<g style="mix-blend-mode:multiply" opacity="0.2">
<path d="M193.415 167.393C193.415 167.387 193.415 167.382 193.415 167.376C193.415 167.368 193.415 167.352 193.415 167.343C193.415 167.285 193.415 167.227 193.407 167.169C193.399 167.103 193.398 167.045 193.39 166.978C193.39 166.956 193.387 166.931 193.382 166.904C193.382 166.887 193.382 166.871 193.382 166.854C193.374 166.812 193.365 166.771 193.357 166.73C193.357 166.691 193.352 166.652 193.34 166.613C193.324 166.522 193.307 166.431 193.291 166.348L193.241 166.132L193.083 165.411L177.765 96.7954C177.74 96.7041 177.723 96.6212 177.698 96.5382C177.682 96.4802 177.665 96.4138 177.64 96.3558C177.624 96.2839 177.601 96.212 177.574 96.1401C177.552 96.0848 177.527 96.0268 177.499 95.966C177.483 95.9079 177.458 95.8582 177.433 95.8001C177.4 95.7255 177.366 95.6591 177.325 95.5844C177.25 95.4352 177.176 95.2942 177.084 95.1615C177.084 95.1532 177.076 95.1532 177.076 95.1449C177.018 95.0619 176.96 94.979 176.902 94.896C176.686 94.5975 176.446 94.3321 176.172 94.0915C176.106 94.0307 176.037 93.9727 175.965 93.9174C175.81 93.7957 175.65 93.6824 175.484 93.5773C175.426 93.5442 175.376 93.511 175.318 93.4778C175.243 93.4363 175.169 93.3949 175.094 93.3617C175.083 93.3506 175.069 93.3423 175.052 93.3368L174.754 93.2041C174.754 93.2041 174.754 93.1958 174.746 93.2041L167.016 89.6626L156.059 40.5876C154.965 35.6693 150.079 32.5674 145.161 33.6705L47.5752 55.4586C42.6569 56.5534 39.555 61.4302 40.658 66.3567L51.6143 115.423L46.1154 121.918L45.8998 122.175C45.8943 122.186 45.886 122.197 45.8749 122.208C45.3192 122.921 44.9543 123.775 44.8382 124.688C44.7635 125.26 44.7884 125.857 44.9211 126.454L60.3644 195.617L60.4058 195.791L60.4473 196.007C60.4805 196.14 60.5136 196.264 60.5551 196.388C60.5606 196.416 60.5689 196.444 60.58 196.471C60.5855 196.494 60.5911 196.516 60.5966 196.538C60.6021 196.549 60.6076 196.56 60.6132 196.571C60.6187 196.582 60.6215 196.593 60.6215 196.604C60.6463 196.679 60.6795 196.753 60.7044 196.828C60.7127 196.836 60.7127 196.853 60.721 196.87C60.7376 196.897 60.7514 196.925 60.7625 196.952C60.7735 196.98 60.7873 197.008 60.8039 197.035C60.8095 197.052 60.815 197.069 60.8205 197.085C60.826 197.096 60.8343 197.11 60.8454 197.127C60.8786 197.204 60.9173 197.281 60.9615 197.359C60.967 197.37 60.9753 197.384 60.9864 197.4C61.003 197.434 61.0223 197.467 61.0444 197.5C61.061 197.533 61.0776 197.566 61.1025 197.599C61.1523 197.674 61.202 197.757 61.2518 197.832C61.2573 197.832 61.2601 197.834 61.2601 197.84C61.3016 197.89 61.3347 197.939 61.3762 197.989C61.3928 198.014 61.4094 198.031 61.426 198.056C61.4757 198.122 61.5255 198.188 61.5836 198.246C61.5891 198.257 61.5974 198.268 61.6084 198.279C61.6195 198.291 61.6306 198.302 61.6416 198.313C61.6748 198.354 61.708 198.387 61.7494 198.429C61.766 198.445 61.7826 198.454 61.7909 198.47C61.8572 198.537 61.9236 198.6 61.99 198.661C62.0065 198.669 62.0148 198.686 62.0314 198.702C62.0978 198.761 62.1641 198.819 62.2388 198.868C62.2719 198.896 62.3051 198.924 62.3383 198.951C62.3881 198.99 62.4378 199.029 62.4876 199.067C62.5125 199.084 62.5374 199.092 62.5539 199.109C62.6535 199.175 62.753 199.236 62.8525 199.291C62.8857 199.313 62.9189 199.333 62.952 199.349C62.9935 199.374 63.035 199.399 63.0765 199.416C63.2368 199.504 63.4055 199.582 63.5824 199.648C63.61 199.659 63.6404 199.67 63.6736 199.681C63.7123 199.698 63.7538 199.714 63.798 199.731C63.8699 199.753 63.939 199.775 64.0054 199.797C64.0468 199.814 64.0966 199.822 64.1464 199.83C64.1961 199.842 64.2487 199.855 64.304 199.872C64.3537 199.883 64.4035 199.894 64.4532 199.905C64.5362 199.922 64.6274 199.93 64.7104 199.938C64.7214 199.944 64.7352 199.947 64.7518 199.947C64.785 199.955 64.8099 199.963 64.8431 199.963C64.8873 199.969 64.9315 199.974 64.9758 199.98C64.9923 199.98 65.0117 199.98 65.0338 199.98C65.0393 199.98 65.0449 199.98 65.0504 199.98C65.1582 199.996 65.266 199.996 65.3656 199.996C65.3988 199.996 65.4236 200.005 65.4568 199.996C65.4679 199.996 65.4817 199.996 65.4983 199.996C65.5149 199.996 65.5342 199.996 65.5563 199.996C65.6227 199.996 65.689 199.996 65.7554 199.988C65.7554 199.988 65.7581 199.988 65.7637 199.988C65.7803 199.988 65.7969 199.985 65.8134 199.98C65.8356 199.98 65.8549 199.98 65.8715 199.98C65.913 199.971 65.9544 199.971 65.9876 199.963C66.0042 199.963 66.0236 199.963 66.0457 199.963C66.0567 199.958 66.0706 199.955 66.0871 199.955C66.1452 199.947 66.2115 199.938 66.2696 199.93C66.3581 199.913 66.4465 199.894 66.535 199.872L189.152 172.502L189.426 172.436C189.514 172.419 189.603 172.397 189.691 172.369C189.749 172.353 189.816 172.336 189.874 172.32C189.89 172.311 189.907 172.303 189.923 172.303C189.948 172.295 189.981 172.278 190.015 172.27C190.023 172.262 190.039 172.262 190.056 172.253C190.095 172.242 190.128 172.231 190.156 172.22C190.156 172.212 190.164 172.212 190.172 172.212C190.214 172.195 190.255 172.179 190.288 172.162C190.321 172.145 190.355 172.137 190.388 172.121C190.393 172.121 190.399 172.118 190.404 172.112C190.404 172.112 190.407 172.112 190.413 172.112C190.451 172.09 190.493 172.071 190.537 172.054C190.637 172.004 190.728 171.955 190.819 171.905C190.825 171.899 190.827 171.897 190.827 171.897C190.855 171.886 190.877 171.872 190.894 171.855C190.927 171.839 190.957 171.822 190.985 171.805C191.002 171.797 191.018 171.789 191.035 171.78C191.043 171.772 191.06 171.764 191.068 171.756C191.093 171.739 191.109 171.722 191.134 171.706C191.333 171.573 191.516 171.432 191.69 171.283C191.695 171.277 191.701 171.272 191.707 171.266C191.734 171.244 191.762 171.219 191.789 171.192C191.823 171.167 191.848 171.142 191.872 171.117C191.9 171.089 191.93 171.059 191.964 171.026C191.975 171.015 191.989 171.001 192.005 170.984C192.016 170.968 192.03 170.951 192.047 170.935C192.091 170.885 192.138 170.835 192.188 170.785C192.193 170.774 192.199 170.766 192.204 170.76C192.237 170.727 192.262 170.686 192.287 170.653C192.315 170.619 192.342 170.586 192.37 170.553C192.381 170.536 192.389 170.523 192.395 170.512C192.403 170.503 192.412 170.495 192.42 170.487C192.447 170.448 192.472 170.412 192.494 170.379C192.519 170.354 192.536 170.321 192.553 170.296C192.569 170.268 192.586 170.243 192.602 170.221C192.619 170.194 192.635 170.166 192.652 170.138C192.685 170.089 192.716 170.036 192.743 169.981C192.776 169.931 192.807 169.876 192.835 169.815C192.851 169.787 192.868 169.757 192.884 169.724C192.929 169.635 192.97 169.547 193.009 169.458C193.025 169.425 193.042 169.384 193.05 169.342C193.061 169.32 193.072 169.295 193.083 169.267C193.105 169.212 193.128 169.154 193.15 169.093C193.166 169.052 193.175 169.01 193.183 168.977C193.199 168.936 193.208 168.894 193.224 168.861C193.233 168.82 193.241 168.77 193.258 168.737C193.291 168.621 193.307 168.496 193.332 168.372C193.332 168.363 193.34 168.355 193.34 168.339C193.34 168.305 193.349 168.264 193.357 168.214C193.363 168.17 193.368 168.126 193.374 168.081C193.379 168.076 193.382 168.07 193.382 168.065C193.382 168.023 193.39 167.99 193.39 167.949C193.396 167.91 193.399 167.874 193.399 167.841C193.399 167.819 193.401 167.799 193.407 167.783C193.407 167.775 193.407 167.766 193.407 167.758C193.407 167.7 193.415 167.65 193.415 167.592C193.415 167.564 193.415 167.534 193.415 167.501C193.415 167.484 193.415 167.468 193.415 167.451C193.415 167.434 193.415 167.415 193.415 167.393Z" fill="#306C9E"/>
</g>
<path d="M182.053 89.3312L197.587 158.892C197.604 158.975 197.62 159.058 197.637 159.149C197.642 159.188 197.648 159.229 197.653 159.274C197.662 159.307 197.67 159.348 197.67 159.39C197.678 159.406 197.678 159.423 197.678 159.439C197.678 159.467 197.681 159.492 197.687 159.514C197.695 159.58 197.695 159.639 197.703 159.705C197.703 159.763 197.703 159.829 197.703 159.887C197.709 159.915 197.709 159.943 197.703 159.97C197.711 159.995 197.711 160.02 197.711 160.045C197.711 160.073 197.709 160.1 197.703 160.128C197.703 160.186 197.703 160.244 197.703 160.294C197.703 160.302 197.703 160.31 197.695 160.319C197.687 160.418 197.687 160.509 197.67 160.601C197.676 160.606 197.676 160.612 197.67 160.617C197.664 160.667 197.659 160.714 197.653 160.758C197.645 160.8 197.637 160.841 197.637 160.883C197.629 160.891 197.629 160.907 197.629 160.916C197.604 161.032 197.579 161.156 197.546 161.272C197.537 161.314 197.529 161.355 197.512 161.397C197.504 161.438 197.488 161.471 197.479 161.513C197.463 161.554 197.454 161.588 197.438 161.629C197.413 161.704 197.388 161.787 197.355 161.861C197.338 161.911 197.322 161.953 197.305 161.994C197.255 162.102 197.206 162.201 197.156 162.309C197.117 162.381 197.078 162.453 197.04 162.525C196.998 162.591 196.957 162.666 196.915 162.732C196.899 162.765 196.874 162.799 196.849 162.832C196.832 162.857 196.816 162.89 196.791 162.915C196.769 162.948 196.744 162.984 196.716 163.022C196.708 163.031 196.7 163.039 196.691 163.056C196.631 163.139 196.567 163.219 196.501 163.296C196.49 163.302 196.481 163.31 196.476 163.321C196.426 163.379 196.368 163.445 196.31 163.503C196.293 163.528 196.277 163.545 196.26 163.562C196.227 163.595 196.194 163.625 196.161 163.653C196.136 163.686 196.111 163.703 196.086 163.727C196.058 163.755 196.031 163.783 196.003 163.81C195.804 163.987 195.591 164.148 195.364 164.291C195.348 164.3 195.339 164.308 195.323 164.316C195.306 164.325 195.29 164.341 195.273 164.349C195.223 164.374 195.174 164.408 195.115 164.441C195.024 164.499 194.925 164.54 194.834 164.59C194.784 164.612 194.734 164.634 194.684 164.656C194.651 164.673 194.618 164.69 194.585 164.698C194.543 164.714 194.502 164.731 194.469 164.748C194.46 164.756 194.452 164.756 194.452 164.756C194.419 164.767 194.386 164.778 194.352 164.789C194.336 164.797 194.319 164.806 194.303 164.806C194.278 164.814 194.245 164.831 194.22 164.839C194.203 164.847 194.187 164.847 194.17 164.855C194.112 164.872 194.046 164.889 193.988 164.905C193.899 164.933 193.811 164.958 193.722 164.98L70.8314 192.416C70.7429 192.433 70.6545 192.449 70.566 192.466C70.4997 192.474 70.4416 192.482 70.3753 192.491C70.3089 192.502 70.2398 192.51 70.1679 192.516C70.1264 192.524 70.085 192.524 70.0435 192.524C69.944 192.532 69.8444 192.54 69.7449 192.54C69.72 192.54 69.6952 192.54 69.662 192.532C69.5542 192.532 69.4463 192.532 69.3385 192.524C69.2805 192.516 69.2141 192.516 69.1561 192.507C68.8658 192.474 68.5755 192.416 68.3018 192.333C68.2299 192.311 68.1608 192.289 68.0944 192.267C68.0115 192.242 67.9369 192.217 67.8622 192.184C67.406 192.001 66.9748 191.761 66.5849 191.454C66.4965 191.388 66.408 191.316 66.3195 191.238C66.032 190.978 65.7749 190.688 65.5482 190.367C65.4984 190.293 65.4487 190.218 65.3989 190.135C65.3409 190.061 65.2994 189.978 65.2496 189.895C65.2054 189.812 65.1639 189.729 65.1252 189.646C65.0838 189.563 65.0506 189.488 65.0174 189.405C65.0091 189.397 65.0091 189.38 65.0008 189.364C64.9676 189.289 64.9428 189.206 64.9096 189.132C64.9096 189.123 64.9096 189.115 64.9013 189.107C64.8847 189.049 64.8681 188.991 64.8432 188.924C64.81 188.8 64.7769 188.675 64.7437 188.551L49.2175 118.99C49.0848 118.393 49.0599 117.796 49.1346 117.224C49.2507 116.311 49.6156 115.457 50.1713 114.744C50.1768 114.733 50.1851 114.722 50.1962 114.71L50.4118 114.462C51.0919 113.699 52.0126 113.143 53.0825 112.902L175.965 85.4662C176.089 85.4413 176.205 85.4164 176.33 85.3999C176.346 85.3916 176.371 85.3916 176.388 85.3916C176.504 85.375 176.628 85.3584 176.736 85.3501C176.761 85.3501 176.794 85.3501 176.819 85.3501C176.919 85.3446 177.018 85.3418 177.118 85.3418C177.14 85.3418 177.165 85.3418 177.192 85.3418C177.314 85.3473 177.436 85.3556 177.557 85.3667C177.673 85.375 177.79 85.3916 177.897 85.4082C178.055 85.433 178.213 85.4662 178.362 85.5077C178.45 85.5298 178.536 85.5547 178.619 85.5823C178.763 85.6266 178.904 85.6791 179.042 85.7399L179.349 85.8809C179.36 85.8864 179.371 85.892 179.382 85.8975C179.465 85.9307 179.54 85.9721 179.614 86.0219C179.672 86.0468 179.722 86.08 179.78 86.1131C179.946 86.2182 180.106 86.3343 180.261 86.4615C180.333 86.5168 180.399 86.5721 180.46 86.6274C180.734 86.8679 180.983 87.1416 181.198 87.4402C181.256 87.5148 181.314 87.5977 181.373 87.689L181.381 87.6973C181.464 87.83 181.547 87.9793 181.621 88.1203C181.655 88.1949 181.688 88.2612 181.721 88.3359C181.746 88.3939 181.771 88.4437 181.796 88.5018C181.818 88.5626 181.84 88.6234 181.862 88.6842C181.889 88.7506 181.914 88.8197 181.936 88.8916C181.961 88.9496 181.978 89.016 181.986 89.0741C182.011 89.157 182.036 89.2482 182.053 89.3312Z" fill="#F9C067"/>
<path d="M181.381 87.6972L49.1348 117.223C49.2509 116.311 49.6158 115.457 50.1715 114.744C50.177 114.733 50.1853 114.722 50.1964 114.71L50.412 114.462L101.295 54.2728C102.788 52.4979 105.284 51.9422 107.391 52.9126L179.042 85.7399L179.349 85.8808C179.36 85.8864 179.371 85.8919 179.382 85.8974C179.465 85.9306 179.54 85.9721 179.614 86.0218C179.672 86.0467 179.722 86.0799 179.78 86.1131C179.946 86.2181 180.107 86.3342 180.261 86.4614C180.333 86.5167 180.4 86.572 180.46 86.6273C180.734 86.8678 180.983 87.1415 181.199 87.4401C181.257 87.5147 181.315 87.5977 181.373 87.6889L181.381 87.6972Z" fill="#DD9B31"/>
<path d="M183.736 137.834L68.3265 163.603L44.946 58.8924C43.8512 53.9741 46.9449 49.089 51.8714 47.9942L149.457 26.2061C154.376 25.1031 159.253 28.205 160.356 33.1233L183.736 137.834Z" fill="white"/>
<path d="M151.647 66.0747L66.8423 85.0097C65.6563 85.2751 64.4702 84.5203 64.2048 83.326L63.9975 82.4137C63.7321 81.2193 64.4868 80.0333 65.6729 79.7679L150.478 60.8329C151.664 60.5675 152.85 61.3223 153.115 62.5083L153.323 63.4289C153.588 64.615 152.833 65.8093 151.647 66.0747Z" fill="#E4ECF9"/>
<path d="M154.144 77.2632L69.3469 96.1982C68.1526 96.4636 66.9666 95.7089 66.7012 94.5228L66.4938 93.6022C66.2284 92.4162 66.9831 91.2219 68.1775 90.9565L152.974 72.0215C154.16 71.7561 155.346 72.5191 155.612 73.7052L155.819 74.6175C156.085 75.8118 155.33 76.9978 154.144 77.2632Z" fill="#E4ECF9"/>
<path d="M156.64 88.4516L71.8433 107.387C70.6573 107.652 69.4629 106.897 69.1975 105.711L68.9985 104.791C68.7331 103.605 69.4878 102.419 70.6738 102.153L155.471 83.2182C156.657 82.9528 157.851 83.7075 158.116 84.8936L158.315 85.8142C158.581 87.0002 157.826 88.1862 156.64 88.4516Z" fill="#E4ECF9"/>
<path d="M159.136 99.6484L74.3396 118.575C73.1536 118.84 71.9676 118.086 71.7022 116.9L71.4948 115.979C71.2294 114.793 71.9842 113.607 73.1702 113.342L157.967 94.4067C159.161 94.1413 160.347 94.896 160.613 96.082L160.82 97.0027C161.086 98.1887 160.331 99.383 159.136 99.6484Z" fill="#E4ECF9"/>
<path d="M161.641 110.837L76.8362 129.772C75.6502 130.037 74.4641 129.283 74.1987 128.088L73.9914 127.176C73.726 125.982 74.4807 124.796 75.6668 124.53L160.472 105.595C161.658 105.33 162.844 106.084 163.109 107.279L163.317 108.191C163.582 109.385 162.827 110.571 161.641 110.837Z" fill="#E4ECF9"/>
<path d="M99.3209 56.5703L62.3384 64.8227C61.1524 65.0881 59.9663 64.3334 59.7009 63.1474L59.4936 62.2267C59.2282 61.0407 59.9829 59.8547 61.169 59.5893L98.1515 51.3286C99.3375 51.0631 100.532 51.8179 100.797 53.0039L100.996 53.9245C101.262 55.1106 100.507 56.3049 99.3209 56.5703Z" fill="#14539A"/>
<path d="M123.821 140.803V140.811C123.672 141.06 123.489 141.309 123.257 141.524L71.1051 192.35L70.8314 192.416C70.3255 192.524 69.8279 192.565 69.3385 192.524C69.2722 192.518 69.2058 192.513 69.1395 192.507C68.2852 192.408 67.4724 192.092 66.784 191.603C66.7176 191.559 66.6513 191.509 66.5849 191.454C66.3942 191.313 66.2117 191.147 66.0458 190.964C65.9795 190.906 65.9297 190.848 65.8717 190.79C65.8219 190.724 65.7638 190.658 65.7141 190.591C65.2579 190.011 64.9179 189.322 64.7437 188.551L49.2175 118.99C49.0848 118.393 49.0599 117.796 49.1346 117.223C49.2507 116.311 49.6156 115.457 50.1713 114.744C50.1768 114.732 50.1851 114.721 50.1962 114.71L50.4118 114.462C51.0919 113.698 52.0126 113.143 53.0825 112.902C53.8206 112.736 54.6003 112.778 55.3135 113.027L60.2567 114.744L115.959 134.019L118.057 134.74L122.055 136.125C122.353 136.233 122.627 136.374 122.867 136.54C124.228 137.494 124.642 139.368 123.821 140.803Z" fill="#14539A"/>
<path d="M182.053 89.3312L197.587 158.892C197.604 158.975 197.62 159.058 197.637 159.149C197.643 159.188 197.648 159.229 197.654 159.274C197.662 159.307 197.67 159.348 197.67 159.39C197.678 159.406 197.679 159.423 197.679 159.439C197.679 159.467 197.681 159.492 197.687 159.514C197.695 159.58 197.695 159.639 197.703 159.705C197.703 159.763 197.703 159.829 197.703 159.887C197.712 159.896 197.712 159.904 197.712 159.912C197.712 159.929 197.712 159.954 197.703 159.97C197.712 159.995 197.712 160.02 197.712 160.045C197.712 160.073 197.709 160.1 197.703 160.128C197.703 160.186 197.703 160.236 197.703 160.294C197.703 160.302 197.703 160.31 197.695 160.319C197.695 160.418 197.687 160.512 197.67 160.601C197.676 160.606 197.676 160.612 197.67 160.617C197.662 160.667 197.662 160.708 197.654 160.758C197.645 160.791 197.637 160.833 197.637 160.883C197.632 160.888 197.629 160.899 197.629 160.916C197.604 161.032 197.579 161.156 197.546 161.272C197.537 161.314 197.529 161.355 197.513 161.397C197.504 161.438 197.488 161.471 197.479 161.513C197.463 161.554 197.455 161.588 197.438 161.629C197.413 161.704 197.388 161.787 197.355 161.861C197.338 161.911 197.322 161.953 197.305 161.994C197.256 162.102 197.206 162.201 197.156 162.309C197.117 162.381 197.079 162.453 197.04 162.525C196.998 162.591 196.957 162.666 196.915 162.732C196.899 162.765 196.874 162.799 196.849 162.832C196.833 162.857 196.816 162.89 196.791 162.915C196.769 162.948 196.744 162.984 196.716 163.022C196.708 163.031 196.7 163.039 196.692 163.056C196.631 163.139 196.567 163.219 196.501 163.296C196.49 163.302 196.481 163.31 196.476 163.321C196.426 163.379 196.368 163.445 196.31 163.503C196.293 163.528 196.277 163.545 196.26 163.562C196.227 163.595 196.194 163.625 196.161 163.653C196.136 163.686 196.111 163.703 196.086 163.727C196.058 163.755 196.031 163.783 196.003 163.81C195.804 163.987 195.591 164.148 195.364 164.291C195.348 164.3 195.34 164.308 195.323 164.316C195.306 164.325 195.29 164.341 195.273 164.349C195.224 164.374 195.174 164.408 195.116 164.441C195.024 164.499 194.925 164.54 194.834 164.59C194.784 164.612 194.734 164.634 194.684 164.656C194.651 164.673 194.618 164.69 194.585 164.698C194.543 164.714 194.502 164.731 194.469 164.748L194.452 164.756C194.419 164.764 194.386 164.781 194.353 164.789C194.336 164.797 194.319 164.806 194.303 164.806C194.275 164.817 194.248 164.828 194.22 164.839C194.203 164.847 194.187 164.847 194.17 164.855C194.112 164.872 194.046 164.889 193.988 164.905C193.899 164.933 193.811 164.958 193.722 164.98L193.449 165.038L124.626 141.218C124.327 141.118 124.054 140.977 123.821 140.811V140.803C122.453 139.849 122.038 137.983 122.868 136.54C123.009 136.283 123.199 136.042 123.423 135.818L126.45 132.866L128.035 131.323L170.251 90.1854L174.082 86.4532C174.572 85.9721 175.185 85.6404 175.857 85.4911L175.965 85.4662C176.089 85.4413 176.206 85.4164 176.33 85.3999C176.347 85.3916 176.371 85.3916 176.388 85.3916C176.504 85.375 176.629 85.3584 176.736 85.3501C176.761 85.3501 176.794 85.3501 176.819 85.3501C176.919 85.3446 177.018 85.3418 177.118 85.3418C177.14 85.3418 177.165 85.3418 177.193 85.3418C177.314 85.3473 177.436 85.3556 177.557 85.3667C177.674 85.375 177.79 85.3916 177.898 85.4082C178.055 85.433 178.213 85.4662 178.362 85.5077C178.45 85.5298 178.536 85.5547 178.619 85.5823C178.763 85.6266 178.904 85.6791 179.042 85.7399L179.349 85.8809C179.36 85.8864 179.371 85.892 179.382 85.8975C179.465 85.9307 179.54 85.9721 179.614 86.0219C179.672 86.0468 179.722 86.08 179.78 86.1131C179.946 86.2182 180.106 86.3343 180.261 86.4615C180.333 86.5168 180.4 86.5721 180.46 86.6274C180.734 86.8679 180.983 87.1416 181.199 87.4402C181.257 87.5148 181.315 87.5977 181.373 87.689L181.381 87.6973C181.464 87.83 181.547 87.9793 181.622 88.1203C181.655 88.1949 181.688 88.2612 181.721 88.3359C181.746 88.3939 181.771 88.4437 181.796 88.5018C181.818 88.5626 181.84 88.6234 181.862 88.6842C181.89 88.7506 181.915 88.8197 181.937 88.8916C181.962 88.9496 181.978 89.016 181.986 89.0741C182.011 89.157 182.036 89.2482 182.053 89.3312Z" fill="#14539A"/>
<g style="mix-blend-mode:multiply" opacity="0.3">
<path d="M197.38 157.946L197.537 158.668C198.176 161.538 196.467 164.366 193.722 164.98L70.8314 192.416C68.0862 193.03 65.3409 191.197 64.694 188.327L64.5364 187.605L118.455 131.912C120.13 130.178 122.627 129.623 124.883 130.477L197.38 157.946Z" fill="#8E5F13"/>
</g>
<path d="M197.43 158.195L197.587 158.892C198.201 161.637 196.467 164.366 193.722 164.98L70.8315 192.416C68.0862 193.03 65.3575 191.296 64.7438 188.551L64.5945 187.854L118.903 133.903C120.587 132.227 123.083 131.672 125.322 132.468L197.43 158.195Z" fill="#1D5DA6"/>
<g style="mix-blend-mode:multiply" opacity="0.2">
<path d="M178.304 17.7134C162.686 17.7134 150.03 30.3699 150.03 45.9873C150.03 61.5964 162.686 74.2529 178.304 74.2529C193.913 74.2529 206.569 61.5964 206.569 45.9873C206.569 30.3699 193.913 17.7134 178.304 17.7134Z" fill="#306C9E"/>
</g>
<path d="M210.277 41.6743C210.277 57.2834 197.62 69.9399 182.003 69.9399C166.394 69.9399 153.737 57.2834 153.737 41.6743C153.737 26.0569 166.394 13.4004 182.003 13.4004C197.62 13.4004 210.277 26.0569 210.277 41.6743Z" fill="#C4D7F2"/>
<path fill-rule="evenodd" clip-rule="evenodd" d="M187.784 34.7072L188.663 32.7996L193.424 33.828L187.892 46.1611C187.543 46.9462 187.341 47.4687 187.286 47.7286C187.225 48.0051 187.247 48.2373 187.353 48.4253C187.458 48.6133 187.607 48.7266 187.8 48.7653C188.447 48.9091 189.376 48.6686 190.587 48.0438C191.798 47.419 192.943 46.4569 194.021 45.1575C195.099 43.8636 195.826 42.3514 196.202 40.6207C196.517 39.1776 196.539 37.7593 196.268 36.366C195.992 34.9781 195.439 33.7036 194.61 32.5425C193.78 31.3813 192.663 30.3695 191.259 29.5069C189.849 28.6499 188.185 28.014 186.266 27.5993C184.303 27.1736 182.451 27.0409 180.709 27.2012C178.962 27.356 177.367 27.779 175.924 28.4702C174.475 29.1558 173.184 30.1124 172.05 31.3399C171.055 32.407 170.203 33.6428 169.496 35.0472C168.788 36.4572 168.265 37.9363 167.928 39.4845C167.48 41.5524 167.483 43.5319 167.936 45.4229C168.39 47.3139 169.277 49.0086 170.599 50.5071C171.915 52.011 173.632 53.2468 175.749 54.2144C177.867 55.182 180.358 55.8234 183.222 56.1386C185.5 56.3543 187.493 56.2575 189.202 55.8483C190.905 55.4336 192.439 54.6706 193.805 53.5592L197.645 54.3886C196.738 55.5387 195.674 56.5091 194.452 57.2998C193.23 58.096 191.873 58.6931 190.38 59.0912C188.881 59.4893 187.259 59.6884 185.511 59.6884C183.764 59.6884 181.903 59.4755 179.929 59.0498C176.971 58.4084 174.395 57.4463 172.2 56.1635C169.999 54.8752 168.246 53.3242 166.941 51.5106C165.642 49.7025 164.796 47.6954 164.403 45.4892C164.016 43.2886 164.085 40.9608 164.611 38.5058C165.169 35.9457 166.115 33.6456 167.447 31.6053C168.78 29.5705 170.427 27.9062 172.39 26.6123C174.348 25.3185 176.584 24.4587 179.1 24.0329C181.61 23.6072 184.262 23.6956 187.054 24.2983C189.338 24.7904 191.358 25.5756 193.117 26.6538C194.881 27.7375 196.304 29.0507 197.388 30.5934C198.477 32.1361 199.193 33.8418 199.536 35.7107C199.885 37.5796 199.835 39.5453 199.387 41.6077C199.039 43.2222 198.408 44.74 197.496 46.1611C196.584 47.5765 195.458 48.7847 194.12 49.7855C192.777 50.7863 191.3 51.4857 189.691 51.8838C188.082 52.2875 186.437 52.3068 184.757 51.9419C183.778 51.7318 183.056 51.4028 182.592 50.9549C182.122 50.5071 181.873 49.9016 181.845 49.1386C180.579 49.9458 179.236 50.3384 177.815 50.3163C176.399 50.2942 175.111 49.8823 173.95 49.0805C172.788 48.2843 171.948 47.1812 171.428 45.7712C170.908 44.3668 170.845 42.755 171.237 40.9359C171.647 39.0504 172.454 37.2838 173.659 35.6361C174.87 33.9828 176.349 32.736 178.097 31.8955C179.844 31.0496 181.66 30.8312 183.546 31.2403C185.713 31.7103 187.126 32.8659 187.784 34.7072ZM175.899 41.9063C175.589 43.3494 175.65 44.5216 176.081 45.4229C176.518 46.3242 177.223 46.8799 178.196 47.09C179.324 47.3333 180.416 47.0955 181.472 46.3767C182.528 45.6634 183.427 44.6681 184.168 43.3909C184.909 42.1081 185.42 40.8225 185.702 39.5342C185.84 38.8984 185.887 38.3095 185.843 37.7676C185.804 37.2258 185.68 36.7309 185.47 36.283C185.26 35.8351 184.969 35.4647 184.599 35.1716C184.223 34.8841 183.772 34.6851 183.247 34.5745C182.185 34.3422 181.143 34.5468 180.12 35.1882C179.092 35.8296 178.207 36.7585 177.466 37.975C176.725 39.1914 176.203 40.5019 175.899 41.9063Z" fill="#F9F9F9"/>
<g style="mix-blend-mode:multiply" opacity="0.2">
<path d="M65.8053 6.25956L0.00976562 3.66357L13.5454 18.2028L10.0039 40.0074L25.4223 30.9339L31.9828 37.934L65.8053 6.25956Z" fill="#306C9E"/>
</g>
<path d="M10.8242 37.4114L15.9913 5.55458L66.6256 3.66357L10.8242 37.4114Z" fill="#63A4E5"/>
<path d="M14.4487 15.7061C14.7224 15.6232 66.6256 3.66337 66.6256 3.66337L0.821777 1.06738L14.4487 15.7061Z" fill="#C4D7F2"/>
<path d="M19.0766 20.6909L10.8242 37.4114L36.3777 22.3663L19.0766 20.6909Z" fill="#91A8A4"/>
<path d="M19.0767 20.6909L32.8031 35.338L66.6256 3.66357L19.0767 20.6909Z" fill="#C4D7F2"/>
<path d="M113.437 2.0546L117.103 0.130417C117.933 -0.300866 118.895 0.404118 118.737 1.32474L118.04 5.40533C117.974 5.77027 118.098 6.14349 118.364 6.4006L121.325 9.28688C121.997 9.9421 121.632 11.0867 120.703 11.2194L116.605 11.8165C116.241 11.8663 115.925 12.0985 115.759 12.4303L113.927 16.1376C113.512 16.9836 112.309 16.9836 111.895 16.1376L110.07 12.4303C109.904 12.0985 109.589 11.8663 109.216 11.8165L105.127 11.2194C104.198 11.0867 103.825 9.9421 104.496 9.28688L107.457 6.4006C107.723 6.14349 107.847 5.77027 107.781 5.40533L107.084 1.32474C106.926 0.404118 107.897 -0.300866 108.726 0.130417L112.384 2.0546C112.716 2.22877 113.105 2.22877 113.437 2.0546Z" fill="#14539A"/>
</svg>
