<svg width="201" height="200" viewBox="0 0 201 200" fill="none" xmlns="http://www.w3.org/2000/svg">
<g clip-path="url(#clip0_46_5727)">
<path d="M164.908 0.000488281H10.4631C5.00285 0.000488281 0.576416 4.42692 0.576416 9.88721V109.494C0.576416 114.954 5.00285 119.381 10.4631 119.381H164.908C170.369 119.381 174.795 114.954 174.795 109.494V9.88721C174.795 4.42692 170.369 0.000488281 164.908 0.000488281Z" fill="#E57E25"/>
<path d="M170.787 117.271C172.034 116.317 173.045 115.089 173.74 113.681C174.435 112.274 174.796 110.724 174.795 109.154V10.2267C174.795 7.51451 173.718 4.91344 171.8 2.99566C169.882 1.07789 167.281 0.000488281 164.569 0.000488281L65.6187 0.000488281L170.576 117.193L170.787 117.271Z" fill="#F29C1F"/>
<path d="M109.753 0.000488281H10.8026C8.09044 0.000488281 5.48937 1.07789 3.5716 2.99566C1.65382 4.91344 0.576419 7.51451 0.576419 10.2267V109.154C0.575335 110.677 0.915068 112.181 1.57071 113.555C2.22635 114.93 3.18128 116.14 4.36548 117.097L4.79517 117.193L109.753 0.000488281Z" fill="#F29C1F"/>
<path d="M164.569 0.000488281H10.8026C8.09044 0.000488281 5.48937 1.07789 3.57159 2.99566C1.65381 4.91344 0.576416 7.51451 0.576416 10.2267L0.576416 14.1575L74.3717 65.0079C78.2874 67.7062 82.9305 69.151 87.6858 69.151C92.4411 69.151 97.0842 67.7062 101 65.0079L174.795 14.1575V10.2267C174.795 7.51451 173.718 4.91344 171.8 2.99566C169.882 1.07789 167.281 0.000488281 164.569 0.000488281Z" fill="#F0C419"/>
<path d="M45.9382 200C45.2972 200.001 44.6717 199.804 44.1464 199.437C43.621 199.069 43.2213 198.55 43.0014 197.948C42.7815 197.345 42.7521 196.69 42.9171 196.071C43.082 195.452 43.4335 194.898 43.9237 194.485L87.1221 158.58C87.4347 158.307 87.7987 158.098 88.1927 157.967C88.5868 157.836 89.0031 157.785 89.4172 157.816C89.8313 157.848 90.2351 157.961 90.6047 158.151C90.9744 158.34 91.3026 158.601 91.5702 158.919C91.8378 159.237 92.0394 159.604 92.1631 160.001C92.2869 160.397 92.3304 160.814 92.2911 161.228C92.2518 161.641 92.1304 162.043 91.9342 162.409C91.7379 162.775 91.4706 163.098 91.1479 163.36L47.9499 199.266C47.3873 199.741 46.6745 200.001 45.9382 200Z" fill="#FF5364"/>
<path d="M82.5792 193.199C81.9434 193.199 81.3226 193.005 80.7998 192.644C80.2769 192.282 79.8768 191.769 79.6529 191.174C79.4289 190.579 79.3919 189.93 79.5466 189.313C79.7012 188.697 80.0404 188.142 80.5186 187.723L91.1522 178.008C91.4606 177.736 91.8198 177.527 92.209 177.394C92.5983 177.261 93.01 177.206 93.4206 177.232C93.8311 177.258 94.2325 177.365 94.6015 177.547C94.9706 177.729 95.3001 177.982 95.5712 178.291C95.8423 178.601 96.0496 178.961 96.1813 179.351C96.313 179.74 96.3663 180.152 96.3384 180.563C96.3105 180.973 96.2018 181.374 96.0185 181.742C95.8353 182.111 95.5811 182.439 95.2706 182.709L84.639 192.424C84.0696 192.925 83.3372 193.2 82.5792 193.199Z" fill="#35ACEF"/>
<path d="M94.1694 131.387L113.885 178.611L149.903 124.579L200.54 76.3311L94.1694 131.387Z" fill="#285680"/>
<path d="M200.54 75.9834L96.6216 136.599L66.0447 128.667L200.54 75.9834Z" fill="#7ED0FC"/>
<path d="M163.943 116.07L113.885 178.611L119.792 142.79L163.943 116.07Z" fill="#35ACEF"/>
<path d="M200.54 76.3308C200.568 76.2421 200.606 76.1745 200.54 76.2401L119.792 142.79L169.813 156.407L200.54 76.3308Z" fill="#7ED0FC"/>
</g>
<defs>
<clipPath id="clip0_46_5727">
<rect width="200" height="200" fill="white" transform="translate(0.576416 0.000488281)"/>
</clipPath>
</defs>
</svg>
