<svg width="501" height="500" viewBox="0 0 501 500" fill="none" xmlns="http://www.w3.org/2000/svg">
<g clip-path="url(#clip0_37_1001)">
<path d="M500.5 186.804V437.521C500.5 455.942 485.55 470.893 467.119 470.893H256.724C250.255 470.893 244.208 469.052 239.098 465.853C229.641 459.967 223.343 449.474 223.343 437.522V186.804C223.343 175.314 229.339 164.771 238.967 158.544C255.073 148.111 263.646 133.977 268.152 120.787C268.213 120.616 268.263 120.455 268.323 120.284C272.609 107.457 273.062 95.5752 272.881 89.0166H450.972C450.78 95.667 451.243 107.77 455.69 120.788C460.188 133.978 468.77 148.112 484.876 158.545C494.514 164.771 500.5 175.314 500.5 186.804Z" fill="#C4D7F2"/>
<path d="M302.389 153.464V432.683C302.389 450.973 287.509 465.852 269.219 465.852H239.098C229.641 459.966 223.343 449.473 223.343 437.521V186.804C223.343 175.314 229.339 164.771 238.967 158.544C255.073 148.111 263.646 133.977 268.152 120.787C268.213 120.616 268.263 120.455 268.323 120.284H269.219C287.509 120.284 302.389 135.163 302.389 153.464Z" fill="#91A8A4"/>
<path d="M358.574 431.767C358.574 446.04 354.667 459.421 347.856 470.892H256.729C238.296 470.892 223.349 455.944 223.349 437.522V381.582C228.723 375.324 235.121 369.89 242.374 365.57C244.734 364.174 247.024 362.969 249.345 361.904C250.65 361.302 251.866 360.779 253.062 360.308C261.198 357.043 269.807 355.215 278.656 354.873L278.968 354.863C279.852 354.843 280.735 354.823 281.63 354.823C308.35 354.823 332.739 368.354 346.893 391.005C354.536 403.198 358.574 417.301 358.574 431.767Z" fill="#91A8A4"/>
<path d="M268.153 120.784C272.603 107.766 273.063 95.6689 272.879 89.0049H450.964C450.779 95.668 451.24 107.765 455.689 120.784H268.153Z" fill="#91A8A4"/>
<path d="M465.746 104.464H258.096C253.65 104.464 250.047 100.86 250.047 96.415V18.8848C250.047 14.4395 253.65 10.8359 258.096 10.8359H465.746C470.191 10.8359 473.795 14.4395 473.795 18.8848V96.416C473.794 100.86 470.191 104.464 465.746 104.464Z" fill="#14539A"/>
<path d="M458.693 230.215H265.148V394.463H458.693V230.215Z" fill="#14539A"/>
<path d="M302.365 230.215H265.148V394.463H302.365V230.215Z" fill="#14539A"/>
<path d="M458.693 349.004H265.148V394.458H458.693V349.004Z" fill="#AFDEDC"/>
<path d="M302.365 349.014H265.148V394.461H302.365V349.014Z" fill="#14539A"/>
<path d="M348.931 394.459H265.146V356.589C269.565 355.625 274.075 355.052 278.656 354.871L278.968 354.861C279.852 354.841 280.735 354.821 281.63 354.821C308.35 354.821 332.739 368.352 346.893 391.003C347.605 392.138 348.288 393.294 348.931 394.459Z" fill="#14539A"/>
<path d="M337.933 379.281H331.434C327.269 379.281 323.889 375.901 323.889 371.736C323.889 370.398 324.241 369.141 324.855 368.055C329.593 371.263 333.979 375.025 337.933 379.281Z" fill="#E2035A"/>
<path d="M382.76 280.119H373.804V271.163C373.804 264.601 368.484 259.281 361.922 259.281C355.359 259.281 350.04 264.601 350.04 271.163V280.119H341.084C334.522 280.119 329.202 285.438 329.202 292.001C329.202 298.563 334.521 303.883 341.084 303.883H350.04V312.839C350.04 319.401 355.359 324.721 361.922 324.721C368.484 324.721 373.804 319.401 373.804 312.839V303.883H382.76C389.321 303.883 394.642 298.563 394.642 292.001C394.642 285.438 389.321 280.119 382.76 280.119Z" fill="#AFDEDC"/>
<path d="M287.295 153.46V432.681C287.295 442.665 279.209 450.762 269.224 450.762H160.858C153.546 450.762 147.268 446.402 144.425 440.154C142.195 445.066 137.835 448.803 132.521 450.179C131.075 450.561 129.548 450.762 127.981 450.762H18.5605C8.58594 450.761 0.5 442.665 0.5 432.681V153.46C0.5 143.476 8.58594 135.379 18.5605 135.379H127.98C135.293 135.379 141.581 139.738 144.424 145.977C147.267 139.738 153.545 135.379 160.857 135.379H269.223C279.209 135.379 287.295 143.475 287.295 153.46Z" fill="#AFDEDC"/>
<path d="M287.295 355.032V432.68C287.295 442.664 279.209 450.761 269.224 450.761H160.858C153.546 450.761 147.268 446.401 144.425 440.153C142.195 445.065 137.835 448.802 132.521 450.178C126.213 424.824 132.953 396.869 152.732 377.091C167.268 362.565 186.584 354.56 207.136 354.56C220.476 354.56 233.293 357.955 244.624 364.293C246.201 363.419 247.768 362.626 249.345 361.902C250.65 361.3 251.866 360.777 253.061 360.306C261.198 357.041 269.807 355.213 278.656 354.871L278.968 354.861C279.852 354.841 280.735 354.821 281.63 354.821C283.528 354.822 285.416 354.893 287.295 355.032Z" fill="#14539A"/>
<path d="M287.292 153.457V432.681C287.292 442.661 279.204 450.758 269.224 450.758H255.773C265.754 450.758 273.851 442.661 273.851 432.681V153.457C273.851 143.477 265.753 135.38 255.773 135.38H269.224C279.204 135.379 287.292 143.477 287.292 153.457Z" fill="#14539A"/>
<path d="M144.423 367.179C140.255 367.179 136.878 363.801 136.878 359.634V166.353C136.878 162.185 140.256 158.808 144.423 158.808C148.591 158.808 151.968 162.186 151.968 166.353V359.633C151.969 363.801 148.591 367.179 144.423 367.179Z" fill="#14539A"/>
<path d="M103.257 246.291C94.9961 254.552 84.0146 259.101 72.333 259.101C60.6514 259.101 49.6689 254.552 41.4092 246.292C33.1494 238.032 28.6006 227.05 28.6006 215.368C28.6006 203.687 33.1494 192.704 41.4092 184.444C49.6689 176.185 60.6514 171.636 72.333 171.636C96.4473 171.636 116.065 191.254 116.065 215.368C116.066 227.049 111.517 238.031 103.257 246.291Z" fill="#14539A"/>
<path d="M72.3359 246.709C89.6434 246.709 103.674 232.679 103.674 215.371C103.674 198.064 89.6434 184.033 72.3359 184.033C55.0285 184.033 40.998 198.064 40.998 215.371C40.998 232.679 55.0285 246.709 72.3359 246.709Z" fill="#F0F7EE"/>
<path d="M62.457 226.014C58.2891 226.014 54.9121 222.636 54.9121 218.469V212.268C54.9121 208.1 58.29 204.723 62.457 204.723C66.624 204.723 70.002 208.101 70.002 212.268V218.469C70.002 222.636 66.624 226.014 62.457 226.014Z" fill="#C4D7F2"/>
<path d="M103.257 343.386C94.9971 351.646 84.0146 356.194 72.333 356.194C48.2187 356.194 28.6006 336.575 28.5996 312.462C28.5996 300.78 33.1484 289.798 41.4082 281.538C49.668 273.278 60.6504 268.729 72.332 268.729C84.0137 268.729 94.9961 273.278 103.256 281.538C111.516 289.798 116.064 300.78 116.064 312.462C116.065 324.144 111.517 335.126 103.257 343.386Z" fill="#14539A"/>
<path d="M72.3359 343.799C89.6434 343.799 103.674 329.768 103.674 312.461C103.674 295.153 89.6434 281.123 72.3359 281.123C55.0285 281.123 40.998 295.153 40.998 312.461C40.998 329.768 55.0285 343.799 72.3359 343.799Z" fill="#F0F7EE"/>
<path d="M62.457 323.107C58.2891 323.107 54.9121 319.729 54.9121 315.562V309.361C54.9121 305.193 58.29 301.816 62.457 301.816C66.624 301.816 70.002 305.194 70.002 309.361V315.562C70.002 319.73 66.624 323.107 62.457 323.107Z" fill="#C4D7F2"/>
<path d="M246.379 246.291C238.119 254.551 227.137 259.1 215.455 259.101C191.341 259.101 171.722 239.481 171.723 215.368C171.723 203.687 176.271 192.704 184.531 184.444C192.791 176.185 203.773 171.636 215.455 171.635C239.569 171.635 259.187 191.253 259.187 215.367C259.187 227.049 254.639 238.031 246.379 246.291Z" fill="#14539A"/>
<path d="M215.451 246.709C232.759 246.709 246.789 232.679 246.789 215.371C246.789 198.064 232.759 184.033 215.451 184.033C198.144 184.033 184.113 198.064 184.113 215.371C184.113 232.679 198.144 246.709 215.451 246.709Z" fill="#F0F7EE"/>
<path d="M205.578 226.014C201.41 226.014 198.033 222.636 198.033 218.469V212.268C198.033 208.1 201.411 204.723 205.578 204.723C209.746 204.723 213.123 208.101 213.123 212.268V218.469C213.123 222.636 209.746 226.014 205.578 226.014Z" fill="#C4D7F2"/>
<path d="M246.379 343.386C238.119 351.646 227.137 356.194 215.455 356.195C203.773 356.195 192.791 351.646 184.531 343.386C176.271 335.126 171.722 324.144 171.723 312.462C171.723 300.78 176.271 289.798 184.531 281.538C192.791 273.278 203.773 268.729 215.455 268.729C227.137 268.729 238.119 273.277 246.379 281.537C254.639 289.797 259.187 300.78 259.187 312.461C259.187 324.144 254.639 335.126 246.379 343.386Z" fill="#14539A"/>
<path d="M215.451 343.799C232.759 343.799 246.789 329.768 246.789 312.461C246.789 295.153 232.759 281.123 215.451 281.123C198.144 281.123 184.113 295.153 184.113 312.461C184.113 329.768 198.144 343.799 215.451 343.799Z" fill="#F0F7EE"/>
<path d="M205.578 323.107C201.41 323.107 198.033 319.729 198.033 315.562V309.361C198.033 305.193 201.411 301.816 205.578 301.816C209.746 301.816 213.123 305.194 213.123 309.361V315.562C213.123 319.73 209.746 323.107 205.578 323.107Z" fill="#C4D7F2"/>
<path d="M343.507 431.767C343.507 465.939 315.803 493.634 281.63 493.634C273.343 493.634 265.438 492.017 258.205 489.054C257.211 488.642 256.227 488.21 255.252 487.748C253.344 486.854 251.495 485.869 249.697 484.785C231.757 473.946 219.753 454.259 219.753 431.768C219.753 409.116 231.907 389.317 250.068 378.529C251.877 377.454 253.725 376.47 255.644 375.596C256.618 375.144 257.612 374.712 258.617 374.32C265.026 371.738 271.967 370.212 279.239 369.931C280.033 369.91 280.826 369.891 281.63 369.891C303.759 369.881 323.187 381.503 334.115 398.991C340.062 408.482 343.507 419.723 343.507 431.767Z" fill="#6CBEFF"/>
<path d="M261.55 485.909C260.465 486.994 259.35 488.049 258.205 489.054C257.211 488.642 256.227 488.21 255.252 487.748C253.344 486.854 251.495 485.869 249.697 484.785C231.757 473.946 219.753 454.259 219.753 431.768C219.753 409.116 231.907 389.317 250.068 378.529C251.877 377.454 253.725 376.47 255.644 375.596C256.618 375.144 257.612 374.712 258.617 374.32C259.611 375.214 260.596 376.139 261.551 377.093C291.544 407.096 291.544 455.915 261.55 485.909Z" fill="#0095F2"/>
<path d="M301.985 457.382H261.269C257.101 457.382 253.724 454.004 253.724 449.837C253.724 445.67 257.102 442.292 261.269 442.292H301.985C306.153 442.292 309.53 445.67 309.53 449.837C309.53 454.004 306.152 457.382 301.985 457.382Z" fill="#0095F2"/>
<path d="M207.141 493.378C241.313 493.378 269.016 465.676 269.016 431.503C269.016 397.33 241.313 369.628 207.141 369.628C172.968 369.628 145.266 397.33 145.266 431.503C145.266 465.676 172.968 493.378 207.141 493.378Z" fill="#A3E9FB"/>
<path d="M208.754 466.228C206.822 466.228 204.892 465.49 203.418 464.017L174.627 435.225C171.681 432.278 171.681 427.5 174.628 424.554C177.573 421.607 182.352 421.608 185.688 424.943L214.479 453.735C217.036 456.293 217.036 461.071 214.089 464.018C212.615 465.489 210.684 466.228 208.754 466.228Z" fill="#6CBEFF"/>
</g>
<defs>
<clipPath id="clip0_37_1001">
<rect width="500" height="500" fill="white" transform="translate(0.5)"/>
</clipPath>
</defs>
</svg>
