<svg width="500" height="500" viewBox="0 0 500 500" fill="none" xmlns="http://www.w3.org/2000/svg">
<g filter="url(#filter0_d_38_1493)">
<path d="M342.052 76.2685H161.872C124.555 76.2685 94.304 106.519 94.304 143.836V324.016C94.304 361.333 124.555 391.584 161.872 391.584H342.052C379.368 391.584 409.619 361.333 409.619 324.016V143.836C409.619 106.519 379.368 76.2685 342.052 76.2685Z" fill="white"/>
</g>
<path d="M197.25 289.25C197.25 304.024 185.274 316 170.5 316C155.726 316 143.75 304.024 143.75 289.25C143.75 274.476 155.726 262.5 170.5 262.5C185.274 262.5 197.25 274.476 197.25 289.25ZM157.135 289.25C157.135 296.631 163.119 302.615 170.5 302.615C177.881 302.615 183.865 296.631 183.865 289.25C183.865 281.869 177.881 275.885 170.5 275.885C163.119 275.885 157.135 281.869 157.135 289.25Z" fill="#14539A"/>
<path d="M354.25 289.25C354.25 304.024 342.274 316 327.5 316C312.726 316 300.75 304.024 300.75 289.25C300.75 274.476 312.726 262.5 327.5 262.5C342.274 262.5 354.25 274.476 354.25 289.25ZM314.135 289.25C314.135 296.631 320.119 302.615 327.5 302.615C334.881 302.615 340.865 296.631 340.865 289.25C340.865 281.869 334.881 275.885 327.5 275.885C320.119 275.885 314.135 281.869 314.135 289.25Z" fill="#14539A"/>
<path d="M286 158.5H120V271H144.977C150.578 262.278 160.364 256.5 171.5 256.5C182.636 256.5 192.422 262.278 198.023 271H286V158.5Z" fill="#14539A"/>
<path d="M120 289.75V275.75H136.888C139.406 275.75 141.298 278.05 140.813 280.521L139.634 286.521C139.266 288.397 137.621 289.75 135.709 289.75H120Z" fill="#14539A"/>
<path fill-rule="evenodd" clip-rule="evenodd" d="M291 275.75V174.75H349.344C350.824 174.75 352.184 175.568 352.878 176.875L380 228C389.373 230.197 396 238.557 396 248.184V267H398.75C400.959 267 402.75 268.791 402.75 271V289.25H358.5C358.5 272.405 344.845 258.75 328 258.75H326.75C309.905 258.75 296.25 272.405 296.25 289.25H205.701C203.718 289.25 202.035 287.798 201.744 285.836L200.929 280.336C200.571 277.92 202.444 275.75 204.886 275.75H291ZM303 226.75V186.25H347.5L367 226.75H303ZM393.25 266V256.25H383.25V260L387 266H393.25ZM304.5 240C304.5 238.757 305.507 237.75 306.75 237.75H322.75C323.993 237.75 325 238.757 325 240C325 241.243 323.993 242.25 322.75 242.25H306.75C305.507 242.25 304.5 241.243 304.5 240Z" fill="#14539A"/>
<path d="M157.028 210.25V181.159H176.29V186.23H163.179V193.162H175.011V198.233H163.179V210.25H157.028ZM179.787 210.25V181.159H191.264C193.461 181.159 195.336 181.552 196.889 182.338C198.452 183.115 199.64 184.218 200.454 185.648C201.278 187.068 201.69 188.74 201.69 190.662C201.69 192.594 201.274 194.256 200.44 195.648C199.607 197.03 198.4 198.091 196.818 198.83C195.246 199.568 193.343 199.938 191.108 199.938H183.423V194.994H190.114C191.288 194.994 192.263 194.833 193.04 194.511C193.816 194.189 194.394 193.706 194.773 193.062C195.161 192.419 195.355 191.618 195.355 190.662C195.355 189.696 195.161 188.882 194.773 188.219C194.394 187.556 193.811 187.054 193.025 186.713C192.249 186.363 191.269 186.188 190.085 186.188H185.937V210.25H179.787ZM195.497 197.011L202.727 210.25H195.937L188.864 197.011H195.497ZM205.397 210.25V181.159H224.999V186.23H211.547V193.162H223.991V198.233H211.547V205.179H225.056V210.25H205.397ZM229.249 210.25V181.159H248.851V186.23H235.4V193.162H247.843V198.233H235.4V205.179H248.908V210.25H229.249Z" fill="white"/>
<path d="M137.682 250.25H129.795V226.977H137.841C140.152 226.977 142.136 227.443 143.795 228.375C145.462 229.299 146.742 230.629 147.636 232.364C148.53 234.098 148.977 236.174 148.977 238.591C148.977 241.015 148.527 243.098 147.625 244.841C146.731 246.583 145.439 247.92 143.75 248.852C142.068 249.784 140.045 250.25 137.682 250.25ZM134.011 246.602H137.477C139.098 246.602 140.451 246.307 141.534 245.716C142.617 245.117 143.432 244.227 143.977 243.045C144.523 241.856 144.795 240.371 144.795 238.591C144.795 236.811 144.523 235.333 143.977 234.159C143.432 232.977 142.625 232.095 141.557 231.511C140.496 230.92 139.178 230.625 137.602 230.625H134.011V246.602ZM152.471 250.25V226.977H167.607V230.511H156.687V236.83H166.823V240.364H156.687V246.716H167.698V250.25H152.471ZM171.396 250.25V226.977H175.612V246.716H185.862V250.25H171.396ZM193.225 226.977V250.25H189.009V226.977H193.225ZM200.392 226.977L206.449 245.295H206.688L212.733 226.977H217.37L209.165 250.25H203.961L195.767 226.977H200.392ZM219.923 250.25V226.977H235.059V230.511H224.139V236.83H234.275V240.364H224.139V246.716H235.15V250.25H219.923ZM238.848 250.25V226.977H247.576C249.364 226.977 250.864 227.288 252.076 227.909C253.295 228.53 254.216 229.402 254.837 230.523C255.466 231.636 255.78 232.936 255.78 234.42C255.78 235.913 255.462 237.208 254.826 238.307C254.197 239.398 253.269 240.242 252.042 240.841C250.814 241.432 249.307 241.727 247.519 241.727H241.303V238.227H246.951C247.996 238.227 248.852 238.083 249.519 237.795C250.186 237.5 250.678 237.072 250.996 236.511C251.322 235.943 251.485 235.246 251.485 234.42C251.485 233.595 251.322 232.89 250.996 232.307C250.67 231.716 250.174 231.269 249.508 230.966C248.841 230.655 247.981 230.5 246.928 230.5H243.064V250.25H238.848ZM250.871 239.705L256.633 250.25H251.928L246.269 239.705H250.871ZM256.652 226.977H261.413L267.106 237.273H267.334L273.027 226.977H277.788L269.322 241.568V250.25H265.118V241.568L256.652 226.977Z" fill="white"/>
<defs>
<filter id="filter0_d_38_1493" x="74.304" y="60.2685" width="355.315" height="355.315" filterUnits="userSpaceOnUse" color-interpolation-filters="sRGB">
<feFlood flood-opacity="0" result="BackgroundImageFix"/>
<feColorMatrix in="SourceAlpha" type="matrix" values="0 0 0 0 0 0 0 0 0 0 0 0 0 0 0 0 0 0 127 0" result="hardAlpha"/>
<feOffset dy="4"/>
<feGaussianBlur stdDeviation="10"/>
<feComposite in2="hardAlpha" operator="out"/>
<feColorMatrix type="matrix" values="0 0 0 0 0 0 0 0 0 0 0 0 0 0 0 0 0 0 0.05 0"/>
<feBlend mode="normal" in2="BackgroundImageFix" result="effect1_dropShadow_38_1493"/>
<feBlend mode="normal" in="SourceGraphic" in2="effect1_dropShadow_38_1493" result="shape"/>
</filter>
</defs>
</svg>
