<svg width="701" height="372" viewBox="0 0 701 372" fill="none" xmlns="http://www.w3.org/2000/svg">
<path fill-rule="evenodd" clip-rule="evenodd" d="M101.131 249.187C101.006 249.812 100.881 250.436 100.381 250.811L100.132 251.061C99.6322 251.56 99.0078 251.81 98.2586 251.81C98.0921 251.81 97.8839 251.768 97.6342 251.685C95.1367 251.186 91.8898 250.311 88.5182 249.187C88.4349 249.187 88.3517 249.187 88.2685 249.187C87.1862 248.854 86.1039 248.48 85.0216 248.064C82.1495 247.189 79.1524 246.066 76.2803 244.942C68.6628 241.945 61.42 238.448 56.6747 234.702C54.9264 233.453 53.5528 232.079 52.8036 230.706C51.9294 229.457 51.6797 228.333 51.8046 227.209C51.8046 226.876 51.8462 226.585 51.9294 226.335C53.1782 222.339 59.422 221.715 65.9156 221.84C66.4151 221.84 66.9146 221.881 67.4141 221.964C70.6609 222.048 73.6163 222.506 76.2803 223.338C80.1515 224.587 83.5232 226.335 86.3953 228.333C94.3874 234.077 98.5083 242.07 100.132 245.816C100.756 247.189 101.006 247.939 101.006 248.064C101.172 248.397 101.214 248.771 101.131 249.187ZM93.2635 244.692C91.765 242.069 89.6421 238.698 86.3953 235.701C83.7729 233.203 80.4012 230.956 76.2803 229.457C73.533 228.458 70.536 227.834 67.1643 227.709C66.3318 227.709 65.5826 227.709 64.9166 227.709C60.7957 227.584 58.7976 227.958 57.9235 228.333C58.6727 229.207 60.0464 230.331 62.1693 231.58C65.5409 233.828 70.536 236.325 76.2803 238.698C79.5271 240.071 82.8988 241.445 86.3953 242.569C88.7263 243.318 91.0157 244.026 93.2635 244.692Z" fill="url(#paint0_linear_186_4063)"/>
<path fill-rule="evenodd" clip-rule="evenodd" d="M139.343 237.698C136.346 239.446 132.849 241.195 129.103 242.818C123.483 245.316 117.489 247.563 112.12 249.187C112.036 249.187 111.953 249.187 111.87 249.187C108.498 250.311 105.252 251.185 102.754 251.684C102.504 251.768 102.296 251.809 102.13 251.809C101.38 251.809 100.756 251.559 100.132 251.06C100.132 250.977 100.09 250.893 100.007 250.81C99.5072 250.436 99.2575 249.811 99.2575 249.187C99.1742 248.771 99.2158 248.396 99.3823 248.063C99.3823 247.938 99.6321 247.189 100.132 245.815C100.756 244.566 101.505 242.818 102.629 240.945C104.877 237.323 108.124 232.828 112.869 229.082C117.115 225.835 122.36 223.212 129.103 222.213C130.352 222.047 131.642 221.964 132.974 221.964C135.097 221.839 137.345 221.839 139.343 221.964C144.213 222.214 148.084 223.462 148.584 227.209C149.083 230.58 145.087 234.202 139.343 237.698ZM142.465 228.332C141.84 228.083 140.966 227.833 139.343 227.708C138.427 227.625 137.345 227.583 136.096 227.583C135.263 227.583 134.306 227.625 133.224 227.708C131.809 227.791 130.435 227.916 129.103 228.083C121.86 229.331 116.615 232.953 112.869 236.824C110.371 239.571 108.498 242.319 107.125 244.691C109.039 244.108 110.954 243.526 112.869 242.943C118.738 241.07 124.358 238.822 129.103 236.574C133.349 234.576 136.845 232.578 139.343 230.955C140.841 229.956 141.84 228.957 142.465 228.332Z" fill="url(#paint1_linear_186_4063)"/>
<path d="M160.198 249.312V335.227C160.198 339.598 156.577 343.219 152.081 343.219H48.1839C43.8133 343.219 40.1919 339.598 40.1919 335.227V249.312H160.198Z" fill="#E6E6E6"/>
<path d="M90.0171 343.219V275.911H110.372V343.219H90.0171Z" fill="url(#paint2_linear_186_4063)"/>
<path opacity="0.1" d="M160.198 252.933V278.158C159.948 278.283 159.698 278.283 159.324 278.283L42.1899 284.027C41.4406 284.027 40.6914 284.027 40.1919 283.653V258.428C40.3168 258.178 40.6914 258.178 40.8163 258.178L158.2 252.559C158.949 252.559 159.698 252.559 160.198 252.933Z" fill="black"/>
<path d="M158.7 275.911H41.5656C37.5695 275.911 34.3228 272.664 34.3228 268.668V256.43C34.3228 252.434 37.5695 249.188 41.5656 249.188H158.7C162.82 249.188 166.067 252.434 166.067 256.43V268.668C166.067 272.664 162.82 275.911 158.7 275.911Z" fill="url(#paint3_linear_186_4063)"/>
<path fill-rule="evenodd" clip-rule="evenodd" d="M545.69 135.8C545.69 178.508 510.974 213.224 468.392 213.224C425.809 213.224 391.093 178.508 391.093 135.8C391.093 93.2176 425.809 58.502 468.392 58.502C510.974 58.502 545.69 93.2176 545.69 135.8ZM535.325 135.8C535.325 98.9619 505.23 68.9916 468.392 68.9916C431.553 68.9916 401.583 98.9619 401.583 135.8C401.583 172.764 431.553 202.734 468.392 202.734C505.23 202.734 535.325 172.764 535.325 135.8Z" fill="#DEE4F0"/>
<path fill-rule="evenodd" clip-rule="evenodd" d="M510.849 135.8C510.849 159.276 491.868 178.383 468.392 178.383C444.915 178.383 425.934 159.276 425.934 135.8C425.934 112.448 444.915 93.3418 468.392 93.3418C491.868 93.3418 510.849 112.448 510.849 135.8ZM500.485 135.8C500.485 118.192 486.124 103.831 468.392 103.831C450.784 103.831 436.423 118.192 436.423 135.8C436.423 153.532 450.784 167.893 468.392 167.893C486.124 167.893 500.485 153.532 500.485 135.8Z" fill="#DEE4F0"/>
<path d="M477.258 135.8C477.258 140.795 473.262 144.666 468.392 144.666C463.521 144.666 459.525 140.795 459.525 135.8C459.525 130.93 463.521 127.059 468.392 127.059C473.262 127.059 477.258 130.93 477.258 135.8Z" fill="#DEE4F0"/>
<path d="M537.823 79.2301L558.053 59.0002L543.193 60.249L544.441 45.3887L524.211 65.6186L523.587 73.8605L480.505 118.816L478.257 110.449L467.518 135.799L492.992 125.185L484.626 122.937L529.456 79.8545L537.823 79.2301Z" fill="url(#paint4_linear_186_4063)"/>
<path d="M79.0276 281.156L70.2863 279.033C70.0365 279.033 69.9116 279.158 69.7868 279.282L67.2892 287.899C67.1644 288.274 66.9146 288.274 66.6648 288.024L43.8125 248.313L56.4251 241.07L79.4022 280.781C79.5271 281.031 79.2774 281.28 79.0276 281.156Z" fill="url(#paint5_linear_186_4063)"/>
<path d="M8.59778 281.156L17.464 279.033C17.5889 279.033 17.7138 279.158 17.8387 279.282L20.3362 287.899C20.4611 288.274 20.8357 288.274 20.9606 288.024L43.8129 248.313L31.2004 241.07L8.34809 280.781C8.09834 281.031 8.34803 281.28 8.59778 281.156Z" fill="url(#paint6_linear_186_4063)"/>
<path fill-rule="evenodd" clip-rule="evenodd" d="M82.6494 216.095C81.2758 217.344 80.9011 219.217 81.6503 220.715L83.2738 224.087C84.2728 226.085 83.2738 228.582 81.1509 229.457L77.5294 230.58C75.906 231.205 74.907 232.703 75.0319 234.452L75.1568 238.198C75.4066 240.446 73.4085 242.444 71.1608 242.319L67.4145 242.069C65.6662 241.944 64.0428 243.068 63.5433 244.691L62.2945 248.188C61.5452 250.311 59.0478 251.435 57.0497 250.311L53.6781 248.687C52.0547 247.938 50.1815 248.313 49.0576 249.686L46.5601 252.434C45.0616 254.182 42.4392 254.182 40.8158 252.434L38.3183 249.686C37.1944 248.313 35.3212 247.938 33.8227 248.687L30.451 250.311C28.3281 251.435 25.8306 250.311 25.0814 248.188L23.9575 244.691C23.3331 243.068 21.7097 241.944 20.0863 242.069L16.34 242.319C13.9674 242.444 12.0942 240.446 12.2191 238.198L12.4689 234.452C12.5938 232.703 11.4698 231.205 9.84644 230.58L6.34992 229.457C4.22702 228.582 3.10315 226.085 4.10216 224.087L5.72554 220.715C6.4748 219.217 6.10015 217.344 4.85139 216.095L2.10417 213.722C0.355902 212.099 0.355902 209.476 2.10417 207.853L4.85139 205.48C6.10015 204.232 6.4748 202.358 5.72554 200.86L4.10216 197.488C3.10315 195.49 4.22702 192.993 6.34992 192.243L9.84644 190.995C11.4698 190.37 12.5938 188.872 12.4689 187.123L12.2191 183.377C12.0942 181.129 13.9674 179.131 16.34 179.256L20.0863 179.506C21.7097 179.631 23.3331 178.507 23.9575 176.884L25.0814 173.387C25.8306 171.264 28.3281 170.14 30.451 171.264L33.8227 172.888C35.3212 173.637 37.1944 173.262 38.3183 171.889L40.8158 169.141C42.4392 167.393 45.0616 167.393 46.5601 169.141L49.0576 171.889C50.1815 173.262 52.0547 173.637 53.6781 172.888L57.0497 171.264C59.0478 170.14 61.5452 171.264 62.2945 173.387L63.5433 176.884C64.0428 178.507 65.6662 179.631 67.4145 179.506L71.1608 179.256C73.4085 179.131 75.4066 181.129 75.1568 183.377L75.0319 187.123C74.907 188.872 75.906 190.37 77.5294 190.995L81.1509 192.243C83.2738 192.993 84.2728 195.49 83.2738 197.488L81.6503 200.86C80.9011 202.358 81.2758 204.232 82.6494 205.48L85.3966 207.853C87.1449 209.476 87.1449 212.099 85.3966 213.722L82.6494 216.095ZM76.905 210.725C76.905 192.368 62.0448 177.508 43.8128 177.508C25.456 177.508 10.5957 192.368 10.5957 210.725C10.5957 228.957 25.456 243.817 43.8128 243.817C62.0448 243.817 76.905 228.957 76.905 210.725Z" fill="url(#paint7_linear_186_4063)"/>
<path fill-rule="evenodd" clip-rule="evenodd" d="M76.905 210.725C76.905 229.082 62.0447 243.942 43.6879 243.942C25.456 243.942 10.5957 229.082 10.5957 210.725C10.5957 192.493 25.456 177.633 43.6879 177.633C62.0447 177.633 76.905 192.493 76.905 210.725ZM71.2856 210.725C71.2856 195.615 58.9228 183.252 43.6879 183.252C28.5779 183.252 16.0902 195.615 16.0902 210.725C16.0902 225.96 28.5779 238.323 43.6879 238.323C58.9228 238.323 71.2856 225.96 71.2856 210.725Z" fill="white"/>
<path d="M71.3477 210.725C71.3477 225.96 58.985 238.322 43.7501 238.322C28.64 238.322 16.1523 225.96 16.1523 210.725C16.1523 195.615 28.64 183.252 43.7501 183.252C58.985 183.252 71.3477 195.615 71.3477 210.725Z" fill="url(#paint8_linear_186_4063)"/>
<path d="M44.0624 193.117L47.9336 204.98C48.0168 205.147 48.1001 205.23 48.1833 205.23H60.671C60.9207 205.23 61.0456 205.605 60.9207 205.73L50.8058 213.097C50.7225 213.18 50.6808 213.305 50.6808 213.472L54.5521 225.21C54.6769 225.585 54.3023 225.71 54.0525 225.585L43.9376 218.217C43.8543 218.217 43.7711 218.217 43.6878 218.217L33.5728 225.585C33.323 225.71 33.0733 225.585 33.0733 225.21L36.9445 213.472C37.0277 213.305 36.9861 213.18 36.8196 213.097L26.8295 205.73C26.5798 205.605 26.7046 205.23 26.9544 205.23H39.442C39.5252 205.23 39.6085 205.147 39.6918 204.98L43.5629 193.117C43.6878 192.867 44.0624 192.867 44.0624 193.117Z" fill="white"/>
<path d="M447.038 121.814V300.637C447.038 301.053 446.996 301.511 446.913 302.011C446.913 302.51 446.872 302.968 446.788 303.384C446.705 303.634 446.664 303.884 446.664 304.134C446.414 304.966 446.122 305.757 445.789 306.506C445.623 306.922 445.415 307.339 445.165 307.755C444.915 308.254 444.665 308.712 444.416 309.129C444.249 309.378 444.083 309.587 443.916 309.753C443.75 310.003 443.542 310.252 443.292 310.502C443.209 310.669 443.084 310.835 442.917 311.002C442.584 311.335 442.21 311.668 441.793 312.001C441.294 312.417 440.794 312.792 440.295 313.125C439.92 313.374 439.546 313.624 439.046 313.874C437.797 314.623 436.424 315.123 434.925 315.372C434.426 315.539 433.926 315.622 433.427 315.622C432.927 315.705 432.428 315.747 431.928 315.747H162.945C162.445 315.747 161.946 315.705 161.446 315.622C160.947 315.622 160.447 315.539 159.947 315.372C158.449 315.123 157.075 314.623 155.827 313.874C154.495 313.208 153.329 312.334 152.33 311.252C149.583 308.504 147.834 304.758 147.834 300.637V121.814C147.834 120.649 147.959 119.525 148.209 118.443C149.833 111.699 155.827 106.704 162.945 106.704H431.553C431.97 106.704 432.386 106.704 432.802 106.704C433.302 106.829 433.676 106.829 434.051 106.954C439.546 107.703 443.916 111.325 445.914 116.195C446.081 116.611 446.206 116.986 446.289 117.319C446.788 118.734 447.038 120.232 447.038 121.814Z" fill="#DEE4F0"/>
<path d="M447.038 277.036V300.638C447.038 309.004 440.295 315.748 431.928 315.748H162.945C154.578 315.748 147.834 309.004 147.834 300.638V277.036H447.038Z" fill="url(#paint9_linear_186_4063)"/>
<path d="M322.911 337.101H271.961L277.456 320.992L279.329 315.747H315.543L317.292 320.992L322.911 337.101Z" fill="url(#paint10_linear_186_4063)"/>
<path d="M383.102 350.213H211.771C211.771 346.591 213.77 343.344 217.016 340.972C220.138 338.474 224.634 337.101 229.504 337.101H365.369C375.11 337.101 383.102 342.97 383.102 350.213Z" fill="url(#paint11_linear_186_4063)"/>
<path d="M305.429 295.391C305.429 299.762 301.807 303.383 297.437 303.383C292.941 303.383 289.32 299.762 289.32 295.391C289.32 290.896 292.941 287.274 297.437 287.274C301.807 287.274 305.429 290.896 305.429 295.391Z" fill="white"/>
<path d="M447.038 121.814V124.811H147.834V121.814C147.834 120.649 147.959 119.525 148.209 118.443C149.833 111.699 155.827 106.704 162.945 106.704H431.553C438.547 106.704 444.416 111.2 446.289 117.319C446.788 118.817 447.038 120.316 447.038 121.814Z" fill="url(#paint12_linear_186_4063)"/>
<path d="M301.058 115.696C301.058 117.694 299.434 119.317 297.436 119.317C295.438 119.317 293.815 117.694 293.815 115.696C293.815 113.698 295.438 112.199 297.436 112.199C299.434 112.199 301.058 113.698 301.058 115.696Z" fill="white"/>
<path d="M289.195 115.695C289.195 116.444 288.57 116.944 287.946 116.944C287.197 116.944 286.697 116.444 286.697 115.695C286.697 115.071 287.197 114.446 287.946 114.446C288.57 114.446 289.195 115.071 289.195 115.695Z" fill="white"/>
<path d="M305.678 115.695C305.678 116.444 306.303 116.944 306.927 116.944C307.676 116.944 308.176 116.444 308.176 115.695C308.176 115.071 307.676 114.446 306.927 114.446C306.303 114.446 305.678 115.071 305.678 115.695Z" fill="white"/>
<path d="M192.915 186.001H160.947V143.668H192.915V186.001Z" fill="url(#paint13_linear_186_4063)"/>
<path d="M270.339 186.001H268.091V143.668H270.339V186.001Z" fill="white"/>
<path d="M312.048 186.001H309.8V143.668H312.048V186.001Z" fill="white"/>
<path d="M383.726 186.001H381.479V143.668H383.726V186.001Z" fill="white"/>
<path d="M422.188 186.001H419.94V143.668H422.188V186.001Z" fill="white"/>
<path d="M440.42 134.302L438.797 132.804L435.8 135.676L432.803 132.804L431.179 134.302L434.176 137.299L431.179 140.296L432.803 141.92L435.8 138.923L438.797 141.92L440.42 140.296L437.423 137.299L440.42 134.302Z" fill="white"/>
<path d="M226.257 158.528H204.653V154.532H226.257V158.528Z" fill="url(#paint14_linear_186_4063)"/>
<path d="M226.257 175.137H204.653V171.141H226.257V175.137Z" fill="url(#paint15_linear_186_4063)"/>
<path d="M234.624 168.393H204.653V161.275H234.624V168.393Z" fill="url(#paint16_linear_186_4063)"/>
<path d="M295.064 170.391H283.95V159.277H295.064V170.391Z" fill="url(#paint17_linear_186_4063)"/>
<path d="M340.019 170.391H328.905V159.277H340.019V170.391Z" fill="url(#paint18_linear_186_4063)"/>
<path d="M407.452 170.391H396.338V159.277H407.452V170.391Z" fill="url(#paint19_linear_186_4063)"/>
<path d="M363.496 170.391H352.382V159.277H363.496V170.391Z" fill="url(#paint20_linear_186_4063)"/>
<path d="M192.915 253.434H160.947V210.976H192.915V253.434Z" fill="url(#paint21_linear_186_4063)"/>
<path d="M270.339 253.434H268.091V210.976H270.339V253.434Z" fill="white"/>
<path d="M312.048 253.434H309.8V210.976H312.048V253.434Z" fill="white"/>
<path d="M383.726 253.434H381.479V210.976H383.726V253.434Z" fill="white"/>
<path d="M422.188 253.434H419.94V210.976H422.188V253.434Z" fill="url(#paint22_linear_186_4063)"/>
<path d="M440.42 229.207L438.797 227.584L435.8 230.581L432.803 227.584L431.179 229.207L434.176 232.204L431.179 235.201L432.803 236.825L435.8 233.828L438.797 236.825L440.42 235.201L437.423 232.204L440.42 229.207Z" fill="url(#paint23_linear_186_4063)"/>
<path d="M226.257 225.836H204.653V221.84H226.257V225.836Z" fill="url(#paint24_linear_186_4063)"/>
<path d="M226.257 242.569H204.653V238.573H226.257V242.569Z" fill="url(#paint25_linear_186_4063)"/>
<path d="M234.624 235.826H204.653V228.708H234.624V235.826Z" fill="url(#paint26_linear_186_4063)"/>
<path d="M295.064 237.824H283.95V226.71H295.064V237.824Z" fill="url(#paint27_linear_186_4063)"/>
<path d="M340.019 237.824H328.905V226.71H340.019V237.824Z" fill="url(#paint28_linear_186_4063)"/>
<path d="M363.496 237.824H352.382V226.71H363.496V237.824Z" fill="url(#paint29_linear_186_4063)"/>
<path opacity="0.1" d="M522.214 162.897V314.747H391.593V219.216C387.722 217.593 384.975 213.722 384.975 209.226V206.354L391.593 190.495V177.508H390.969V162.897C390.969 160.524 392.842 158.651 395.09 158.651H518.093C520.34 158.651 522.214 160.524 522.214 162.897Z" fill="black"/>
<path d="M527.209 171.514V358.704C527.209 360.702 525.336 362.325 523.088 362.325H400.585C398.337 362.325 396.464 360.702 396.464 358.704V171.514C396.464 169.516 398.337 167.893 400.585 167.893H523.088C525.336 167.893 527.209 169.516 527.209 171.514Z" fill="#DEE4F0"/>
<path d="M520.091 272.039H402.458V194.241H520.091V272.039Z" fill="#5C94EB"/>
<path d="M439.296 316.619H402.458V275.535H439.296V316.619Z" fill="#5C94EB"/>
<path d="M479.381 316.619H442.418V275.535H479.381V316.619Z" fill="#5C94EB"/>
<path d="M519.342 316.619H482.378V275.535H519.342V316.619Z" fill="#5C94EB"/>
<path d="M455.405 343.594H402.458V333.729H455.405V343.594Z" fill="#5C94EB"/>
<path d="M517.968 336.477L513.972 341.721L509.726 336.477H510.975L513.972 340.098L516.719 336.477H517.968Z" fill="url(#paint30_linear_186_4063)"/>
<path d="M527.209 157.902V172.513H395.964V157.902C395.964 155.529 397.837 153.656 400.085 153.656H523.088C525.336 153.656 527.209 155.529 527.209 157.902Z" fill="#D13929"/>
<path d="M411.199 163.147C411.199 164.771 409.951 166.02 408.327 166.02C406.704 166.02 405.33 164.771 405.33 163.147C405.33 161.524 406.704 160.15 408.327 160.15C409.951 160.15 411.199 161.524 411.199 163.147Z" fill="#F2F2F2"/>
<path d="M422.064 163.147C422.064 164.771 420.69 166.02 419.066 166.02C417.443 166.02 416.194 164.771 416.194 163.147C416.194 161.524 417.443 160.15 419.066 160.15C420.69 160.15 422.064 161.524 422.064 163.147Z" fill="#F2F2F2"/>
<path d="M432.803 163.147C432.803 164.771 431.554 166.02 429.931 166.02C428.307 166.02 426.934 164.771 426.934 163.147C426.934 161.524 428.307 160.15 429.931 160.15C431.554 160.15 432.803 161.524 432.803 163.147Z" fill="#F2F2F2"/>
<path opacity="0.1" d="M527.209 203.232V214.346H395.964V203.232H527.209Z" fill="black"/>
<path d="M406.578 203.732H384.6L395.964 176.135H414.695L406.578 203.732Z" fill="#EFEFEF"/>
<path d="M428.557 203.732H406.579L414.696 176.135H433.427L428.557 203.732Z" fill="#FF301A"/>
<path d="M450.535 203.732H428.557L433.427 176.135H452.158L450.535 203.732Z" fill="#EFEFEF"/>
<path d="M472.513 203.732H450.535L452.158 176.135H470.889L472.513 203.732Z" fill="#FF301A"/>
<path d="M494.491 203.732H472.513L470.89 176.135H489.746L494.491 203.732Z" fill="#EFEFEF"/>
<path d="M516.47 203.732H494.491L489.746 176.135H508.478L516.47 203.732Z" fill="#FF301A"/>
<path d="M538.448 203.732H516.47L508.478 176.135H527.209L538.448 203.732Z" fill="#EFEFEF"/>
<path d="M417.568 217.594C411.574 217.594 406.579 212.724 406.579 206.605V203.732H428.557V206.605C428.557 212.724 423.687 217.594 417.568 217.594Z" fill="#D13929"/>
<path d="M439.546 217.594C433.552 217.594 428.557 212.724 428.557 206.605V203.732H450.535V206.605C450.535 212.724 445.665 217.594 439.546 217.594Z" fill="#D6CFCF"/>
<path d="M461.524 217.594C455.53 217.594 450.535 212.724 450.535 206.605V203.732H472.513V206.605C472.513 212.724 467.643 217.594 461.524 217.594Z" fill="#D13929"/>
<path d="M483.502 217.594C477.508 217.594 472.513 212.724 472.513 206.605V203.732H494.491V206.605C494.491 212.724 489.621 217.594 483.502 217.594Z" fill="#D6CFCF"/>
<path d="M505.48 217.594C499.486 217.594 494.491 212.724 494.491 206.605V203.732H516.469V206.605C516.469 212.724 511.599 217.594 505.48 217.594Z" fill="#D13929"/>
<path d="M527.459 217.594C521.465 217.594 516.47 212.724 516.47 206.605V203.732H538.448V206.605C538.448 212.724 533.578 217.594 527.459 217.594Z" fill="#D6CFCF"/>
<path d="M395.589 217.594C389.595 217.594 384.6 212.724 384.6 206.605V203.732H406.578V206.605C406.578 212.724 401.708 217.594 395.589 217.594Z" fill="#D6CFCF"/>
<path opacity="0.1" d="M527.209 172.512V174.759H395.964V172.512H527.209Z" fill="black"/>
<path opacity="0.1" d="M527.209 348.089V364.448C527.209 366.571 525.336 368.194 523.088 368.194H400.085C397.837 368.194 395.964 366.571 395.964 364.448V348.089H527.209Z" fill="black"/>
<path d="M527.209 350.212V367.82C527.209 370.067 525.336 371.94 523.088 371.94H400.085C397.837 371.94 395.964 370.067 395.964 367.82V350.212H527.209Z" fill="#5C94EB"/>
<path d="M467.268 361.076C467.268 364.323 464.771 366.821 461.524 366.821C458.402 366.821 455.78 364.323 455.78 361.076C455.78 357.954 458.402 355.332 461.524 355.332C464.771 355.332 467.268 357.954 467.268 361.076Z" fill="#F2F2F2"/>
<path opacity="0.1" d="M220.388 219.466L147.835 224.585V106.702H210.398L226.632 211.723C227.131 215.594 224.384 219.216 220.388 219.466Z" fill="black"/>
<path d="M216.767 213.098C217.141 216.969 214.019 220.34 210.148 220.34H73.2838C71.1609 220.34 69.1629 219.341 68.039 217.718C67.04 216.344 66.5405 214.846 66.6653 213.098L77.9042 77.2321C78.154 73.7356 81.151 70.9883 84.6476 70.9883H198.909C202.406 70.9883 205.278 73.7356 205.528 77.2321L208.899 118.067L216.767 213.098Z" fill="url(#paint31_linear_186_4063)"/>
<path d="M216.767 213.097C217.141 216.968 214.019 220.34 210.148 220.34H73.2839C71.161 220.34 69.1629 219.341 68.0391 217.718C86.5208 159.9 140.717 118.066 204.779 118.066C206.111 118.066 207.484 118.066 208.9 118.066L216.767 213.097Z" fill="url(#paint32_linear_186_4063)"/>
<path d="M178.305 80.3545C177.555 80.3545 176.848 80.521 176.182 80.854V102.957C176.182 121.938 160.697 137.298 141.716 137.298C122.735 137.298 107.25 121.938 107.25 102.957V80.854C106.584 80.521 105.876 80.3545 105.127 80.3545C104.295 80.3545 103.545 80.521 102.879 80.854V102.957C102.879 124.311 120.362 141.669 141.716 141.669C163.07 141.669 180.552 124.311 180.552 102.957V80.854C179.886 80.521 179.137 80.3545 178.305 80.3545Z" fill="white"/>
<path d="M183.3 85.2237C183.3 87.0969 182.176 88.8451 180.553 89.5944C179.887 89.9274 179.137 90.0939 178.305 90.0939C177.556 90.0939 176.848 89.9274 176.182 89.5944C174.558 88.8451 173.435 87.0969 173.435 85.2237C173.435 83.2257 174.558 81.6023 176.182 80.8531C176.848 80.52 177.556 80.3535 178.305 80.3535C179.137 80.3535 179.887 80.52 180.553 80.8531C182.176 81.6023 183.3 83.2257 183.3 85.2237Z" fill="#2111B4"/>
<path d="M109.997 85.2237C109.997 87.0969 108.873 88.8451 107.25 89.5944C106.584 89.9274 105.876 90.0939 105.127 90.0939C104.294 90.0939 103.545 89.9274 102.879 89.5944C101.256 88.8451 100.132 87.0969 100.132 85.2237C100.132 83.2257 101.256 81.6023 102.879 80.8531C103.545 80.52 104.294 80.3535 105.127 80.3535C105.876 80.3535 106.584 80.52 107.25 80.8531C108.873 81.6023 109.997 83.2257 109.997 85.2237Z" fill="#2111B4"/>
<path opacity="0.1" fill-rule="evenodd" clip-rule="evenodd" d="M100.257 70.8639L98.5087 70.9887C98.4254 70.9055 98.3838 70.8222 98.3838 70.739C98.1341 70.3643 98.0092 70.1146 97.8843 69.8648C97.6345 69.1156 97.26 68.3663 96.7605 67.8668C96.6356 67.8668 96.5107 67.7419 96.3858 67.6171C95.8863 67.2424 95.2619 66.9927 94.6375 67.1176C93.7634 67.1176 93.139 67.3673 92.2649 67.8668C91.2658 68.6161 90.0171 69.74 88.7683 71.3633C88.6435 71.4882 88.6435 71.4883 88.6435 71.4883C87.0201 73.4863 83.2738 78.9808 82.1499 82.1028C83.8982 82.4774 85.147 84.1007 85.147 85.9739L85.3967 105.829C85.3967 107.078 84.8972 108.452 84.0231 109.576L74.2827 120.689L77.6544 82.3524L80.4016 81.9778C80.4849 81.7281 80.5681 81.4784 80.6514 81.2286C80.9011 80.3545 81.2758 79.6052 81.7753 78.7311C82.025 78.2316 82.3997 77.7321 82.6494 77.1077C83.7733 75.3594 89.2678 65.8688 94.3878 65.4941C95.6365 65.4941 96.7604 65.8688 97.7594 66.7429C98.0092 66.9927 98.259 67.2425 98.3838 67.4922C98.7585 68.1166 99.0082 68.6161 99.5077 69.3654C99.6326 69.74 99.8823 70.2395 100.007 70.6141C100.09 70.6974 100.174 70.7806 100.257 70.8639ZM83.2738 86.848C83.0241 86.848 82.7743 86.9729 82.5245 86.9729H82.2748C81.5255 86.848 80.9012 86.5982 80.5265 86.0987C80.1519 85.7241 80.027 84.6002 80.027 83.851C80.027 83.9342 80.027 83.9759 80.027 83.9759C79.4026 84.1008 78.6534 84.4754 78.1538 84.9749C77.1548 86.2237 77.2797 87.9719 78.5285 89.0958C79.6524 90.0948 81.5255 89.9699 82.5245 88.846C82.8575 88.4298 83.0657 87.9719 83.1489 87.4724C83.2322 87.2227 83.2738 87.0145 83.2738 86.848ZM81.6504 84.3505C81.6504 84.85 81.7752 85.3495 82.2748 85.3495C82.358 85.3495 82.5245 85.3495 82.7743 85.3495C82.6078 85.0998 82.4413 84.8916 82.2748 84.7251C82.025 84.6002 81.7752 84.4754 81.6504 84.3505Z" fill="black"/>
<path d="M100.257 70.9884H98.3843C98.3843 70.9052 98.3843 70.8219 98.3843 70.7387C98.2594 70.364 98.1345 69.9894 98.0096 69.8645C97.7599 69.1152 97.3853 68.2412 97.0106 67.7417C96.8858 67.7417 96.7608 67.6168 96.636 67.4919C96.1364 66.9924 95.5121 66.8675 94.8877 66.8675C94.1385 66.8675 93.3892 66.9924 92.515 67.4919C91.3912 68.1163 90.1424 69.2401 88.7688 70.7387C88.6439 70.7387 88.6439 70.7387 88.6439 70.8636C86.6459 72.9865 81.0264 79.9795 80.9016 82.3521C80.6518 82.7268 80.402 84.2253 81.2762 84.2253C81.5259 84.2253 82.0254 84.2253 82.2752 84.2253C82.4417 84.7248 82.4417 85.2243 82.2752 85.7238C82.0254 85.7238 81.6508 85.8487 81.5259 85.8487H81.2762C80.5269 85.7239 79.7777 85.3492 79.528 84.7248C79.0285 84.2253 79.1533 82.3521 79.2782 81.9775C79.4447 81.2283 79.6528 80.5206 79.9026 79.8546C80.3188 79.1053 80.7767 78.3145 81.2762 77.482C81.6508 77.1074 81.9005 76.483 82.2752 75.9835C83.5239 74.3601 89.6429 65.2441 94.7628 65.2441C96.0116 65.2441 97.1355 65.7436 98.1345 66.7426C98.3842 66.9923 98.5091 67.2421 98.634 67.4919C99.0086 68.1163 99.2584 68.7407 99.5082 69.365C99.633 69.8645 99.8828 70.2391 100.008 70.7387C100.091 70.8219 100.174 70.9052 100.257 70.9884Z" fill="white"/>
<path d="M81.4004 80.8544C81.0258 81.6037 80.776 82.3529 80.6511 83.1022C80.9008 83.1854 81.109 83.3519 81.2755 83.6016C81.6917 83.9346 81.9415 84.3509 82.0248 84.8504C82.1913 85.3499 82.1913 85.8494 82.0248 86.3489C81.9415 86.8484 81.6917 87.2647 81.2755 87.5977C80.2765 88.7216 78.4033 88.7216 77.2794 87.5977C76.1555 86.4738 76.1555 84.7255 77.2794 83.6016C77.7789 82.9773 78.5282 82.7276 79.1526 82.7276C79.2774 81.9783 79.2775 81.3539 79.6521 80.7295L60.0465 81.8534C58.7977 81.9783 57.4241 82.4778 56.4251 83.4768L25.0811 114.946C22.9582 117.069 22.8333 120.44 24.8314 122.438L42.439 140.046C44.437 142.044 47.8087 141.919 49.9316 139.796L81.4004 108.452C82.3994 107.453 83.0238 106.079 83.0238 104.831L84.1476 85.1002C84.2725 83.1021 83.0238 81.3539 81.4004 80.8544Z" fill="url(#paint33_linear_186_4063)"/>
<path fill-rule="evenodd" clip-rule="evenodd" d="M54.802 106.954C51.805 109.951 48.5582 109.701 46.685 107.703C44.687 105.705 44.5621 102.583 47.3094 99.9609C49.9318 97.2136 53.3035 96.9638 55.4264 99.2116C57.6742 101.459 57.2995 104.332 54.802 106.954ZM49.4323 101.834C47.8089 103.457 47.1846 105.206 48.1836 106.33C49.3075 107.329 50.9309 106.704 52.6792 105.081C54.1777 103.457 55.0518 101.834 53.9279 100.585C52.804 99.5862 51.0557 100.211 49.4323 101.834ZM40.8159 113.697L63.5433 107.329L65.0419 108.827L42.3144 115.196L40.8159 113.697ZM58.6732 122.563C55.6762 125.436 52.5543 125.311 50.5563 123.313C48.5582 121.315 48.4334 118.193 51.1806 115.445C53.9279 112.823 57.1747 112.573 59.2976 114.696C61.5454 116.944 61.1707 119.941 58.6732 122.563ZM53.3035 117.444C51.6802 119.067 51.0558 120.815 52.0548 121.939C53.1787 122.938 54.802 122.314 56.5503 120.69C58.1737 119.067 58.923 117.444 57.7991 116.195C56.6752 115.196 54.9269 115.82 53.3035 117.444Z" fill="white"/>
<path d="M445.54 126.809H332.777C328.781 126.809 325.659 123.562 325.659 119.691V104.456C325.659 100.585 328.781 97.3379 332.777 97.3379H445.54C449.411 97.3379 452.533 100.585 452.533 104.456V119.691C452.533 123.562 449.411 126.809 445.54 126.809Z" fill="url(#paint34_linear_186_4063)"/>
<path d="M343.391 103.582L345.389 110.076H352.257L346.763 114.072L348.761 120.44L343.391 116.569L337.897 120.44L339.895 114.072L334.525 110.076H341.268L343.391 103.582Z" fill="white"/>
<path d="M366.244 103.582L368.367 110.076H375.11L369.615 114.072L371.738 120.44L366.244 116.569L360.749 120.44L362.872 114.072L357.377 110.076H364.246L366.244 103.582Z" fill="white"/>
<path d="M388.971 103.582L391.094 110.076H397.837L392.343 114.072L394.466 120.44L388.971 116.569L383.477 120.44L385.6 114.072L380.105 110.076H386.848L388.971 103.582Z" fill="white"/>
<path d="M411.948 103.582L413.946 110.076H420.814L415.32 114.072L417.443 120.44L411.948 116.569L406.454 120.44L408.577 114.072L403.082 110.076H409.825L411.948 103.582Z" fill="white"/>
<path d="M434.801 103.582L436.924 110.076H443.667L438.297 114.072L440.295 120.44L434.801 116.569L429.431 120.44L431.429 114.072L425.935 110.076H432.803L434.801 103.582Z" fill="white"/>
<path d="M640.597 247.313L556.43 255.43C553.558 255.68 551.061 253.682 550.811 250.81L549.812 240.82C549.562 237.948 551.685 235.45 554.432 235.2L638.724 226.958C641.596 226.709 644.094 228.832 644.343 231.704L645.342 241.569C645.592 244.441 643.469 246.939 640.597 247.313Z" fill="url(#paint35_linear_186_4063)"/>
<path d="M643.969 259.427V270.166C643.969 272.789 641.721 274.911 639.099 274.911H566.171C563.549 274.911 561.301 272.789 561.301 270.166V259.427C561.301 256.804 563.549 254.557 566.171 254.557H639.099C641.721 254.557 643.969 256.804 643.969 259.427Z" fill="url(#paint36_linear_186_4063)"/>
<path d="M638.724 295.266H554.183C551.311 295.266 548.938 293.018 548.938 290.146V280.156C548.938 277.284 551.311 274.911 554.183 274.911H638.724C641.596 274.911 643.844 277.284 643.844 280.156V290.146C643.844 293.018 641.596 295.266 638.724 295.266Z" fill="url(#paint37_linear_186_4063)"/>
<path d="M639.348 315.621H573.414C570.916 315.621 568.793 313.622 568.793 311V299.886C568.793 297.389 570.916 295.266 573.414 295.266H639.348C641.846 295.266 643.844 297.389 643.844 299.886V311C643.844 313.622 641.846 315.621 639.348 315.621Z" fill="url(#paint38_linear_186_4063)"/>
<path d="M643.969 320.865V330.73C643.969 333.602 641.596 335.975 638.599 335.975H550.936C548.064 335.975 545.691 333.602 545.691 330.73V320.865C545.691 317.993 548.064 315.62 550.936 315.62H638.599C641.596 315.62 643.969 317.993 643.969 320.865Z" fill="url(#paint39_linear_186_4063)"/>
<path opacity="0.1" d="M602.01 274.911C602.843 273.663 603.758 272.456 604.757 271.29C605.34 270.624 605.923 269.958 606.506 269.292C608.087 267.794 609.752 266.42 611.501 265.171C619.243 259.677 628.734 257.679 637.85 259.052C639.931 259.302 641.971 259.76 643.969 260.426V259.427C643.969 256.804 641.721 254.557 639.098 254.557H614.498C612.125 255.681 609.752 256.929 607.505 258.428C605.84 259.593 604.216 260.884 602.635 262.299C602.135 262.798 601.594 263.298 601.011 263.798C597.639 267.169 595.017 270.915 593.019 274.911C592.353 276.243 591.77 277.534 591.271 278.783C589.148 284.152 588.024 289.647 588.024 295.266C588.024 296.598 588.107 297.889 588.274 299.137C588.523 302.259 589.023 305.381 590.022 308.503C590.771 310.917 591.729 313.29 592.894 315.621C593.56 316.953 594.309 318.244 595.142 319.492C596.807 322.073 598.763 324.529 601.011 326.86C605.007 330.856 609.628 333.853 614.498 335.976H638.599C641.596 335.976 643.969 333.603 643.969 330.731V330.232C642.886 330.565 641.846 330.856 640.847 331.106C628.859 333.853 615.871 330.606 606.506 321.365C605.923 320.783 605.382 320.158 604.882 319.492C603.8 318.244 602.801 316.953 601.885 315.621C600.012 312.874 598.639 309.877 597.639 306.63C596.807 304.216 596.266 301.718 596.016 299.137C595.933 297.889 595.891 296.598 595.891 295.266C595.891 289.647 597.14 284.027 599.762 278.783C600.428 277.451 601.178 276.16 602.01 274.911Z" fill="black"/>
<path fill-rule="evenodd" clip-rule="evenodd" d="M667.195 322.988C665.863 324.32 664.49 325.527 663.074 326.609C656.331 331.854 648.464 334.851 640.472 335.725C627.485 337.099 614.123 332.853 604.133 322.988C601.885 320.74 599.929 318.284 598.264 315.62C596.016 312.124 594.268 308.502 593.144 304.631C592.228 301.551 591.645 298.429 591.395 295.265C590.771 288.397 591.77 281.404 594.393 274.91C596.515 269.541 599.762 264.421 604.133 260.05C604.716 259.467 605.257 258.926 605.756 258.427C607.338 257.011 608.961 255.721 610.626 254.556C613.498 252.682 616.62 251.059 619.742 249.81C622.323 248.895 624.946 248.187 627.61 247.687C630.107 247.188 632.605 246.938 635.102 246.938C646.591 246.813 658.329 251.184 667.195 260.05C673.314 266.169 677.31 273.662 679.059 281.529C679.392 282.778 679.641 284.026 679.808 285.275C681.681 298.637 677.435 312.623 667.195 322.988ZM672.44 290.645C672.357 288.397 672.066 286.149 671.566 283.902C670.192 277.158 666.821 270.789 661.701 265.545C655.832 259.675 648.589 256.179 640.971 255.18C631.855 253.806 622.365 255.929 614.498 261.424C612.833 262.589 611.209 263.963 609.627 265.545C609.045 266.127 608.462 266.752 607.879 267.418C605.881 269.749 604.216 272.246 602.884 274.91C599.762 281.279 598.513 288.397 599.138 295.265C599.388 297.846 599.929 300.344 600.761 302.758C600.761 302.758 600.761 302.799 600.761 302.883C602.26 307.378 604.632 311.749 607.879 315.62C608.462 316.286 609.045 316.911 609.627 317.493C618.993 326.734 631.98 329.981 643.968 327.358C648.963 326.11 653.834 323.862 658.079 320.615C659.328 319.699 660.535 318.659 661.701 317.493C669.068 310.126 672.565 300.385 672.44 290.645Z" fill="url(#paint40_linear_186_4063)"/>
<path d="M661.576 317.494C647.34 331.854 623.988 331.854 609.628 317.494C595.392 303.133 595.392 279.781 609.628 265.545C623.988 251.184 647.34 251.184 661.576 265.545C675.937 279.781 675.937 303.133 661.576 317.494Z" fill="#C7B299"/>
<path d="M661.576 317.494C647.34 331.854 623.988 331.854 609.628 317.494C595.392 303.133 595.392 279.781 609.628 265.545C623.988 251.184 647.34 251.184 661.576 265.545C675.937 279.781 675.937 303.133 661.576 317.494Z" fill="#F2F2F2"/>
<path d="M700.163 282.153C698.29 269.79 693.045 258.302 684.928 248.936L690.547 246.813L667.32 239.445L678.684 261.049L679.683 255.679C686.177 263.546 690.298 273.162 691.796 283.402C693.919 298.387 690.048 313.372 681.057 325.485L687.8 330.48C698.165 316.619 702.535 299.386 700.163 282.153Z" fill="#F2F2F2"/>
<path d="M655.457 288.772C655.457 288.689 655.457 288.647 655.457 288.647C654.583 285.9 653.084 283.153 651.086 280.655L655.831 275.785L652.585 272.663L647.839 277.408C645.592 275.785 643.469 274.661 641.221 274.286C639.348 273.912 637.475 274.162 635.726 274.911C634.811 275.41 633.936 276.076 633.104 276.909C627.36 282.653 631.98 289.022 634.727 294.392C634.894 294.725 635.06 295.016 635.227 295.266C636.601 298.013 637.225 300.51 635.352 302.384C633.354 304.382 630.357 303.757 627.36 300.76C626.361 299.761 625.362 298.388 624.612 297.014C624.363 296.431 624.113 295.848 623.863 295.266C622.989 293.143 622.489 290.77 622.365 288.273L616.745 290.146C616.828 291.894 617.12 293.601 617.619 295.266C617.952 296.348 618.369 297.389 618.868 298.388C619.617 300.136 620.616 301.884 621.865 303.258L616.745 308.503L619.992 311.749L625.237 306.505C630.357 310.625 636.226 311.125 640.347 307.004C643.594 303.757 643.593 300.386 642.47 297.014C642.22 296.181 641.887 295.349 641.471 294.516C641.221 293.934 640.971 293.351 640.721 292.768C638.349 288.273 635.477 284.152 638.349 281.28C639.722 279.906 641.845 280.156 643.968 281.654C644.384 281.987 644.801 282.362 645.217 282.778C646.84 284.401 648.464 287.024 649.712 290.396C649.962 291.145 650.17 291.936 650.337 292.768L655.956 290.77C655.873 290.104 655.707 289.438 655.457 288.772Z" fill="url(#paint41_linear_186_4063)"/>
<path d="M231.877 28.7796H227.381V25.1582H231.877V28.7796Z" fill="white"/>
<path d="M218.64 28.7796H209.774V25.1582H218.64V28.7796ZM200.907 28.7796H192.041V25.2831H200.907V28.7796ZM183.3 28.7796H174.434V25.2831H183.3V28.7796ZM165.567 28.7796H156.701V25.1582H165.567V28.7796Z" fill="white"/>
<path d="M145.212 31.402H141.716V26.9065C141.716 26.0324 142.465 25.1582 143.464 25.1582H147.96V28.7796H145.212V31.402Z" fill="white"/>
<path d="M145.213 47.6365H141.716V39.5195H145.213V47.6365Z" fill="white"/>
<path d="M145.213 60.2486H141.716V55.8779H145.213V60.2486Z" fill="white"/>
<path d="M267.217 50.2589H228.63C225.383 50.2589 222.886 47.6364 222.886 44.5145V5.80287C222.886 2.68097 225.383 0.0585938 228.63 0.0585938H267.217C270.464 0.0585938 273.086 2.68097 273.086 5.80287V44.5145C273.086 47.6364 270.464 50.2589 267.217 50.2589Z" fill="url(#paint42_linear_186_4063)"/>
<path d="M247.737 26.0336L238.871 28.5311C237.996 28.7809 237.122 28.2813 236.997 27.4072L234.375 18.1664C234.125 17.4172 234.625 16.543 235.374 16.2933L244.365 13.7957C245.114 13.546 245.989 14.0454 246.238 14.9196L248.861 24.1605C248.986 24.9097 248.611 25.7839 247.737 26.0336Z" fill="#2FC8FF"/>
<path d="M252.232 34.401L242.366 31.6537C241.742 31.5288 241.492 31.0293 241.617 30.5298L244.489 20.165C244.614 19.6655 245.114 19.2909 245.738 19.4158L255.603 22.1631C256.103 22.4129 256.477 22.9124 256.353 23.4119L253.48 33.7766C253.356 34.2761 252.731 34.6507 252.232 34.401Z" fill="#0507CE"/>
<path d="M249.11 25.6589L242.242 20.0394C241.493 19.5399 241.368 18.416 241.992 17.6668L247.736 10.424C248.361 9.6747 249.36 9.5498 250.109 10.1742L257.102 15.6688C257.851 16.2932 257.976 17.417 257.352 18.1663L251.608 25.4091C250.983 26.1584 249.859 26.2833 249.11 25.6589Z" fill="#4DA8E2"/>
<path d="M267.467 15.4199H260.724C260.224 15.4199 259.85 15.7945 259.725 16.1691L258.975 19.416L255.853 32.7778C255.604 33.7768 254.855 34.4011 253.856 34.4011H237.746C236.872 34.4011 236.123 33.7768 235.873 32.7778L235.499 31.4041H252.357C252.981 31.4041 253.481 30.9046 253.481 30.4051C253.481 29.7807 252.981 29.2812 252.357 29.2812H234.999L234.25 26.1593H244.615C245.239 26.1593 245.614 25.7846 245.614 25.1603C245.614 24.5359 245.239 24.1613 244.615 24.1613H233.875L233.001 20.6647H255.729C256.353 20.6647 256.728 20.1652 256.728 19.5408C256.728 19.0413 256.353 18.5418 255.729 18.5418H231.752C231.378 18.5418 231.128 18.6667 230.878 18.9164C230.753 19.1662 230.629 19.5408 230.753 19.7906L233.875 33.2772C234.375 35.1504 235.873 36.524 237.746 36.524H253.856C255.729 36.524 257.352 35.1504 257.852 33.2772L260.973 19.7906L261.473 17.4179H267.467C268.091 17.4179 268.466 17.0433 268.466 16.4189C268.466 15.9194 268.091 15.4199 267.467 15.4199Z" fill="white"/>
<path d="M240.993 38.3965C240.993 39.6453 240.119 40.5193 238.995 40.5193C237.746 40.5193 236.872 39.6453 236.872 38.3965C236.872 37.2726 237.746 36.3984 238.995 36.3984C240.119 36.3984 240.993 37.2726 240.993 38.3965Z" fill="white"/>
<path d="M254.98 38.3965C254.98 39.6453 254.106 40.5193 252.982 40.5193C251.733 40.5193 250.859 39.6453 250.859 38.3965C250.859 37.2726 251.733 36.3984 252.982 36.3984C254.106 36.3984 254.98 37.2726 254.98 38.3965Z" fill="white"/>
<path opacity="0.1" d="M321.038 315.746H315.544L317.292 320.991H277.456L279.329 315.746H270.338H321.038Z" fill="black"/>
<defs>
<linearGradient id="paint0_linear_186_4063" x1="105.272" y1="236.818" x2="51.7744" y2="236.818" gradientUnits="userSpaceOnUse">
<stop stop-color="#F49C34"/>
<stop offset="1" stop-color="#FFF06B"/>
</linearGradient>
<linearGradient id="paint1_linear_186_4063" x1="152.726" y1="236.84" x2="99.2158" y2="236.84" gradientUnits="userSpaceOnUse">
<stop stop-color="#F49C34"/>
<stop offset="1" stop-color="#FFF06B"/>
</linearGradient>
<linearGradient id="paint2_linear_186_4063" x1="131" y1="334.858" x2="84.9999" y2="275.911" gradientUnits="userSpaceOnUse">
<stop stop-color="#F49C34"/>
<stop offset="1" stop-color="#FFF06B"/>
</linearGradient>
<linearGradient id="paint3_linear_186_4063" x1="177" y1="262.549" x2="34.3228" y2="262.549" gradientUnits="userSpaceOnUse">
<stop stop-color="#F49C34"/>
<stop offset="1" stop-color="#FFF06B"/>
</linearGradient>
<linearGradient id="paint4_linear_186_4063" x1="626.73" y1="81.5238" x2="595.632" y2="168.977" gradientUnits="userSpaceOnUse">
<stop stop-color="#D35D99"/>
<stop offset="1" stop-color="#390A98"/>
</linearGradient>
<linearGradient id="paint5_linear_186_4063" x1="82.3916" y1="264.634" x2="43.8125" y2="264.634" gradientUnits="userSpaceOnUse">
<stop stop-color="#41A551"/>
<stop offset="1" stop-color="#5AD86E"/>
</linearGradient>
<linearGradient id="paint6_linear_186_4063" x1="46.7645" y1="264.634" x2="8.24463" y2="264.634" gradientUnits="userSpaceOnUse">
<stop stop-color="#41A551"/>
<stop offset="1" stop-color="#5AD86E"/>
</linearGradient>
<linearGradient id="paint7_linear_186_4063" x1="93.8374" y1="210.788" x2="0.792968" y2="210.788" gradientUnits="userSpaceOnUse">
<stop stop-color="#58C469"/>
<stop offset="1" stop-color="#85FF98"/>
</linearGradient>
<linearGradient id="paint8_linear_186_4063" x1="75.928" y1="210.787" x2="16.1523" y2="210.787" gradientUnits="userSpaceOnUse">
<stop stop-color="#58C469"/>
<stop offset="1" stop-color="#85FF98"/>
</linearGradient>
<linearGradient id="paint9_linear_186_4063" x1="147.816" y1="277.08" x2="447.031" y2="277.08" gradientUnits="userSpaceOnUse">
<stop stop-color="#2228A8"/>
<stop offset="0.497" stop-color="#18AED5"/>
<stop offset="1" stop-color="#2261B7"/>
</linearGradient>
<linearGradient id="paint10_linear_186_4063" x1="271.98" y1="315.717" x2="322.855" y2="315.717" gradientUnits="userSpaceOnUse">
<stop stop-color="#2228A8"/>
<stop offset="0.533" stop-color="#00A2E4"/>
<stop offset="1" stop-color="#2261B7"/>
</linearGradient>
<linearGradient id="paint11_linear_186_4063" x1="211.784" y1="337.041" x2="383.064" y2="337.041" gradientUnits="userSpaceOnUse">
<stop stop-color="#2228A8"/>
<stop offset="0.533" stop-color="#2172D6"/>
<stop offset="1" stop-color="#0035A6"/>
</linearGradient>
<linearGradient id="paint12_linear_186_4063" x1="147.823" y1="106.707" x2="447.023" y2="106.707" gradientUnits="userSpaceOnUse">
<stop stop-color="#2228A8"/>
<stop offset="0.533" stop-color="#18AED5"/>
<stop offset="1" stop-color="#2261B7"/>
</linearGradient>
<linearGradient id="paint13_linear_186_4063" x1="160.942" y1="143.617" x2="192.9" y2="143.617" gradientUnits="userSpaceOnUse">
<stop stop-color="#0A59CD"/>
<stop offset="1" stop-color="#8671E0"/>
</linearGradient>
<linearGradient id="paint14_linear_186_4063" x1="204.711" y1="154.472" x2="226.248" y2="154.472" gradientUnits="userSpaceOnUse">
<stop stop-color="#0A59CD"/>
<stop offset="1" stop-color="#8671E0"/>
</linearGradient>
<linearGradient id="paint15_linear_186_4063" x1="204.711" y1="171.147" x2="226.248" y2="171.147" gradientUnits="userSpaceOnUse">
<stop stop-color="#0A59CD"/>
<stop offset="1" stop-color="#8671E0"/>
</linearGradient>
<linearGradient id="paint16_linear_186_4063" x1="204.711" y1="161.247" x2="234.585" y2="161.247" gradientUnits="userSpaceOnUse">
<stop stop-color="#0A59CD"/>
<stop offset="1" stop-color="#8671E0"/>
</linearGradient>
<linearGradient id="paint17_linear_186_4063" x1="283.913" y1="159.249" x2="295.03" y2="159.249" gradientUnits="userSpaceOnUse">
<stop stop-color="#0A59CD"/>
<stop offset="1" stop-color="#8671E0"/>
</linearGradient>
<linearGradient id="paint18_linear_186_4063" x1="328.899" y1="159.249" x2="340.016" y2="159.249" gradientUnits="userSpaceOnUse">
<stop stop-color="#0A59CD"/>
<stop offset="1" stop-color="#8671E0"/>
</linearGradient>
<linearGradient id="paint19_linear_186_4063" x1="396.29" y1="159.249" x2="407.406" y2="159.249" gradientUnits="userSpaceOnUse">
<stop stop-color="#0A59CD"/>
<stop offset="1" stop-color="#8671E0"/>
</linearGradient>
<linearGradient id="paint20_linear_186_4063" x1="352.347" y1="159.249" x2="363.464" y2="159.249" gradientUnits="userSpaceOnUse">
<stop stop-color="#0A59CD"/>
<stop offset="1" stop-color="#8671E0"/>
</linearGradient>
<linearGradient id="paint21_linear_186_4063" x1="160.942" y1="211.032" x2="192.9" y2="211.032" gradientUnits="userSpaceOnUse">
<stop stop-color="#0A59CD"/>
<stop offset="1" stop-color="#8671E0"/>
</linearGradient>
<linearGradient id="paint22_linear_186_4063" x1="419.911" y1="211.032" x2="422.169" y2="211.032" gradientUnits="userSpaceOnUse">
<stop stop-color="#0A59CD"/>
<stop offset="1" stop-color="#8671E0"/>
</linearGradient>
<linearGradient id="paint23_linear_186_4063" x1="431.214" y1="227.631" x2="440.395" y2="227.631" gradientUnits="userSpaceOnUse">
<stop stop-color="#0A59CD"/>
<stop offset="1" stop-color="#8671E0"/>
</linearGradient>
<linearGradient id="paint24_linear_186_4063" x1="204.711" y1="221.887" x2="226.248" y2="221.887" gradientUnits="userSpaceOnUse">
<stop stop-color="#0A59CD"/>
<stop offset="1" stop-color="#8671E0"/>
</linearGradient>
<linearGradient id="paint25_linear_186_4063" x1="204.711" y1="238.562" x2="226.248" y2="238.562" gradientUnits="userSpaceOnUse">
<stop stop-color="#0A59CD"/>
<stop offset="1" stop-color="#8671E0"/>
</linearGradient>
<linearGradient id="paint26_linear_186_4063" x1="204.711" y1="228.662" x2="234.585" y2="228.662" gradientUnits="userSpaceOnUse">
<stop stop-color="#0A59CD"/>
<stop offset="1" stop-color="#8671E0"/>
</linearGradient>
<linearGradient id="paint27_linear_186_4063" x1="283.913" y1="226.664" x2="295.03" y2="226.664" gradientUnits="userSpaceOnUse">
<stop stop-color="#0A59CD"/>
<stop offset="1" stop-color="#8671E0"/>
</linearGradient>
<linearGradient id="paint28_linear_186_4063" x1="328.899" y1="226.664" x2="340.016" y2="226.664" gradientUnits="userSpaceOnUse">
<stop stop-color="#0A59CD"/>
<stop offset="1" stop-color="#8671E0"/>
</linearGradient>
<linearGradient id="paint29_linear_186_4063" x1="352.347" y1="226.664" x2="363.464" y2="226.664" gradientUnits="userSpaceOnUse">
<stop stop-color="#0A59CD"/>
<stop offset="1" stop-color="#8671E0"/>
</linearGradient>
<linearGradient id="paint30_linear_186_4063" x1="509.695" y1="336.528" x2="517.95" y2="336.528" gradientUnits="userSpaceOnUse">
<stop stop-color="#0757B4"/>
<stop offset="1" stop-color="#1861E7"/>
</linearGradient>
<linearGradient id="paint31_linear_186_4063" x1="330.697" y1="130.681" x2="279.483" y2="275.276" gradientUnits="userSpaceOnUse">
<stop stop-color="#D35D99"/>
<stop offset="1" stop-color="#390A98"/>
</linearGradient>
<linearGradient id="paint32_linear_186_4063" x1="329.64" y1="158.943" x2="303.902" y2="264.079" gradientUnits="userSpaceOnUse">
<stop stop-color="#D35D99"/>
<stop offset="1" stop-color="#390A98"/>
</linearGradient>
<linearGradient id="paint33_linear_186_4063" x1="130.238" y1="105.006" x2="109.326" y2="163.743" gradientUnits="userSpaceOnUse">
<stop stop-color="#D35D99"/>
<stop offset="1" stop-color="#390A98"/>
</linearGradient>
<linearGradient id="paint34_linear_186_4063" x1="392.504" y1="97.4827" x2="392.504" y2="137.913" gradientUnits="userSpaceOnUse">
<stop stop-color="#E84601"/>
<stop offset="1" stop-color="#FF9C40"/>
</linearGradient>
<linearGradient id="paint35_linear_186_4063" x1="717.859" y1="238.334" x2="714.595" y2="269.055" gradientUnits="userSpaceOnUse">
<stop stop-color="#D35D99"/>
<stop offset="1" stop-color="#390A98"/>
</linearGradient>
<linearGradient id="paint36_linear_186_4063" x1="706.678" y1="262.692" x2="704.749" y2="284.701" gradientUnits="userSpaceOnUse">
<stop stop-color="#D35D99"/>
<stop offset="1" stop-color="#390A98"/>
</linearGradient>
<linearGradient id="paint37_linear_186_4063" x1="715.837" y1="283.047" x2="714.153" y2="305.097" gradientUnits="userSpaceOnUse">
<stop stop-color="#D35D99"/>
<stop offset="1" stop-color="#390A98"/>
</linearGradient>
<linearGradient id="paint38_linear_186_4063" x1="700.775" y1="303.401" x2="698.653" y2="325.375" gradientUnits="userSpaceOnUse">
<stop stop-color="#D35D99"/>
<stop offset="1" stop-color="#390A98"/>
</linearGradient>
<linearGradient id="paint39_linear_186_4063" x1="718.519" y1="323.756" x2="716.892" y2="345.814" gradientUnits="userSpaceOnUse">
<stop stop-color="#D35D99"/>
<stop offset="1" stop-color="#390A98"/>
</linearGradient>
<linearGradient id="paint40_linear_186_4063" x1="747.768" y1="282.523" x2="717.104" y2="368.622" gradientUnits="userSpaceOnUse">
<stop stop-color="#D35D99"/>
<stop offset="1" stop-color="#390A98"/>
</linearGradient>
<linearGradient id="paint41_linear_186_4063" x1="685.701" y1="288.285" x2="672.275" y2="326.108" gradientUnits="userSpaceOnUse">
<stop stop-color="#D35D99"/>
<stop offset="1" stop-color="#390A98"/>
</linearGradient>
<linearGradient id="paint42_linear_186_4063" x1="246.209" y1="-27.2256" x2="298.629" y2="26.1278" gradientUnits="userSpaceOnUse">
<stop stop-color="#0A59CD"/>
<stop offset="1" stop-color="#00AFE0"/>
</linearGradient>
</defs>
</svg>
